#N canvas 0 15 589 693 10;
#X obj 80 -3 r OSC;
#X text 176 23 CHANGE;
#X obj 235 63 OSCroute /delay /attack /decay /sustain /release;
#X obj 80 64 OSCroute /vel;
#X obj 392 137 +;
#X obj 250 146 pack f f f f f f;
#X obj 390 116 t b f;
#X obj 123 173 sqrt;
#X obj 123 151 sqrt;
#X obj 454 175 sqrt;
#X obj 454 153 sqrt;
#X obj 80 240 pack f f;
#X obj 80 106 moses 1;
#X obj 123 128 / 127;
#X obj 79 263 outlet;
#X obj 344 264 outlet;
#X obj 343 234 pipe;
#X msg 308 234 1;
#X obj 235 42 OSCroute \$2;
#X obj 123 196 t b f;
#X msg 250 173 \$1 \$3 \$2 \, \$5 \$4 \$6;
#X obj 82 85 t f b;
#X msg 31 240 stop;
#X msg 344 207 clear;
#X obj 80 42 OSCroute \$1 \$3;
#X obj 283 117 max 10;
#X obj 332 120 max 10;
#X obj 499 125 max 10;
#X obj 80 18 OSCroute /pm7;
#X obj 251 102 * 3;
#X obj 297 90 * 3;
#X obj 334 100 * 3;
#X obj 441 116 / 1000;
#X obj 498 104 * 3;
#X obj 58 328 print;
#X connect 0 0 28 0;
#X connect 2 0 29 0;
#X connect 2 1 30 0;
#X connect 2 2 31 0;
#X connect 2 3 32 0;
#X connect 2 4 33 0;
#X connect 3 0 21 0;
#X connect 4 0 5 5;
#X connect 5 0 20 0;
#X connect 6 0 4 0;
#X connect 6 1 4 1;
#X connect 7 0 19 0;
#X connect 8 0 7 0;
#X connect 9 0 5 4;
#X connect 10 0 9 0;
#X connect 11 0 14 0;
#X connect 12 0 11 0;
#X connect 12 0 16 0;
#X connect 12 1 13 0;
#X connect 12 1 17 0;
#X connect 12 1 23 0;
#X connect 13 0 8 0;
#X connect 16 0 15 0;
#X connect 17 0 15 0;
#X connect 18 0 2 0;
#X connect 19 1 5 0;
#X connect 20 0 14 0;
#X connect 21 0 12 0;
#X connect 21 1 22 0;
#X connect 22 0 14 0;
#X connect 23 0 16 0;
#X connect 24 0 3 0;
#X connect 25 0 5 2;
#X connect 25 0 6 0;
#X connect 26 0 5 3;
#X connect 27 0 16 1;
#X connect 27 0 11 1;
#X connect 28 0 24 0;
#X connect 28 0 18 0;
#X connect 29 0 5 1;
#X connect 29 0 4 0;
#X connect 30 0 25 0;
#X connect 31 0 26 0;
#X connect 32 0 10 0;
#X connect 33 0 27 0;
