#N canvas 188 164 733 368 10;
#X obj 132 115 phasor~;
#X obj 132 95 sig~;
#X obj 132 74 *;
#X obj 133 164 +~;
#X obj 159 139 inlet~;
#X obj 131 303 outlet~;
#X obj 132 185 cos~;
#X obj 192 101 t b f;
#X obj 271 44 OSCroute /fm;
#X obj 271 86 OSCroute /relfreq;
#X obj 272 20 r OSC;
#X obj 132 21 OSCroute /note;
#X obj 132 47 mtof;
#X obj 132 -1 OSCroute \$1;
#X obj 213 185 vline~;
#X obj 129 224 *~;
#X obj 267 247 switch~;
#X obj 271 65 OSCroute \$2 /matrix;
#X obj 336 106 OSCroute \$2;
#N canvas 0 0 450 300 if 0;
#X obj 121 115 route /op1 /op2 /op3 /op4 /op5 /op6 /main;
#X obj 321 160 ||;
#X obj 354 137 t b f;
#X obj 241 160 ||;
#X obj 263 138 t b f;
#X obj 241 210 ||;
#X obj 250 185 t b f;
#X obj 161 170 ||;
#X obj 161 148 t b f;
#X obj 141 220 ||;
#X obj 143 198 t b f;
#X obj 191 210 ||;
#X obj 191 188 t b f;
#X obj 121 7 inlet;
#X obj 140 252 outlet;
#X obj 122 28 list;
#X obj 124 51 unpack s f;
#X obj 186 72 > 0;
#X obj 124 94 list trim;
#X obj 125 73 pack s f;
#X connect 0 0 9 0;
#X connect 0 1 8 0;
#X connect 0 2 7 0;
#X connect 0 3 3 0;
#X connect 0 4 4 0;
#X connect 0 5 1 0;
#X connect 0 6 2 0;
#X connect 1 0 6 0;
#X connect 2 0 1 0;
#X connect 2 1 1 1;
#X connect 3 0 5 0;
#X connect 4 0 3 0;
#X connect 4 1 3 1;
#X connect 5 0 12 0;
#X connect 6 0 5 0;
#X connect 6 1 5 1;
#X connect 7 0 11 0;
#X connect 8 0 7 0;
#X connect 8 1 7 1;
#X connect 9 0 14 0;
#X connect 10 0 9 0;
#X connect 10 1 9 1;
#X connect 11 0 10 0;
#X connect 12 0 11 0;
#X connect 12 1 11 1;
#X connect 13 0 15 0;
#X connect 15 0 16 0;
#X connect 16 0 19 0;
#X connect 16 1 17 0;
#X connect 17 0 19 1;
#X connect 18 0 0 0;
#X connect 19 0 18 0;
#X restore 338 134 pd if;
#X obj 131 272 volctl~ 0 20;
#X obj 340 168 sel 0;
#X obj 340 192 delay 20;
#X msg 339 213 0;
#X obj 204 212 *~;
#X obj 187 240 *~;
#X obj 213 158 dadsr \$1 \$2 /aenv;
#X obj 362 256 outlet;
#X connect 0 0 3 0;
#X connect 1 0 0 0;
#X connect 2 0 1 0;
#X connect 3 0 6 0;
#X connect 4 0 3 1;
#X connect 6 0 15 0;
#X connect 7 0 2 0;
#X connect 7 1 2 1;
#X connect 8 0 13 0;
#X connect 8 0 17 0;
#X connect 9 0 7 0;
#X connect 10 0 8 0;
#X connect 11 0 12 0;
#X connect 12 0 2 0;
#X connect 13 0 11 0;
#X connect 14 0 24 0;
#X connect 14 0 24 1;
#X connect 15 0 20 0;
#X connect 17 0 9 0;
#X connect 17 1 18 0;
#X connect 18 0 19 0;
#X connect 19 0 20 1;
#X connect 19 0 21 0;
#X connect 20 0 5 0;
#X connect 21 0 22 0;
#X connect 21 1 16 0;
#X connect 21 1 27 0;
#X connect 22 0 23 0;
#X connect 23 0 16 0;
#X connect 23 0 27 0;
#X connect 24 0 25 0;
#X connect 24 0 25 1;
#X connect 25 0 15 1;
#X connect 26 0 14 0;
#X connect 26 1 16 0;
#X connect 26 1 27 0;
