#N canvas 345 15 589 693 10;
#X obj 132 95 sig~;
#X obj 132 74 *;
#X obj 145 126 inlet~;
#X obj 129 322 outlet~;
#X obj 188 97 t b f;
#X obj 272 20 r OSC;
#X obj 132 47 mtof;
#X obj 213 185 vline~;
#X obj 127 243 *~;
#X obj 267 247 switch~;
#N canvas 180 207 450 300 if 0;
#X obj 321 190 ||;
#X obj 354 167 t b f;
#X obj 241 190 ||;
#X obj 263 168 t b f;
#X obj 241 240 ||;
#X obj 250 215 t b f;
#X obj 161 200 ||;
#X obj 161 178 t b f;
#X obj 141 250 ||;
#X obj 143 228 t b f;
#X obj 191 240 ||;
#X obj 191 218 t b f;
#X obj 121 7 inlet;
#X obj 140 282 outlet;
#X obj 124 81 unpack s f;
#X obj 186 102 > 0;
#X obj 124 124 list trim;
#X obj 125 103 pack s f;
#X obj 121 145 route /op1 /op2 /op3 /op4 /op5 /op6 /vol;
#X obj 120 27 route 0;
#X obj 123 55 list;
#X connect 0 0 5 0;
#X connect 1 0 0 0;
#X connect 1 1 0 1;
#X connect 2 0 4 0;
#X connect 3 0 2 0;
#X connect 3 1 2 1;
#X connect 4 0 11 0;
#X connect 5 0 4 0;
#X connect 5 1 4 1;
#X connect 6 0 10 0;
#X connect 7 0 6 0;
#X connect 7 1 6 1;
#X connect 8 0 13 0;
#X connect 9 0 8 0;
#X connect 9 1 8 1;
#X connect 10 0 9 0;
#X connect 11 0 10 0;
#X connect 11 1 10 1;
#X connect 12 0 19 0;
#X connect 14 0 17 0;
#X connect 14 1 15 0;
#X connect 15 0 17 1;
#X connect 16 0 18 0;
#X connect 17 0 16 0;
#X connect 18 0 8 0;
#X connect 18 1 7 0;
#X connect 18 2 6 0;
#X connect 18 3 2 0;
#X connect 18 4 3 0;
#X connect 18 5 0 0;
#X connect 18 6 1 0;
#X connect 19 1 20 0;
#X connect 20 0 14 0;
#X restore 338 134 pd if;
#X obj 130 291 volctl~ 0 20;
#X obj 340 168 sel 0;
#X obj 340 192 delay 20;
#X msg 339 213 0;
#X obj 204 212 *~;
#X obj 187 240 *~;
#X obj 362 256 outlet;
#X obj 271 86 OSCroute /relfreq /wave;
#X obj 130 173 +~;
#X obj 131 149 phasor~;
#X obj 128 194 wrap~;
#X obj 297 107 list prepend wave;
#X obj 228 128 list trim;
#X obj 127 215 4osc2~;
#X obj 271 65 OSCroute \$2;
#X obj 188 72 / 62.5;
#X obj 213 158 dadsr2.1 \$1 \$2 /aenv;
#X obj 282 -2 inlet vel;
#X obj 207 2 inlet note;
#X obj 272 44 OSCroute /pm7 /pitch;
#X obj 202 49 *;
#X obj 208 26 t b f;
#X connect 0 0 20 0;
#X connect 1 0 0 0;
#X connect 2 0 19 1;
#X connect 4 0 1 0;
#X connect 4 1 1 1;
#X connect 5 0 30 0;
#X connect 6 0 1 0;
#X connect 7 0 15 0;
#X connect 7 0 15 1;
#X connect 8 0 11 0;
#X connect 10 0 11 1;
#X connect 10 0 12 0;
#X connect 11 0 3 0;
#X connect 12 0 13 0;
#X connect 12 1 9 0;
#X connect 12 1 17 0;
#X connect 13 0 14 0;
#X connect 14 0 9 0;
#X connect 14 0 17 0;
#X connect 15 0 16 0;
#X connect 15 0 16 1;
#X connect 16 0 8 1;
#X connect 18 0 31 0;
#X connect 18 1 22 0;
#X connect 19 0 21 0;
#X connect 20 0 19 0;
#X connect 21 0 24 0;
#X connect 22 0 23 0;
#X connect 23 0 24 1;
#X connect 24 0 8 0;
#X connect 25 0 18 0;
#X connect 25 0 10 0;
#X connect 26 0 4 0;
#X connect 27 0 7 0;
#X connect 27 1 9 0;
#X connect 27 1 17 0;
#X connect 28 0 27 0;
#X connect 29 0 6 0;
#X connect 30 0 25 0;
#X connect 30 1 32 0;
#X connect 31 0 26 0;
#X connect 32 0 31 0;
#X connect 32 1 31 1;
