#N canvas 33 45 450 300 10;
#X obj 127 45 r OSC;
#X obj 125 111 OSCroute \$1;
#X obj 124 132 OSCroute \$2;
#X obj 55 149 inlet~;
#X obj 54 216 outlet~;
#X obj 54 193 volctl~ 0 10;
#X obj 177 192 != 0;
#X obj 200 219 sel 0;
#X msg 200 258 0;
#X obj 200 237 delay 10;
#X obj 199 285 switch~;
#X obj 125 69 OSCroute /pm7;
#X obj 123 156 / 1000;
#X connect 0 0 11 0;
#X connect 1 0 2 0;
#X connect 2 0 12 0;
#X connect 3 0 5 0;
#X connect 5 0 4 0;
#X connect 6 0 7 0;
#X connect 7 0 9 0;
#X connect 7 1 10 0;
#X connect 8 0 10 0;
#X connect 9 0 8 0;
#X connect 11 0 1 0;
#X connect 12 0 5 1;
#X connect 12 0 6 0;
