#N canvas 33 45 546 463 10;
#X obj 127 45 r OSC;
#X obj 125 111 OSCroute \$1;
#X obj 55 149 inlet~;
#X obj 55 270 outlet~;
#X obj 146 270 outlet~;
#X obj 54 193 volctl~ 0 10;
#X obj 104 287 != 0;
#X obj 127 314 sel 0;
#X msg 127 353 0;
#X obj 127 332 delay 10;
#X obj 126 380 switch~;
#X obj 125 69 OSCroute /pm7;
#X obj 124 132 OSCroute /vol /pan;
#X obj 90 168 / 1000;
#X obj 55 234 ../pan~ 0 10;
#X obj 181 183 _j/scale 0 1000 -45 45;
#X connect 0 0 11 0;
#X connect 1 0 12 0;
#X connect 2 0 5 0;
#X connect 5 0 14 0;
#X connect 6 0 7 0;
#X connect 7 0 9 0;
#X connect 7 1 10 0;
#X connect 8 0 10 0;
#X connect 9 0 8 0;
#X connect 11 0 1 0;
#X connect 12 0 13 0;
#X connect 12 1 15 0;
#X connect 13 0 5 1;
#X connect 13 0 6 0;
#X connect 14 0 3 0;
#X connect 14 1 4 0;
#X connect 15 0 14 1;
