#N canvas 12 26 1012 642 10;
#X obj 74 77 omc /op1 /op1;
#X obj 74 98 throw~ \$0-op1;
#X obj 174 98 throw~ \$0-op2;
#X obj 274 98 throw~ \$0-op3;
#X obj 374 98 throw~ \$0-op4;
#X obj 474 98 throw~ \$0-op5;
#X obj 574 98 throw~ \$0-op6;
#X obj 75 125 catch~ \$0-op2;
#X obj 74 188 throw~ \$0-op1;
#X obj 174 188 throw~ \$0-op2;
#X obj 274 188 throw~ \$0-op3;
#X obj 374 188 throw~ \$0-op4;
#X obj 474 188 throw~ \$0-op5;
#X obj 574 188 throw~ \$0-op6;
#X obj 75 215 catch~ \$0-op3;
#X obj 74 278 throw~ \$0-op1;
#X obj 174 278 throw~ \$0-op2;
#X obj 274 278 throw~ \$0-op3;
#X obj 374 278 throw~ \$0-op4;
#X obj 474 278 throw~ \$0-op5;
#X obj 574 278 throw~ \$0-op6;
#X obj 75 305 catch~ \$0-op4;
#X obj 74 368 throw~ \$0-op1;
#X obj 174 368 throw~ \$0-op2;
#X obj 274 368 throw~ \$0-op3;
#X obj 374 368 throw~ \$0-op4;
#X obj 474 368 throw~ \$0-op5;
#X obj 574 368 throw~ \$0-op6;
#X obj 74 458 throw~ \$0-op1;
#X obj 174 458 throw~ \$0-op2;
#X obj 274 458 throw~ \$0-op3;
#X obj 374 458 throw~ \$0-op4;
#X obj 474 458 throw~ \$0-op5;
#X obj 574 458 throw~ \$0-op6;
#X obj 75 485 catch~ \$0-op6;
#X obj 74 548 throw~ \$0-op1;
#X obj 174 548 throw~ \$0-op2;
#X obj 274 548 throw~ \$0-op3;
#X obj 374 548 throw~ \$0-op4;
#X obj 474 548 throw~ \$0-op5;
#X obj 574 548 throw~ \$0-op6;
#X obj 701 94 throw~ mainL;
#X obj 751 114 throw~ mainR;
#X obj 701 188 throw~ mainL;
#X obj 751 208 throw~ mainR;
#X obj 701 278 throw~ mainL;
#X obj 751 298 throw~ mainR;
#X obj 701 368 throw~ mainL;
#X obj 751 388 throw~ mainR;
#X obj 701 458 throw~ mainL;
#X obj 751 478 throw~ mainR;
#X obj 701 548 throw~ mainL;
#X obj 751 568 throw~ mainR;
#X obj 701 168 omv /op2;
#X obj 75 27 catch~ \$0-op1;
#X obj 75 395 catch~ \$0-op5;
#X obj 74 50 fmcell \$1 /op1;
#X obj 174 77 omc /op1 /op2;
#X obj 274 77 omc /op1 /op3;
#X obj 374 77 omc /op1 /op4;
#X obj 474 77 omc /op1 /op5;
#X obj 574 77 omc /op1 /op6;
#X obj 74 167 omc /op2 /op1;
#X obj 174 167 omc /op2 /op2;
#X obj 274 167 omc /op2 /op3;
#X obj 374 167 omc /op2 /op4;
#X obj 474 167 omc /op2 /op5;
#X obj 574 167 omc /op2 /op6;
#X obj 74 257 omc /op3 /op1;
#X obj 174 257 omc /op3 /op2;
#X obj 274 257 omc /op3 /op3;
#X obj 374 257 omc /op3 /op4;
#X obj 474 257 omc /op3 /op5;
#X obj 574 257 omc /op3 /op6;
#X obj 74 347 omc /op4 /op1;
#X obj 174 347 omc /op4 /op2;
#X obj 274 347 omc /op4 /op3;
#X obj 374 347 omc /op4 /op4;
#X obj 474 347 omc /op4 /op5;
#X obj 574 347 omc /op4 /op6;
#X obj 74 437 omc /op5 /op1;
#X obj 174 437 omc /op5 /op2;
#X obj 274 437 omc /op5 /op3;
#X obj 374 437 omc /op5 /op4;
#X obj 474 437 omc /op5 /op5;
#X obj 574 437 omc /op5 /op6;
#X obj 74 527 omc /op6 /op1;
#X obj 174 527 omc /op6 /op2;
#X obj 274 527 omc /op6 /op3;
#X obj 374 527 omc /op6 /op4;
#X obj 474 527 omc /op6 /op5;
#X obj 574 527 omc /op6 /op6;
#X obj 701 74 omv /op1;
#X obj 701 258 omv /op3;
#X obj 701 348 omv /op4;
#X obj 701 438 omv /op5;
#X obj 701 528 omv /op6;
#X obj 74 238 fmcell \$1 /op3;
#X obj 74 148 fmcell \$1 /op2;
#X obj 74 328 fmcell \$1 /op4;
#X obj 74 418 fmcell \$1 /op5;
#X obj 73 508 fmcell \$1 /op6;
#N canvas 0 0 450 300 thisorthat 0;
#X obj 93 39 inlet;
#X obj 103 49 inlet;
#X obj 113 59 inlet;
#X obj 123 69 inlet;
#X obj 133 79 inlet;
#X obj 143 89 inlet;
#X obj 131 151 ||;
#X obj 168 117 t b f;
#X obj 72 130 ||;
#X obj 91 98 t b f;
#X obj 51 81 ||;
#X obj 63 14 t b f;
#X obj 61 171 ||;
#X obj 71 148 t b f;
#X obj 81 221 ||;
#X obj 91 198 t b f;
#X obj 83 275 outlet;
#X obj 135 128 f;
#X obj 71 111 f;
#X obj 59 35 f;
#X obj 64 195 f;
#X connect 0 0 19 0;
#X connect 1 0 11 0;
#X connect 2 0 18 0;
#X connect 3 0 9 0;
#X connect 4 0 17 0;
#X connect 5 0 7 0;
#X connect 6 0 15 0;
#X connect 7 0 17 0;
#X connect 7 1 6 1;
#X connect 8 0 13 0;
#X connect 9 0 18 0;
#X connect 9 1 8 1;
#X connect 10 0 12 0;
#X connect 11 0 19 0;
#X connect 11 1 10 1;
#X connect 12 0 20 0;
#X connect 13 0 12 0;
#X connect 13 1 12 1;
#X connect 14 0 16 0;
#X connect 15 0 20 0;
#X connect 15 1 14 1;
#X connect 17 0 6 0;
#X connect 18 0 8 0;
#X connect 19 0 10 0;
#X connect 20 0 14 0;
#X restore 211 310 pd thisorthat;
#X obj 296 310 switch~;
#X connect 0 0 1 0;
#X connect 7 0 98 0;
#X connect 14 0 97 0;
#X connect 21 0 99 0;
#X connect 34 0 101 0;
#X connect 53 0 43 0;
#X connect 53 1 44 0;
#X connect 54 0 56 0;
#X connect 55 0 100 0;
#X connect 56 0 0 0;
#X connect 56 0 57 0;
#X connect 56 0 58 0;
#X connect 56 0 59 0;
#X connect 56 0 60 0;
#X connect 56 0 61 0;
#X connect 56 0 92 0;
#X connect 56 1 102 0;
#X connect 57 0 2 0;
#X connect 58 0 3 0;
#X connect 59 0 4 0;
#X connect 60 0 5 0;
#X connect 61 0 6 0;
#X connect 62 0 8 0;
#X connect 63 0 9 0;
#X connect 64 0 10 0;
#X connect 65 0 11 0;
#X connect 66 0 12 0;
#X connect 67 0 13 0;
#X connect 68 0 15 0;
#X connect 69 0 16 0;
#X connect 70 0 17 0;
#X connect 71 0 18 0;
#X connect 72 0 19 0;
#X connect 73 0 20 0;
#X connect 74 0 22 0;
#X connect 75 0 23 0;
#X connect 76 0 24 0;
#X connect 77 0 25 0;
#X connect 78 0 26 0;
#X connect 79 0 27 0;
#X connect 80 0 28 0;
#X connect 81 0 29 0;
#X connect 82 0 30 0;
#X connect 83 0 31 0;
#X connect 84 0 32 0;
#X connect 85 0 33 0;
#X connect 86 0 35 0;
#X connect 87 0 36 0;
#X connect 88 0 37 0;
#X connect 89 0 38 0;
#X connect 90 0 39 0;
#X connect 91 0 40 0;
#X connect 92 0 41 0;
#X connect 92 1 42 0;
#X connect 93 0 45 0;
#X connect 93 1 46 0;
#X connect 94 0 47 0;
#X connect 94 1 48 0;
#X connect 95 0 49 0;
#X connect 95 1 50 0;
#X connect 96 0 51 0;
#X connect 96 1 52 0;
#X connect 97 0 68 0;
#X connect 97 0 69 0;
#X connect 97 0 70 0;
#X connect 97 0 71 0;
#X connect 97 0 72 0;
#X connect 97 0 73 0;
#X connect 97 0 93 0;
#X connect 97 1 102 2;
#X connect 98 0 53 0;
#X connect 98 0 62 0;
#X connect 98 0 63 0;
#X connect 98 0 64 0;
#X connect 98 0 65 0;
#X connect 98 0 66 0;
#X connect 98 0 67 0;
#X connect 98 1 102 1;
#X connect 99 0 74 0;
#X connect 99 0 75 0;
#X connect 99 0 76 0;
#X connect 99 0 77 0;
#X connect 99 0 78 0;
#X connect 99 0 79 0;
#X connect 99 0 94 0;
#X connect 99 1 102 3;
#X connect 100 0 80 0;
#X connect 100 0 81 0;
#X connect 100 0 82 0;
#X connect 100 0 83 0;
#X connect 100 0 84 0;
#X connect 100 0 85 0;
#X connect 100 0 95 0;
#X connect 100 1 102 4;
#X connect 101 0 86 0;
#X connect 101 0 87 0;
#X connect 101 0 88 0;
#X connect 101 0 89 0;
#X connect 101 0 90 0;
#X connect 101 0 91 0;
#X connect 101 0 96 0;
#X connect 101 1 102 5;
#X connect 102 0 103 0;
