#N canvas 209 15 790 688 10;
#X obj 74 77 omc /op1 /op1;
#X obj 74 98 throw~ \$0-op1;
#X obj 191 127 catch~ \$0-op2;
#X obj 184 188 throw~ \$0-op1;
#X obj 284 188 throw~ \$0-op2;
#X obj 395 254 catch~ \$0-op3;
#X obj 394 317 throw~ \$0-op1;
#X obj 494 317 throw~ \$0-op2;
#X obj 594 317 throw~ \$0-op3;
#X obj 75 27 catch~ \$0-op1;
#N canvas 0 0 450 300 thisorthat 0;
#X obj 93 39 inlet;
#X obj 103 49 inlet;
#X obj 113 59 inlet;
#X obj 123 69 inlet;
#X obj 133 79 inlet;
#X obj 143 89 inlet;
#X obj 131 151 ||;
#X obj 168 117 t b f;
#X obj 72 130 ||;
#X obj 91 98 t b f;
#X obj 51 81 ||;
#X obj 63 14 t b f;
#X obj 61 171 ||;
#X obj 71 148 t b f;
#X obj 81 221 ||;
#X obj 91 198 t b f;
#X obj 83 275 outlet;
#X obj 135 128 f;
#X obj 71 111 f;
#X obj 59 35 f;
#X obj 64 195 f;
#X connect 0 0 19 0;
#X connect 1 0 11 0;
#X connect 2 0 18 0;
#X connect 3 0 9 0;
#X connect 4 0 17 0;
#X connect 5 0 7 0;
#X connect 6 0 15 0;
#X connect 7 0 17 0;
#X connect 7 1 6 1;
#X connect 8 0 13 0;
#X connect 9 0 18 0;
#X connect 9 1 8 1;
#X connect 10 0 12 0;
#X connect 11 0 19 0;
#X connect 11 1 10 1;
#X connect 12 0 20 0;
#X connect 13 0 12 0;
#X connect 13 1 12 1;
#X connect 14 0 16 0;
#X connect 15 0 20 0;
#X connect 15 1 14 1;
#X connect 17 0 6 0;
#X connect 18 0 8 0;
#X connect 19 0 10 0;
#X connect 20 0 14 0;
#X restore 531 349 pd thisorthat;
#X obj 616 349 switch~;
#X obj 174 77 omc /op1 /op2;
#X obj 274 77 omc /op1 /op3;
#X obj 184 167 omc /op2 /op1;
#X obj 284 167 omc /op2 /op2;
#X obj 384 167 omc /op2 /op3;
#X obj 394 296 omc /op3 /op1;
#X obj 494 296 omc /op3 /op2;
#X obj 594 296 omc /op3 /op3;
#X obj 576 232 omv /op3;
#X obj 666 172 outlet~;
#X obj 749 220 outlet~;
#X obj 112 0 unpack f f;
#X obj 112 -21 inlet note/vel;
#X obj 393 277 fmcell2.1 \$1 /op3;
#X obj 366 48 omv /op1;
#X obj 476 142 omv /op2;
#X obj 74 50 fmcell2.1 \$1 /op1;
#X obj 184 148 fmcell2.1 \$1 /op2;
#X connect 0 0 1 0;
#X connect 2 0 29 0;
#X connect 5 0 25 0;
#X connect 9 0 28 0;
#X connect 10 0 11 0;
#X connect 12 0 29 0;
#X connect 13 0 25 0;
#X connect 14 0 3 0;
#X connect 15 0 4 0;
#X connect 16 0 25 0;
#X connect 17 0 6 0;
#X connect 18 0 7 0;
#X connect 19 0 8 0;
#X connect 20 0 22 0;
#X connect 20 1 21 0;
#X connect 23 0 25 1;
#X connect 23 0 28 1;
#X connect 23 0 29 1;
#X connect 23 1 25 2;
#X connect 23 1 28 2;
#X connect 23 1 29 2;
#X connect 24 0 23 0;
#X connect 25 0 17 0;
#X connect 25 0 18 0;
#X connect 25 0 19 0;
#X connect 25 0 20 0;
#X connect 25 1 10 2;
#X connect 26 0 22 0;
#X connect 26 1 21 0;
#X connect 27 0 22 0;
#X connect 27 1 21 0;
#X connect 28 0 0 0;
#X connect 28 0 12 0;
#X connect 28 0 13 0;
#X connect 28 0 26 0;
#X connect 28 1 10 0;
#X connect 29 0 14 0;
#X connect 29 0 15 0;
#X connect 29 0 16 0;
#X connect 29 0 27 0;
#X connect 29 1 10 1;
