#N canvas 0 0 1012 642 10;
#X obj 74 77 omc /op1 /op1;
#X obj 74 98 throw~ \$0-op1;
#X obj 174 98 throw~ \$0-op2;
#X obj 274 98 throw~ \$0-op3;
#X obj 75 125 catch~ \$0-op2;
#X obj 74 188 throw~ \$0-op1;
#X obj 174 188 throw~ \$0-op2;
#X obj 274 188 throw~ \$0-op3;
#X obj 75 215 catch~ \$0-op3;
#X obj 74 278 throw~ \$0-op1;
#X obj 174 278 throw~ \$0-op2;
#X obj 274 278 throw~ \$0-op3;
#X obj 366 68 throw~ mainL;
#X obj 416 88 throw~ mainR;
#X obj 366 162 throw~ mainL;
#X obj 416 182 throw~ mainR;
#X obj 366 252 throw~ mainL;
#X obj 416 272 throw~ mainR;
#X obj 75 27 catch~ \$0-op1;
#X obj 366 48 omv /op1;
#N canvas 0 0 450 300 thisorthat 0;
#X obj 93 39 inlet;
#X obj 103 49 inlet;
#X obj 113 59 inlet;
#X obj 123 69 inlet;
#X obj 133 79 inlet;
#X obj 143 89 inlet;
#X obj 131 151 ||;
#X obj 168 117 t b f;
#X obj 72 130 ||;
#X obj 91 98 t b f;
#X obj 51 81 ||;
#X obj 63 14 t b f;
#X obj 61 171 ||;
#X obj 71 148 t b f;
#X obj 81 221 ||;
#X obj 91 198 t b f;
#X obj 83 275 outlet;
#X obj 135 128 f;
#X obj 71 111 f;
#X obj 59 35 f;
#X obj 64 195 f;
#X connect 0 0 19 0;
#X connect 1 0 11 0;
#X connect 2 0 18 0;
#X connect 3 0 9 0;
#X connect 4 0 17 0;
#X connect 5 0 7 0;
#X connect 6 0 15 0;
#X connect 7 0 17 0;
#X connect 7 1 6 1;
#X connect 8 0 13 0;
#X connect 9 0 18 0;
#X connect 9 1 8 1;
#X connect 10 0 12 0;
#X connect 11 0 19 0;
#X connect 11 1 10 1;
#X connect 12 0 20 0;
#X connect 13 0 12 0;
#X connect 13 1 12 1;
#X connect 14 0 16 0;
#X connect 15 0 20 0;
#X connect 15 1 14 1;
#X connect 17 0 6 0;
#X connect 18 0 8 0;
#X connect 19 0 10 0;
#X connect 20 0 14 0;
#X restore 211 310 pd thisorthat;
#X obj 296 310 switch~;
#X obj 74 50 fmcell2 \$1 /op1;
#X obj 174 77 omc /op1 /op2;
#X obj 274 77 omc /op1 /op3;
#X obj 74 167 omc /op2 /op1;
#X obj 174 167 omc /op2 /op2;
#X obj 274 167 omc /op2 /op3;
#X obj 74 257 omc /op3 /op1;
#X obj 174 257 omc /op3 /op2;
#X obj 274 257 omc /op3 /op3;
#X obj 74 148 fmcell2 \$1 /op2;
#X obj 73 238 fmcell2 \$1 /op3;
#X obj 366 142 omv /op2;
#X obj 366 232 omv /op3;
#X connect 0 0 1 0;
#X connect 4 0 31 0;
#X connect 8 0 32 0;
#X connect 18 0 22 0;
#X connect 19 0 12 0;
#X connect 19 1 13 0;
#X connect 20 0 21 0;
#X connect 22 0 0 0;
#X connect 22 0 19 0;
#X connect 22 0 23 0;
#X connect 22 0 24 0;
#X connect 22 1 20 0;
#X connect 23 0 2 0;
#X connect 24 0 3 0;
#X connect 25 0 5 0;
#X connect 26 0 6 0;
#X connect 27 0 7 0;
#X connect 28 0 9 0;
#X connect 29 0 10 0;
#X connect 30 0 11 0;
#X connect 31 0 25 0;
#X connect 31 0 26 0;
#X connect 31 0 27 0;
#X connect 31 0 33 0;
#X connect 31 1 20 1;
#X connect 32 0 28 0;
#X connect 32 0 29 0;
#X connect 32 0 30 0;
#X connect 32 0 34 0;
#X connect 32 1 20 2;
#X connect 33 0 14 0;
#X connect 33 1 15 0;
#X connect 34 0 16 0;
#X connect 34 1 17 0;
