#N canvas 0 15 610 716 10;
#X obj 321 221 tabread \$0-arp;
#X msg 138 34 \$2 \$1;
#X obj 192 70 route 0 1;
#X text 300 89 add;
#X obj 321 131 0;
#X obj 302 108 t f b f;
#X obj 321 243 sel 0;
#X obj 454 272 sel 24;
#X obj 246 381 tabwrite \$0-arp;
#X obj 321 198 t f f;
#X obj 321 274 f;
#X obj 348 335 f;
#X obj 429 272 f;
#X obj 449 126 bang;
#X obj 348 377 t f f;
#N canvas 0 15 610 716 shift 0;
#X obj 77 566 tabread \$0-arp;
#X obj 77 607 tabwrite \$0-arp;
#X obj 79 544 t f f;
#X obj 49 587 t b f;
#X obj 82 519 - 1;
#X obj 80 472 mod 24;
#X obj 80 495 sel 0;
#X obj 79 357 t b b f;
#X obj 79 380 0;
#X obj 80 337 inlet;
#X obj 79 400 f;
#X obj 80 443 t f f;
#X obj 79 420 - 1;
#X obj 124 397 arraysize \$0-arp;
#X obj 161 588 + 1;
#X connect 0 0 3 0;
#X connect 2 0 0 0;
#X connect 2 1 14 0;
#X connect 3 0 10 0;
#X connect 3 1 1 0;
#X connect 4 0 2 0;
#X connect 5 0 6 0;
#X connect 6 1 4 0;
#X connect 7 0 8 0;
#X connect 7 1 13 0;
#X connect 7 2 6 1;
#X connect 8 0 10 0;
#X connect 9 0 7 0;
#X connect 10 0 12 0;
#X connect 11 0 5 0;
#X connect 11 1 10 1;
#X connect 12 0 11 0;
#X connect 13 0 5 1;
#X connect 14 0 1 1;
#X restore 375 414 pd shift;
#X obj 348 264 t f f f;
#X obj 348 309 sel 0 1;
#X obj 399 309 ==;
#X obj 391 286 f;
#X obj 401 329 sel 0;
#X obj 248 351 f;
#X obj 303 320 t b f;
#X obj 348 287 >;
#N canvas 0 15 610 716 unshift 0;
#X obj 144 368 arraysize \$0-arp;
#X obj 77 536 tabread \$0-arp;
#X obj 77 577 tabwrite \$0-arp;
#X obj 79 400 f;
#X obj 79 514 t f f;
#X obj 49 557 t b f;
#X obj 80 442 mod 24;
#X obj 80 484 sel 0;
#X obj 80 337 inlet;
#X obj 109 400 + 1;
#X obj 79 357 t f b f;
#X obj 79 380 0;
#X obj 81 420 + 1;
#X obj 161 558 - 1;
#X connect 0 0 6 1;
#X connect 1 0 5 0;
#X connect 3 0 9 0;
#X connect 3 0 12 0;
#X connect 4 0 1 0;
#X connect 4 1 13 0;
#X connect 5 0 3 0;
#X connect 5 1 2 0;
#X connect 6 0 7 0;
#X connect 7 1 4 0;
#X connect 8 0 10 0;
#X connect 9 0 3 1;
#X connect 10 0 11 0;
#X connect 10 1 0 0;
#X connect 11 0 3 0;
#X connect 12 0 6 0;
#X connect 13 0 2 1;
#X restore 158 371 pd unshift;
#X obj 158 292 ==;
#X obj 160 136 t b f;
#X obj 159 270 tabread \$0-arp;
#X obj 160 228 sel 24;
#X obj 159 250 t f f;
#X obj 159 337 f;
#X obj 321 154 f;
#X obj 357 155 + 1;
#X obj 321 176 t f f;
#X obj 160 181 f;
#X obj 160 204 t f f;
#X obj 198 178 + 1;
#X obj 160 159 0;
#X obj 158 313 sel 1 0;
#X text 174 119 remove;
#X obj 45 -15 inlet;
#X obj 138 53 t b l;
#X obj 138 405 t b b b;
#X obj 156 516 tabread \$0-arp;
#X obj 157 450 f;
#X obj 157 471 t f f;
#X obj 197 450 + 1;
#X obj 481 -2 import rtc;
#X obj 157 491 sel 24;
#X obj 117 540 t b f;
#X obj 157 561 sel 0;
#X obj 105 511 spigot;
#X msg 186 584 add2 \$1;
#X obj 156 428 0;
#X msg 160 609 list 1 2 3 4 5 6 7 8;
#X msg 177 425 set list;
#X obj 45 648 sel-princ 3;
#X obj 45 5 route bang order;
#X obj 45 674 outlet;
#X obj 380 357 bng 15 250 50 0 empty empty empty 0 -6 0 10 -262144
-1 -1;
#X msg 390 389 0;
#X obj 409 82 table \$0-arp 24;
#X connect 0 0 6 0;
#X connect 1 0 41 0;
#X connect 2 0 26 0;
#X connect 2 1 5 0;
#X connect 4 0 31 0;
#X connect 5 1 4 0;
#X connect 5 2 18 1;
#X connect 5 2 21 1;
#X connect 5 2 23 1;
#X connect 6 0 10 0;
#X connect 6 1 16 0;
#X connect 7 1 13 0;
#X connect 9 0 0 0;
#X connect 9 1 10 1;
#X connect 9 1 11 1;
#X connect 9 1 12 1;
#X connect 10 0 22 0;
#X connect 11 0 14 0;
#X connect 12 0 7 0;
#X connect 13 0 31 0;
#X connect 14 0 22 0;
#X connect 14 1 15 0;
#X connect 16 1 23 0;
#X connect 16 2 19 1;
#X connect 17 0 19 0;
#X connect 17 1 11 0;
#X connect 17 1 59 0;
#X connect 18 0 20 0;
#X connect 19 0 18 0;
#X connect 20 0 12 0;
#X connect 21 0 8 0;
#X connect 22 0 21 0;
#X connect 22 1 8 1;
#X connect 23 0 17 0;
#X connect 25 0 38 0;
#X connect 26 0 37 0;
#X connect 26 1 25 1;
#X connect 27 0 25 0;
#X connect 28 1 29 0;
#X connect 29 0 27 0;
#X connect 29 1 30 1;
#X connect 30 0 24 0;
#X connect 31 0 33 0;
#X connect 32 0 31 1;
#X connect 33 0 9 0;
#X connect 33 1 32 0;
#X connect 34 0 35 0;
#X connect 35 0 28 0;
#X connect 35 1 36 0;
#X connect 36 0 34 1;
#X connect 37 0 34 0;
#X connect 38 0 30 0;
#X connect 38 1 34 0;
#X connect 40 0 57 0;
#X connect 41 0 42 0;
#X connect 41 1 2 0;
#X connect 42 1 53 0;
#X connect 42 2 55 0;
#X connect 43 0 49 0;
#X connect 44 0 45 0;
#X connect 45 0 48 0;
#X connect 45 1 46 0;
#X connect 46 0 44 1;
#X connect 48 0 54 0;
#X connect 48 1 43 0;
#X connect 49 0 51 0;
#X connect 49 1 51 1;
#X connect 49 1 50 0;
#X connect 50 0 54 0;
#X connect 50 1 52 0;
#X connect 51 0 44 0;
#X connect 52 0 54 0;
#X connect 53 0 44 0;
#X connect 54 0 56 2;
#X connect 55 0 54 0;
#X connect 56 0 58 0;
#X connect 57 0 56 0;
#X connect 57 1 56 1;
#X connect 57 2 1 0;
#X connect 60 0 15 0;
