#N canvas 0 0 657 461 10;
#X obj 4 9 cnv 15 184 20 empty empty empty 20 12 0 14 -158336 -66577
0;
#N canvas 0 0 699 381 hfsod 0;
#X obj 217 112 coll;
#C restore;
#X obj 119 31 inlet state_no;
#X obj 220 43 pack s f;
#X msg 216 87 \$2 \$1;
#X obj 221 191 outlet;
#X obj 224 5 inlet state_name;
#X obj 303 69 loadbang;
#X obj 302 89 symbol \$1;
#X obj 305 129 symbol;
#X obj 219 66 t b l;
#X msg 304 171 write \$1;
#X text 123 191 automatic saving of state names. please include filename.
;
#X obj 364 61 bng 15 250 50 0 empty empty empty 0 -6 0 8 -262144 -1
-1;
#X msg 369 129 read \$1;
#X obj 178 147 !=;
#X obj 149 104 t f f;
#X obj 177 166 sel 1;
#X obj 218 22 sel symbol;
#X obj 216 168 symbol;
#X obj 304 107 makefilename /home/johannes/pd/data/%s.coll;
#X connect 0 0 4 0;
#X connect 0 1 14 1;
#X connect 1 0 2 1;
#X connect 1 0 15 0;
#X connect 2 0 9 0;
#X connect 3 0 0 0;
#X connect 5 0 17 0;
#X connect 6 0 7 0;
#X connect 7 0 19 0;
#X connect 8 0 10 0;
#X connect 9 0 8 0;
#X connect 9 1 3 0;
#X connect 10 0 0 0;
#X connect 12 0 7 0;
#X connect 13 0 0 0;
#X connect 14 0 16 0;
#X connect 15 0 14 0;
#X connect 15 1 0 0;
#X connect 16 0 18 0;
#X connect 17 1 2 0;
#X connect 18 0 4 0;
#X connect 19 0 8 1;
#X connect 19 0 13 0;
#X restore 105 75 pd hfsod;
#X obj 11 18 nbx 2 10 0 1e+37 0 0 empty empty empty 0 -6 0 10 -241291
-62784 -1 0 256;
#X obj 33 124 mousefilter;
#X obj 32 200 outlet;
#X msg 32 154 substate \$1 \, set;
#X obj 25 10 bng 8 250 50 0 empty empty <s> -18 4 1 8 -241291 -1 -1
;
#X obj 240 75 s \$2-MEMENTO-SAVE;
#X text 201 133 collfilename \, \$0 of parent;
#X symbolatom 40 13 24 0 0 0 - - -;
#X obj 16 94 init 0;
#X obj 155 157 outlet;
#X obj 148 52 inlet symbol;
#X text 200 159 to symbol;
#X obj 9 39 inlet nbx;
#X obj 242 47 inlet bang;
#X text 78 201 to originator;
#X connect 1 0 11 0;
#X connect 3 0 5 0;
#X connect 5 0 4 0;
#X connect 10 0 1 0;
#X connect 10 0 5 0;
#X connect 12 0 1 1;
#X connect 14 0 1 0;
#X connect 14 0 3 0;
#X connect 15 0 7 0;
#X coords 0 0 1 1 186 22 0;
