#N canvas 0 15 610 695 10;
#X obj 59 379 outlet~;
#X obj 78 353 outlet~;
#X obj 80 304 hip~ 5;
#X obj 60 324 hip~ 5;
#N canvas 0 15 610 716 sendnote 0;
#X obj 214 30 inlet;
#X obj 213 74 makenote;
#X obj 333 45 inlet;
#X obj 213 95 poly 3 1;
#X obj 213 118 pack f f f;
#X obj 216 142 outlet;
#X connect 0 0 1 0;
#X connect 1 0 3 0;
#X connect 1 1 3 1;
#X connect 2 0 3 0;
#X connect 3 0 4 0;
#X connect 3 1 4 1;
#X connect 3 2 4 2;
#X connect 4 0 5 0;
#X restore 257 200 pd sendnote;
#X obj 306 87 / 10;
#X obj 186 -42 r OSC;
#N canvas 0 15 610 695 keys 0;
#X obj 98 25 OSCroute /keyboardLo0 /keyboardLo1 /keyboardLo2 /keyboardLo3
/keyboardLo4 /keyboardLo5 /keyboardLo6 /keyboardLo7 /keyboardLo8 /keyboardLo9
/keyboardLo10 /keyboardLo11;
#X obj 512 57 OSCroute /keyboardHi0 /keyboardHi1 /keyboardHi2 /keyboardHi3
/keyboardHi4 /keyboardHi5 /keyboardHi6 /keyboardHi7 /keyboardHi8 /keyboardHi9
/keyboardHi10 /keyboardHi11;
#X msg 98 86 1 \$1;
#X msg 128 86 2 \$1;
#X msg 158 86 3 \$1;
#X msg 188 86 4 \$1;
#X msg 200 106 5 \$1;
#X msg 228 106 6 \$1;
#X msg 258 107 7 \$1;
#X msg 288 106 8 \$1;
#X msg 298 86 9 \$1;
#X msg 328 86 10 \$1;
#X msg 358 86 11 \$1;
#X msg 388 86 12 \$1;
#X msg 518 126 1 \$1;
#X msg 548 126 2 \$1;
#X msg 578 126 3 \$1;
#X msg 608 126 4 \$1;
#X msg 620 146 5 \$1;
#X msg 648 146 6 \$1;
#X msg 678 147 7 \$1;
#X msg 708 146 8 \$1;
#X msg 718 126 9 \$1;
#X msg 748 126 10 \$1;
#X msg 778 126 11 \$1;
#X msg 808 126 12 \$1;
#X obj 656 304 + 12;
#X obj 662 323 pack;
#X obj 102 4 inlet;
#X obj 657 282 unpack;
#X obj 272 388 outlet;
#X obj 237 242 list;
#X connect 0 0 2 0;
#X connect 0 1 3 0;
#X connect 0 2 4 0;
#X connect 0 3 5 0;
#X connect 0 4 6 0;
#X connect 0 5 7 0;
#X connect 0 6 8 0;
#X connect 0 7 9 0;
#X connect 0 8 10 0;
#X connect 0 9 11 0;
#X connect 0 10 12 0;
#X connect 0 11 13 0;
#X connect 0 12 1 0;
#X connect 1 0 14 0;
#X connect 1 1 15 0;
#X connect 1 2 16 0;
#X connect 1 3 17 0;
#X connect 1 4 18 0;
#X connect 1 5 19 0;
#X connect 1 6 20 0;
#X connect 1 7 21 0;
#X connect 1 8 22 0;
#X connect 1 9 23 0;
#X connect 1 10 24 0;
#X connect 1 11 25 0;
#X connect 2 0 31 0;
#X connect 3 0 31 0;
#X connect 4 0 31 0;
#X connect 5 0 31 0;
#X connect 6 0 31 0;
#X connect 7 0 31 0;
#X connect 8 0 31 0;
#X connect 9 0 31 0;
#X connect 10 0 31 0;
#X connect 11 0 31 0;
#X connect 12 0 31 0;
#X connect 13 0 31 0;
#X connect 14 0 29 0;
#X connect 15 0 29 0;
#X connect 16 0 29 0;
#X connect 17 0 29 0;
#X connect 18 0 29 0;
#X connect 19 0 29 0;
#X connect 20 0 29 0;
#X connect 21 0 29 0;
#X connect 22 0 29 0;
#X connect 23 0 29 0;
#X connect 24 0 29 0;
#X connect 25 0 29 0;
#X connect 26 0 27 0;
#X connect 27 0 30 0;
#X connect 28 0 0 0;
#X connect 29 0 26 0;
#X connect 29 1 27 1;
#X connect 31 0 30 0;
#X restore 185 113 pd keys;
#X obj 236 47 / 100;
#X obj 382 68 / 10;
#X obj 431 67 / 10;
#X obj 14 56 oscmatrix_s2.1 /voice1;
#X obj 14 34 route 1 2 3;
#X obj 202 70 _j/scale 0 1000 1 0;
#X obj 282 45 / 100;
#X obj 187 -18 OSCroute /pm7 /keyboard;
#N canvas 0 15 610 716 master_tempo 0;
#X obj 150 17 r MASTER_TEMPO;
#X obj 289 87 OSCroute /master_tempo;
#X obj 110 67 spigot;
#X obj 475 62 spigot 1;
#X obj 411 118 == 0;
#X obj 474 136 f;
#X obj 410 145 sel 0;
#X obj 261 120 t f f f f;
#X obj 315 285 outlet;
#X obj 158 95 0;
#X obj 247 154 sel 0;
#X obj 227 213 / 1;
#X obj 291 57 inlet OSC;
#X obj 486 14 inlet other_tempo;
#X obj 111 97 t b b;
#X obj 230 186 t b f;
#X obj 124 39 t f f;
#X obj 575 56 t f f;
#X obj 577 84 *;
#X obj 236 243 spigot;
#X obj 656 12 inlet onoff;
#X obj 503 226 spigot 1;
#X obj 117 301 spigot;
#X obj 199 107 t f f;
#X obj 539 317 outlet;
#X floatatom 169 148 5 0 0 0 - - -;
#X floatatom 655 47 5 0 0 0 - - -;
#X obj 531 182 moses 1;
#X floatatom 598 172 5 0 0 0 - - -;
#X obj 575 135 * 5000;
#X obj 576 109 + 0.006;
#X connect 0 0 16 0;
#X connect 1 0 7 0;
#X connect 2 0 14 0;
#X connect 3 0 17 0;
#X connect 4 0 3 1;
#X connect 4 0 21 1;
#X connect 5 0 8 0;
#X connect 6 0 5 0;
#X connect 7 0 19 1;
#X connect 7 0 23 0;
#X connect 7 1 10 0;
#X connect 7 2 6 0;
#X connect 7 3 4 0;
#X connect 9 0 2 1;
#X connect 10 1 15 0;
#X connect 11 0 19 0;
#X connect 12 0 1 0;
#X connect 13 0 3 0;
#X connect 14 0 22 0;
#X connect 14 1 9 0;
#X connect 15 0 11 0;
#X connect 15 1 11 1;
#X connect 16 0 2 0;
#X connect 16 1 11 0;
#X connect 17 0 18 0;
#X connect 17 1 18 1;
#X connect 18 0 30 0;
#X connect 19 0 8 0;
#X connect 20 0 2 1;
#X connect 20 0 26 0;
#X connect 20 0 27 0;
#X connect 21 0 24 0;
#X connect 22 0 24 0;
#X connect 23 0 2 1;
#X connect 23 0 25 0;
#X connect 23 1 22 1;
#X connect 27 0 24 0;
#X connect 27 1 21 0;
#X connect 29 0 5 0;
#X connect 29 0 28 0;
#X connect 30 0 29 0;
#X restore 195 93 pd master_tempo;
#N canvas 347 15 610 716 arpogogogogogioiioioioioi 0;
#X obj 182 24 metro 200;
#X obj 131 167 - 1;
#X obj 131 186 t f b b;
#X obj 159 205 t b f;
#X obj 159 228 f;
#X obj 131 316 +;
#X obj 160 278 * 12;
#X obj 132 375 +;
#N canvas 0 0 450 300 amp 0;
#X obj 158 48 inlet;
#X obj 158 74 t b b;
#X obj 197 49 inlet;
#X obj 158 102 f;
#X obj 239 52 inlet;
#X obj 184 123 -;
#X obj 219 124 / 2;
#X obj 158 155 +;
#X obj 158 176 within 0 100;
#X obj 159 198 * 1.27;
#X obj 158 221 outlet;
#X obj 185 101 random 0;
#X connect 0 0 1 0;
#X connect 1 0 3 0;
#X connect 1 1 11 0;
#X connect 2 0 3 1;
#X connect 3 0 7 0;
#X connect 4 0 6 0;
#X connect 4 0 11 1;
#X connect 5 0 7 1;
#X connect 6 0 5 1;
#X connect 7 0 8 0;
#X connect 8 0 9 0;
#X connect 9 0 10 0;
#X connect 11 0 5 0;
#X restore 168 357 pd amp;
#X obj 132 336 t f b b;
#X obj 132 405 pack f f f;
#N canvas 410 15 589 693 lenghh 0;
#X obj 158 48 inlet;
#X obj 158 74 t b b;
#X obj 196 -52 inlet;
#X obj 158 102 f;
#X obj 240 43 inlet;
#X obj 184 123 -;
#X obj 256 137 / 2;
#X obj 158 155 +;
#X obj 158 221 outlet;
#X obj 185 101 random 0;
#X obj 228 75 * 50;
#X obj 334 126 inlet;
#X floatatom 289 88 5 0 0 0 - - -;
#X obj 291 -40 t f f;
#X obj 293 -12 *;
#X obj 291 39 * 500;
#X floatatom 348 74 5 0 0 0 - - -;
#X obj 158 175 within 10 5000;
#X obj 292 13 + 0.02;
#X connect 0 0 1 0;
#X connect 1 0 3 0;
#X connect 1 1 9 0;
#X connect 2 0 12 0;
#X connect 2 0 13 0;
#X connect 3 0 7 0;
#X connect 4 0 10 0;
#X connect 5 0 7 1;
#X connect 6 0 5 1;
#X connect 7 0 17 0;
#X connect 9 0 5 0;
#X connect 10 0 9 1;
#X connect 10 0 6 0;
#X connect 11 0 17 2;
#X connect 13 0 14 0;
#X connect 13 1 14 1;
#X connect 14 0 18 0;
#X connect 15 0 3 1;
#X connect 15 0 16 0;
#X connect 17 0 8 0;
#X connect 18 0 15 0;
#X restore 218 377 pd lenghh;
#N canvas 0 15 610 716 tempo 0;
#X obj 158 118 inlet;
#X obj 158 144 t b b;
#X obj 202 -63 inlet;
#X obj 158 172 f;
#X obj 279 137 inlet;
#X obj 184 195 -;
#X obj 219 194 / 2;
#X obj 158 225 +;
#X obj 158 291 outlet;
#X obj 187 170 random 0;
#X obj 228 145 * 50;
#X obj 158 246 within 30 5000;
#X connect 0 0 1 0;
#X connect 1 0 3 0;
#X connect 1 1 9 0;
#X connect 2 0 3 1;
#X connect 3 0 7 0;
#X connect 4 0 10 0;
#X connect 5 0 7 1;
#X connect 6 0 5 1;
#X connect 7 0 11 0;
#X connect 9 0 5 0;
#X connect 10 0 9 1;
#X connect 10 0 6 0;
#X connect 11 0 8 0;
#X restore 205 3 pd tempo;
#X obj 57 104 inlet looct;
#X obj 37 87 inlet hioct;
#X obj 180 301 inlet amp;
#X obj 204 295 inlet ampdev;
#X obj 243 321 inlet leng;
#X obj 269 342 inlet lengdev;
#X obj 355 10 inlet speed;
#X obj 372 33 inlet speedev;
#X obj 83 121 inlet transpose;
#X obj 438 58 inlet metro;
#X obj 145 436 outlet;
#X obj 513 144 outlet;
#X obj -7 18 inlet keys;
#X obj 182 73 sequencer;
#X obj 537 70 inlet order;
#X obj 513 120 prepent order;
#X obj 535 89 + 1;
#X obj 160 252 motex/shuffle 4 4;
#X connect 0 0 12 0;
#X connect 0 0 24 0;
#X connect 0 0 26 0;
#X connect 1 0 2 0;
#X connect 2 0 5 0;
#X connect 2 1 30 0;
#X connect 3 0 4 0;
#X connect 3 1 30 1;
#X connect 4 0 30 0;
#X connect 5 0 9 0;
#X connect 6 0 5 1;
#X connect 7 0 10 0;
#X connect 8 0 10 1;
#X connect 9 0 7 0;
#X connect 9 1 8 0;
#X connect 9 2 11 0;
#X connect 10 0 23 0;
#X connect 11 0 10 2;
#X connect 12 0 0 1;
#X connect 12 0 11 3;
#X connect 13 0 4 0;
#X connect 14 0 3 0;
#X connect 15 0 8 1;
#X connect 16 0 8 2;
#X connect 17 0 11 1;
#X connect 18 0 11 2;
#X connect 19 0 12 1;
#X connect 20 0 12 2;
#X connect 21 0 7 1;
#X connect 22 0 0 0;
#X connect 25 0 26 0;
#X connect 26 0 1 0;
#X connect 27 0 29 0;
#X connect 28 0 26 0;
#X connect 29 0 28 0;
#X connect 30 0 6 0;
#X restore 257 134 pd arpogogogogogioiioioioioi;
#X obj 14 76 oscmatrix_s2.1 /voice2;
#X obj 14 96 oscmatrix_s2.1 /voice3;
#X obj 188 11 OSCroute /speed /speeddev /len /lendev /amp /ampdev /octHi
/octLo /seqorder;
#X obj 60 8 ../simple-osc-seq-4;
#X obj 493 75 OSCroute /onoff /keyboard;
#X obj 61 -39 prepent /keyboard;
#N canvas 0 15 610 716 keyboard_fix 0;
#X obj 169 84 inlet;
#X obj 243 87 inlet;
#X obj 315 96 inlet;
#X obj 184 391 outlet;
#X obj 194 243 +;
#X obj 188 279 pack;
#N canvas 0 15 661 716 amp 0;
#X obj 158 48 inlet;
#X obj 197 49 inlet;
#X obj 239 52 inlet;
#X obj 184 123 -;
#X obj 219 124 / 2;
#X obj 158 155 +;
#X obj 158 196 within 0 100;
#X obj 159 218 * 1.27;
#X obj 158 241 outlet;
#X obj 185 101 random 0;
#X obj 158 102 f;
#X obj 158 74 t f b b;
#X obj 108 169 *;
#X connect 0 0 11 0;
#X connect 1 0 10 1;
#X connect 2 0 4 0;
#X connect 2 0 9 1;
#X connect 3 0 5 1;
#X connect 4 0 3 1;
#X connect 5 0 12 1;
#X connect 6 0 7 0;
#X connect 7 0 8 0;
#X connect 9 0 3 0;
#X connect 10 0 5 0;
#X connect 11 0 12 0;
#X connect 11 1 10 0;
#X connect 11 2 9 0;
#X connect 12 0 6 0;
#X restore 312 190 pd amp;
#X obj 234 189 unpack;
#X obj 239 160 t l;
#X obj 185 203 * 12;
#X obj 335 126 inlet;
#X connect 0 0 9 0;
#X connect 1 0 8 0;
#X connect 2 0 6 1;
#X connect 4 0 5 0;
#X connect 5 0 3 0;
#X connect 6 0 5 1;
#X connect 7 0 4 0;
#X connect 7 1 6 0;
#X connect 8 0 7 0;
#X connect 9 0 4 1;
#X connect 10 0 6 2;
#X restore 389 -69 pd keyboard_fix;
#X obj 306 174 OSCroute /keyboard;
#X connect 2 0 1 0;
#X connect 3 0 0 0;
#X connect 4 0 12 0;
#X connect 5 0 17 7;
#X connect 6 0 15 0;
#X connect 7 0 17 0;
#X connect 8 0 17 9;
#X connect 9 0 17 4;
#X connect 9 0 24 2;
#X connect 10 0 17 5;
#X connect 10 0 24 3;
#X connect 11 0 3 0;
#X connect 11 1 2 0;
#X connect 12 0 11 0;
#X connect 12 1 18 0;
#X connect 12 2 19 0;
#X connect 13 0 16 1;
#X connect 14 0 17 6;
#X connect 15 0 7 0;
#X connect 15 0 16 0;
#X connect 15 0 20 0;
#X connect 15 0 21 0;
#X connect 15 1 24 1;
#X connect 16 0 17 8;
#X connect 16 1 17 10;
#X connect 17 0 4 0;
#X connect 18 0 3 0;
#X connect 18 1 2 0;
#X connect 19 0 3 0;
#X connect 19 1 2 0;
#X connect 20 0 13 0;
#X connect 20 1 8 0;
#X connect 20 2 14 0;
#X connect 20 3 5 0;
#X connect 20 4 9 0;
#X connect 20 5 10 0;
#X connect 20 6 17 1;
#X connect 20 7 17 2;
#X connect 20 7 24 0;
#X connect 20 8 17 11;
#X connect 20 9 22 0;
#X connect 21 0 20 0;
#X connect 21 0 7 0;
#X connect 21 0 16 0;
#X connect 21 0 25 0;
#X connect 22 0 16 2;
#X connect 23 0 21 0;
#X connect 24 0 4 1;
#X connect 24 0 23 0;
#X connect 25 0 4 1;
