#N canvas 0 70 978 570 10;
#X text 511 186 TODO: freq env \, set freq \, statesave;
#X obj 53 435 r \$0-RRADICAL-CB;
#X obj 53 457 OSCprepend /fm;
#X obj 52 483 s OSC;
#X obj 61 21 cnv 15 238 205 empty empty empty 20 12 0 14 -233017 -66577
0;
#N canvas 0 0 450 300 frequencies_______ 0;
#X obj 45 20 inlet;
#X obj 39 246 outlet;
#X obj 94 20 inlet;
#X obj 88 246 outlet;
#X obj 145 20 inlet;
#X obj 139 246 outlet;
#X obj 194 20 inlet;
#X obj 188 246 outlet;
#X obj 245 20 inlet;
#X obj 239 246 outlet;
#X obj 294 20 inlet;
#X obj 288 246 outlet;
#X obj 42 109 fcommun /op1/relfreq \$0 1;
#X obj 92 129 fcommun /op2/relfreq \$0 2;
#X obj 292 209 fcommun /op6/relfreq \$0 12;
#X obj 152 150 fcommun /op3/relfreq \$0 4;
#X obj 192 169 fcommun /op4/relfreq \$0 6;
#X obj 242 189 fcommun /op5/relfreq \$0 8;
#X connect 0 0 12 0;
#X connect 2 0 13 0;
#X connect 4 0 15 0;
#X connect 6 0 16 0;
#X connect 8 0 17 0;
#X connect 10 0 14 0;
#X connect 12 0 1 0;
#X connect 13 0 3 0;
#X connect 14 0 11 0;
#X connect 15 0 5 0;
#X connect 16 0 7 0;
#X connect 17 0 9 0;
#X restore 28 376 pd frequencies_______;
#X obj 533 345 cnv 15 218 92 empty empty matrix 2 5 1 9 -261681 -66577
0;
#X obj 105 100 cnv 15 192 102 empty empty p_env 2 5 1 9 -261681 -66577
0;
#X obj 118 112 nbx 4 10 0 100 0 0 empty empty empty 0 -6 1 9 -262144
-1 -1 0 256;
#X obj 153 112 nbx 4 10 0 100 0 0 empty empty empty 0 -6 1 9 -262144
-1 -1 1 256;
#X obj 188 112 nbx 4 10 0 100 0 0 empty empty empty 0 -6 1 9 -262144
-1 -1 2 256;
#X obj 223 112 nbx 4 10 0 100 0 0 empty empty empty 0 -6 1 9 -262144
-1 -1 50 256;
#X obj 258 112 nbx 4 10 0 100 0 0 empty empty empty 0 -6 1 9 -262144
-1 -1 5 256;
#X obj 118 122 nbx 4 10 0 100 0 0 empty empty empty 0 -6 1 9 -262144
-1 -1 0 256;
#X obj 153 122 nbx 4 10 0 100 0 0 empty empty empty 0 -6 1 9 -262144
-1 -1 1 256;
#X obj 188 122 nbx 4 10 0 100 0 0 empty empty empty 0 -6 1 9 -262144
-1 -1 2 256;
#X obj 223 122 nbx 4 10 0 100 0 0 empty empty empty 0 -6 1 9 -262144
-1 -1 50 256;
#X obj 258 122 nbx 4 10 0 100 0 0 empty empty empty 0 -6 1 9 -262144
-1 -1 5 256;
#X obj 118 132 nbx 4 10 0 100 0 0 empty empty empty 0 -6 1 9 -262144
-1 -1 0 256;
#X obj 153 132 nbx 4 10 0 100 0 0 empty empty empty 0 -6 1 9 -262144
-1 -1 1 256;
#X obj 188 132 nbx 4 10 0 100 0 0 empty empty empty 0 -6 1 9 -262144
-1 -1 2 256;
#X obj 223 132 nbx 4 10 0 100 0 0 empty empty empty 0 -6 1 9 -262144
-1 -1 50 256;
#X obj 258 132 nbx 4 10 0 100 0 0 empty empty empty 0 -6 1 9 -262144
-1 -1 5 256;
#X obj 63 100 cnv 15 39 84 empty empty freq 2 5 1 9 -261681 -66577
0;
#X obj 64 111 nbx 4 10 0 100 0 0 empty empty empty -18 6 1 9 -262144
-1 -1 1 256;
#X obj 64 123 nbx 4 10 0 100 0 0 empty empty empty 0 -6 1 9 -262144
-1 -1 2 256;
#X obj 64 135 nbx 4 10 0 100 0 0 empty empty empty 0 -6 1 9 -262144
-1 -1 4 256;
#X obj 64 147 nbx 4 10 0 100 0 0 empty empty empty 0 -6 1 9 -262144
-1 -1 6 256;
#X obj 64 159 nbx 4 10 0 100 0 0 empty empty empty 0 -6 1 9 -262144
-1 -1 8 256;
#X obj 64 171 nbx 4 10 0 100 0 0 empty empty empty 0 -6 1 9 -262144
-1 -1 12 256;
#X obj 404 83 uienvrow /aenv/op1 \$0;
#X obj 38 349 uimatrixrow /matrix/op3 \$0;
#X obj 195 37 cnv 15 92 26 empty empty empty 20 12 0 14 -128992 -66577
0;
#X obj 196 50 tgl 12 0 \$0-sdayuidsa \$0-fbifbaobfoiasb empty 0 -6
0 8 -262144 -1 -1 0 1;
#X obj 209 50 tgl 12 0 \$0-sdayuidsa \$0-fbifbaobfoiasb empty 0 -6
0 8 -262144 -1 -1 0 1;
#X obj 222 50 tgl 12 0 \$0-sdayuidsa \$0-fbifbaobfoiasb empty 0 -6
0 8 -262144 -1 -1 0 1;
#X obj 235 50 tgl 12 0 \$0-sdayuidsa \$0-fbifbaobfoiasb empty 0 -6
0 8 -262144 -1 -1 0 1;
#X obj 248 50 tgl 12 0 \$0-sdayuidsa \$0-fbifbaobfoiasb empty 0 -6
0 8 -262144 -1 -1 0 1;
#X obj 261 50 tgl 12 0 \$0-sdayuidsa \$0-fbifbaobfoiasb empty 0 -6
0 8 -262144 -1 -1 0 1;
#X obj 274 50 tgl 12 0 \$0-sdayuidsa \$0-fbifbaobfoiasb empty 0 -6
0 8 -262144 -1 -1 0 1;
#X obj 202 38 tgl 12 0 \$0-sdayuidsa \$0-fbifbaobfoiasb empty 0 -6
0 8 -1 -262144 -262144 0 1;
#X obj 216 38 tgl 12 0 \$0-sdayuidsa \$0-fbifbaobfoiasb empty 0 -6
0 8 -1 -262144 -262144 0 1;
#X obj 241 38 tgl 12 0 \$0-sdayuidsa \$0-fbifbaobfoiasb empty 0 -6
0 8 -1 -262144 -262144 0 1;
#X obj 255 38 tgl 12 0 \$0-sdayuidsa \$0-fbifbaobfoiasb empty 0 -6
0 8 -1 -262144 -262144 0 1;
#X obj 269 38 tgl 12 0 \$0-sdayuidsa \$0-fbifbaobfoiasb empty 0 -6
0 8 -1 -262144 -262144 0 1;
#X obj 529 44 tgl 15 0 empty empty key 0 -6 1 8 -195568 -1 -1 0 1;
#N canvas 0 0 798 387 tolvtolvtolv 0;
#X obj 214 120 outlet;
#X obj 213 47 key;
#X obj 234 141 outlet;
#X obj 264 120 outlet;
#X obj 284 141 outlet;
#X obj 309 120 outlet;
#X obj 329 141 outlet;
#X obj 359 120 outlet;
#X obj 379 141 outlet;
#X obj 409 120 outlet;
#X obj 429 141 outlet;
#X obj 459 120 outlet;
#X obj 479 141 outlet;
#X obj 86 50 inlet;
#X obj 211 67 spigot;
#X obj 213 95 select 113 50 119 51 101 114 53 116 54 121 55 117;
#X connect 1 0 14 0;
#X connect 13 0 14 1;
#X connect 14 0 15 0;
#X connect 15 0 0 0;
#X connect 15 1 2 0;
#X connect 15 2 3 0;
#X connect 15 3 4 0;
#X connect 15 4 5 0;
#X connect 15 5 6 0;
#X connect 15 6 7 0;
#X connect 15 7 8 0;
#X connect 15 8 9 0;
#X connect 15 9 10 0;
#X connect 15 10 11 0;
#X connect 15 11 12 0;
#X restore 318 31 pd tolvtolvtolv;
#N canvas 347 155 450 300 oct 0;
#X msg 103 168 set \$1;
#X obj 167 154 mousefilter;
#X msg 102 143 set \$1;
#X obj 253 132 mousefilter;
#X obj 197 109 moses;
#X obj 152 111 moses;
#X obj 75 87 expr int($f1 + 0.5);
#X obj 110 191 outlet;
#X obj 166 190 outlet;
#X obj 220 191 outlet;
#X obj 276 190 outlet;
#X obj 276 49 inlet hi;
#X obj 96 58 inlet lo;
#X obj 254 79 expr int($f1 + 0.5);
#X obj 177 135 + 1;
#X obj 281 163 fcommun hi-oct \$0 3;
#X obj 71 237 fcommun lo-oct \$0 3;
#X connect 0 0 7 0;
#X connect 1 0 0 0;
#X connect 1 0 9 0;
#X connect 1 0 14 0;
#X connect 1 0 16 0;
#X connect 2 0 8 0;
#X connect 3 0 2 0;
#X connect 3 0 4 1;
#X connect 3 0 10 0;
#X connect 3 0 15 0;
#X connect 4 1 3 0;
#X connect 5 0 1 0;
#X connect 6 0 4 0;
#X connect 6 0 1 0;
#X connect 11 0 13 0;
#X connect 12 0 6 0;
#X connect 13 0 5 0;
#X connect 13 0 3 0;
#X connect 14 0 5 1;
#X connect 15 0 8 0;
#X connect 16 0 7 0;
#X restore 215 -3 pd oct;
#X obj 136 33 nbx 3 10 0 9 0 0 empty empty empty 0 -6 1 9 -262144 -1
-1 3 256;
#X obj 134 53 cnv 1 32 1 empty empty oct 1 -5 1 8 -33289 -66577 0;
#X obj 136 23 nbx 3 10 0 9 0 0 empty empty empty 0 -6 1 9 -262144 -1
-1 3 256;
#N canvas 0 0 657 461 arpogogogogogioi 0;
#X obj 182 61 counter 1 12;
#X obj 182 24 metro 200;
#X obj 182 121 sel 0;
#X obj 251 130 counter;
#X msg 233 172 set 0;
#X obj 252 150 moses 12;
#X obj 283 99 bang;
#X obj 182 101 tabread \$0-notes;
#X obj 131 142 f;
#X obj 208 144 t b b;
#X obj 182 79 t f f;
#X obj 131 167 - 1;
#X obj 131 186 t f b b;
#X obj 159 250 shuffle 4 4;
#X obj 159 205 t b f;
#X obj 159 228 f;
#X obj 131 316 +;
#X obj 160 278 * 12;
#X obj 132 375 +;
#N canvas 0 0 450 300 amp 0;
#X obj 158 48 inlet;
#X obj 158 74 t b b;
#X obj 197 49 inlet;
#X obj 158 102 f;
#X obj 239 52 inlet;
#X obj 184 123 -;
#X obj 219 124 / 2;
#X obj 158 155 +;
#X obj 158 176 within 0 100;
#X obj 159 198 * 1.27;
#X obj 158 221 outlet;
#X obj 185 101 random 0;
#X connect 0 0 1 0;
#X connect 1 0 3 0;
#X connect 1 1 11 0;
#X connect 2 0 3 1;
#X connect 3 0 7 0;
#X connect 4 0 6 0;
#X connect 4 0 11 1;
#X connect 5 0 7 1;
#X connect 6 0 5 1;
#X connect 7 0 8 0;
#X connect 8 0 9 0;
#X connect 9 0 10 0;
#X connect 11 0 5 0;
#X restore 168 357 pd amp;
#X obj 132 336 t f b b;
#X obj 132 405 pack f f f;
#N canvas 0 0 450 300 lenghh 0;
#X obj 158 48 inlet;
#X obj 158 74 t b b;
#X obj 197 49 inlet;
#X obj 158 102 f;
#X obj 240 43 inlet;
#X obj 184 123 -;
#X obj 256 137 / 2;
#X obj 158 155 +;
#X obj 158 221 outlet;
#X obj 185 101 random 0;
#X obj 197 73 * 50;
#X obj 228 75 * 50;
#X obj 158 175 within 20 5000;
#X connect 0 0 1 0;
#X connect 1 0 3 0;
#X connect 1 1 9 0;
#X connect 2 0 10 0;
#X connect 3 0 7 0;
#X connect 4 0 11 0;
#X connect 5 0 7 1;
#X connect 6 0 5 1;
#X connect 7 0 12 0;
#X connect 9 0 5 0;
#X connect 10 0 3 1;
#X connect 11 0 9 1;
#X connect 11 0 6 0;
#X connect 12 0 8 0;
#X restore 218 377 pd lenghh;
#N canvas 0 0 554 422 tempo 0;
#X obj 158 48 inlet;
#X obj 158 74 t b b;
#X obj 195 36 inlet;
#X obj 158 102 f;
#X obj 279 67 inlet;
#X obj 184 123 -;
#X obj 219 124 / 2;
#X obj 158 155 +;
#X obj 158 221 outlet;
#X obj 185 101 random 0;
#X obj 158 176 within 50 5000;
#X obj 194 79 * 50;
#X obj 194 60 + 1;
#X obj 228 75 * 50;
#X obj 273 147 t f;
#X obj 274 167 mousefilter;
#X obj 280 305 outlet;
#X obj 274 190 t f f;
#X obj 276 217 -;
#X obj 276 237 abs;
#X obj 279 282 sel 1;
#X obj 277 256 > 20;
#X connect 0 0 1 0;
#X connect 1 0 3 0;
#X connect 1 1 9 0;
#X connect 2 0 12 0;
#X connect 2 0 14 0;
#X connect 3 0 7 0;
#X connect 4 0 13 0;
#X connect 4 0 14 0;
#X connect 5 0 7 1;
#X connect 6 0 5 1;
#X connect 7 0 10 0;
#X connect 9 0 5 0;
#X connect 10 0 8 0;
#X connect 11 0 3 1;
#X connect 12 0 11 0;
#X connect 13 0 9 1;
#X connect 13 0 6 0;
#X connect 14 0 15 0;
#X connect 15 0 17 0;
#X connect 17 0 18 1;
#X connect 17 1 18 0;
#X connect 18 0 19 0;
#X connect 19 0 21 0;
#X connect 20 0 16 0;
#X connect 21 0 20 0;
#X restore 205 3 pd tempo;
#X obj 27 52 inlet looct;
#X obj 17 42 inlet hioct;
#X obj 182 313 inlet amp;
#X obj 204 295 inlet ampdev;
#X obj 252 333 inlet leng;
#X obj 293 364 inlet lengdev;
#X obj 355 10 inlet speed;
#X obj 371 31 inlet speedev;
#X obj 53 291 inlet transpose;
#X obj 378 210 table \$0-notes 13;
#X obj 438 58 inlet metro;
#X obj 251 25 spigot;
#X obj 145 436 outlet;
#X obj 508 114 outlet;
#X obj 570 20 hotkey/hkbang /pm7trig;
#X connect 0 0 10 0;
#X connect 1 0 0 0;
#X connect 1 0 23 0;
#X connect 1 0 37 0;
#X connect 2 0 3 0;
#X connect 2 1 9 0;
#X connect 3 0 5 0;
#X connect 4 0 3 0;
#X connect 5 0 6 0;
#X connect 6 0 0 0;
#X connect 7 0 2 0;
#X connect 8 0 11 0;
#X connect 9 0 8 0;
#X connect 9 1 4 0;
#X connect 10 0 7 0;
#X connect 10 1 8 1;
#X connect 11 0 12 0;
#X connect 12 0 16 0;
#X connect 12 1 13 0;
#X connect 13 0 17 0;
#X connect 14 0 15 0;
#X connect 14 1 13 1;
#X connect 15 0 13 0;
#X connect 16 0 20 0;
#X connect 17 0 16 1;
#X connect 18 0 21 0;
#X connect 19 0 21 1;
#X connect 20 0 18 0;
#X connect 20 1 19 0;
#X connect 20 2 22 0;
#X connect 21 0 36 0;
#X connect 22 0 21 2;
#X connect 23 0 1 1;
#X connect 23 1 35 0;
#X connect 24 0 15 0;
#X connect 25 0 14 0;
#X connect 26 0 19 1;
#X connect 27 0 19 2;
#X connect 28 0 22 1;
#X connect 29 0 22 2;
#X connect 30 0 23 1;
#X connect 31 0 23 2;
#X connect 32 0 18 1;
#X connect 34 0 35 1;
#X connect 34 0 1 0;
#X connect 35 0 1 0;
#X connect 38 0 1 0;
#X restore 404 -16 pd arpogogogogogioi;
#X obj 99 53 cnv 1 32 1 empty empty pitch 1 -5 1 8 -33289 -66577 0
;
#X obj 102 33 nbx 3 10 -99 100 0 0 empty empty empty 0 -6 1 9 -262144
-1 -1 0 256;
#X obj 102 23 nbx 3 10 -24 24 0 0 empty empty empty 0 -6 1 9 -262144
-1 -1 0 256;
#N canvas 0 0 450 300 pitch 0;
#X obj 140 20 inlet;
#X obj 180 20 inlet;
#X obj 184 174 outlet;
#X obj 181 59 / 100;
#X obj 131 137 +;
#X obj 141 74 t b f;
#X obj 132 103 f;
#X obj 23 169 fcommun coarsepitch \$0;
#X obj 139 195 fcommun finepitch \$0;
#X obj 34 220 outlet;
#X obj 124 230 outlet;
#X connect 0 0 6 0;
#X connect 0 0 7 0;
#X connect 1 0 3 0;
#X connect 1 0 8 0;
#X connect 3 0 5 0;
#X connect 4 0 2 0;
#X connect 5 0 6 0;
#X connect 5 1 4 1;
#X connect 6 0 4 0;
#X connect 7 0 9 0;
#X connect 8 0 10 0;
#X restore 103 -5 pd pitch;
#X obj 133 86 cnv 1 32 1 empty empty amp 1 -5 1 8 -33289 -66577 0;
#X obj 136 66 nbx 3 10 0 100 0 0 empty empty empty 0 -6 1 9 -262144
-1 -1 0 256;
#X obj 136 56 nbx 3 10 0 100 0 0 empty empty empty 0 -6 1 9 -262144
-1 -1 50 256;
#X obj 98 86 cnv 1 32 1 empty empty length 1 -5 1 8 -33289 -66577 0
;
#X obj 101 66 nbx 3 10 0 100 0 0 empty empty empty 0 -6 1 9 -262144
-1 -1 0 256;
#X obj 101 56 nbx 3 10 0 100 0 0 empty empty empty 0 -6 1 9 -262144
-1 -1 5 256;
#X obj 62 86 cnv 1 32 1 empty empty speed 1 -5 1 8 -33289 -66577 0
;
#X obj 65 66 nbx 3 10 0 100 0 0 empty empty empty 0 -6 1 9 -262144
-1 -1 0 256;
#X obj 65 56 nbx 3 10 0.1 100 1 0 empty empty empty 0 -6 1 9 -262144
-1 -1 5 256;
#X obj 73 31 tgl 15 0 empty empty empty 0 -6 0 8 -24198 -1 -1 0 1;
#N canvas 0 0 450 300 sendnote 0;
#X obj 214 30 inlet;
#X obj 215 155 pack s f;
#X obj 214 115 makefilename /fm/voice%d/note;
#X obj 228 134 makefilename /fm/voice%d/vel;
#X obj 229 175 pack s f;
#X obj 216 228 s OSC;
#X obj 212 204 list trim;
#X obj 213 74 makenote;
#X obj 213 95 poly 3 1;
#X connect 0 0 7 0;
#X connect 1 0 6 0;
#X connect 2 0 1 0;
#X connect 3 0 4 0;
#X connect 4 0 6 0;
#X connect 6 0 5 0;
#X connect 7 0 8 0;
#X connect 7 1 8 1;
#X connect 8 0 2 0;
#X connect 8 0 3 0;
#X connect 8 1 1 1;
#X connect 8 2 4 1;
#X restore 423 24 pd sendnote;
#X obj 404 99 uienvrow /aenv/op2 \$0;
#X obj 404 147 uienvrow /aenv/op3 \$0;
#X obj 553 256 r UI;
#X obj 71 309 uimatrixrow /matrix/op1 \$0;
#X obj 62 328 uimatrixrow /matrix/op2 \$0;
#X obj 253 153 vradio 12 1 0 4 empty empty empty 0 -6 0 8 -262144 -1
-1 0;
#X obj 270 154 cnv 10 25 10 empty empty sin 0 5 1 9 -233017 -66577
0;
#X obj 270 166 cnv 10 25 10 empty empty squ 0 5 1 9 -233017 -66577
0;
#X obj 270 179 cnv 10 25 10 empty empty saw 0 5 1 9 -233017 -66577
0;
#X obj 270 191 cnv 10 25 10 empty empty tri 0 5 1 9 -233017 -66577
0;
#X obj 237 153 vradio 12 1 0 4 empty empty empty 0 -6 0 8 -262144 -1
-1 0;
#X obj 221 153 vradio 12 1 0 4 empty empty empty 0 -6 0 8 -262144 -1
-1 0;
#X obj 250 333 fcommun /op1/wave \$0;
#X obj 260 353 fcommun /op2/wave \$0;
#X obj 270 373 fcommun /op3/wave \$0;
#X obj 107 151 nbx 4 10 0 100 0 0 empty empty empty 0 -6 1 9 -233017
-1 -1 0 256;
#X obj 107 161 nbx 4 10 0 100 0 0 empty empty empty 0 -6 1 9 -262144
-1 -1 0 256;
#X obj 107 171 nbx 4 10 0 100 0 0 empty empty empty 0 -6 1 9 -262144
-1 -1 0 256;
#X obj 107 181 nbx 4 10 0 100 0 0 empty empty pan -22 6 1 9 -195568
-1 -1 50 256;
#X obj 107 191 nbx 4 10 0 100 0 0 empty empty vol -21 6 1 9 -195568
-1 -1 0 256;
#X obj 143 151 nbx 4 10 0 100 0 0 empty empty empty 0 -6 1 9 -262144
-1 -1 0 256;
#X obj 143 161 nbx 4 10 0 100 0 0 empty empty empty 0 -6 1 9 -233017
-1 -1 0 256;
#X obj 143 171 nbx 4 10 0 100 0 0 empty empty empty 0 -6 1 9 -262144
-1 -1 0 256;
#X obj 143 181 nbx 4 10 0 100 0 0 empty empty empty 0 -6 1 9 -195568
-1 -1 50 256;
#X obj 143 191 nbx 4 10 0 100 0 0 empty empty empty 0 -6 1 9 -195568
-1 -1 0 256;
#X obj 179 151 nbx 4 10 0 100 0 0 empty empty empty 0 -6 1 9 -262144
-1 -1 0 256;
#X obj 179 161 nbx 4 10 0 100 0 0 empty empty empty 0 -6 1 9 -262144
-1 -1 0 256;
#X obj 179 171 nbx 4 10 0 100 0 0 empty empty empty 0 -6 1 9 -233017
-1 -1 0 256;
#X obj 179 181 nbx 4 10 0 100 0 0 empty empty empty 0 -6 1 9 -195568
-1 -1 50 256;
#X obj 179 191 nbx 4 10 0 100 0 0 empty empty empty 0 -6 1 9 -195568
-1 -1 0 256;
#X obj 114 204 ../substatename2 pm7 \$0;
#X obj 75 -21 hotkey/hktgl pm7-onoff;
#N canvas 0 0 798 387 tolvtolvtolvtesttest 0;
#X obj 63 30 inlet;
#X obj 113 30 inlet;
#X obj 163 30 inlet;
#X obj 203 30 inlet;
#X obj 253 30 inlet;
#X obj 303 30 inlet;
#X obj 343 30 inlet;
#X obj 393 30 inlet;
#X obj 443 30 inlet;
#X obj 483 30 inlet;
#X obj 533 30 inlet;
#X obj 583 30 inlet;
#X msg 63 53 1 \$1;
#X msg 113 53 2 \$1;
#X msg 163 53 3 \$1;
#X msg 203 53 4 \$1;
#X msg 253 53 5 \$1;
#X msg 303 53 6 \$1;
#X msg 343 53 7 \$1;
#X msg 393 53 8 \$1;
#X msg 443 53 9 \$1;
#X msg 483 53 10 \$1;
#X msg 533 53 11 \$1;
#X msg 583 53 12 \$1;
#X obj 323 126 l;
#X obj 324 169 tabwrite \$0-notes;
#X msg 324 148 \$2 \$1;
#X obj 64 146 fcommun key1 \$0;
#X obj 110 167 fcommun key2 \$0;
#X obj 164 190 fcommun key3 \$0;
#X obj 211 211 fcommun key4 \$0;
#X obj 63 247 outlet;
#X obj 108 223 outlet;
#X obj 163 257 outlet;
#X obj 208 233 outlet;
#X obj 263 287 outlet;
#X obj 308 263 outlet;
#X obj 363 297 outlet;
#X obj 408 273 outlet;
#X obj 264 186 fcommun key5 \$0;
#X obj 310 207 fcommun key6 \$0;
#X obj 363 230 fcommun key7 \$0;
#X obj 411 251 fcommun key8 \$0;
#X obj 453 287 outlet;
#X obj 502 329 outlet;
#X obj 553 297 outlet;
#X obj 598 273 outlet;
#X obj 454 186 fcommun key9 \$0;
#X obj 500 206 fcommun key10 \$0;
#X obj 553 230 fcommun key11 \$0;
#X obj 602 251 fcommun key12 \$0;
#X connect 0 0 12 0;
#X connect 0 0 27 0;
#X connect 1 0 13 0;
#X connect 1 0 28 0;
#X connect 2 0 14 0;
#X connect 2 0 29 0;
#X connect 3 0 15 0;
#X connect 3 0 30 0;
#X connect 4 0 16 0;
#X connect 4 0 39 0;
#X connect 5 0 17 0;
#X connect 5 0 40 0;
#X connect 6 0 18 0;
#X connect 6 0 41 0;
#X connect 7 0 19 0;
#X connect 7 0 42 0;
#X connect 8 0 20 0;
#X connect 8 0 47 0;
#X connect 9 0 21 0;
#X connect 9 0 48 0;
#X connect 10 0 22 0;
#X connect 10 0 49 0;
#X connect 11 0 23 0;
#X connect 11 0 50 0;
#X connect 12 0 24 0;
#X connect 13 0 24 0;
#X connect 14 0 24 0;
#X connect 15 0 24 0;
#X connect 16 0 24 0;
#X connect 17 0 24 0;
#X connect 18 0 24 0;
#X connect 19 0 24 0;
#X connect 20 0 24 0;
#X connect 21 0 24 0;
#X connect 22 0 24 0;
#X connect 23 0 24 0;
#X connect 24 0 26 0;
#X connect 26 0 25 0;
#X connect 27 0 31 0;
#X connect 28 0 32 0;
#X connect 29 0 33 0;
#X connect 30 0 34 0;
#X connect 39 0 35 0;
#X connect 40 0 36 0;
#X connect 41 0 37 0;
#X connect 42 0 38 0;
#X connect 47 0 43 0;
#X connect 48 0 44 0;
#X connect 49 0 45 0;
#X connect 50 0 46 0;
#X restore 403 62 pd tolvtolvtolvtesttest;
#X obj -46 109 fcommun speed-dev \$0;
#X obj -44 146 fcommun lendev \$0;
#X obj -46 89 fcommun speed \$0 5;
#X obj -46 127 fcommun len \$0 5;
#X obj -43 186 fcommun ampdev \$0;
#X obj -45 167 fcommun amp \$0 50;
#X obj 244 71 bng 15 100 50 0 empty empty empty 0 -6 0 8 -262144 -1
-1;
#X obj 394 256 originator /fmsynth \$0;
#X connect 1 0 2 0;
#X connect 2 0 3 0;
#X connect 5 0 24 0;
#X connect 5 1 25 0;
#X connect 5 2 26 0;
#X connect 5 3 27 0;
#X connect 5 4 28 0;
#X connect 5 5 29 0;
#X connect 8 0 30 0;
#X connect 9 0 30 1;
#X connect 10 0 30 2;
#X connect 11 0 30 3;
#X connect 12 0 30 4;
#X connect 13 0 67 0;
#X connect 14 0 67 1;
#X connect 15 0 67 2;
#X connect 16 0 67 3;
#X connect 17 0 67 4;
#X connect 18 0 68 0;
#X connect 19 0 68 1;
#X connect 20 0 68 2;
#X connect 21 0 68 3;
#X connect 22 0 68 4;
#X connect 24 0 5 0;
#X connect 25 0 5 1;
#X connect 26 0 5 2;
#X connect 27 0 5 3;
#X connect 28 0 5 4;
#X connect 29 0 5 5;
#X connect 30 0 8 0;
#X connect 30 1 9 0;
#X connect 30 2 10 0;
#X connect 30 3 11 0;
#X connect 30 4 12 0;
#X connect 31 0 92 0;
#X connect 31 1 93 0;
#X connect 31 2 94 0;
#X connect 31 6 95 0;
#X connect 31 7 96 0;
#X connect 33 0 99 0;
#X connect 34 0 99 2;
#X connect 35 0 99 4;
#X connect 36 0 99 5;
#X connect 37 0 99 7;
#X connect 38 0 99 9;
#X connect 39 0 99 11;
#X connect 40 0 99 1;
#X connect 41 0 99 3;
#X connect 42 0 99 6;
#X connect 43 0 99 8;
#X connect 44 0 99 10;
#X connect 45 0 46 0;
#X connect 46 0 33 0;
#X connect 46 1 40 0;
#X connect 46 2 34 0;
#X connect 46 3 41 0;
#X connect 46 4 35 0;
#X connect 46 5 36 0;
#X connect 46 6 42 0;
#X connect 46 7 37 0;
#X connect 46 8 43 0;
#X connect 46 9 38 0;
#X connect 46 10 44 0;
#X connect 46 11 39 0;
#X connect 47 0 48 0;
#X connect 47 1 50 0;
#X connect 47 2 51 0;
#X connect 47 3 51 1;
#X connect 48 0 47 0;
#X connect 50 0 47 1;
#X connect 51 0 66 0;
#X connect 51 1 106 0;
#X connect 53 0 55 1;
#X connect 54 0 55 0;
#X connect 55 0 54 0;
#X connect 55 1 53 0;
#X connect 55 2 51 2;
#X connect 57 0 51 4;
#X connect 57 0 104 0;
#X connect 58 0 51 3;
#X connect 58 0 105 0;
#X connect 60 0 51 6;
#X connect 60 0 101 0;
#X connect 61 0 51 5;
#X connect 61 0 103 0;
#X connect 63 0 51 8;
#X connect 63 0 100 0;
#X connect 64 0 51 7;
#X connect 64 0 102 0;
#X connect 65 0 51 9;
#X connect 65 0 98 0;
#X connect 67 0 13 0;
#X connect 67 1 14 0;
#X connect 67 2 15 0;
#X connect 67 3 16 0;
#X connect 67 4 17 0;
#X connect 68 0 18 0;
#X connect 68 1 19 0;
#X connect 68 2 20 0;
#X connect 68 3 21 0;
#X connect 68 4 22 0;
#X connect 69 0 107 1;
#X connect 70 0 82 0;
#X connect 70 1 83 0;
#X connect 70 2 84 0;
#X connect 70 6 85 0;
#X connect 70 7 86 0;
#X connect 71 0 87 0;
#X connect 71 1 88 0;
#X connect 71 2 89 0;
#X connect 71 6 90 0;
#X connect 71 7 91 0;
#X connect 72 0 81 0;
#X connect 77 0 80 0;
#X connect 78 0 79 0;
#X connect 79 0 78 0;
#X connect 80 0 77 0;
#X connect 81 0 72 0;
#X connect 82 0 70 0;
#X connect 83 0 70 1;
#X connect 84 0 70 2;
#X connect 85 0 70 6;
#X connect 86 0 70 7;
#X connect 87 0 71 0;
#X connect 88 0 71 1;
#X connect 89 0 71 2;
#X connect 90 0 71 6;
#X connect 91 0 71 7;
#X connect 92 0 31 0;
#X connect 93 0 31 1;
#X connect 94 0 31 2;
#X connect 95 0 31 6;
#X connect 96 0 31 7;
#X connect 97 0 107 0;
#X connect 98 0 65 0;
#X connect 99 0 33 0;
#X connect 99 1 40 0;
#X connect 99 2 34 0;
#X connect 99 3 41 0;
#X connect 99 4 35 0;
#X connect 99 5 36 0;
#X connect 99 6 42 0;
#X connect 99 7 37 0;
#X connect 99 8 43 0;
#X connect 99 9 38 0;
#X connect 99 10 44 0;
#X connect 99 11 39 0;
#X connect 100 0 63 0;
#X connect 101 0 60 0;
#X connect 102 0 64 0;
#X connect 103 0 61 0;
#X connect 104 0 57 0;
#X connect 105 0 58 0;
#X coords 0 -1 1 1 240 206 1 60 20;
