#N canvas 136 49 677 514 10;
#X obj 59 238 catch~ mainL;
#X obj 80 256 catch~ mainR;
#X obj 59 379 outlet~;
#X obj 78 353 outlet~;
#X obj 54 56 oscmatrix_s /voice1;
#X obj 80 304 hip~ 5;
#X obj 60 324 hip~ 5;
#X obj 552 92 table \$0-notes 25;
#N canvas 168 58 774 506 arpogogogogogioi 0;
#X obj 182 24 metro 200;
#X obj 182 121 sel 0;
#X obj 251 130 counter;
#X msg 233 172 set 0;
#X obj 283 99 bang;
#X obj 182 101 tabread \$0-notes;
#X obj 131 142 f;
#X obj 208 144 t b b;
#X obj 182 79 t f f;
#X obj 131 167 - 1;
#X obj 131 186 t f b b;
#X obj 159 250 shuffle 4 4;
#X obj 159 205 t b f;
#X obj 159 228 f;
#X obj 131 316 +;
#X obj 160 278 * 12;
#X obj 132 375 +;
#N canvas 0 0 450 300 amp 0;
#X obj 158 48 inlet;
#X obj 158 74 t b b;
#X obj 197 49 inlet;
#X obj 158 102 f;
#X obj 239 52 inlet;
#X obj 184 123 -;
#X obj 219 124 / 2;
#X obj 158 155 +;
#X obj 158 176 within 0 100;
#X obj 159 198 * 1.27;
#X obj 158 221 outlet;
#X obj 185 101 random 0;
#X connect 0 0 1 0;
#X connect 1 0 3 0;
#X connect 1 1 11 0;
#X connect 2 0 3 1;
#X connect 3 0 7 0;
#X connect 4 0 6 0;
#X connect 4 0 11 1;
#X connect 5 0 7 1;
#X connect 6 0 5 1;
#X connect 7 0 8 0;
#X connect 8 0 9 0;
#X connect 9 0 10 0;
#X connect 11 0 5 0;
#X restore 168 357 pd amp;
#X obj 132 336 t f b b;
#X obj 132 405 pack f f f;
#N canvas 0 0 450 300 lenghh 0;
#X obj 158 48 inlet;
#X obj 158 74 t b b;
#X obj 197 49 inlet;
#X obj 158 102 f;
#X obj 240 43 inlet;
#X obj 184 123 -;
#X obj 256 137 / 2;
#X obj 158 155 +;
#X obj 158 221 outlet;
#X obj 185 101 random 0;
#X obj 197 73 * 50;
#X obj 228 75 * 50;
#X obj 158 175 within 20 5000;
#X connect 0 0 1 0;
#X connect 1 0 3 0;
#X connect 1 1 9 0;
#X connect 2 0 10 0;
#X connect 3 0 7 0;
#X connect 4 0 11 0;
#X connect 5 0 7 1;
#X connect 6 0 5 1;
#X connect 7 0 12 0;
#X connect 9 0 5 0;
#X connect 10 0 3 1;
#X connect 11 0 9 1;
#X connect 11 0 6 0;
#X connect 12 0 8 0;
#X restore 218 377 pd lenghh;
#N canvas 0 0 554 422 tempo 0;
#X obj 158 48 inlet;
#X obj 158 74 t b b;
#X obj 192 24 inlet;
#X obj 158 102 f;
#X obj 279 67 inlet;
#X obj 184 123 -;
#X obj 219 124 / 2;
#X obj 158 155 +;
#X obj 158 221 outlet;
#X obj 185 101 random 0;
#X obj 158 176 within 50 5000;
#X obj 194 79 * 50;
#X obj 194 60 + 1;
#X obj 228 75 * 50;
#X obj 273 147 t f;
#X obj 274 167 mousefilter;
#X obj 280 305 outlet;
#X obj 274 190 t f f;
#X obj 276 217 -;
#X obj 276 237 abs;
#X obj 279 282 sel 1;
#X obj 277 256 > 20;
#X connect 0 0 1 0;
#X connect 1 0 3 0;
#X connect 1 1 9 0;
#X connect 2 0 12 0;
#X connect 2 0 14 0;
#X connect 3 0 7 0;
#X connect 4 0 13 0;
#X connect 4 0 14 0;
#X connect 5 0 7 1;
#X connect 6 0 5 1;
#X connect 7 0 10 0;
#X connect 9 0 5 0;
#X connect 10 0 8 0;
#X connect 11 0 3 1;
#X connect 12 0 11 0;
#X connect 13 0 9 1;
#X connect 13 0 6 0;
#X connect 14 0 15 0;
#X connect 15 0 17 0;
#X connect 17 0 18 1;
#X connect 17 1 18 0;
#X connect 18 0 19 0;
#X connect 19 0 21 0;
#X connect 20 0 16 0;
#X connect 21 0 20 0;
#X restore 205 3 pd tempo;
#X obj 3 57 inlet looct;
#X obj -17 40 inlet hioct;
#X obj 180 301 inlet amp;
#X obj 204 295 inlet ampdev;
#X obj 243 321 inlet leng;
#X obj 269 342 inlet lengdev;
#X obj 355 10 inlet speed;
#X obj 372 33 inlet speedev;
#X obj 29 74 inlet transpose;
#X obj 438 58 inlet metro;
#X obj 145 436 outlet;
#X obj 508 114 outlet;
#X obj 182 61 counter 1 24;
#X obj 252 150 moses 24;
#X connect 0 0 21 0;
#X connect 0 0 33 0;
#X connect 0 0 34 0;
#X connect 1 0 2 0;
#X connect 1 1 7 0;
#X connect 2 0 35 0;
#X connect 3 0 2 0;
#X connect 4 0 34 0;
#X connect 5 0 1 0;
#X connect 6 0 9 0;
#X connect 7 0 6 0;
#X connect 7 1 3 0;
#X connect 8 0 5 0;
#X connect 8 1 6 1;
#X connect 9 0 10 0;
#X connect 10 0 14 0;
#X connect 10 1 11 0;
#X connect 11 0 15 0;
#X connect 12 0 13 0;
#X connect 12 1 11 1;
#X connect 13 0 11 0;
#X connect 14 0 18 0;
#X connect 15 0 14 1;
#X connect 16 0 19 0;
#X connect 17 0 19 1;
#X connect 18 0 16 0;
#X connect 18 1 17 0;
#X connect 18 2 20 0;
#X connect 19 0 32 0;
#X connect 20 0 19 2;
#X connect 21 0 0 1;
#X connect 22 0 13 0;
#X connect 23 0 12 0;
#X connect 24 0 17 1;
#X connect 25 0 17 2;
#X connect 26 0 20 1;
#X connect 27 0 20 2;
#X connect 28 0 21 1;
#X connect 29 0 21 2;
#X connect 30 0 16 1;
#X connect 31 0 0 0;
#X connect 34 0 8 0;
#X connect 35 0 4 0;
#X restore 257 134 pd arpogogogogogioi;
#N canvas 0 0 450 300 sendnote 0;
#X obj 214 30 inlet;
#X obj 215 155 pack s f;
#X obj 229 175 pack s f;
#X obj 216 228 s OSC;
#X obj 212 204 list trim;
#X obj 213 74 makenote;
#X obj 213 95 poly 3 1;
#X obj 214 115 makefilename /pm7/voice%d/note;
#X obj 228 134 makefilename /pm7/voice%d/vel;
#X obj 333 45 inlet;
#X connect 0 0 5 0;
#X connect 1 0 4 0;
#X connect 2 0 4 0;
#X connect 4 0 3 0;
#X connect 5 0 6 0;
#X connect 5 1 6 1;
#X connect 6 0 7 0;
#X connect 6 0 8 0;
#X connect 6 1 1 1;
#X connect 6 2 2 1;
#X connect 7 0 1 0;
#X connect 8 0 2 0;
#X connect 9 0 6 0;
#X restore 285 173 pd sendnote;
#X obj 306 87 / 10;
#X obj 461 227 * 12;
#X obj 470 267 +;
#X obj 464 303 pack;
#N canvas 0 0 450 300 amp 0;
#X obj 158 48 inlet;
#X obj 197 49 inlet;
#X obj 239 52 inlet;
#X obj 184 123 -;
#X obj 219 124 / 2;
#X obj 158 155 +;
#X obj 158 196 within 0 100;
#X obj 159 218 * 1.27;
#X obj 158 241 outlet;
#X obj 185 101 random 0;
#X obj 158 102 f;
#X obj 158 74 t f b b;
#X obj 108 169 *;
#X connect 0 0 11 0;
#X connect 1 0 10 1;
#X connect 2 0 4 0;
#X connect 2 0 9 1;
#X connect 3 0 5 1;
#X connect 4 0 3 1;
#X connect 5 0 12 1;
#X connect 6 0 7 0;
#X connect 7 0 8 0;
#X connect 9 0 3 0;
#X connect 10 0 5 0;
#X connect 11 0 12 0;
#X connect 11 1 10 0;
#X connect 11 2 9 0;
#X connect 12 0 6 0;
#X restore 588 214 pd amp;
#X obj 186 -42 r OSC;
#X obj 187 -18 OSCroute /pm7 /keyboard;
#X obj 510 213 unpack;
#X obj 515 184 t l;
#X obj 188 11 OSCroute /speed /speeddev /len /lendev /amp /ampdev /octHi
/octLo;
#N canvas 0 0 965 483 keys 0;
#X obj 98 25 OSCroute /keyboardLo0 /keyboardLo1 /keyboardLo2 /keyboardLo3
/keyboardLo4 /keyboardLo5 /keyboardLo6 /keyboardLo7 /keyboardLo8 /keyboardLo9
/keyboardLo10 /keyboardLo11;
#X obj 512 57 OSCroute /keyboardHi0 /keyboardHi1 /keyboardHi2 /keyboardHi3
/keyboardHi4 /keyboardHi5 /keyboardHi6 /keyboardHi7 /keyboardHi8 /keyboardHi9
/keyboardHi10 /keyboardHi11;
#X msg 98 86 1 \$1;
#X obj 237 242 l;
#X msg 128 86 2 \$1;
#X msg 158 86 3 \$1;
#X msg 188 86 4 \$1;
#X msg 200 106 5 \$1;
#X msg 228 106 6 \$1;
#X msg 258 107 7 \$1;
#X msg 288 106 8 \$1;
#X msg 298 86 9 \$1;
#X msg 328 86 10 \$1;
#X msg 358 86 11 \$1;
#X msg 388 86 12 \$1;
#X msg 518 126 1 \$1;
#X msg 548 126 2 \$1;
#X msg 578 126 3 \$1;
#X msg 608 126 4 \$1;
#X msg 620 146 5 \$1;
#X msg 648 146 6 \$1;
#X msg 678 147 7 \$1;
#X msg 708 146 8 \$1;
#X msg 718 126 9 \$1;
#X msg 748 126 10 \$1;
#X msg 778 126 11 \$1;
#X msg 808 126 12 \$1;
#X obj 656 304 + 12;
#X obj 662 323 pack;
#X obj 102 4 inlet;
#X obj 272 388 tabwrite \$0-notes;
#X msg 272 367 \$2 \$1;
#X obj 657 282 unpack;
#X connect 0 0 2 0;
#X connect 0 1 4 0;
#X connect 0 2 5 0;
#X connect 0 3 6 0;
#X connect 0 4 7 0;
#X connect 0 5 8 0;
#X connect 0 6 9 0;
#X connect 0 7 10 0;
#X connect 0 8 11 0;
#X connect 0 9 12 0;
#X connect 0 10 13 0;
#X connect 0 11 14 0;
#X connect 0 12 1 0;
#X connect 1 0 15 0;
#X connect 1 1 16 0;
#X connect 1 2 17 0;
#X connect 1 3 18 0;
#X connect 1 4 19 0;
#X connect 1 5 20 0;
#X connect 1 6 21 0;
#X connect 1 7 22 0;
#X connect 1 8 23 0;
#X connect 1 9 24 0;
#X connect 1 10 25 0;
#X connect 1 11 26 0;
#X connect 2 0 3 0;
#X connect 3 0 31 0;
#X connect 4 0 3 0;
#X connect 5 0 3 0;
#X connect 6 0 3 0;
#X connect 7 0 3 0;
#X connect 8 0 3 0;
#X connect 9 0 3 0;
#X connect 10 0 3 0;
#X connect 11 0 3 0;
#X connect 12 0 3 0;
#X connect 13 0 3 0;
#X connect 14 0 3 0;
#X connect 15 0 32 0;
#X connect 16 0 32 0;
#X connect 17 0 32 0;
#X connect 18 0 32 0;
#X connect 19 0 32 0;
#X connect 20 0 32 0;
#X connect 21 0 32 0;
#X connect 22 0 32 0;
#X connect 23 0 32 0;
#X connect 24 0 32 0;
#X connect 25 0 32 0;
#X connect 26 0 32 0;
#X connect 27 0 28 0;
#X connect 28 0 31 0;
#X connect 29 0 0 0;
#X connect 31 0 30 0;
#X connect 32 0 27 0;
#X connect 32 1 28 1;
#X restore 174 149 pd keys;
#X obj 195 69 _j/scale 0 1000 100 0;
#X obj 236 47 / 100;
#X obj 282 45 / 10;
#X obj 382 68 / 10;
#X obj 431 67 / 10;
#X obj 493 75 OSCroute /onoff;
#X obj 54 76 oscmatrix_s /voice2;
#X obj 54 96 oscmatrix_s /voice3;
#X connect 0 0 6 0;
#X connect 1 0 5 0;
#X connect 5 0 3 0;
#X connect 6 0 2 0;
#X connect 8 0 9 0;
#X connect 10 0 8 6;
#X connect 11 0 12 1;
#X connect 12 0 13 0;
#X connect 13 0 9 1;
#X connect 14 0 13 1;
#X connect 15 0 16 0;
#X connect 16 0 20 0;
#X connect 16 0 19 0;
#X connect 16 1 18 0;
#X connect 17 0 12 0;
#X connect 17 1 14 0;
#X connect 18 0 17 0;
#X connect 19 0 21 0;
#X connect 19 1 22 0;
#X connect 19 2 23 0;
#X connect 19 3 10 0;
#X connect 19 4 14 1;
#X connect 19 4 24 0;
#X connect 19 5 14 2;
#X connect 19 5 25 0;
#X connect 19 6 8 0;
#X connect 19 7 8 1;
#X connect 19 7 11 0;
#X connect 19 8 26 0;
#X connect 21 0 8 7;
#X connect 22 0 8 8;
#X connect 23 0 8 5;
#X connect 24 0 8 3;
#X connect 25 0 8 4;
#X connect 26 0 8 9;
