#N canvas 46 59 978 570 10;
#X obj 249 398 catch~ mainL;
#X obj 270 416 catch~ mainR;
#X obj 248 463 dac~;
#N canvas 0 0 1017 555 sendtoyouoyouoyouoyouoyou 0;
#X obj 99 58 inlet;
#X obj 537 28 inlet;
#X obj 577 28 inlet;
#X obj 627 28 inlet;
#X obj 677 28 inlet;
#X obj 727 28 inlet;
#X obj 206 127 inlet;
#X obj 273 130 inlet;
#X obj 357 170 inlet;
#X obj 434 209 inlet;
#X obj 518 249 inlet;
#X obj 62 82 spigot;
#X obj 62 102 OSCprepend /op1;
#X obj 157 128 spigot;
#X obj 235 165 spigot;
#X obj 320 205 spigot;
#X obj 397 242 spigot;
#X obj 482 281 spigot;
#X obj 559 428 s OSC;
#X obj 157 148 OSCprepend /op2;
#X obj 235 185 OSCprepend /op3;
#X obj 320 225 OSCprepend /op4;
#X obj 397 262 OSCprepend /op5;
#X obj 482 301 OSCprepend /op6;
#X obj 559 354 OSCprepend /env;
#X obj 559 377 OSCprepend /fm/ui;
#X obj 577 402 OSCprepend /fm;
#X obj 537 57 list prepend /delay;
#X obj 572 83 list prepend /attack;
#X obj 622 100 list prepend /decay;
#X obj 687 117 list prepend /sustain;
#X obj 727 147 list prepend /release;
#X obj 539 130 list trim;
#X connect 0 0 11 1;
#X connect 1 0 27 0;
#X connect 2 0 28 0;
#X connect 3 0 29 0;
#X connect 4 0 30 0;
#X connect 5 0 31 0;
#X connect 6 0 13 1;
#X connect 7 0 14 1;
#X connect 8 0 15 1;
#X connect 9 0 16 1;
#X connect 10 0 17 1;
#X connect 11 0 12 0;
#X connect 12 0 24 0;
#X connect 13 0 19 0;
#X connect 14 0 20 0;
#X connect 15 0 21 0;
#X connect 16 0 22 0;
#X connect 17 0 23 0;
#X connect 19 0 24 0;
#X connect 20 0 24 0;
#X connect 21 0 24 0;
#X connect 22 0 24 0;
#X connect 23 0 24 0;
#X connect 24 0 25 0;
#X connect 24 0 26 0;
#X connect 25 0 18 0;
#X connect 26 0 18 0;
#X connect 27 0 32 0;
#X connect 28 0 32 0;
#X connect 29 0 32 0;
#X connect 30 0 32 0;
#X connect 31 0 32 0;
#X connect 32 0 17 0;
#X connect 32 0 16 0;
#X connect 32 0 15 0;
#X connect 32 0 14 0;
#X connect 32 0 13 0;
#X connect 32 0 11 0;
#X restore 319 180 pd sendtoyouoyouoyouoyouoyou;
#X obj 774 216 oscmatrix /voice1;
#X text 511 186 TODO: freq env \, set freq \, statesave;
#X obj 314 441 r OSC;
#X obj 316 467 print;
#X obj 394 256 originator /fmsynth \$0;
#X obj 178 360 uimatrixrow /matrix/op4 \$0;
#X obj 53 435 r \$0-RRADICAL-CB;
#X obj 53 457 OSCprepend /fm;
#X obj 52 483 s OSC;
#X obj 61 21 cnv 15 238 258 empty empty empty 20 12 0 14 -233017 -66577
0;
#N canvas 0 0 450 300 frequencies_______ 0;
#X obj 45 20 inlet;
#X obj 39 246 outlet;
#X obj 94 20 inlet;
#X obj 88 246 outlet;
#X obj 145 20 inlet;
#X obj 139 246 outlet;
#X obj 194 20 inlet;
#X obj 188 246 outlet;
#X obj 245 20 inlet;
#X obj 239 246 outlet;
#X obj 294 20 inlet;
#X obj 288 246 outlet;
#X obj 42 109 fcommun /op1/relfreq \$0;
#X obj 92 129 fcommun /op2/relfreq \$0;
#X obj 152 149 fcommun /op3/relfreq \$0;
#X obj 192 169 fcommun /op4/relfreq \$0;
#X obj 242 189 fcommun /op5/relfreq \$0;
#X obj 292 209 fcommun /op6/relfreq \$0;
#X connect 0 0 12 0;
#X connect 2 0 13 0;
#X connect 4 0 14 0;
#X connect 6 0 15 0;
#X connect 8 0 16 0;
#X connect 10 0 17 0;
#X connect 12 0 1 0;
#X connect 13 0 3 0;
#X connect 14 0 5 0;
#X connect 15 0 7 0;
#X connect 16 0 9 0;
#X connect 17 0 11 0;
#X restore 28 376 pd frequencies_______;
#X obj 81 187 cnv 15 218 92 empty empty matrix 2 5 1 9 -261681 -66577
0;
#X obj 83 197 nbx 4 10 0 100 0 0 empty empty empty 0 -6 1 9 -233017
-1 -1 0 256;
#X obj 83 207 nbx 4 10 0 100 0 0 empty empty empty 0 -6 1 9 -262144
-1 -1 0 256;
#X obj 83 217 nbx 4 10 0 100 0 0 empty empty empty 0 -6 1 9 -262144
-1 -1 0 256;
#X obj 83 227 nbx 4 10 0 100 0 0 empty empty empty 0 -6 1 9 -262144
-1 -1 0 256;
#X obj 83 237 nbx 4 10 0 100 0 0 empty empty empty 0 -6 1 9 -262144
-1 -1 0 256;
#X obj 83 247 nbx 4 10 0 100 0 0 empty empty empty 0 -6 1 9 -262144
-1 -1 0 256;
#X obj 83 257 nbx 4 10 0 100 0 0 empty empty pan -22 6 1 9 -195568
-1 -1 50 256;
#X obj 83 267 nbx 4 10 0 100 0 0 empty empty vol -21 6 1 9 -195568
-1 -1 0 256;
#X obj 119 197 nbx 4 10 0 100 0 0 empty empty empty 0 -6 1 9 -262144
-1 -1 0 256;
#X obj 119 207 nbx 4 10 0 100 0 0 empty empty empty 0 -6 1 9 -233017
-1 -1 0 256;
#X obj 119 217 nbx 4 10 0 100 0 0 empty empty empty 0 -6 1 9 -262144
-1 -1 0 256;
#X obj 119 227 nbx 4 10 0 100 0 0 empty empty empty 0 -6 1 9 -262144
-1 -1 0 256;
#X obj 119 237 nbx 4 10 0 100 0 0 empty empty empty 0 -6 1 9 -262144
-1 -1 0 256;
#X obj 119 247 nbx 4 10 0 100 0 0 empty empty empty 0 -6 1 9 -262144
-1 -1 0 256;
#X obj 119 257 nbx 4 10 0 100 0 0 empty empty empty 0 -6 1 9 -195568
-1 -1 50 256;
#X obj 119 267 nbx 4 10 0 100 0 0 empty empty empty 0 -6 1 9 -195568
-1 -1 0 256;
#X obj 155 197 nbx 4 10 0 100 0 0 empty empty empty 0 -6 1 9 -262144
-1 -1 0 256;
#X obj 155 207 nbx 4 10 0 100 0 0 empty empty empty 0 -6 1 9 -262144
-1 -1 0 256;
#X obj 155 217 nbx 4 10 0 100 0 0 empty empty empty 0 -6 1 9 -233017
-1 -1 0 256;
#X obj 155 227 nbx 4 10 0 100 0 0 empty empty empty 0 -6 1 9 -262144
-1 -1 0 256;
#X obj 155 237 nbx 4 10 0 100 0 0 empty empty empty 0 -6 1 9 -262144
-1 -1 0 256;
#X obj 155 247 nbx 4 10 0 100 0 0 empty empty empty 0 -6 1 9 -262144
-1 -1 0 256;
#X obj 155 257 nbx 4 10 0 100 0 0 empty empty empty 0 -6 1 9 -195568
-1 -1 50 256;
#X obj 155 267 nbx 4 10 0 100 0 0 empty empty empty 0 -6 1 9 -195568
-1 -1 0 256;
#X obj 191 197 nbx 4 10 0 100 0 0 empty empty empty 0 -6 1 9 -262144
-1 -1 0 256;
#X obj 191 207 nbx 4 10 0 100 0 0 empty empty empty 0 -6 1 9 -262144
-1 -1 0 256;
#X obj 191 217 nbx 4 10 0 100 0 0 empty empty empty 0 -6 1 9 -262144
-1 -1 0 256;
#X obj 191 227 nbx 4 10 0 100 0 0 empty empty empty 0 -6 1 9 -233017
-1 -1 0 256;
#X obj 191 237 nbx 4 10 0 100 0 0 empty empty empty 0 -6 1 9 -262144
-1 -1 0 256;
#X obj 191 247 nbx 4 10 0 100 0 0 empty empty empty 0 -6 1 9 -262144
-1 -1 0 256;
#X obj 191 257 nbx 4 10 0 100 0 0 empty empty empty 0 -6 1 9 -195568
-1 -1 50 256;
#X obj 191 267 nbx 4 10 0 100 0 0 empty empty empty 0 -6 1 9 -195568
-1 -1 0 256;
#X obj 226 197 nbx 4 10 0 100 0 0 empty empty empty 0 -6 1 9 -262144
-1 -1 0 256;
#X obj 226 207 nbx 4 10 0 100 0 0 empty empty empty 0 -6 1 9 -262144
-1 -1 0 256;
#X obj 226 217 nbx 4 10 0 100 0 0 empty empty empty 0 -6 1 9 -262144
-1 -1 0 256;
#X obj 226 227 nbx 4 10 0 100 0 0 empty empty empty 0 -6 1 9 -262144
-1 -1 0 256;
#X obj 226 237 nbx 4 10 0 100 0 0 empty empty empty 0 -6 1 9 -233017
-1 -1 0 256;
#X obj 226 247 nbx 4 10 0 100 0 0 empty empty empty 0 -6 1 9 -262144
-1 -1 0 256;
#X obj 226 257 nbx 4 10 0 100 0 0 empty empty empty 0 -6 1 9 -195568
-1 -1 50 256;
#X obj 226 267 nbx 4 10 0 100 0 0 empty empty empty 0 -6 1 9 -195568
-1 -1 0 256;
#X obj 262 197 nbx 4 10 0 100 0 0 empty empty empty 0 -6 1 9 -262144
-1 -1 0 256;
#X obj 262 207 nbx 4 10 0 100 0 0 empty empty empty 0 -6 1 9 -262144
-1 -1 0 256;
#X obj 262 217 nbx 4 10 0 100 0 0 empty empty empty 0 -6 1 9 -262144
-1 -1 0 256;
#X obj 262 227 nbx 4 10 0 100 0 0 empty empty empty 0 -6 1 9 -262144
-1 -1 0 256;
#X obj 262 237 nbx 4 10 0 100 0 0 empty empty empty 0 -6 1 9 -262144
-1 -1 0 256;
#X obj 262 247 nbx 4 10 0 100 0 0 empty empty empty 0 -6 1 9 -233017
-1 -1 0 256;
#X obj 262 257 nbx 4 10 0 100 0 0 empty empty empty 0 -6 1 9 -195568
-1 -1 50 256;
#X obj 262 267 nbx 4 10 0 100 0 0 empty empty empty 0 -6 1 9 -195568
-1 -1 0 256;
#X obj 105 100 cnv 15 192 84 empty empty p_env 2 5 1 9 -261681 -66577
0;
#X obj 118 112 nbx 4 10 0 100 0 0 empty empty empty 0 -6 1 9 -262144
-1 -1 0 256;
#X obj 153 112 nbx 4 10 0 100 0 0 empty empty empty 0 -6 1 9 -262144
-1 -1 0 256;
#X obj 188 112 nbx 4 10 0 100 0 0 empty empty empty 0 -6 1 9 -262144
-1 -1 0 256;
#X obj 223 112 nbx 4 10 0 100 0 0 empty empty empty 0 -6 1 9 -262144
-1 -1 0 256;
#X obj 258 112 nbx 4 10 0 100 0 0 empty empty empty 0 -6 1 9 -262144
-1 -1 0 256;
#X obj 118 122 nbx 4 10 0 100 0 0 empty empty empty 0 -6 1 9 -262144
-1 -1 0 256;
#X obj 153 122 nbx 4 10 0 100 0 0 empty empty empty 0 -6 1 9 -262144
-1 -1 0 256;
#X obj 188 122 nbx 4 10 0 100 0 0 empty empty empty 0 -6 1 9 -262144
-1 -1 0 256;
#X obj 223 122 nbx 4 10 0 100 0 0 empty empty empty 0 -6 1 9 -262144
-1 -1 0 256;
#X obj 258 122 nbx 4 10 0 100 0 0 empty empty empty 0 -6 1 9 -262144
-1 -1 0 256;
#X obj 118 132 nbx 4 10 0 100 0 0 empty empty empty 0 -6 1 9 -262144
-1 -1 0 256;
#X obj 153 132 nbx 4 10 0 100 0 0 empty empty empty 0 -6 1 9 -262144
-1 -1 0 256;
#X obj 188 132 nbx 4 10 0 100 0 0 empty empty empty 0 -6 1 9 -262144
-1 -1 0 256;
#X obj 223 132 nbx 4 10 0 100 0 0 empty empty empty 0 -6 1 9 -262144
-1 -1 0 256;
#X obj 258 132 nbx 4 10 0 100 0 0 empty empty empty 0 -6 1 9 -262144
-1 -1 0 256;
#X obj 118 142 nbx 4 10 0 100 0 0 empty empty empty 0 -6 1 9 -262144
-1 -1 0 256;
#X obj 153 142 nbx 4 10 0 100 0 0 empty empty empty 0 -6 1 9 -262144
-1 -1 0 256;
#X obj 188 142 nbx 4 10 0 100 0 0 empty empty empty 0 -6 1 9 -262144
-1 -1 0 256;
#X obj 223 142 nbx 4 10 0 100 0 0 empty empty empty 0 -6 1 9 -262144
-1 -1 0 256;
#X obj 258 142 nbx 4 10 0 100 0 0 empty empty empty 0 -6 1 9 -262144
-1 -1 0 256;
#X obj 118 152 nbx 4 10 0 100 0 0 empty empty empty 0 -6 1 9 -262144
-1 -1 0 256;
#X obj 153 152 nbx 4 10 0 100 0 0 empty empty empty 0 -6 1 9 -262144
-1 -1 0 256;
#X obj 188 152 nbx 4 10 0 100 0 0 empty empty empty 0 -6 1 9 -262144
-1 -1 0 256;
#X obj 223 152 nbx 4 10 0 100 0 0 empty empty empty 0 -6 1 9 -262144
-1 -1 0 256;
#X obj 258 152 nbx 4 10 0 100 0 0 empty empty empty 0 -6 1 9 -262144
-1 -1 0 256;
#X obj 118 162 nbx 4 10 0 100 0 0 empty empty empty 0 -6 1 9 -262144
-1 -1 0 256;
#X obj 153 162 nbx 4 10 0 100 0 0 empty empty empty 0 -6 1 9 -262144
-1 -1 0 256;
#X obj 188 162 nbx 4 10 0 100 0 0 empty empty empty 0 -6 1 9 -262144
-1 -1 0 256;
#X obj 223 162 nbx 4 10 0 100 0 0 empty empty empty 0 -6 1 9 -262144
-1 -1 0 256;
#X obj 258 162 nbx 4 10 0 100 0 0 empty empty empty 0 -6 1 9 -262144
-1 -1 0 256;
#X obj 118 172 nbx 4 10 0 100 0 0 empty empty empty 0 -6 1 9 -195568
-1 -1 0 256;
#X obj 153 172 nbx 4 10 0 100 0 0 empty empty empty 0 -6 1 9 -195568
-1 -1 0 256;
#X obj 189 172 nbx 4 10 0 100 0 0 empty empty empty 0 -6 1 9 -195568
-1 -1 0 256;
#X obj 224 172 nbx 4 10 0 100 0 0 empty empty empty 0 -6 1 9 -195568
-1 -1 0 256;
#X obj 260 172 nbx 4 10 0 100 0 0 empty empty empty 0 -6 1 9 -195568
-1 -1 0 256;
#X obj 107 112 tgl 10 0 empty empty empty 0 -6 0 8 -195568 -1 -1 0
1;
#X obj 107 122 tgl 10 0 empty empty empty 0 -6 0 8 -195568 -1 -1 0
2;
#X obj 107 132 tgl 10 0 empty empty empty 0 -6 0 8 -195568 -1 -1 0
3;
#X obj 107 142 tgl 10 0 empty empty empty 0 -6 0 8 -195568 -1 -1 0
1;
#X obj 107 152 tgl 10 0 empty empty empty 0 -6 0 8 -195568 -1 -1 0
1;
#X obj 107 162 tgl 10 0 empty empty empty 0 -6 0 8 -195568 -1 -1 0
1;
#X obj 63 100 cnv 15 39 84 empty empty freq 2 5 1 9 -261681 -66577
0;
#X obj 64 111 nbx 4 10 0 100 0 0 empty empty empty -18 6 1 9 -262144
-1 -1 0 256;
#X obj 64 123 nbx 4 10 0 100 0 0 empty empty empty 0 -6 1 9 -262144
-1 -1 0 256;
#X obj 64 135 nbx 4 10 0 100 0 0 empty empty empty 0 -6 1 9 -262144
-1 -1 0 256;
#X obj 64 147 nbx 4 10 0 100 0 0 empty empty empty 0 -6 1 9 -262144
-1 -1 0 256;
#X obj 64 159 nbx 4 10 0 100 0 0 empty empty empty 0 -6 1 9 -262144
-1 -1 0 256;
#X obj 64 171 nbx 4 10 0 100 0 0 empty empty empty 0 -6 1 9 -262144
-1 -1 0 256;
#X obj 774 236 oscmatrix /voice2;
#X obj 774 256 oscmatrix /voice3;
#X obj 774 276 oscmatrix /voice4;
#X obj 774 296 oscmatrix /voice6;
#X obj 774 316 oscmatrix /voice5;
#X obj 404 99 uienvrow /aenv/op2 \$0;
#X obj 404 115 uienvrow /aenv/op4 \$0;
#X obj 404 131 uienvrow /aenv/op6 \$0;
#X obj 404 83 uienvrow /aenv/op1 \$0;
#X obj 404 147 uienvrow /aenv/op3 \$0;
#X obj 404 163 uienvrow /aenv/op5 \$0;
#X obj 71 309 uimatrixrow /matrix/op1 \$0;
#X obj 222 290 uimatrixrow /matrix/op5 \$0;
#X obj 249 326 uimatrixrow /matrix/op6 \$0;
#X obj 38 349 uimatrixrow /matrix/op3 \$0;
#X obj 62 328 uimatrixrow /matrix/op2 \$0;
#X obj 195 37 cnv 15 92 26 empty empty empty 20 12 0 14 -128992 -66577
0;
#X obj 196 50 tgl 12 0 \$0-sdayuidsa \$0-fbifbaobfoiasb empty 0 -6
0 8 -262144 -1 -1 0 1;
#X obj 209 50 tgl 12 0 \$0-sdayuidsa \$0-fbifbaobfoiasb empty 0 -6
0 8 -262144 -1 -1 0 1;
#X obj 222 50 tgl 12 0 \$0-sdayuidsa \$0-fbifbaobfoiasb empty 0 -6
0 8 -262144 -1 -1 0 1;
#X obj 235 50 tgl 12 0 \$0-sdayuidsa \$0-fbifbaobfoiasb empty 0 -6
0 8 -262144 -1 -1 0 1;
#X obj 248 50 tgl 12 0 \$0-sdayuidsa \$0-fbifbaobfoiasb empty 0 -6
0 8 -262144 -1 -1 0 1;
#X obj 261 50 tgl 12 0 \$0-sdayuidsa \$0-fbifbaobfoiasb empty 0 -6
0 8 -262144 -1 -1 0 1;
#X obj 274 50 tgl 12 0 \$0-sdayuidsa \$0-fbifbaobfoiasb empty 0 -6
0 8 -262144 -1 -1 0 1;
#X obj 202 38 tgl 12 0 \$0-sdayuidsa \$0-fbifbaobfoiasb empty 0 -6
0 8 -1 -262144 -262144 0 1;
#X obj 216 38 tgl 12 0 \$0-sdayuidsa \$0-fbifbaobfoiasb empty 0 -6
0 8 -1 -262144 -262144 0 1;
#X obj 241 38 tgl 12 0 \$0-sdayuidsa \$0-fbifbaobfoiasb empty 0 -6
0 8 -1 -262144 -262144 0 1;
#X obj 255 38 tgl 12 0 \$0-sdayuidsa \$0-fbifbaobfoiasb empty 0 -6
0 8 -1 -262144 -262144 0 1;
#X obj 269 38 tgl 12 0 \$0-sdayuidsa \$0-fbifbaobfoiasb empty 0 -6
0 8 -1 -262144 -262144 0 1;
#N canvas 0 0 798 387 tolvtolvtolv 0;
#X obj 63 30 inlet;
#X obj 113 30 inlet;
#X obj 163 30 inlet;
#X obj 203 30 inlet;
#X obj 253 30 inlet;
#X obj 303 30 inlet;
#X obj 343 30 inlet;
#X obj 393 30 inlet;
#X obj 443 30 inlet;
#X obj 483 30 inlet;
#X obj 533 30 inlet;
#X obj 583 30 inlet;
#X msg 63 53 1 \$1;
#X msg 113 53 2 \$1;
#X msg 163 53 3 \$1;
#X msg 203 53 4 \$1;
#X msg 253 53 5 \$1;
#X msg 303 53 6 \$1;
#X msg 343 53 7 \$1;
#X msg 393 53 8 \$1;
#X msg 443 53 9 \$1;
#X msg 483 53 10 \$1;
#X msg 533 53 11 \$1;
#X msg 583 53 12 \$1;
#X obj 323 126 l;
#X obj 324 169 tabwrite \$0-notes;
#X msg 324 148 \$2 \$1;
#X connect 0 0 12 0;
#X connect 1 0 13 0;
#X connect 2 0 14 0;
#X connect 3 0 15 0;
#X connect 4 0 16 0;
#X connect 5 0 17 0;
#X connect 6 0 18 0;
#X connect 7 0 19 0;
#X connect 8 0 20 0;
#X connect 9 0 21 0;
#X connect 10 0 22 0;
#X connect 11 0 23 0;
#X connect 12 0 24 0;
#X connect 13 0 24 0;
#X connect 14 0 24 0;
#X connect 15 0 24 0;
#X connect 16 0 24 0;
#X connect 17 0 24 0;
#X connect 18 0 24 0;
#X connect 19 0 24 0;
#X connect 20 0 24 0;
#X connect 21 0 24 0;
#X connect 22 0 24 0;
#X connect 23 0 24 0;
#X connect 24 0 26 0;
#X connect 26 0 25 0;
#X restore 318 43 pd tolvtolvtolv;
#X obj 177 48 tgl 15 0 empty empty key 0 -6 1 8 -195568 -1 -1 0 1;
#N canvas 0 0 798 387 tolvtolvtolv 0;
#X obj 214 120 outlet;
#X obj 213 47 key;
#X obj 234 141 outlet;
#X obj 264 120 outlet;
#X obj 284 141 outlet;
#X obj 309 120 outlet;
#X obj 329 141 outlet;
#X obj 359 120 outlet;
#X obj 379 141 outlet;
#X obj 409 120 outlet;
#X obj 429 141 outlet;
#X obj 459 120 outlet;
#X obj 479 141 outlet;
#X obj 86 50 inlet;
#X obj 211 67 spigot;
#X obj 213 95 select 113 50 119 51 101 114 53 116 54 121 55 117;
#X connect 1 0 14 0;
#X connect 13 0 14 1;
#X connect 14 0 15 0;
#X connect 15 0 0 0;
#X connect 15 1 2 0;
#X connect 15 2 3 0;
#X connect 15 3 4 0;
#X connect 15 4 5 0;
#X connect 15 5 6 0;
#X connect 15 6 7 0;
#X connect 15 7 8 0;
#X connect 15 8 9 0;
#X connect 15 9 10 0;
#X connect 15 10 11 0;
#X connect 15 11 12 0;
#X restore 322 24 pd tolvtolvtolv;
#N canvas 347 155 450 300 oct 0;
#X msg 103 168 set \$1;
#X obj 167 154 mousefilter;
#X msg 102 143 set \$1;
#X obj 248 136 mousefilter;
#X obj 197 109 moses;
#X obj 152 111 moses;
#X obj 75 87 expr int($f1 + 0.5);
#X obj 110 191 outlet;
#X obj 166 190 outlet;
#X obj 220 191 outlet;
#X obj 276 190 outlet;
#X obj 276 49 inlet hi;
#X obj 96 58 inlet lo;
#X obj 254 79 expr int($f1 + 0.5);
#X obj 177 135 + 1;
#X connect 0 0 7 0;
#X connect 1 0 0 0;
#X connect 1 0 9 0;
#X connect 1 0 14 0;
#X connect 2 0 8 0;
#X connect 3 0 2 0;
#X connect 3 0 4 1;
#X connect 3 0 10 0;
#X connect 4 1 3 0;
#X connect 5 0 1 0;
#X connect 6 0 4 0;
#X connect 6 0 1 0;
#X connect 11 0 13 0;
#X connect 12 0 6 0;
#X connect 13 0 5 0;
#X connect 13 0 3 0;
#X connect 14 0 5 1;
#X restore 180 -2 pd oct;
#X obj 136 33 nbx 3 10 0 9 0 0 empty empty empty 0 -6 1 9 -262144 -1
-1 0 256;
#X obj 134 53 cnv 1 32 1 empty empty oct 1 -5 1 8 -33289 -66577 0;
#X obj 136 23 nbx 3 10 0 9 0 0 empty empty empty 0 -6 1 9 -262144 -1
-1 0 256;
#N canvas 0 0 657 461 arpogogogogogioi 0;
#X obj 182 61 counter 1 12;
#X obj 184 36 metro 200;
#X obj 182 121 sel 0;
#X obj 251 130 counter;
#X msg 233 172 set 0;
#X obj 252 150 moses 12;
#X obj 283 99 bang;
#X obj 182 101 tabread \$0-notes;
#X obj 131 142 f;
#X obj 208 144 t b b;
#X obj 182 79 t f f;
#X obj 131 167 - 1;
#X obj 131 186 t f b b;
#X obj 159 250 shuffle 4 4;
#X obj 159 205 t b f;
#X obj 159 228 f;
#X obj 131 316 +;
#X obj 160 278 * 12;
#X obj 132 375 +;
#N canvas 0 0 450 300 amp 0;
#X obj 158 48 inlet;
#X obj 158 74 t b b;
#X obj 197 49 inlet;
#X obj 158 102 f;
#X obj 239 52 inlet;
#X obj 184 123 -;
#X obj 219 124 / 2;
#X obj 158 155 +;
#X obj 158 176 within 0 100;
#X obj 159 198 * 1.27;
#X obj 158 221 outlet;
#X obj 185 101 random 0;
#X connect 0 0 1 0;
#X connect 1 0 3 0;
#X connect 1 1 11 0;
#X connect 2 0 3 1;
#X connect 3 0 7 0;
#X connect 4 0 6 0;
#X connect 4 0 11 1;
#X connect 5 0 7 1;
#X connect 6 0 5 1;
#X connect 7 0 8 0;
#X connect 8 0 9 0;
#X connect 9 0 10 0;
#X connect 11 0 5 0;
#X restore 168 357 pd amp;
#X obj 132 336 t f b b;
#X obj 132 405 pack f f f;
#N canvas 0 0 450 300 lenghh 0;
#X obj 158 48 inlet;
#X obj 158 74 t b b;
#X obj 197 49 inlet;
#X obj 158 102 f;
#X obj 240 43 inlet;
#X obj 184 123 -;
#X obj 256 137 / 2;
#X obj 158 155 +;
#X obj 158 221 outlet;
#X obj 185 101 random 0;
#X obj 197 73 * 50;
#X obj 228 75 * 50;
#X obj 158 175 within 20 5000;
#X connect 0 0 1 0;
#X connect 1 0 3 0;
#X connect 1 1 9 0;
#X connect 2 0 10 0;
#X connect 3 0 7 0;
#X connect 4 0 11 0;
#X connect 5 0 7 1;
#X connect 6 0 5 1;
#X connect 7 0 12 0;
#X connect 9 0 5 0;
#X connect 10 0 3 1;
#X connect 11 0 9 1;
#X connect 11 0 6 0;
#X connect 12 0 8 0;
#X restore 218 377 pd lenghh;
#N canvas 0 0 450 300 tempo 0;
#X obj 158 48 inlet;
#X obj 158 74 t b b;
#X obj 195 36 inlet;
#X obj 158 102 f;
#X obj 279 67 inlet;
#X obj 184 123 -;
#X obj 219 124 / 2;
#X obj 158 155 +;
#X obj 158 221 outlet;
#X obj 185 101 random 0;
#X obj 158 176 within 50 5000;
#X obj 194 79 * 50;
#X obj 194 60 + 1;
#X obj 228 75 * 50;
#X obj 273 147 t f;
#X obj 274 167 mousefilter;
#X obj 275 190 t b;
#X obj 280 216 outlet;
#X connect 0 0 1 0;
#X connect 1 0 3 0;
#X connect 1 1 9 0;
#X connect 2 0 12 0;
#X connect 2 0 14 0;
#X connect 3 0 7 0;
#X connect 4 0 13 0;
#X connect 4 0 14 0;
#X connect 5 0 7 1;
#X connect 6 0 5 1;
#X connect 7 0 10 0;
#X connect 9 0 5 0;
#X connect 10 0 8 0;
#X connect 11 0 3 1;
#X connect 12 0 11 0;
#X connect 13 0 9 1;
#X connect 13 0 6 0;
#X connect 14 0 15 0;
#X connect 15 0 16 0;
#X connect 16 0 17 0;
#X restore 205 3 pd tempo;
#X obj 27 52 inlet looct;
#X obj 17 42 inlet hioct;
#X obj 182 313 inlet amp;
#X obj 204 295 inlet ampdev;
#X obj 252 333 inlet leng;
#X obj 293 364 inlet lengdev;
#X obj 355 10 inlet speed;
#X obj 371 31 inlet speedev;
#X obj 53 291 inlet transpose;
#X obj 378 210 table \$0-notes 13;
#X obj 438 58 inlet metro;
#X obj 249 25 spigot;
#X obj 145 436 outlet;
#X connect 0 0 10 0;
#X connect 1 0 0 0;
#X connect 1 0 23 0;
#X connect 2 0 3 0;
#X connect 2 1 9 0;
#X connect 3 0 5 0;
#X connect 4 0 3 0;
#X connect 5 0 6 0;
#X connect 6 0 0 0;
#X connect 7 0 2 0;
#X connect 8 0 11 0;
#X connect 9 0 8 0;
#X connect 9 1 4 0;
#X connect 10 0 7 0;
#X connect 10 1 8 1;
#X connect 11 0 12 0;
#X connect 12 0 16 0;
#X connect 12 1 13 0;
#X connect 13 0 17 0;
#X connect 14 0 15 0;
#X connect 14 1 13 1;
#X connect 15 0 13 0;
#X connect 16 0 20 0;
#X connect 17 0 16 1;
#X connect 18 0 21 0;
#X connect 19 0 21 1;
#X connect 20 0 18 0;
#X connect 20 1 19 0;
#X connect 20 2 22 0;
#X connect 21 0 36 0;
#X connect 22 0 21 2;
#X connect 23 0 1 1;
#X connect 23 1 35 0;
#X connect 24 0 15 0;
#X connect 25 0 14 0;
#X connect 26 0 19 1;
#X connect 27 0 19 2;
#X connect 28 0 22 1;
#X connect 29 0 22 2;
#X connect 30 0 23 1;
#X connect 31 0 23 2;
#X connect 32 0 18 1;
#X connect 34 0 35 1;
#X connect 34 0 1 0;
#X connect 35 0 1 0;
#X restore 423 2 pd arpogogogogogioi;
#X obj 99 53 cnv 1 32 1 empty empty pitch 1 -5 1 8 -33289 -66577 0
;
#X obj 102 33 nbx 3 10 -99 100 0 0 empty empty empty 0 -6 1 9 -262144
-1 -1 0 256;
#X obj 102 23 nbx 3 10 -24 24 0 0 empty empty empty 0 -6 1 9 -262144
-1 -1 0 256;
#N canvas 0 0 450 300 pitch 0;
#X obj 140 20 inlet;
#X obj 180 20 inlet;
#X obj 184 174 outlet;
#X obj 181 59 / 100;
#X obj 131 137 +;
#X obj 141 74 t b f;
#X obj 132 103 f;
#X connect 0 0 6 0;
#X connect 1 0 3 0;
#X connect 3 0 5 0;
#X connect 4 0 2 0;
#X connect 5 0 6 0;
#X connect 5 1 4 1;
#X connect 6 0 4 0;
#X restore 126 -11 pd pitch;
#X obj 133 86 cnv 1 32 1 empty empty amp 1 -5 1 8 -33289 -66577 0;
#X obj 136 66 nbx 3 10 0 100 0 0 empty empty empty 0 -6 1 9 -262144
-1 -1 0 256;
#X obj 136 56 nbx 3 10 0 100 0 0 empty empty empty 0 -6 1 9 -262144
-1 -1 0 256;
#X obj 98 86 cnv 1 32 1 empty empty length 1 -5 1 8 -33289 -66577 0
;
#X obj 101 66 nbx 3 10 0 100 0 0 empty empty empty 0 -6 1 9 -262144
-1 -1 0 256;
#X obj 101 56 nbx 3 10 0 100 0 0 empty empty empty 0 -6 1 9 -262144
-1 -1 0 256;
#X obj 62 86 cnv 1 32 1 empty empty speed 1 -5 1 8 -33289 -66577 0
;
#X obj 65 66 nbx 3 10 0 100 0 0 empty empty empty 0 -6 1 9 -262144
-1 -1 0 256;
#X obj 65 56 nbx 3 10 1 100 1 0 empty empty empty 0 -6 1 9 -262144
-1 -1 1 256;
#X obj 73 31 tgl 15 0 empty empty empty 0 -6 0 8 -24198 -1 -1 0 1;
#N canvas 0 0 450 300 sendnote 0;
#X obj 214 30 inlet;
#X obj 215 155 pack s f;
#X obj 214 115 makefilename /fm/voice%d/note;
#X obj 228 134 makefilename /fm/voice%d/vel;
#X obj 229 175 pack s f;
#X obj 216 228 s OSC;
#X obj 212 204 list trim;
#X obj 213 95 poly 6 1;
#X obj 213 74 makenote;
#X connect 0 0 8 0;
#X connect 1 0 6 0;
#X connect 2 0 1 0;
#X connect 3 0 4 0;
#X connect 4 0 6 0;
#X connect 6 0 5 0;
#X connect 7 0 2 0;
#X connect 7 0 3 0;
#X connect 7 1 1 1;
#X connect 7 2 4 1;
#X connect 8 0 7 0;
#X connect 8 1 7 1;
#X restore 423 24 pd sendnote;
#X obj 171 79 cnv 15 128 20 empty empty empty 20 12 0 14 -158336 -66577
0;
#X obj 175 88 nbx 2 10 0 1e+37 0 0 empty empty empty 0 -6 0 10 -241291
-62784 -1 0 256;
#X obj 189 80 bng 8 250 50 0 empty empty <s> -18 4 1 8 -241291 -1 -1
;
#X symbolatom 204 83 15 0 0 0 - - -;
#X obj 394 235 substatename-ng pm7 \$0;
#X connect 0 0 2 0;
#X connect 1 0 2 1;
#X connect 9 0 40 0;
#X connect 9 1 41 0;
#X connect 9 2 42 0;
#X connect 9 3 43 0;
#X connect 9 4 44 0;
#X connect 9 5 45 0;
#X connect 9 6 46 0;
#X connect 9 7 47 0;
#X connect 10 0 11 0;
#X connect 11 0 12 0;
#X connect 14 0 107 0;
#X connect 14 1 108 0;
#X connect 14 2 109 0;
#X connect 14 3 110 0;
#X connect 14 4 111 0;
#X connect 14 5 112 0;
#X connect 16 0 124 0;
#X connect 17 0 124 1;
#X connect 18 0 124 2;
#X connect 19 0 124 3;
#X connect 20 0 124 4;
#X connect 21 0 124 5;
#X connect 22 0 124 6;
#X connect 23 0 124 7;
#X connect 24 0 128 0;
#X connect 25 0 128 1;
#X connect 26 0 128 2;
#X connect 27 0 128 3;
#X connect 28 0 128 4;
#X connect 29 0 128 5;
#X connect 30 0 128 6;
#X connect 31 0 128 7;
#X connect 32 0 127 0;
#X connect 33 0 127 1;
#X connect 34 0 127 2;
#X connect 35 0 127 3;
#X connect 36 0 127 4;
#X connect 37 0 127 5;
#X connect 38 0 127 6;
#X connect 39 0 127 7;
#X connect 40 0 9 0;
#X connect 41 0 9 1;
#X connect 42 0 9 2;
#X connect 43 0 9 3;
#X connect 44 0 9 4;
#X connect 45 0 9 5;
#X connect 46 0 9 6;
#X connect 47 0 9 7;
#X connect 48 0 125 0;
#X connect 49 0 125 1;
#X connect 50 0 125 2;
#X connect 51 0 125 3;
#X connect 52 0 125 4;
#X connect 53 0 125 5;
#X connect 54 0 125 6;
#X connect 55 0 125 7;
#X connect 56 0 126 0;
#X connect 57 0 126 1;
#X connect 58 0 126 2;
#X connect 59 0 126 3;
#X connect 60 0 126 4;
#X connect 61 0 126 5;
#X connect 62 0 126 6;
#X connect 63 0 126 7;
#X connect 65 0 121 0;
#X connect 66 0 121 1;
#X connect 67 0 121 2;
#X connect 68 0 121 3;
#X connect 69 0 121 4;
#X connect 70 0 118 0;
#X connect 71 0 118 1;
#X connect 72 0 118 2;
#X connect 73 0 118 3;
#X connect 74 0 118 4;
#X connect 75 0 122 0;
#X connect 76 0 122 1;
#X connect 77 0 122 2;
#X connect 78 0 122 3;
#X connect 79 0 122 4;
#X connect 80 0 119 0;
#X connect 81 0 119 1;
#X connect 82 0 119 2;
#X connect 83 0 119 3;
#X connect 84 0 119 4;
#X connect 85 0 123 0;
#X connect 86 0 123 1;
#X connect 87 0 123 2;
#X connect 88 0 123 3;
#X connect 89 0 123 4;
#X connect 90 0 120 0;
#X connect 91 0 120 1;
#X connect 92 0 120 2;
#X connect 93 0 120 3;
#X connect 94 0 120 4;
#X connect 95 0 3 6;
#X connect 96 0 3 7;
#X connect 97 0 3 8;
#X connect 98 0 3 9;
#X connect 99 0 3 10;
#X connect 100 0 3 0;
#X connect 101 0 3 1;
#X connect 102 0 3 2;
#X connect 103 0 3 3;
#X connect 104 0 3 4;
#X connect 105 0 3 5;
#X connect 107 0 14 0;
#X connect 108 0 14 1;
#X connect 109 0 14 2;
#X connect 110 0 14 3;
#X connect 111 0 14 4;
#X connect 112 0 14 5;
#X connect 118 0 70 0;
#X connect 118 1 71 0;
#X connect 118 2 72 0;
#X connect 118 3 73 0;
#X connect 118 4 74 0;
#X connect 119 0 80 0;
#X connect 119 1 81 0;
#X connect 119 2 82 0;
#X connect 119 3 83 0;
#X connect 119 4 84 0;
#X connect 120 0 90 0;
#X connect 120 1 91 0;
#X connect 120 2 92 0;
#X connect 120 3 93 0;
#X connect 120 4 94 0;
#X connect 121 0 65 0;
#X connect 121 1 66 0;
#X connect 121 2 67 0;
#X connect 121 3 68 0;
#X connect 121 4 69 0;
#X connect 122 0 75 0;
#X connect 122 1 76 0;
#X connect 122 2 77 0;
#X connect 122 3 78 0;
#X connect 122 4 79 0;
#X connect 123 0 85 0;
#X connect 123 1 86 0;
#X connect 123 2 87 0;
#X connect 123 3 88 0;
#X connect 123 4 89 0;
#X connect 124 0 16 0;
#X connect 124 1 17 0;
#X connect 124 2 18 0;
#X connect 124 3 19 0;
#X connect 124 4 20 0;
#X connect 124 5 21 0;
#X connect 124 6 22 0;
#X connect 124 7 23 0;
#X connect 125 0 48 0;
#X connect 125 1 49 0;
#X connect 125 2 50 0;
#X connect 125 3 51 0;
#X connect 125 4 52 0;
#X connect 125 5 53 0;
#X connect 125 6 54 0;
#X connect 125 7 55 0;
#X connect 126 0 56 0;
#X connect 126 1 57 0;
#X connect 126 2 58 0;
#X connect 126 3 59 0;
#X connect 126 4 60 0;
#X connect 126 5 61 0;
#X connect 126 6 62 0;
#X connect 126 7 63 0;
#X connect 127 0 32 0;
#X connect 127 1 33 0;
#X connect 127 2 34 0;
#X connect 127 3 35 0;
#X connect 127 4 36 0;
#X connect 127 5 37 0;
#X connect 127 6 38 0;
#X connect 127 7 39 0;
#X connect 128 0 24 0;
#X connect 128 1 25 0;
#X connect 128 2 26 0;
#X connect 128 3 27 0;
#X connect 128 4 28 0;
#X connect 128 5 29 0;
#X connect 128 6 30 0;
#X connect 128 7 31 0;
#X connect 130 0 142 0;
#X connect 131 0 142 2;
#X connect 132 0 142 4;
#X connect 133 0 142 5;
#X connect 134 0 142 7;
#X connect 135 0 142 9;
#X connect 136 0 142 11;
#X connect 137 0 142 1;
#X connect 138 0 142 3;
#X connect 139 0 142 6;
#X connect 140 0 142 8;
#X connect 141 0 142 10;
#X connect 143 0 144 0;
#X connect 144 0 130 0;
#X connect 144 1 137 0;
#X connect 144 2 131 0;
#X connect 144 3 138 0;
#X connect 144 4 132 0;
#X connect 144 5 133 0;
#X connect 144 6 139 0;
#X connect 144 7 134 0;
#X connect 144 8 140 0;
#X connect 144 9 135 0;
#X connect 144 10 141 0;
#X connect 144 11 136 0;
#X connect 145 0 146 0;
#X connect 145 1 148 0;
#X connect 145 2 149 0;
#X connect 145 3 149 1;
#X connect 146 0 145 0;
#X connect 148 0 145 1;
#X connect 149 0 164 0;
#X connect 151 0 153 1;
#X connect 152 0 153 0;
#X connect 153 0 149 2;
#X connect 155 0 149 4;
#X connect 156 0 149 3;
#X connect 158 0 149 6;
#X connect 159 0 149 5;
#X connect 161 0 149 8;
#X connect 162 0 149 7;
#X connect 163 0 149 9;
#X connect 166 0 169 0;
#X connect 167 0 169 2;
#X connect 168 0 169 1;
#X connect 169 0 8 0;
#X connect 169 1 168 0;
#X coords 0 -1 1 1 240 260 1 60 20;
