#N canvas 242 65 766 434 10;
#X obj 97 20 inlet;
#X obj 167 110 inlet;
#X obj 277 10 inlet;
#X obj 347 100 inlet;
#X obj 447 10 inlet;
#X obj 102 386 outlet;
#X obj 192 386 outlet;
#X obj 302 386 outlet;
#X obj 392 386 outlet;
#X obj 502 386 outlet;
#X obj 102 242 OSCroute /fm;
#X obj 102 261 OSCroute /ui;
#X obj 102 282 OSCroute /env;
#X obj 103 325 OSCroute /delay /attack /decay /sustain /release;
#X msg 103 353 set \$1;
#X msg 193 353 set \$1;
#X msg 293 353 set \$1;
#X msg 393 353 set \$1;
#X msg 493 353 set \$1;
#X obj 102 302 OSCroute \$1;
#X obj 97 44 fcommun \$1/delay \$2;
#X obj 167 134 fcommun \$1/attack \$2 1;
#X obj 278 34 fcommun \$1/decay \$2 2;
#X obj 347 131 fcommun \$1/sustain \$2 50;
#X obj 447 34 fcommun \$1/release \$2 5;
#X obj 102 215 r UI;
#X connect 0 0 20 0;
#X connect 1 0 21 0;
#X connect 2 0 22 0;
#X connect 3 0 23 0;
#X connect 4 0 24 0;
#X connect 10 0 11 0;
#X connect 11 0 12 0;
#X connect 12 0 19 0;
#X connect 13 0 14 0;
#X connect 13 1 15 0;
#X connect 13 2 16 0;
#X connect 13 3 17 0;
#X connect 13 4 18 0;
#X connect 14 0 5 0;
#X connect 15 0 6 0;
#X connect 16 0 7 0;
#X connect 17 0 8 0;
#X connect 18 0 9 0;
#X connect 19 0 13 0;
#X connect 20 0 5 0;
#X connect 21 0 6 0;
#X connect 22 0 7 0;
#X connect 23 0 8 0;
#X connect 24 0 9 0;
#X connect 25 0 10 0;
