#N canvas 169 91 855 460 10;
#X obj 36 15 inlet op;
#X obj 546 14 inlet pan;
#X obj 106 125 inlet op;
#X obj 196 15 inlet op;
#X obj 266 125 inlet op;
#X obj 356 15 inlet op;
#X obj 426 125 inlet op;
#X obj 619 13 inlet main;
#X obj 95 222 outlet;
#X obj 155 222 outlet;
#X obj 215 222 outlet;
#X obj 275 222 outlet;
#X obj 385 222 outlet;
#X obj 445 222 outlet;
#X obj 545 222 outlet;
#X obj 615 222 outlet;
#X obj 36 58 fcommun \$1/op1 \$2;
#X obj 195 58 fcommun \$1/op3 \$2;
#X obj 356 58 fcommun \$1/op5 \$2;
#X obj 106 168 fcommun \$1/op2 \$2;
#X obj 266 168 fcommun \$1/op4 \$2;
#X obj 426 168 fcommun \$1/op6 \$2;
#X obj 620 183 fcommun \$1/main \$2;
#X obj 546 98 fcommun \$1/pan \$2 50;
#X connect 0 0 16 0;
#X connect 1 0 23 0;
#X connect 2 0 19 0;
#X connect 3 0 17 0;
#X connect 4 0 20 0;
#X connect 5 0 18 0;
#X connect 6 0 21 0;
#X connect 7 0 22 0;
#X connect 16 0 8 0;
#X connect 17 0 10 0;
#X connect 18 0 12 0;
#X connect 19 0 9 0;
#X connect 20 0 11 0;
#X connect 21 0 13 0;
#X connect 22 0 15 0;
#X connect 23 0 14 0;
