#N canvas 251 73 566 422 10;
#N canvas 133 20 891 657 sp 1;
#X obj 234 19 inlet~;
#X obj 220 100 *~;
#X obj 218 148 mspec~;
#X obj 220 124 rfft~;
#X obj 214 343 sc~;
#X obj 247 344 ss~;
#X obj 281 344 irreg~;
#X obj 535 344 sfm~;
#X text 467 253 Get spectral peaks from magnitudes and estimate frequency.
Argumnent or right inlet sets threshold as percentage of the maximum
peak detected in each frame;
#X obj 222 173 peak~ 40;
#X msg 589 61 0;
#X obj 483 110 osc~;
#X obj 483 62 samplerate~;
#X obj 483 133 *~ -0.5;
#X obj 483 156 +~ 0.5;
#X obj 476 33 t b b b;
#X obj 483 86 / \$1;
#X obj 651 99 table \$0-win.hann 8192;
#X obj 477 181 tabwrite~ \$0-win.hann;
#X obj 476 11 loadbang;
#X obj 538 16 bng 15 250 50 0 empty empty empty 0 -6 0 8 -262144 -1
-1;
#X floatatom 211 370 5 0 0 0 - - -;
#X floatatom 248 375 5 0 0 0 - - -;
#X floatatom 290 374 5 0 0 0 - - -;
#X floatatom 538 370 5 0 0 0 - - -;
#X text 217 491 Spectral Centroid \, Spectral Smoothness \, Irregularity
\, Spectral Flatnes Measure.;
#X obj 598 453 block~ 8192;
#X obj 254 74 tabreceive~ \$0-win.hann 8192;
#X connect 0 0 1 0;
#X connect 1 0 3 0;
#X connect 2 0 9 0;
#X connect 2 0 5 0;
#X connect 2 0 6 0;
#X connect 3 0 2 0;
#X connect 3 1 2 1;
#X connect 4 0 21 0;
#X connect 5 0 22 0;
#X connect 6 0 23 0;
#X connect 7 0 24 0;
#X connect 9 0 4 0;
#X connect 9 1 4 1;
#X connect 9 1 7 0;
#X connect 10 0 11 1;
#X connect 11 0 13 0;
#X connect 12 0 16 0;
#X connect 13 0 14 0;
#X connect 14 0 18 0;
#X connect 15 0 18 0;
#X connect 15 1 12 0;
#X connect 15 2 10 0;
#X connect 16 0 11 0;
#X connect 19 0 15 0;
#X connect 20 0 15 0;
#X connect 27 0 1 1;
#X restore 145 37 pd sp;
#X obj 146 4 adc~;
#X connect 1 0 0 0;
