#N canvas 204 56 706 644 10;
#X obj 482 108 ms2hz;
#X obj 401 174 t f f;
#X obj 446 203 +;
#X obj 457 176 / 250;
#X obj 397 259 min;
#X obj 443 256 max;
#X obj 257 308 pack f f f f;
#X obj 357 379 -;
#X msg 317 354 \$3 \$1;
#X msg 357 354 \$4 \$1;
#X obj 317 379 -;
#X obj 317 406 wrap;
#X obj 357 406 wrap;
#X obj 217 394 0;
#X obj 257 328 t b l l l;
#X obj 235 210 t f b;
#X obj 357 243 f;
#X msg 277 356 \$2;
#X obj 336 154 / 100;
#X obj 193 503 expr (($f1 < $f2) && ($f2 < $f3)) || (($f1 < $f4) &&
($f4 < $f3));
#X obj 179 279 t f f;
#X obj 269 546 f;
#X obj 193 542 sel 1 0;
#X obj 209 321 +;
#X obj 194 574 f;
#X obj 482 82 inlet player_hz;
#X obj 401 63 inlet grainsize_ms;
#X obj 489 134 t b f;
#X obj 304 34 inlet trigger;
#X obj 235 613 outlet;
#X text 304 540 Calculate if player is going to crash with recorder
\, by comparing (recpos \, recpos+grainsize) with (playpos \, playpos+grainsize)
\, hopefully dealing with backwards playing. If crash \, play (recpos+grainsize
\, recpos+(grainsize * 2)) instead.;
#X obj 228 57 ms2hz;
#X obj 219 114 t b f;
#X obj 311 247 >;
#X obj 301 271 + 1;
#X obj 248 274 *;
#X obj 209 352 wrap;
#X obj 308 68 t b f;
#X obj 207 4 inlet recordbuf_size;
#X obj 228 36 sl2hz;
#X obj 67 20 inlet record_buf;
#X obj 71 189 prepent;
#X obj 71 210 s LOOPER2RECORDER;
#X obj 77 72 r RECORDER2LOOPER;
#X obj 77 95 unpack s f;
#X obj 177 151 f;
#X obj 77 118 sel symbol;
#X obj 325 185 + 0.02;
#X obj 185 183 /;
#X connect 0 0 27 0;
#X connect 1 0 5 0;
#X connect 1 0 4 0;
#X connect 1 0 21 1;
#X connect 1 0 33 0;
#X connect 1 1 2 0;
#X connect 2 0 5 1;
#X connect 2 0 4 1;
#X connect 2 0 33 1;
#X connect 3 0 2 1;
#X connect 4 0 6 2;
#X connect 5 0 6 3;
#X connect 6 0 14 0;
#X connect 7 0 12 0;
#X connect 8 0 10 0;
#X connect 9 0 7 0;
#X connect 10 0 11 0;
#X connect 11 0 19 1;
#X connect 12 0 19 3;
#X connect 13 0 19 0;
#X connect 14 0 13 0;
#X connect 14 1 17 0;
#X connect 14 2 8 0;
#X connect 14 3 9 0;
#X connect 15 0 20 0;
#X connect 15 1 16 0;
#X connect 16 0 6 1;
#X connect 17 0 19 2;
#X connect 18 0 47 0;
#X connect 19 0 22 0;
#X connect 20 0 6 0;
#X connect 20 1 23 0;
#X connect 21 0 29 0;
#X connect 22 0 24 0;
#X connect 22 1 21 0;
#X connect 23 0 36 0;
#X connect 24 0 29 0;
#X connect 25 0 0 0;
#X connect 26 0 18 0;
#X connect 26 0 3 0;
#X connect 27 0 3 0;
#X connect 27 1 3 1;
#X connect 28 0 37 0;
#X connect 31 0 32 0;
#X connect 32 0 18 0;
#X connect 32 1 18 1;
#X connect 33 0 34 0;
#X connect 34 0 35 1;
#X connect 35 0 23 1;
#X connect 36 0 24 1;
#X connect 37 0 41 0;
#X connect 37 1 1 0;
#X connect 38 0 39 0;
#X connect 38 0 48 1;
#X connect 39 0 31 0;
#X connect 40 0 41 1;
#X connect 40 0 46 1;
#X connect 41 0 42 0;
#X connect 43 0 44 0;
#X connect 44 0 46 0;
#X connect 44 1 45 1;
#X connect 45 0 48 0;
#X connect 46 0 45 0;
#X connect 47 0 35 0;
#X connect 47 0 16 1;
#X connect 48 0 15 0;
