#N canvas 185 15 814 591 10;
#X obj 52 208 volctl~ 0 10;
#X obj 72 228 volctl~ 0 10;
#X obj 92 248 volctl~ 0 10;
#X obj 112 268 volctl~ 0 10;
#X obj 132 288 volctl~ 0 10;
#X obj 52 315 mypan~ 0.2;
#X obj 72 335 mypan~ 0.35;
#X obj 92 355 mypan~ 0.5;
#X obj 112 375 mypan~ 0.65;
#X obj 132 395 mypan~ 0.7;
#X obj 58 421 +~;
#X obj 108 441 +~;
#X obj 413 47 ms2hz;
#X obj 414 27 mtof;
#X obj 473 87 ms2hz;
#X obj 474 67 mtof;
#X obj 513 127 ms2hz;
#X obj 514 107 mtof;
#X obj 553 167 ms2hz;
#X obj 554 147 mtof;
#X obj 593 207 ms2hz;
#X obj 594 187 mtof;
#N canvas 40 15 942 592 combobobobobobobobobobobobobobobobobobobob
0;
#X obj 418 94 mydelread~ \$0-no1;
#X obj 438 114 mydelread~ \$0-no2;
#X obj 458 134 mydelread~ \$0-no3;
#X obj 478 154 mydelread~ \$0-no4;
#X obj 508 174 mydelread~ \$0-no5;
#X obj 139 152 delwrite~ \$0-no2 300;
#X obj 168 182 delwrite~ \$0-no3 300;
#X obj 189 212 delwrite~ \$0-no4 300;
#X obj 219 243 delwrite~ \$0-no5 300;
#X obj 136 52 inlet~;
#X obj 412 1 inlet;
#X obj 422 11 inlet;
#X obj 432 21 inlet;
#X obj 442 31 inlet;
#X obj 452 41 inlet;
#X obj 560 252 outlet~;
#X obj 580 272 outlet~;
#X obj 600 292 outlet~;
#X obj 620 312 outlet~;
#X obj 640 332 outlet~;
#X obj 242 95 hip~ 5;
#X obj 252 125 hip~ 5;
#X obj 272 159 hip~ 5;
#X obj 292 185 hip~ 5;
#X obj 312 225 hip~ 5;
#X obj 53 182 _j/undenormal~;
#X obj 492 11 inlet;
#X obj 280 120 volctl~ 0 10;
#X obj 300 140 volctl~ 0 10;
#X obj 320 160 volctl~ 0 10;
#X obj 340 180 volctl~ 0 10;
#X obj 360 200 volctl~ 0 10;
#X obj 118 122 delwrite~ \$0-no1 300;
#X obj 562 350 block~ 8;
#X connect 0 0 15 0;
#X connect 0 0 27 0;
#X connect 1 0 16 0;
#X connect 1 0 28 0;
#X connect 2 0 17 0;
#X connect 2 0 29 0;
#X connect 3 0 18 0;
#X connect 3 0 30 0;
#X connect 4 0 19 0;
#X connect 4 0 31 0;
#X connect 9 0 5 0;
#X connect 9 0 6 0;
#X connect 9 0 7 0;
#X connect 9 0 8 0;
#X connect 9 0 32 0;
#X connect 10 0 0 0;
#X connect 11 0 1 0;
#X connect 12 0 2 0;
#X connect 13 0 3 0;
#X connect 14 0 4 0;
#X connect 20 0 32 0;
#X connect 21 0 5 0;
#X connect 22 0 6 0;
#X connect 23 0 7 0;
#X connect 24 0 8 0;
#X connect 25 0 5 0;
#X connect 25 0 6 0;
#X connect 25 0 7 0;
#X connect 25 0 8 0;
#X connect 25 0 32 0;
#X connect 26 0 27 1;
#X connect 26 0 28 1;
#X connect 26 0 29 1;
#X connect 26 0 30 1;
#X connect 26 0 31 1;
#X connect 27 0 20 0;
#X connect 28 0 21 0;
#X connect 29 0 22 0;
#X connect 30 0 23 0;
#X connect 31 0 24 0;
#X restore 59 87 pd combobobobobobobobobobobobobobobobobobobob;
#X obj 115 150 lop~;
#X obj 135 170 lop~;
#X obj 155 190 lop~;
#X obj 175 210 lop~;
#X obj 195 230 lop~;
#X obj 289 315 mtof;
#X obj 414 5 OSCroute /pitch-1 /pitch-2 /pitch-3 /pitch-4 /pitch-5
;
#X obj 253 187 OSCroute /vol-1 /vol-2 /vol-3 /vol-4 /vol-5;
#X obj 151 463 volctl~ 0 10;
#X obj 66 463 volctl~ 0 10;
#X obj 150 501 outlet~;
#X obj 69 499 outlet~;
#X obj 135 -66 r OSC;
#X obj 135 -42 OSCroute /combo;
#X obj 60 53 inlet~;
#X obj 282 287 _j/scale 0 1000 37 135;
#X obj 244 411 OSCroute /onoff /lpf;
#X obj 218 5 OSCroute /fbk;
#X obj 217 25 _j/scale 0 1000 0.3 0.99;
#X connect 0 0 5 0;
#X connect 1 0 6 0;
#X connect 2 0 7 0;
#X connect 3 0 8 0;
#X connect 4 0 9 0;
#X connect 5 0 10 0;
#X connect 5 1 11 0;
#X connect 6 0 10 0;
#X connect 6 1 11 0;
#X connect 7 0 10 0;
#X connect 7 1 11 0;
#X connect 8 0 10 1;
#X connect 8 1 11 1;
#X connect 9 0 10 1;
#X connect 9 1 11 1;
#X connect 10 0 32 0;
#X connect 11 0 31 0;
#X connect 12 0 22 1;
#X connect 13 0 12 0;
#X connect 14 0 22 2;
#X connect 15 0 14 0;
#X connect 16 0 22 3;
#X connect 17 0 16 0;
#X connect 18 0 22 4;
#X connect 19 0 18 0;
#X connect 20 0 22 5;
#X connect 21 0 20 0;
#X connect 22 0 23 0;
#X connect 22 1 24 0;
#X connect 22 2 25 0;
#X connect 22 3 26 0;
#X connect 22 4 27 0;
#X connect 23 0 0 0;
#X connect 24 0 1 0;
#X connect 25 0 2 0;
#X connect 26 0 3 0;
#X connect 27 0 4 0;
#X connect 28 0 23 1;
#X connect 28 0 24 1;
#X connect 28 0 25 1;
#X connect 28 0 26 1;
#X connect 28 0 27 1;
#X connect 29 0 13 0;
#X connect 29 1 15 0;
#X connect 29 2 17 0;
#X connect 29 3 19 0;
#X connect 29 4 21 0;
#X connect 30 0 0 1;
#X connect 30 1 1 1;
#X connect 30 2 2 1;
#X connect 30 3 3 1;
#X connect 30 4 4 1;
#X connect 30 5 39 0;
#X connect 31 0 33 0;
#X connect 32 0 34 0;
#X connect 35 0 36 0;
#X connect 36 0 40 0;
#X connect 37 0 22 0;
#X connect 38 0 28 0;
#X connect 39 0 31 1;
#X connect 39 0 32 1;
#X connect 39 1 38 0;
#X connect 40 0 41 0;
#X connect 40 1 30 0;
#X connect 40 1 29 0;
#X connect 41 0 22 6;
