#N canvas 251 -6 826 727 10;
#X obj 303 316 01toquartic;
#X obj 216 316 volctl~ 0 10;
#X obj 247 454 mypan~;
#X obj 194 94 moses -0.01;
#X obj 211 115 moses 0.01;
#X obj 192 132 f;
#X obj 289 125 snapshot~;
#X obj 329 26 metro 100;
#X obj 329 47 random 1000;
#X obj 328 65 t b f;
#X obj 353 84 / 500;
#X obj 353 102 - 1;
#X obj 294 170 +;
#X obj 354 123 *;
#X obj 265 273 wrap;
#X obj 398 237 pack f f;
#X obj 423 213 +;
#X obj 403 164 t f f;
#X obj 413 189 t b b f;
#X obj 219 56 t b f;
#X obj 265 73 * 0;
#X obj 220 76 +;
#X obj 236 -38 OSCroute /pitch /pitchdev /grainlen /skip /offset /size
;
#X obj 67 8 OSCroute /buffer;
#X obj 68 -40 r OSC;
#X obj 252 535 outlet~;
#X obj 307 533 outlet~;
#X obj 330 264 OSCroute /vol /pan /onoff;
#X obj 482 401 switch~;
#X obj 183 150 bufplayer~;
#X obj 481 383 switchdelay 500;
#X obj 294 197 * 1;
#X obj 294 237 / 1;
#X obj 347 238 / 1;
#X obj 291 145 +;
#X obj 558 49 / 48;
#X obj 558 68 /;
#N canvas 0 0 450 300 mixer 0;
#X obj 98 31 inlet;
#X obj 188 31 inlet;
#X obj 290 29 inlet;
#X obj 245 70 * -1;
#X obj 244 90 + 1;
#X obj 100 67 *;
#X obj 120 192 outlet;
#X obj 128 68 t b f;
#X obj 180 67 *;
#X obj 208 68 t b f;
#X obj 123 125 +;
#X obj 134 94 t b f;
#X floatatom 189 118 5 0 0 0 - - -;
#X obj 375 27 inlet;
#X obj 367 87 pow;
#X msg 372 54 2 \$1;
#X obj 122 158 * 1;
#X obj 149 160 t b f;
#X connect 0 0 5 0;
#X connect 1 0 8 0;
#X connect 2 0 3 0;
#X connect 2 0 9 0;
#X connect 3 0 4 0;
#X connect 4 0 7 0;
#X connect 5 0 10 0;
#X connect 7 0 5 0;
#X connect 7 1 5 1;
#X connect 8 0 11 0;
#X connect 9 0 8 0;
#X connect 9 1 8 1;
#X connect 10 0 16 0;
#X connect 11 0 10 0;
#X connect 11 1 10 1;
#X connect 11 1 12 0;
#X connect 13 0 15 0;
#X connect 14 0 17 0;
#X connect 15 0 14 0;
#X connect 16 0 6 0;
#X connect 17 0 16 0;
#X connect 17 1 16 1;
#X restore 332 -2 pd mixer;
#X obj 586 69 t b f;
#X obj 558 29 f;
#X obj 249 430 myvolctl~ 0 3;
#X obj 477 118 OSCroute /quantizestep /quantizeamt /qspeed;
#X floatatom 216 214 5 0 0 0 - - -;
#X obj 294 217 quantizeamt;
#X obj 67 -18 OSCroute \$1;
#X obj 67 144 r BUFFER_LOADED;
#X obj 67 113 s BUFFER_LOAD;
#X obj 67 40 symbol;
#X obj 67 194 select foo;
#X obj 67 216 symbol;
#X obj 67 78 t s s;
#X obj 68 165 unpack s s;
#X connect 0 0 1 1;
#X connect 1 0 40 0;
#X connect 2 0 25 0;
#X connect 2 1 26 0;
#X connect 3 0 5 0;
#X connect 3 1 4 0;
#X connect 4 1 5 0;
#X connect 5 0 29 1;
#X connect 6 0 34 0;
#X connect 7 0 8 0;
#X connect 8 0 9 0;
#X connect 9 0 6 0;
#X connect 9 1 10 0;
#X connect 10 0 11 0;
#X connect 11 0 13 0;
#X connect 11 0 20 0;
#X connect 12 0 31 0;
#X connect 13 0 12 1;
#X connect 14 0 29 2;
#X connect 15 0 14 1;
#X connect 16 0 15 1;
#X connect 17 0 15 0;
#X connect 17 1 16 0;
#X connect 18 0 15 0;
#X connect 18 1 16 0;
#X connect 18 2 16 1;
#X connect 19 0 21 0;
#X connect 19 1 21 1;
#X connect 20 0 21 0;
#X connect 21 0 3 0;
#X connect 22 0 19 0;
#X connect 22 1 20 1;
#X connect 22 2 37 0;
#X connect 22 3 13 1;
#X connect 22 4 17 0;
#X connect 22 5 18 0;
#X connect 22 6 27 0;
#X connect 22 6 41 0;
#X connect 23 0 47 0;
#X connect 23 1 22 0;
#X connect 24 0 44 0;
#X connect 27 0 0 0;
#X connect 27 1 2 1;
#X connect 27 2 7 0;
#X connect 27 2 30 0;
#X connect 27 2 40 1;
#X connect 29 0 1 0;
#X connect 29 1 6 0;
#X connect 29 2 39 0;
#X connect 30 0 28 0;
#X connect 31 0 43 0;
#X connect 32 0 14 0;
#X connect 33 0 34 1;
#X connect 34 0 12 0;
#X connect 35 0 36 0;
#X connect 36 0 37 1;
#X connect 37 0 7 1;
#X connect 38 0 39 0;
#X connect 38 1 36 1;
#X connect 39 0 35 0;
#X connect 40 0 2 0;
#X connect 41 0 31 1;
#X connect 41 0 32 1;
#X connect 41 0 33 1;
#X connect 41 0 38 0;
#X connect 41 1 37 2;
#X connect 41 1 43 1;
#X connect 43 0 32 0;
#X connect 43 1 33 0;
#X connect 44 0 23 0;
#X connect 45 0 51 0;
#X connect 47 0 50 0;
#X connect 48 0 49 0;
#X connect 49 0 29 0;
#X connect 50 0 46 0;
#X connect 50 1 48 1;
#X connect 51 0 48 0;
#X connect 51 1 49 1;
