#N canvas 153 15 712 695 10;
#X obj 233 318 myabs/01toquartic;
#X obj 146 318 volctl~ 0 10;
#X obj 304 115 snapshot~;
#X obj 328 45 random 1000;
#X obj 328 65 t b f;
#X obj 353 84 / 500;
#X obj 321 89 - 1;
#X obj 307 172 +;
#X obj 338 139 *;
#X obj 496 235 pack f f;
#X obj 504 213 +;
#X obj 403 164 t f f;
#X obj 533 187 t b b f;
#X obj 236 -38 OSCroute /pitch /pitchdev /grainlen /skip /offset /size
;
#X obj 67 -72 OSCroute /buffer;
#X obj 68 -120 r OSC;
#X obj 149 455 outlet~;
#X obj 212 455 outlet~;
#X obj 471 267 OSCroute /vol /pan /onoff;
#X obj 488 391 switchdelay 500;
#X obj 308 196 * 1;
#X obj 416 214 / 1;
#X obj 305 144 +;
#X obj 558 49 / 48;
#X obj 558 68 /;
#N canvas 0 15 450 300 mixer 0;
#X obj 98 31 inlet;
#X obj 188 31 inlet;
#X obj 290 29 inlet;
#X obj 245 70 * -1;
#X obj 244 90 + 1;
#X obj 100 67 *;
#X obj 120 192 outlet;
#X obj 128 68 t b f;
#X obj 180 67 *;
#X obj 208 68 t b f;
#X obj 123 125 +;
#X obj 134 94 t b f;
#X obj 375 27 inlet;
#X obj 352 127 pow;
#X msg 355 100 2 \$1;
#X obj 122 158 * 1;
#X obj 149 160 t b f;
#X obj 361 71 * -1;
#X connect 0 0 5 0;
#X connect 1 0 8 0;
#X connect 2 0 3 0;
#X connect 2 0 9 0;
#X connect 3 0 4 0;
#X connect 4 0 7 0;
#X connect 5 0 10 0;
#X connect 7 0 5 0;
#X connect 7 1 5 1;
#X connect 8 0 11 0;
#X connect 9 0 8 0;
#X connect 9 1 8 1;
#X connect 10 0 15 0;
#X connect 11 0 10 0;
#X connect 11 1 10 1;
#X connect 12 0 17 0;
#X connect 13 0 16 0;
#X connect 14 0 13 0;
#X connect 15 0 6 0;
#X connect 16 0 15 0;
#X connect 16 1 15 1;
#X connect 17 0 14 0;
#X restore 425 -8 pd mixer;
#X obj 586 69 t b f;
#X obj 558 29 f;
#X obj 147 400 myvolctl~ 0 3;
#X obj 440 123 OSCroute /quantizestep /quantizeamt /qspeed;
#X obj 308 216 quantizeamt;
#X obj 147 180 bufplayer2~ \$0-buffer;
#X obj 103 587 table \$0-buffer 2.88e+06;
#X obj 308 299 zexy/wrap;
#N canvas 0 15 705 353 calc 0;
#X obj 303 250 outlet;
#X obj 348 3 inlet internal_tempo;
#X obj 206 16 inlet mult;
#X obj 410 160 spigot 1;
#X obj 276 175 spigot;
#X obj 444 127 == 0;
#X obj 107 78 change;
#X obj 157 135 / 1;
#X obj 117 177 metro;
#X obj 110 99 t b f;
#X obj 564 30 inlet onoff;
#X obj 151 41 sel 0;
#X obj 155 104 0;
#X obj 52 96 spigot;
#X obj 73 147 0;
#X obj 58 46 t f f;
#X obj 52 122 t f b f;
#X obj 53 17 r MASTER_TEMPO;
#X obj 188 109 t b f;
#X obj 411 76 metro 100;
#X obj 430 214 f;
#X obj 202 74 t f f f f;
#X obj 400 189 sel 1 0;
#X obj 402 266 outlet;
#X obj 391 217 f;
#X obj 365 137 > 0;
#X obj 411 31 t b f;
#X obj 411 50 speedlim 30;
#X connect 1 0 20 1;
#X connect 1 0 26 0;
#X connect 2 0 21 0;
#X connect 3 0 0 0;
#X connect 4 0 0 0;
#X connect 5 0 3 1;
#X connect 6 0 9 0;
#X connect 7 0 8 1;
#X connect 7 0 24 1;
#X connect 8 0 4 0;
#X connect 9 0 8 0;
#X connect 9 1 7 0;
#X connect 10 0 11 0;
#X connect 10 0 19 0;
#X connect 11 0 12 0;
#X connect 11 1 13 1;
#X connect 12 0 8 0;
#X connect 13 0 16 0;
#X connect 14 0 13 1;
#X connect 15 0 6 0;
#X connect 15 1 13 0;
#X connect 16 0 9 0;
#X connect 16 1 14 0;
#X connect 16 2 6 0;
#X connect 17 0 15 0;
#X connect 18 0 7 0;
#X connect 18 1 7 1;
#X connect 19 0 3 0;
#X connect 20 0 23 0;
#X connect 21 0 18 0;
#X connect 21 1 4 1;
#X connect 21 2 25 0;
#X connect 21 3 5 0;
#X connect 22 0 24 0;
#X connect 22 1 20 0;
#X connect 24 0 23 0;
#X connect 25 0 22 0;
#X connect 26 0 27 0;
#X connect 26 1 19 1;
#X connect 27 0 19 0;
#X restore 329 -7 pd calc;
#X obj 327 23 spigot;
#X obj 67 -98 OSCroute \$1 /pitch;
#X text 198 -98 (global);
#X obj 398 -108 OSCroute /master_tempo;
#X obj 148 424 pan~ 0.5 3;
#X obj 234 423 _j/scale 0 1 -45 45;
#N canvas 197 15 564 454 pitch 0;
#X obj 44 57 inlet;
#X obj 251 360 outlet;
#X obj 252 55 inlet;
#X obj 352 55 inlet;
#X obj 151 59 inlet;
#X obj 224 264 moses -0.01;
#X obj 241 285 moses 0.01;
#X obj 246 314 f;
#X obj 238 163 t b f;
#X obj 288 177 * 0;
#X obj 243 237 +;
#X obj 238 139 *;
#X obj 352 201 f;
#X obj 345 251 change;
#X obj 328 119 metro 12;
#X obj 341 230 mavg 3;
#N canvas 0 15 450 300 oneshot 0;
#X obj 147 58 inlet;
#X obj 149 92 spigot 1;
#X obj 147 155 outlet;
#X obj 225 91 0;
#X obj 147 117 t b b;
#X connect 0 0 1 0;
#X connect 1 0 4 0;
#X connect 3 0 1 1;
#X connect 4 0 2 0;
#X connect 4 1 3 0;
#X restore 327 94 pd oneshot;
#X obj 239 100 t b f b;
#X connect 0 0 17 0;
#X connect 2 0 9 0;
#X connect 3 0 9 1;
#X connect 4 0 11 0;
#X connect 5 0 7 0;
#X connect 5 1 6 0;
#X connect 6 1 7 0;
#X connect 7 0 1 0;
#X connect 8 0 10 0;
#X connect 8 1 10 1;
#X connect 9 0 10 0;
#X connect 10 0 12 0;
#X connect 11 0 8 0;
#X connect 12 0 15 0;
#X connect 13 0 5 0;
#X connect 14 0 12 0;
#X connect 15 0 13 0;
#X connect 16 0 14 0;
#X connect 17 0 11 0;
#X connect 17 1 11 1;
#X connect 17 2 16 0;
#X restore 225 85 pd pitch;
#N canvas 79 15 860 531 buffer 0;
#X obj 158 -47 inlet;
#X obj 338 302 outlet;
#X obj 431 216 outlet;
#X obj 216 41 symbol;
#N canvas 0 15 589 693 safe1 0;
#X obj 89 209 readsf~;
#X msg 105 187 open \$1;
#X obj 14 203 t b b;
#X msg 49 203 1;
#X obj 13 129 inlet;
#X obj 256 279 outlet;
#X obj 15 161 t b s b;
#X obj 308 325 block~ 64 1 16;
#X obj 15 184 delay 500;
#X obj 90 242 tabwrite~ \$0-buffer;
#X obj 214 181 loadbang;
#X text 292 180 to make the buffer a part of the chain;
#X connect 0 0 9 0;
#X connect 0 1 5 0;
#X connect 1 0 0 0;
#X connect 2 0 9 0;
#X connect 2 1 3 0;
#X connect 3 0 0 0;
#X connect 4 0 6 0;
#X connect 6 0 8 0;
#X connect 6 1 1 0;
#X connect 8 0 2 0;
#X connect 10 0 9 0;
#X restore 213 143 pd safe1;
#X obj 213 118 unpack s f f;
#X obj 351 165 f;
#X msg 214 60 read \$1 0;
#X obj 209 325 s UI;
#X obj 209 300 OSCprepend \$1;
#X msg 211 247 1;
#X msg 257 246 0;
#X msg 209 278 /sample_loaded \$1;
#X obj 319 244 symbol \$0-buffer;
#X obj 288 168 t b b;
#X obj 298 58 route bang;
#X obj 280 -19 symbol;
#X obj 262 -38 t a a b;
#X obj 280 1 t s s;
#X obj 339 81 pack f s;
#X obj 331 126 unpack f s;
#X obj 212 95 pyext larmext wavlength;
#X obj 243 8 bng 15 250 50 0 empty empty empty 0 -6 0 8 -262144 -1
-1;
#X msg 409 -5 get \$1;
#X obj 392 20 pyext larmext wavememory;
#X msg 410 -34 print;
#X text 397 38 Wavememory is a common memory of available arrays. outputs
(size \, array) if found \, otherwise bang;
#X obj 546 305 outlet;
#X msg 512 257 1;
#X msg 486 276 0;
#X text 596 307 is internal array;
#X connect 0 0 17 0;
#X connect 3 0 7 0;
#X connect 4 0 10 0;
#X connect 4 0 14 0;
#X connect 5 0 4 0;
#X connect 5 2 6 1;
#X connect 6 0 2 0;
#X connect 7 0 21 1;
#X connect 9 0 8 0;
#X connect 10 0 12 0;
#X connect 11 0 12 0;
#X connect 12 0 9 0;
#X connect 13 0 1 0;
#X connect 13 0 29 0;
#X connect 14 0 6 0;
#X connect 14 1 13 0;
#X connect 15 0 3 0;
#X connect 15 1 19 0;
#X connect 16 0 18 0;
#X connect 17 1 16 0;
#X connect 17 2 11 0;
#X connect 18 0 23 0;
#X connect 18 1 3 1;
#X connect 18 1 19 1;
#X connect 19 0 20 0;
#X connect 20 0 10 0;
#X connect 20 0 2 0;
#X connect 20 1 1 0;
#X connect 20 1 28 0;
#X connect 21 0 5 0;
#X connect 22 0 15 0;
#X connect 23 0 24 1;
#X connect 24 0 15 0;
#X connect 25 0 24 1;
#X connect 28 0 27 0;
#X connect 29 0 27 0;
#X restore 71 86 pd buffer and size;
#X obj 96 279 _a4looper_playpos_calc;
#X obj 197 117 sl2hz;
#X obj 239 138 *;
#X obj 238 117 t b f;
#X obj 37 2 route 0;
#N canvas 0 15 450 300 spig 0;
#X obj 207 38 inlet;
#X obj 212 209 outlet;
#X obj 81 33 inlet;
#X obj 166 130 spigot 1;
#X obj 266 99 spigot;
#X obj 186 94 == 0;
#X obj 305 205 outlet;
#X connect 0 0 4 0;
#X connect 0 0 3 0;
#X connect 2 0 5 0;
#X connect 2 0 4 1;
#X connect 3 0 1 0;
#X connect 4 0 6 0;
#X connect 5 0 3 1;
#X restore 250 253 pd spig;
#X obj 586 295 t f f f f;
#X floatatom 257 284 5 0 0 0 - - -;
#N canvas 0 15 709 533 q_comp 0;
#X obj 100 27 inlet;
#X obj 190 27 inlet;
#X obj 99 256 outlet;
#X obj 100 54 / 1;
#X obj 190 47 t f f;
#X obj 177 172 / 16;
#X obj 110 167 +;
#X obj 122 114 ==;
#X obj 98 91 t f f f;
#X msg 177 151 \$2 \$1;
#X obj 176 126 pack;
#X connect 0 0 3 0;
#X connect 1 0 4 0;
#X connect 3 0 8 0;
#X connect 4 0 3 1;
#X connect 4 1 10 0;
#X connect 5 0 6 1;
#X connect 6 0 2 0;
#X connect 7 0 10 1;
#X connect 8 0 6 0;
#X connect 8 1 7 1;
#X connect 8 2 7 0;
#X connect 9 0 5 0;
#X connect 10 0 9 0;
#X restore 310 246 pd q_comp;
#X floatatom 268 230 5 0 0 0 - - -;
#X connect 0 0 1 1;
#X connect 1 0 28 0;
#X connect 2 0 22 0;
#X connect 3 0 4 0;
#X connect 4 0 2 0;
#X connect 4 1 5 0;
#X connect 5 0 6 0;
#X connect 6 0 8 0;
#X connect 6 0 41 2;
#X connect 7 0 20 0;
#X connect 8 0 7 1;
#X connect 9 0 33 1;
#X connect 10 0 9 1;
#X connect 11 0 9 0;
#X connect 11 1 10 0;
#X connect 12 0 9 0;
#X connect 12 1 10 0;
#X connect 12 2 10 1;
#X connect 13 0 41 1;
#X connect 13 1 41 3;
#X connect 13 2 25 0;
#X connect 13 3 8 1;
#X connect 13 4 11 0;
#X connect 13 5 12 0;
#X connect 13 6 18 0;
#X connect 13 6 29 0;
#X connect 13 6 38 0;
#X connect 14 0 47 0;
#X connect 14 1 13 0;
#X connect 15 0 36 0;
#X connect 18 0 0 0;
#X connect 18 1 40 0;
#X connect 18 2 49 0;
#X connect 19 0 31 4;
#X connect 20 0 30 0;
#X connect 21 0 22 1;
#X connect 22 0 7 0;
#X connect 23 0 24 0;
#X connect 24 0 25 1;
#X connect 25 0 34 1;
#X connect 26 0 27 0;
#X connect 26 1 24 1;
#X connect 27 0 23 0;
#X connect 28 0 39 0;
#X connect 29 0 20 1;
#X connect 29 0 21 1;
#X connect 29 0 26 0;
#X connect 29 0 51 1;
#X connect 29 1 25 2;
#X connect 29 1 30 1;
#X connect 29 2 25 3;
#X connect 30 0 51 0;
#X connect 30 0 52 0;
#X connect 30 1 21 0;
#X connect 31 0 1 0;
#X connect 31 1 2 0;
#X connect 31 2 27 0;
#X connect 33 0 48 1;
#X connect 34 0 35 0;
#X connect 34 1 43 3;
#X connect 35 0 3 0;
#X connect 36 0 14 0;
#X connect 36 1 41 0;
#X connect 38 0 34 0;
#X connect 39 0 16 0;
#X connect 39 1 17 0;
#X connect 40 0 39 1;
#X connect 41 0 31 2;
#X connect 41 0 46 0;
#X connect 42 0 31 0;
#X connect 42 0 43 0;
#X connect 42 1 31 1;
#X connect 42 1 44 0;
#X connect 42 1 43 1;
#X connect 42 2 48 0;
#X connect 43 0 31 3;
#X connect 44 0 45 0;
#X connect 45 0 43 4;
#X connect 46 0 45 0;
#X connect 46 1 45 1;
#X connect 47 1 42 0;
#X connect 48 0 31 3;
#X connect 48 0 50 0;
#X connect 48 1 43 2;
#X connect 49 0 34 2;
#X connect 49 1 35 1;
#X connect 49 2 28 1;
#X connect 49 3 19 0;
#X connect 51 0 33 0;
