#N canvas 0 15 610 716 10;
#X obj 304 115 snapshot~;
#X obj 328 45 random 1000;
#X obj 328 65 t b f;
#X obj 353 84 / 500;
#X obj 321 89 - 1;
#X obj 307 172 +;
#X obj 338 139 *;
#X obj 496 235 pack f f;
#X obj 504 213 +;
#X obj 403 164 t f f;
#X obj 533 187 t b b f;
#X obj 236 -38 OSCroute /pitch /pitchdev /grainlen /skip /offset /size
;
#X obj 68 -52 OSCroute /buffer;
#X obj 68 -120 r OSC;
#X obj 149 455 outlet~;
#X obj 212 455 outlet~;
#X obj 471 267 OSCroute /vol /pan /onoff;
#X obj 488 391 switchdelay 500;
#X obj 308 196 * 1;
#X obj 416 214 / 1;
#X obj 305 144 +;
#X obj 558 49 / 48;
#X obj 558 68 /;
#N canvas 0 15 450 300 mixer 0;
#X obj 98 31 inlet;
#X obj 188 31 inlet;
#X obj 290 29 inlet;
#X obj 245 70 * -1;
#X obj 244 90 + 1;
#X obj 100 67 *;
#X obj 120 192 outlet;
#X obj 128 68 t b f;
#X obj 180 67 *;
#X obj 208 68 t b f;
#X obj 123 125 +;
#X obj 134 94 t b f;
#X obj 375 27 inlet;
#X obj 352 127 pow;
#X msg 355 100 2 \$1;
#X obj 122 158 * 1;
#X obj 149 160 t b f;
#X obj 361 71 * -1;
#X connect 0 0 5 0;
#X connect 1 0 8 0;
#X connect 2 0 3 0;
#X connect 2 0 9 0;
#X connect 3 0 4 0;
#X connect 4 0 7 0;
#X connect 5 0 10 0;
#X connect 7 0 5 0;
#X connect 7 1 5 1;
#X connect 8 0 11 0;
#X connect 9 0 8 0;
#X connect 9 1 8 1;
#X connect 10 0 15 0;
#X connect 11 0 10 0;
#X connect 11 1 10 1;
#X connect 12 0 17 0;
#X connect 13 0 16 0;
#X connect 14 0 13 0;
#X connect 15 0 6 0;
#X connect 16 0 15 0;
#X connect 16 1 15 1;
#X connect 17 0 14 0;
#X restore 425 -8 pd mixer;
#X obj 586 69 t b f;
#X obj 558 29 f;
#X obj 440 123 OSCroute /quantizestep /quantizeamt /qspeed;
#X obj 308 216 quantizeamt;
#X obj 308 299 zexy/wrap;
#N canvas 0 15 610 695 calc 0;
#X obj 303 250 outlet;
#X obj 348 3 inlet internal_tempo;
#X obj 206 16 inlet mult;
#X obj 410 160 spigot 1;
#X obj 276 175 spigot;
#X obj 444 127 == 0;
#X obj 107 78 change;
#X obj 157 135 / 1;
#X obj 117 177 metro;
#X obj 110 99 t b f;
#X obj 564 30 inlet onoff;
#X obj 151 41 sel 0;
#X obj 155 104 0;
#X obj 52 96 spigot;
#X obj 73 147 0;
#X obj 58 46 t f f;
#X obj 52 122 t f b f;
#X obj 53 17 r MASTER_TEMPO;
#X obj 188 109 t b f;
#X obj 411 76 metro 100;
#X obj 430 214 f;
#X obj 202 74 t f f f f;
#X obj 400 189 sel 1 0;
#X obj 402 266 outlet;
#X obj 391 217 f;
#X obj 365 137 > 0;
#X obj 411 31 t b f;
#X obj 411 50 speedlim 30;
#X connect 1 0 20 1;
#X connect 1 0 26 0;
#X connect 2 0 21 0;
#X connect 3 0 0 0;
#X connect 4 0 0 0;
#X connect 5 0 3 1;
#X connect 6 0 9 0;
#X connect 7 0 8 1;
#X connect 7 0 24 1;
#X connect 8 0 4 0;
#X connect 9 0 8 0;
#X connect 9 1 7 0;
#X connect 10 0 11 0;
#X connect 10 0 19 0;
#X connect 11 0 12 0;
#X connect 11 1 13 1;
#X connect 12 0 8 0;
#X connect 13 0 16 0;
#X connect 14 0 13 1;
#X connect 15 0 6 0;
#X connect 15 1 13 0;
#X connect 16 0 9 0;
#X connect 16 1 14 0;
#X connect 16 2 6 0;
#X connect 17 0 15 0;
#X connect 18 0 7 0;
#X connect 18 1 7 1;
#X connect 19 0 3 0;
#X connect 20 0 23 0;
#X connect 21 0 18 0;
#X connect 21 1 4 1;
#X connect 21 2 25 0;
#X connect 21 3 5 0;
#X connect 22 0 24 0;
#X connect 22 1 20 0;
#X connect 24 0 23 0;
#X connect 25 0 22 0;
#X connect 26 0 27 0;
#X connect 26 1 19 1;
#X connect 27 0 19 0;
#X restore 329 -7 pd calc;
#X obj 327 23 spigot;
#X obj 67 -98 OSCroute \$1 /pitch;
#X text 198 -98 (global);
#X obj 398 -108 OSCroute /master_tempo;
#X obj 234 423 _j/scale 0 1 -45 45;
#N canvas 0 15 610 716 pitch 0;
#X obj 44 57 inlet;
#X obj 251 360 outlet;
#X obj 252 55 inlet;
#X obj 352 55 inlet;
#X obj 151 59 inlet;
#X obj 224 264 moses -0.01;
#X obj 241 285 moses 0.01;
#X obj 246 314 f;
#X obj 238 163 t b f;
#X obj 288 177 * 0;
#X obj 243 237 +;
#X obj 238 139 *;
#X obj 352 201 f;
#X obj 345 251 change;
#X obj 328 119 metro 12;
#X obj 341 230 mavg 3;
#N canvas 0 15 450 300 oneshot 0;
#X obj 147 58 inlet;
#X obj 149 92 spigot 1;
#X obj 147 155 outlet;
#X obj 225 91 0;
#X obj 147 117 t b b;
#X connect 0 0 1 0;
#X connect 1 0 4 0;
#X connect 3 0 1 1;
#X connect 4 0 2 0;
#X connect 4 1 3 0;
#X restore 327 94 pd oneshot;
#X obj 239 100 t b f b;
#X connect 0 0 17 0;
#X connect 2 0 9 0;
#X connect 3 0 9 1;
#X connect 4 0 11 0;
#X connect 5 0 7 0;
#X connect 5 1 6 0;
#X connect 6 1 7 0;
#X connect 7 0 1 0;
#X connect 8 0 10 0;
#X connect 8 1 10 1;
#X connect 9 0 10 0;
#X connect 10 0 12 0;
#X connect 11 0 8 0;
#X connect 12 0 15 0;
#X connect 13 0 5 0;
#X connect 14 0 12 0;
#X connect 15 0 13 0;
#X connect 16 0 14 0;
#X connect 17 0 11 0;
#X connect 17 1 11 1;
#X connect 17 2 16 0;
#X restore 225 85 pd pitch;
#N canvas 0 15 610 695 buffer 0;
#X obj 158 -47 inlet;
#X obj 338 332 outlet;
#X obj 406 335 outlet;
#N canvas 0 15 610 695 safe1 0;
#X msg 89 186 open \$1;
#X obj 14 203 t b b;
#X msg 54 204 1;
#X obj 13 129 inlet;
#X obj 256 279 outlet;
#X obj 15 161 t b s b;
#X obj 538 325 block~ 64 1 16;
#X obj 15 184 delay 500;
#X obj 55 327 loadbang;
#X obj 89 209 readsf~ 2;
#X obj 249 118 inlet channels;
#X obj 88 266 tabwrite~ \$0-buffer-L;
#X obj 108 296 tabwrite~ \$0-buffer-R;
#X obj 249 186 - 1;
#X obj 104 243 spigot;
#X text 52 342 so every buffer is a friend of the DSP chain (don't
know if needed);
#X connect 0 0 9 0;
#X connect 1 0 11 0;
#X connect 1 0 14 0;
#X connect 1 1 2 0;
#X connect 2 0 9 0;
#X connect 3 0 5 0;
#X connect 5 0 7 0;
#X connect 5 1 0 0;
#X connect 7 0 1 0;
#X connect 8 0 11 0;
#X connect 8 0 12 0;
#X connect 9 0 11 0;
#X connect 9 1 12 0;
#X connect 9 2 4 0;
#X connect 10 0 13 0;
#X connect 13 0 14 1;
#X connect 14 0 12 0;
#X restore 169 178 pd safe1;
#X obj 288 251 f;
#X obj 167 329 s UI;
#X obj 167 304 OSCprepend \$1;
#X msg 169 251 1;
#X msg 215 250 0;
#X msg 167 282 /sample_loaded \$1;
#X obj 288 223 t b b;
#X obj 322 55 route bang;
#X obj 262 -38 t a a b;
#X obj 331 156 unpack f s;
#X text 396 38 Wavememory is a common memory of available arrays. outputs
(size \, array) if found \, otherwise bang;
#X obj 569 343 outlet;
#X msg 535 295 1;
#X msg 509 314 0;
#X text 619 345 is internal array;
#X text 405 353 Size;
#X obj 315 251 list append \$0-buffer-L \$0-buffer-R;
#X text 336 352 Buffer(s);
#X obj 315 285 list split 1;
#X obj 459 337 outlet;
#X text 459 357 samplerate;
#X obj 322 31 svalue \$0-f;
#X msg 360 86 \$2 \$1;
#X obj 280 -19 list;
#X obj 280 1 t l l;
#X obj 216 41 list;
#X msg 322 6 symbol \$1;
#X obj 247 182 atoi;
#X text 18 385 osc message: /path/to/file \, str(size) \, sr \, channels
\, or just /buffer (as list);
#X obj 210 141 unpack s s f f;
#X floatatom 307 143 5 0 0 0 - - -;
#X connect 0 0 12 0;
#X connect 3 0 7 0;
#X connect 3 0 10 0;
#X connect 4 0 2 0;
#X connect 6 0 5 0;
#X connect 7 0 9 0;
#X connect 8 0 9 0;
#X connect 9 0 6 0;
#X connect 10 0 4 0;
#X connect 10 1 20 0;
#X connect 11 0 29 0;
#X connect 11 1 26 0;
#X connect 12 1 27 0;
#X connect 12 2 8 0;
#X connect 13 0 7 0;
#X connect 13 0 2 0;
#X connect 13 1 1 0;
#X connect 13 1 16 0;
#X connect 16 0 15 0;
#X connect 17 0 15 0;
#X connect 20 0 17 0;
#X connect 20 0 22 0;
#X connect 22 0 1 0;
#X connect 25 0 11 0;
#X connect 26 0 13 0;
#X connect 27 0 28 0;
#X connect 28 0 30 0;
#X connect 28 1 29 1;
#X connect 29 0 33 0;
#X connect 30 0 25 0;
#X connect 31 0 4 1;
#X connect 33 0 3 0;
#X connect 33 1 31 0;
#X connect 33 2 23 0;
#X connect 33 3 22 1;
#X connect 33 3 3 1;
#X connect 33 3 34 0;
#X restore 71 86 pd buffer and size;
#X obj 186 117 sl2hz;
#X obj 239 138 *;
#X obj 238 117 t b f;
#X obj 37 2 route 0;
#N canvas 0 15 450 300 spig 0;
#X obj 207 38 inlet;
#X obj 212 209 outlet;
#X obj 81 33 inlet;
#X obj 166 130 spigot 1;
#X obj 266 99 spigot;
#X obj 186 94 == 0;
#X obj 305 205 outlet;
#X connect 0 0 4 0;
#X connect 0 0 3 0;
#X connect 2 0 5 0;
#X connect 2 0 4 1;
#X connect 3 0 1 0;
#X connect 4 0 6 0;
#X connect 5 0 3 1;
#X restore 250 253 pd spig;
#X obj 586 295 t f f f f;
#N canvas 0 15 709 533 q_comp 0;
#X obj 100 27 inlet;
#X obj 190 27 inlet;
#X obj 99 256 outlet;
#X obj 100 54 / 1;
#X obj 190 47 t f f;
#X obj 177 172 / 16;
#X obj 110 167 +;
#X obj 122 114 ==;
#X obj 98 91 t f f f;
#X msg 177 151 \$2 \$1;
#X obj 176 126 pack;
#X connect 0 0 3 0;
#X connect 1 0 4 0;
#X connect 3 0 8 0;
#X connect 4 0 3 1;
#X connect 4 1 10 0;
#X connect 5 0 6 1;
#X connect 6 0 2 0;
#X connect 7 0 10 1;
#X connect 8 0 6 0;
#X connect 8 1 7 1;
#X connect 8 2 7 0;
#X connect 9 0 5 0;
#X connect 10 0 9 0;
#X restore 310 246 pd q_comp;
#X obj 103 587 table \$0-buffer-L 2.88e+06;
#X obj 273 586 table \$0-buffer-R 2.88e+06;
#X obj 148 424 panS~ 0.5 3;
#X obj 147 180 bufplayer2-s~ \$0-buffer-L;
#X obj 148 368 volswitch-s~ 10 3;
#X msg 69 178 symbol \$1;
#X obj 96 279 _a4looper_playpos_calc;
#X obj 83 -76 simple-osc-seq-4;
#X connect 0 0 20 0;
#X connect 1 0 2 0;
#X connect 2 0 0 0;
#X connect 2 1 3 0;
#X connect 3 0 4 0;
#X connect 4 0 6 0;
#X connect 4 0 35 2;
#X connect 5 0 18 0;
#X connect 6 0 5 1;
#X connect 7 0 28 1;
#X connect 8 0 7 1;
#X connect 9 0 7 0;
#X connect 9 1 8 0;
#X connect 10 0 7 0;
#X connect 10 1 8 0;
#X connect 10 2 8 1;
#X connect 11 0 35 1;
#X connect 11 1 35 3;
#X connect 11 2 23 0;
#X connect 11 3 6 1;
#X connect 11 4 9 0;
#X connect 11 5 10 0;
#X connect 11 6 16 0;
#X connect 11 6 26 0;
#X connect 11 6 33 0;
#X connect 12 0 40 0;
#X connect 12 1 11 0;
#X connect 13 0 31 0;
#X connect 16 0 48 2;
#X connect 16 1 34 0;
#X connect 16 2 42 0;
#X connect 17 0 47 5;
#X connect 18 0 27 0;
#X connect 19 0 20 1;
#X connect 20 0 5 0;
#X connect 21 0 22 0;
#X connect 22 0 23 1;
#X connect 23 0 29 1;
#X connect 24 0 25 0;
#X connect 24 1 22 1;
#X connect 25 0 21 0;
#X connect 26 0 18 1;
#X connect 26 0 19 1;
#X connect 26 0 24 0;
#X connect 26 0 43 1;
#X connect 26 1 23 2;
#X connect 26 1 27 1;
#X connect 26 2 23 3;
#X connect 27 0 43 0;
#X connect 27 1 19 0;
#X connect 28 0 41 1;
#X connect 29 0 30 0;
#X connect 29 1 50 3;
#X connect 30 0 1 0;
#X connect 31 0 12 0;
#X connect 31 0 51 0;
#X connect 31 1 35 0;
#X connect 33 0 29 0;
#X connect 34 0 46 2;
#X connect 35 0 39 0;
#X connect 35 0 47 3;
#X connect 36 0 47 0;
#X connect 36 0 49 0;
#X connect 36 1 37 0;
#X connect 36 1 47 1;
#X connect 36 1 50 1;
#X connect 36 2 47 2;
#X connect 36 2 37 1;
#X connect 36 3 41 0;
#X connect 37 0 38 0;
#X connect 38 0 50 4;
#X connect 39 0 38 0;
#X connect 39 1 38 1;
#X connect 40 1 36 0;
#X connect 41 0 47 4;
#X connect 41 1 50 2;
#X connect 42 0 29 2;
#X connect 42 1 30 1;
#X connect 42 2 48 3;
#X connect 42 3 17 0;
#X connect 43 0 28 0;
#X connect 46 0 14 0;
#X connect 46 1 15 0;
#X connect 47 0 48 0;
#X connect 47 1 48 1;
#X connect 47 2 0 0;
#X connect 47 3 25 0;
#X connect 48 0 46 0;
#X connect 48 1 46 1;
#X connect 49 0 50 0;
#X connect 50 0 47 4;
#X connect 51 0 12 0;
