#N canvas 0 15 815 695 10;
#X obj 243 -90 OSCroute /pitch /pitchdev /grainlen /skip /offset /size
;
#X obj 68 -52 OSCroute /buffer;
#X obj 68 -120 r OSC;
#X obj 64 503 outlet~;
#X obj 127 503 outlet~;
#N canvas 0 15 610 716 mixer 0;
#X obj 180 46 inlet;
#X obj 258 29 inlet;
#X obj 109 79 * -1;
#X obj 108 99 + 1;
#X obj 98 145 *;
#X obj 178 279 outlet;
#X obj 108 120 t b f;
#X obj 180 101 *;
#X obj 258 71 t b f;
#X obj 177 211 +;
#X obj 177 179 t b f;
#X obj 353 57 inlet;
#X obj 352 127 pow;
#X msg 352 103 2 \$1;
#X obj 210 131 * 1;
#X obj 352 195 t b f;
#X obj 353 81 * -1;
#X obj 98 13 inlet grainlen;
#X floatatom 127 235 5 0 0 0 - - -;
#X connect 0 0 7 0;
#X connect 1 0 2 0;
#X connect 1 0 8 0;
#X connect 2 0 3 0;
#X connect 3 0 6 0;
#X connect 4 0 9 0;
#X connect 6 0 4 0;
#X connect 6 1 4 1;
#X connect 7 0 14 0;
#X connect 8 0 7 0;
#X connect 8 1 7 1;
#X connect 9 0 18 0;
#X connect 9 0 5 0;
#X connect 10 0 9 0;
#X connect 10 1 9 1;
#X connect 11 0 16 0;
#X connect 12 0 15 0;
#X connect 13 0 12 0;
#X connect 14 0 10 0;
#X connect 15 0 14 0;
#X connect 15 1 14 1;
#X connect 16 0 13 0;
#X connect 17 0 4 0;
#X restore 353 4 pd mixer;
#X obj 67 -98 OSCroute \$1 /pitch;
#X text 198 -98 (global);
#X obj 311 -107 OSCroute /master_tempo;
#X obj 149 471 _j/scale 0 1 -45 45;
#N canvas 0 15 815 716 pitch 0;
#X obj 44 57 inlet;
#X obj 273 509 outlet;
#X obj 252 55 inlet;
#X obj 352 55 inlet;
#X obj 151 59 inlet;
#X obj 246 413 moses -0.01;
#X obj 263 434 moses 0.01;
#X obj 268 463 f;
#X obj 238 163 t b f;
#X obj 288 177 * 0;
#X obj 243 237 +;
#X obj 242 377 *;
#X obj 243 337 t b f;
#X floatatom 187 148 5 0 0 0 - - -;
#N canvas 0 15 815 716 quant 0;
#X obj 376 65 inlet;
#X obj 225 166 spigot 1;
#X obj 227 79 inlet;
#X obj 224 137 t a a;
#X obj 210 540 outlet;
#X obj 255 206 spigot;
#X obj 373 132 == 0;
#X obj 373 103 t a a;
#X obj 257 353 int;
#X obj 256 306 ftom;
#X obj 256 398 mtof;
#X obj 256 330 + 0.3763;
#X obj 257 376 - 0.3763;
#X obj 255 231 moses 0;
#X obj 294 255 t f b;
#X obj 322 279 1;
#X obj 257 420 * 1;
#X obj 284 278 -1;
#X obj 255 255 t f b;
#X obj 242 278 abs;
#X text 388 270 quantize to fractions of octave.. hope it works.;
#X connect 0 0 7 0;
#X connect 1 0 4 0;
#X connect 2 0 3 0;
#X connect 3 0 1 0;
#X connect 3 1 5 0;
#X connect 5 0 13 0;
#X connect 6 0 1 1;
#X connect 7 0 6 0;
#X connect 7 1 5 1;
#X connect 8 0 12 0;
#X connect 9 0 11 0;
#X connect 10 0 16 0;
#X connect 11 0 8 0;
#X connect 12 0 10 0;
#X connect 13 0 18 0;
#X connect 13 1 14 0;
#X connect 14 0 9 0;
#X connect 14 1 15 0;
#X connect 15 0 16 1;
#X connect 16 0 4 0;
#X connect 17 0 16 1;
#X connect 18 0 19 0;
#X connect 18 1 17 0;
#X connect 19 0 9 0;
#X restore 244 269 pd quant;
#X obj 453 106 inlet;
#X obj 523 106 inlet;
#X obj 244 306 * 1;
#X obj 515 177 sel 0;
#X obj 543 206 * -1;
#X obj 512 202 1;
#X text 591 175 invert pitch;
#X connect 0 0 11 0;
#X connect 2 0 9 0;
#X connect 3 0 9 1;
#X connect 4 0 8 0;
#X connect 4 0 13 0;
#X connect 5 0 7 0;
#X connect 5 1 6 0;
#X connect 6 1 7 0;
#X connect 7 0 1 0;
#X connect 8 0 10 0;
#X connect 8 1 10 1;
#X connect 9 0 10 0;
#X connect 10 0 14 0;
#X connect 11 0 5 0;
#X connect 12 0 11 0;
#X connect 12 1 11 1;
#X connect 14 0 17 0;
#X connect 15 0 14 1;
#X connect 16 0 18 0;
#X connect 17 0 12 0;
#X connect 18 0 20 0;
#X connect 18 1 19 0;
#X connect 19 0 17 1;
#X connect 20 0 17 1;
#X restore 187 -1 pd pitch;
#N canvas 0 15 610 716 buffer 1;
#X obj 138 -47 inlet;
#X obj 355 361 outlet;
#X obj 288 310 f;
#X obj 156 356 s UI;
#X obj 156 331 OSCprepend \$1;
#X msg 156 282 1;
#X msg 238 283 0;
#X msg 156 309 /sample_loaded \$1;
#X obj 288 223 t b b;
#X obj 156 88 route bang;
#X obj 138 -25 t a a b;
#X obj 371 156 unpack f s;
#X msg 549 294 1;
#X msg 549 314 0;
#X text 287 431 Size;
#X obj 355 251 list append \$0-buffer-L \$0-buffer-R;
#X text 398 361 Buffer(s);
#X obj 355 320 list split 1;
#X text 208 177 samplerate;
#X obj 156 64 svalue \$0-f;
#X msg 371 125 \$2 \$1;
#X obj 156 -6 list;
#X obj 156 14 t l l;
#X obj 156 116 list;
#X msg 156 39 symbol \$1;
#X obj 183 242 atoi;
#X text 173 511 osc message: /path/to/file \, str(size) \, sr \, channels
\, or just /buffer (as list);
#X obj 288 382 min \$2;
#X obj 288 416 s \$0-sizeSamp;
#X obj 210 165 s \$0-sr;
#X obj 549 344 s \$0-is_rec_array;
#X obj 355 278 t a b;
#X obj 371 179 t b a;
#X obj 156 140 unpack s s f f;
#X obj 248 139 t f f;
#X text 235 65 Check if "file name" is an array \, otherwise load file.
;
#N canvas 0 15 764 716 safeloader 0;
#X msg 222 187 open \$1;
#X msg 195 211 1;
#X obj 149 124 inlet;
#X obj 393 373 outlet;
#X obj 538 325 block~ 64 1 16;
#X obj 149 192 delay 500;
#X obj 27 410 loadbang;
#X obj 222 210 readsf~ 2;
#X obj 302 121 inlet channels;
#X obj 148 343 tabwrite~ \$0-buffer-L;
#X obj 248 378 tabwrite~ \$0-buffer-R;
#X obj 302 289 - 1;
#X obj 269 313 spigot;
#X text 24 424 Bang the buffers into the dsp chain at startup (don't
know if it's needed);
#X obj 149 156 t b s b b;
#X obj 148 211 t b b b;
#X connect 0 0 7 0;
#X connect 1 0 7 0;
#X connect 2 0 14 0;
#X connect 5 0 15 0;
#X connect 6 0 9 0;
#X connect 6 0 10 0;
#X connect 7 0 9 0;
#X connect 7 1 10 0;
#X connect 7 2 3 0;
#X connect 8 0 11 0;
#X connect 11 0 12 1;
#X connect 12 0 10 0;
#X connect 14 0 5 0;
#X connect 14 1 0 0;
#X connect 15 0 9 0;
#X connect 15 0 12 0;
#X connect 15 1 1 0;
#X restore 156 198 pd safeloader;
#X obj 21 220 list split 4;
#X obj 55 247 s2l;
#X obj 56 270 s \$0-onsetlist;
#X connect 0 0 10 0;
#X connect 2 0 27 0;
#X connect 4 0 3 0;
#X connect 5 0 7 0;
#X connect 6 0 7 0;
#X connect 7 0 4 0;
#X connect 8 0 2 0;
#X connect 8 1 15 0;
#X connect 9 0 23 0;
#X connect 9 1 20 0;
#X connect 10 1 21 0;
#X connect 10 2 6 0;
#X connect 11 0 32 0;
#X connect 11 1 1 0;
#X connect 11 1 12 0;
#X connect 12 0 30 0;
#X connect 13 0 30 0;
#X connect 15 0 31 0;
#X connect 17 0 1 0;
#X connect 19 0 9 0;
#X connect 20 0 11 0;
#X connect 21 0 22 0;
#X connect 22 0 24 0;
#X connect 22 1 23 1;
#X connect 23 0 37 0;
#X connect 23 0 33 0;
#X connect 24 0 19 0;
#X connect 25 0 2 1;
#X connect 27 0 28 0;
#X connect 31 0 17 0;
#X connect 31 1 13 0;
#X connect 32 0 5 0;
#X connect 32 1 27 0;
#X connect 33 0 36 0;
#X connect 33 1 25 0;
#X connect 33 2 29 0;
#X connect 33 3 34 0;
#X connect 34 0 36 1;
#X connect 34 1 17 1;
#X connect 36 0 5 0;
#X connect 36 0 8 0;
#X connect 37 1 38 0;
#X connect 38 0 39 0;
#X restore 64 45 pd buffer and size;
#X obj 68 2 route 0;
#N canvas 0 15 559 716 spig 0;
#X obj 168 34 inlet;
#X obj 166 285 outlet;
#X obj 81 33 inlet;
#X obj 166 130 spigot 1;
#X obj 177 230 spigot;
#X obj 211 106 == 0;
#X obj 177 257 outlet;
#X connect 0 0 4 0;
#X connect 0 0 3 0;
#X connect 2 0 5 0;
#X connect 2 0 4 1;
#X connect 3 0 1 0;
#X connect 4 0 6 0;
#X connect 5 0 3 1;
#X restore 297 186 pd spig;
#X obj 63 472 panS~ 0.5 3;
#X obj 63 416 volswitch-s~ 10 3;
#X msg 79 73 symbol \$1;
#X obj 272 296 _a4looper_playpos_calc;
#X obj 669 348 t f f f;
#X obj 708 99 switchdelay 3;
#X obj 273 586 table \$0-buffer-R \$2;
#X obj 103 587 table \$0-buffer-L \$2;
#X obj 305 240 r \$0-sizeSamp;
#X obj 86 238 r \$0-sizeSamp;
#X obj 109 197 r \$0-sr;
#X obj 297 164 r \$0-is_rec_array;
#X obj 79 97 s \$0-bufname;
#X obj 367 -40 t f f;
#X obj 669 394 s \$0-onoff;
#N canvas 0 15 610 716 offset+size 0;
#X obj 150 134 inlet;
#X obj 150 292 outlet;
#X obj 150 254 pack f f;
#X obj 195 231 +;
#X obj 150 191 t f f;
#X obj 196 191 t b b f;
#X obj 196 161 inlet;
#X connect 0 0 4 0;
#X connect 2 0 1 0;
#X connect 3 0 2 1;
#X connect 4 0 2 0;
#X connect 4 1 3 0;
#X connect 5 0 2 0;
#X connect 5 1 3 0;
#X connect 5 2 3 1;
#X connect 6 0 5 0;
#X restore 457 36 pd offset+size;
#N canvas 0 15 610 716 heart_of_the_mother 0;
#X obj 96 38 inlet;
#X obj 202 46 inlet;
#X obj 280 140 inlet;
#X obj 325 291 inlet;
#X obj 96 263 +;
#X obj 202 182 *;
#X obj 96 286 * 1;
#X obj 159 233 / 1;
#X obj 96 240 +;
#X obj 96 308 quantizeamt;
#X obj 96 353 zexy/wrap;
#N canvas 0 15 610 716 q_comp 0;
#X obj 100 27 inlet;
#X obj 190 27 inlet;
#X obj 99 256 outlet;
#X obj 100 54 / 1;
#X obj 190 47 t f f;
#X obj 177 213 / 16;
#X obj 98 167 +;
#X obj 122 114 ==;
#X obj 98 91 t f f f;
#X connect 0 0 3 0;
#X connect 1 0 4 0;
#X connect 3 0 8 0;
#X connect 4 0 3 1;
#X connect 4 1 5 1;
#X connect 5 0 6 1;
#X connect 6 0 2 0;
#X connect 7 0 5 0;
#X connect 8 0 6 0;
#X connect 8 1 7 1;
#X connect 8 2 7 0;
#X restore 96 331 pd q_comp;
#X obj 96 216 spigot;
#N canvas 0 15 559 716 onset_detection_bananas 0;
#X obj 84 14 inlet;
#X obj 86 406 outlet;
#X obj 296 10 r \$0-is_rec_array;
#X obj 196 13 == 0;
#X obj 84 44 spigot 1;
#X obj 166 46 spigot;
#X obj 167 70 t b a;
#X obj 167 91 symbol;
#X obj 297 71 r \$0-bufname;
#X obj 167 116 symbol2list -;
#X msg 167 137 symbol \$1-get_onset;
#X obj 168 249 r RECORDER2LOOPER;
#X obj 167 228 s LOOPER2RECORDER;
#X obj 167 185 list;
#X obj 167 207 list trim;
#X obj 169 331 sel symbol;
#X obj 167 161 t a a;
#X obj 169 286 t a a;
#X obj 169 352 list;
#X msg 169 373 \$2;
#X obj 296 37 &&;
#X obj 423 10 inlet;
#X obj 331 37 t b a;
#X obj 169 309 symbol;
#X connect 0 0 4 0;
#X connect 0 0 5 0;
#X connect 2 0 20 0;
#X connect 3 0 4 1;
#X connect 4 0 1 0;
#X connect 5 0 6 0;
#X connect 6 0 7 0;
#X connect 6 1 13 1;
#X connect 7 0 9 0;
#X connect 8 0 7 1;
#X connect 9 0 10 0;
#X connect 10 0 16 0;
#X connect 11 0 17 0;
#X connect 13 0 14 0;
#X connect 14 0 12 0;
#X connect 15 0 18 0;
#X connect 16 0 13 0;
#X connect 16 1 15 1;
#X connect 17 0 23 0;
#X connect 17 1 18 1;
#X connect 18 0 19 0;
#X connect 19 0 1 0;
#X connect 20 0 3 0;
#X connect 20 0 5 1;
#X connect 21 0 22 0;
#X connect 22 0 20 0;
#X connect 22 1 20 1;
#X connect 23 0 15 0;
#X restore 96 378 pd onset_detection_bananas;
#X obj 280 167 t f f f f;
#X obj 96 447 outlet;
#X obj 96 17 cnv 10 10 20 empty empty empty 20 12 0 14 -204786 -66577
0;
#X obj 202 25 cnv 10 10 20 empty empty empty 20 12 0 14 -204786 -66577
0;
#X obj 280 49 cnv 10 10 20 empty empty empty 20 12 0 14 -204786 -66577
0;
#X obj 325 270 cnv 10 10 20 empty empty empty 20 12 0 14 -204786 -66577
0;
#X obj 96 465 cnv 10 10 20 empty empty empty 20 12 0 14 -261234 -66577
0;
#X obj 129 184 r \$0-onoff;
#X obj 218 10 inlet;
#X obj 218 -11 cnv 10 10 20 empty empty empty 20 12 0 14 -204786 -66577
0;
#X obj 437 361 inlet;
#X obj 437 340 cnv 10 10 20 empty empty empty 20 12 0 14 -204786 -66577
0;
#X obj 395 336 inlet;
#X obj 395 315 cnv 10 10 20 empty empty empty 20 12 0 14 -204786 -66577
0;
#X text 259 364 snap to onsets in buffer;
#X text 156 353 total size to work on;
#X text 94 23 current pos;
#X text 30 283 * q step;
#X text 10 324 / q step \; jump to next;
#X text 170 308 calculate step;
#X text 5 238 add rest of q;
#X text 24 191 add skip;
#X obj 96 152 +;
#X floatatom 148 128 5 0 0 0 - - -;
#X obj 140 148 / 100;
#N canvas 0 15 610 716 lf-skip 0;
#X obj 96 41 inlet;
#X obj 90 239 outlet;
#X obj 122 88 random 100;
#X obj 123 110 moses 95;
#X obj 168 132 b;
#X obj 167 154 random 1000;
#X obj 167 179 / 1000;
#X obj 91 209 +;
#X obj 93 67 t f b;
#X msg 119 141 0;
#X obj 302 19 inlet;
#X obj 167 203 spigot;
#X obj 275 69 t a a;
#X obj 252 89 sel 1;
#X connect 0 0 8 0;
#X connect 2 0 3 0;
#X connect 3 0 9 0;
#X connect 3 1 4 0;
#X connect 4 0 5 0;
#X connect 5 0 6 0;
#X connect 6 0 11 0;
#X connect 7 0 1 0;
#X connect 8 0 7 0;
#X connect 8 1 2 0;
#X connect 9 0 7 1;
#X connect 10 0 12 0;
#X connect 11 0 7 1;
#X connect 12 0 13 0;
#X connect 12 1 11 1;
#X connect 13 1 7 1;
#X restore 110 90 pd lf-skip;
#X obj 511 40 inlet;
#N canvas 0 15 559 716 onset_detection_bananas2 0;
#X obj 84 14 inlet;
#X obj 86 406 outlet;
#X obj 296 -11 r \$0-is_rec_array;
#X obj 196 13 == 0;
#X obj 84 44 spigot 1;
#X obj 166 46 spigot;
#X obj 296 37 &&;
#X obj 423 10 inlet;
#X obj 331 37 t b a;
#X obj 297 12 == 0;
#N canvas 0 15 655 584 findclosest 0;
#X obj 182 7 inlet;
#X obj 57 87 list;
#X obj 136 344 select 1;
#X obj 136 184 t a a;
#X obj 136 395 f;
#X obj 136 234 abs;
#X obj 136 309 <=;
#X text 212 220 distance;
#N canvas 184 160 450 300 once 0;
#X obj 96 67 inlet;
#X obj 96 189 outlet;
#X obj 96 137 spigot 1;
#X obj 164 67 inlet;
#X msg 164 100 1;
#X msg 162 137 0;
#X obj 96 160 t a b;
#X connect 0 0 2 0;
#X connect 2 0 6 0;
#X connect 3 0 4 0;
#X connect 4 0 2 1;
#X connect 5 0 2 1;
#X connect 6 0 1 0;
#X connect 6 1 5 0;
#X restore 180 280 pd once;
#X obj 136 211 - 45;
#X obj 136 259 t a a a;
#X obj 168 310 f;
#X text 243 280 first comparison with first value;
#X obj 114 134 t b a b;
#X obj 114 427 f;
#N canvas 472 435 450 300 list-drip 0;
#X obj 102 44 inlet;
#X obj 102 128 list;
#X obj 102 153 list split 1;
#X obj 102 70 t b a;
#X obj 102 100 until;
#X obj 181 176 b;
#X obj 102 179 outlet;
#X connect 0 0 3 0;
#X connect 1 0 2 0;
#X connect 2 0 6 0;
#X connect 2 1 1 1;
#X connect 2 2 5 0;
#X connect 3 0 4 0;
#X connect 3 1 1 1;
#X connect 4 0 1 0;
#X connect 5 0 4 1;
#X restore 136 162 pd list-drip;
#X obj 242 12 inlet;
#X obj 182 63 t b a;
#X obj 114 454 outlet;
#X obj 57 106 route bang;
#X obj 57 309 f;
#X connect 0 0 17 0;
#X connect 1 0 19 0;
#X connect 2 0 4 0;
#X connect 2 0 11 0;
#X connect 3 0 9 0;
#X connect 3 1 4 1;
#X connect 4 0 14 1;
#X connect 5 0 10 0;
#X connect 6 0 2 0;
#X connect 8 0 6 1;
#X connect 9 0 5 0;
#X connect 10 0 6 0;
#X connect 10 1 11 1;
#X connect 10 2 8 0;
#X connect 11 0 6 1;
#X connect 13 0 14 0;
#X connect 13 1 15 0;
#X connect 13 2 8 1;
#X connect 14 0 18 0;
#X connect 15 0 3 0;
#X connect 16 0 1 1;
#X connect 17 0 1 0;
#X connect 17 1 9 1;
#X connect 17 1 20 1;
#X connect 19 0 20 0;
#X connect 19 1 13 0;
#X connect 20 0 18 0;
#X restore 166 138 pd findclosest;
#X obj 323 70 r \$0-sizeSamp;
#X obj 166 102 *;
#X obj 246 112 r \$0-onsetlist;
#X obj 166 164 /;
#X connect 0 0 4 0;
#X connect 0 0 5 0;
#X connect 2 0 9 0;
#X connect 3 0 4 1;
#X connect 4 0 1 0;
#X connect 5 0 12 0;
#X connect 6 0 3 0;
#X connect 6 0 5 1;
#X connect 7 0 8 0;
#X connect 8 0 6 0;
#X connect 8 1 6 1;
#X connect 9 0 6 0;
#X connect 10 0 14 0;
#X connect 11 0 12 1;
#X connect 11 0 14 1;
#X connect 12 0 10 0;
#X connect 13 0 10 1;
#X connect 14 0 1 0;
#X restore 96 410 pd onset_detection_bananas2;
#X connect 0 0 39 0;
#X connect 1 0 5 0;
#X connect 2 0 14 0;
#X connect 3 0 9 1;
#X connect 4 0 6 0;
#X connect 5 0 4 1;
#X connect 6 0 9 0;
#X connect 7 0 8 1;
#X connect 8 0 4 0;
#X connect 9 0 11 0;
#X connect 9 1 7 0;
#X connect 10 0 13 0;
#X connect 11 0 10 0;
#X connect 12 0 8 0;
#X connect 13 0 41 0;
#X connect 14 0 7 1;
#X connect 14 1 6 1;
#X connect 14 2 11 1;
#X connect 21 0 12 1;
#X connect 22 0 5 1;
#X connect 24 0 13 1;
#X connect 24 0 41 1;
#X connect 26 0 10 1;
#X connect 36 0 12 0;
#X connect 37 0 38 0;
#X connect 38 0 36 1;
#X connect 39 0 36 0;
#X connect 40 0 39 1;
#X connect 41 0 15 0;
#X restore 348 130 pd heart_of_the_mother;
#X obj 311 45 t b f f;
#N canvas 0 15 610 716 playerhz 0;
#X obj 162 35 inlet;
#X obj 162 250 outlet;
#X obj 75 58 r \$0-sizeSamp;
#X obj 75 109 sl2hz;
#X obj 162 219 *;
#X obj 161 198 t b f;
#X obj 102 87 r \$0-sr;
#X connect 0 0 5 0;
#X connect 2 0 3 0;
#X connect 3 0 4 0;
#X connect 4 0 1 0;
#X connect 5 0 4 0;
#X connect 5 1 4 1;
#X connect 6 0 3 1;
#X restore 187 44 pd playerhz;
#X obj 187 22 t f f;
#X obj 272 272 r \$0-bufname;
#N canvas 0 15 559 716 step_in_ms 0;
#X obj 134 16 inlet;
#X obj 126 244 outlet;
#X obj 135 117 / 48;
#X obj 135 136 /;
#X obj 135 77 t b f;
#X obj 135 97 f;
#X obj 152 53 r \$0-sizeSamp;
#X connect 0 0 4 0;
#X connect 2 0 3 0;
#X connect 3 0 1 0;
#X connect 4 0 5 0;
#X connect 4 1 3 1;
#X connect 5 0 2 0;
#X connect 6 0 5 0;
#X restore 367 -19 pd step_in_ms;
#X obj 64 261 bufplayer2-s~ \$0-buffer 1;
#X obj 427 249 timer;
#X obj 424 224 t b b;
#X floatatom 435 275 5 0 0 0 - - -;
#N canvas 0 15 610 695 tempo_sync 0;
#X obj 211 400 outlet;
#X obj 348 3 inlet internal_tempo;
#X obj 206 16 inlet mult;
#X obj 410 160 spigot 1;
#X obj 211 258 spigot;
#X obj 455 125 == 0;
#X obj 107 78 change;
#X obj 157 135 / 1;
#X obj 117 177 metro;
#X obj 110 99 t b f;
#X obj 151 41 sel 0;
#X obj 155 104 0;
#X obj 52 96 spigot;
#X obj 73 147 0;
#X obj 58 46 t f f;
#X obj 52 122 t f b f;
#X obj 53 17 r MASTER_TEMPO;
#X obj 188 109 t b f;
#X obj 411 76 metro 100;
#X obj 430 214 f;
#X obj 206 71 t f f f f;
#X obj 400 189 sel 1 0;
#X obj 402 266 outlet;
#X obj 391 217 f;
#X obj 365 137 > 0;
#X text 453 267 tempo(ms);
#X obj 563 2 r \$0-onoff;
#X obj 211 321 random 1000;
#X obj 211 299 spigot;
#X obj 211 344 / 500;
#X obj 211 365 - 1;
#X text 210 419 tempo tick w/ random skip;
#X obj 411 31 t b f f;
#N canvas 0 15 610 716 dev 0;
#X obj 268 57 inlet;
#X obj 167 117 random 1000;
#X obj 168 137 / 500;
#X obj 168 157 - 1;
#X obj 137 98 t f b;
#X obj 168 179 *;
#X obj 146 205 *;
#X obj 137 57 f;
#X obj 136 19 inlet;
#X obj 48 25 inlet;
#X obj 131 264 outlet;
#X obj 119 172 t a a;
#X obj 118 214 +;
#X obj 130 241 max 3;
#X connect 0 0 5 1;
#X connect 1 0 2 0;
#X connect 2 0 3 0;
#X connect 3 0 5 0;
#X connect 4 0 11 0;
#X connect 4 1 1 0;
#X connect 5 0 6 1;
#X connect 6 0 12 1;
#X connect 7 0 4 0;
#X connect 8 0 7 1;
#X connect 9 0 7 0;
#X connect 11 0 12 0;
#X connect 11 1 6 0;
#X connect 12 0 13 0;
#X connect 13 0 10 0;
#X restore 477 77 pd dev;
#X floatatom 539 83 5 0 0 0 - - -;
#X obj 412 98 t b b;
#X obj 261 343 / 1000;
#X obj 291 373 * -1;
#X obj 458 188 spigot 1;
#X obj 271 178 spigot;
#X connect 1 0 32 0;
#X connect 1 0 38 0;
#X connect 2 0 20 0;
#X connect 3 0 28 0;
#X connect 4 0 28 0;
#X connect 5 0 3 1;
#X connect 5 0 38 1;
#X connect 6 0 9 0;
#X connect 7 0 8 1;
#X connect 7 0 39 0;
#X connect 8 0 4 0;
#X connect 9 0 8 0;
#X connect 9 1 7 0;
#X connect 10 0 11 0;
#X connect 10 1 12 1;
#X connect 11 0 8 0;
#X connect 12 0 15 0;
#X connect 13 0 12 1;
#X connect 14 0 6 0;
#X connect 14 1 12 0;
#X connect 15 0 9 0;
#X connect 15 1 13 0;
#X connect 15 2 6 0;
#X connect 16 0 14 0;
#X connect 17 0 7 0;
#X connect 17 1 7 1;
#X connect 18 0 35 0;
#X connect 19 0 22 0;
#X connect 20 0 17 0;
#X connect 20 1 4 1;
#X connect 20 1 39 1;
#X connect 20 2 24 0;
#X connect 20 3 5 0;
#X connect 21 0 23 0;
#X connect 21 1 19 0;
#X connect 23 0 22 0;
#X connect 24 0 21 0;
#X connect 26 0 18 0;
#X connect 26 0 10 0;
#X connect 26 0 28 1;
#X connect 27 0 29 0;
#X connect 27 0 36 0;
#X connect 28 0 27 0;
#X connect 29 0 30 0;
#X connect 30 0 0 0;
#X connect 32 1 18 1;
#X connect 32 2 33 1;
#X connect 33 0 18 1;
#X connect 34 0 33 2;
#X connect 35 0 3 0;
#X connect 35 1 33 0;
#X connect 36 0 37 0;
#X connect 38 0 19 0;
#X connect 39 0 23 0;
#X restore 312 25 pd tempo_sync;
#X obj 83 -76 simple-osc-seq-4 \$1;
#X obj 171 336 *;
#X floatatom 255 84 5 0 0 0 - - -;
#X obj 171 308 t b f;
#X obj 531 224 OSCroute /vol /pan /onoff /interpolation;
#X obj 367 -70 OSCroute /quantizestep /quantizeamt /qspeed /snap_to_onsets
/lfskip /pquant /invert_pitch;
#X floatatom 162 371 5 0 0 0 - - -;
#X connect 0 0 10 1;
#X connect 0 1 10 3;
#X connect 0 2 5 0;
#X connect 0 3 30 2;
#X connect 0 4 29 0;
#X connect 0 5 29 1;
#X connect 0 6 8 0;
#X connect 0 6 45 0;
#X connect 0 6 46 0;
#X connect 1 0 12 0;
#X connect 1 1 0 0;
#X connect 2 0 6 0;
#X connect 5 0 40 1;
#X connect 5 0 43 0;
#X connect 5 0 42 0;
#X connect 6 0 1 0;
#X connect 6 0 41 0;
#X connect 6 1 10 0;
#X connect 8 0 40 0;
#X connect 9 0 14 2;
#X connect 10 0 33 0;
#X connect 11 0 16 0;
#X connect 11 0 36 0;
#X connect 12 1 11 0;
#X connect 13 0 36 4;
#X connect 13 1 17 2;
#X connect 14 0 3 0;
#X connect 14 1 4 0;
#X connect 15 0 14 0;
#X connect 15 1 14 1;
#X connect 16 0 26 0;
#X connect 17 0 36 4;
#X connect 18 0 28 0;
#X connect 18 1 15 3;
#X connect 18 2 19 0;
#X connect 19 0 36 6;
#X connect 22 0 17 1;
#X connect 23 0 36 1;
#X connect 24 0 36 2;
#X connect 25 0 13 0;
#X connect 27 0 35 0;
#X connect 27 1 30 3;
#X connect 29 0 30 5;
#X connect 30 0 13 1;
#X connect 31 0 36 5;
#X connect 31 0 38 0;
#X connect 31 1 30 1;
#X connect 31 2 10 2;
#X connect 32 0 17 4;
#X connect 33 0 32 0;
#X connect 33 1 36 3;
#X connect 34 0 17 0;
#X connect 35 0 5 1;
#X connect 36 0 15 0;
#X connect 36 1 15 1;
#X connect 36 2 30 0;
#X connect 37 0 39 0;
#X connect 38 0 37 0;
#X connect 38 1 37 1;
#X connect 40 0 31 0;
#X connect 40 1 17 3;
#X connect 41 0 1 0;
#X connect 42 0 36 7;
#X connect 42 0 47 0;
#X connect 44 0 42 0;
#X connect 44 1 42 1;
#X connect 45 0 15 2;
#X connect 45 1 9 0;
#X connect 45 2 18 0;
#X connect 45 3 44 0;
#X connect 46 0 27 0;
#X connect 46 1 5 2;
#X connect 46 1 30 4;
#X connect 46 2 5 3;
#X connect 46 3 30 6;
#X connect 46 4 30 7;
#X connect 46 5 10 4;
#X connect 46 6 10 5;
