#N canvas 0 15 589 693 10;
#X obj 303 316 01toquartic;
#X obj 216 316 volctl~ 0 10;
#X obj 247 454 mypan~;
#X obj 194 94 moses -0.01;
#X obj 211 115 moses 0.01;
#X obj 192 132 f;
#X obj 289 125 snapshot~;
#X obj 329 26 metro 100;
#X obj 328 45 random 1000;
#X obj 328 65 t b f;
#X obj 353 84 / 500;
#X obj 353 102 - 1;
#X obj 293 173 +;
#X obj 354 123 *;
#X obj 265 273 wrap;
#X obj 398 237 pack f f;
#X obj 423 213 +;
#X obj 403 164 t f f;
#X obj 413 189 t b b f;
#X obj 219 56 t b f;
#X obj 265 73 * 0;
#X obj 220 76 +;
#X obj 236 -38 OSCroute /pitch /pitchdev /grainlen /skip /offset /size
;
#X obj 67 -72 OSCroute /buffer;
#X obj 68 -120 r OSC;
#X obj 252 535 outlet~;
#X obj 307 533 outlet~;
#X obj 330 264 OSCroute /vol /pan /onoff;
#X obj 431 310 switchdelay 500;
#X obj 294 197 * 1;
#X obj 294 237 / 1;
#X obj 359 238 / 1;
#X obj 291 145 +;
#X obj 558 49 / 48;
#X obj 558 68 /;
#N canvas 0 0 450 300 mixer 0;
#X obj 98 31 inlet;
#X obj 188 31 inlet;
#X obj 290 29 inlet;
#X obj 245 70 * -1;
#X obj 244 90 + 1;
#X obj 100 67 *;
#X obj 120 192 outlet;
#X obj 128 68 t b f;
#X obj 180 67 *;
#X obj 208 68 t b f;
#X obj 123 125 +;
#X obj 134 94 t b f;
#X floatatom 189 118 5 0 0 0 - - -;
#X obj 375 27 inlet;
#X obj 367 87 pow;
#X msg 372 54 2 \$1;
#X obj 122 158 * 1;
#X obj 149 160 t b f;
#X connect 0 0 5 0;
#X connect 1 0 8 0;
#X connect 2 0 3 0;
#X connect 2 0 9 0;
#X connect 3 0 4 0;
#X connect 4 0 7 0;
#X connect 5 0 10 0;
#X connect 7 0 5 0;
#X connect 7 1 5 1;
#X connect 8 0 11 0;
#X connect 9 0 8 0;
#X connect 9 1 8 1;
#X connect 10 0 16 0;
#X connect 11 0 10 0;
#X connect 11 1 10 1;
#X connect 11 1 12 0;
#X connect 13 0 15 0;
#X connect 14 0 17 0;
#X connect 15 0 14 0;
#X connect 16 0 6 0;
#X connect 17 0 16 0;
#X connect 17 1 16 1;
#X restore 332 -2 pd mixer;
#X obj 586 69 t b f;
#X obj 558 29 f;
#X obj 249 430 myvolctl~ 0 3;
#X obj 471 109 OSCroute /quantizestep /quantizeamt /qspeed;
#X obj 294 217 quantizeamt;
#X obj 67 -98 OSCroute \$1;
#X obj 19 30 symbol;
#X obj 147 180 bufplayer2~ \$0-buffer;
#X obj 21 93 pyext larmext wavlength;
#N canvas 0 15 589 693 safe1 0;
#X obj 89 209 readsf~;
#X msg 105 187 open \$1;
#X obj 14 203 t b b;
#X msg 49 203 1;
#X obj 13 129 inlet;
#X obj 256 279 outlet;
#X obj 15 161 t b s b;
#X obj 308 325 block~ 64 1 16;
#X obj 15 184 delay 500;
#X obj 90 242 tabwrite~ \$0-buffer;
#X connect 0 0 9 0;
#X connect 0 1 5 0;
#X connect 1 0 0 0;
#X connect 2 0 9 0;
#X connect 2 1 3 0;
#X connect 3 0 0 0;
#X connect 4 0 6 0;
#X connect 6 0 8 0;
#X connect 6 1 1 0;
#X connect 8 0 2 0;
#X restore 22 141 pd safe1;
#X obj 22 116 unpack s f f;
#X obj 140 157 f;
#X msg 17 49 read \$1 0;
#X obj 103 587 table \$0-buffer 2.88e+06;
#X obj 20 280 s UI;
#X obj 20 255 OSCprepend \$1;
#X msg 22 202 1;
#X msg 68 201 0;
#X msg 20 233 /sample_loaded \$1;
#X obj 28 163 symbol \$0-buffer;
#X obj 78 140 t b b;
#X obj 101 47 route bang;
#X obj 83 -30 symbol;
#X obj 65 -49 t a a b;
#X obj 83 -10 t s s;
#X obj 101 24 pyext larmext wavememory;
#X obj 142 70 pack f s;
#X obj 134 115 unpack f s;
#X msg 160 2 get \$1;
#X connect 0 0 1 1;
#X connect 1 0 38 0;
#X connect 2 0 25 0;
#X connect 2 1 26 0;
#X connect 3 0 5 0;
#X connect 3 1 4 0;
#X connect 4 1 5 0;
#X connect 5 0 43 2;
#X connect 6 0 32 0;
#X connect 7 0 8 0;
#X connect 8 0 9 0;
#X connect 9 0 6 0;
#X connect 9 1 10 0;
#X connect 10 0 11 0;
#X connect 11 0 13 0;
#X connect 11 0 20 0;
#X connect 12 0 29 0;
#X connect 13 0 12 1;
#X connect 14 0 43 3;
#X connect 15 0 14 1;
#X connect 16 0 15 1;
#X connect 17 0 15 0;
#X connect 17 1 16 0;
#X connect 18 0 15 0;
#X connect 18 1 16 0;
#X connect 18 2 16 1;
#X connect 19 0 21 0;
#X connect 19 1 21 1;
#X connect 20 0 21 0;
#X connect 21 0 3 0;
#X connect 22 0 19 0;
#X connect 22 1 20 1;
#X connect 22 2 35 0;
#X connect 22 3 13 1;
#X connect 22 4 17 0;
#X connect 22 5 18 0;
#X connect 22 6 27 0;
#X connect 22 6 39 0;
#X connect 23 0 59 0;
#X connect 23 1 22 0;
#X connect 24 0 41 0;
#X connect 27 0 0 0;
#X connect 27 1 2 1;
#X connect 27 2 7 0;
#X connect 27 2 28 0;
#X connect 27 2 38 1;
#X connect 28 0 43 4;
#X connect 29 0 40 0;
#X connect 30 0 14 0;
#X connect 31 0 32 1;
#X connect 32 0 12 0;
#X connect 33 0 34 0;
#X connect 34 0 35 1;
#X connect 35 0 7 1;
#X connect 36 0 37 0;
#X connect 36 1 34 1;
#X connect 37 0 33 0;
#X connect 38 0 2 0;
#X connect 39 0 29 1;
#X connect 39 0 30 1;
#X connect 39 0 31 1;
#X connect 39 0 36 0;
#X connect 39 1 35 2;
#X connect 39 1 40 1;
#X connect 40 0 30 0;
#X connect 40 1 31 0;
#X connect 41 0 23 0;
#X connect 42 0 48 0;
#X connect 43 0 1 0;
#X connect 43 1 6 0;
#X connect 43 2 37 0;
#X connect 44 0 46 0;
#X connect 45 0 52 0;
#X connect 45 0 56 0;
#X connect 46 0 45 0;
#X connect 46 2 47 1;
#X connect 47 0 43 1;
#X connect 48 0 44 1;
#X connect 51 0 50 0;
#X connect 52 0 54 0;
#X connect 53 0 54 0;
#X connect 54 0 51 0;
#X connect 55 0 43 0;
#X connect 56 0 47 0;
#X connect 56 1 55 0;
#X connect 57 0 42 0;
#X connect 57 1 62 0;
#X connect 58 0 60 0;
#X connect 59 1 58 0;
#X connect 59 2 53 0;
#X connect 60 0 64 0;
#X connect 60 1 42 1;
#X connect 60 1 62 1;
#X connect 61 0 57 0;
#X connect 62 0 63 0;
#X connect 63 0 43 1;
#X connect 63 0 52 0;
#X connect 63 1 43 0;
#X connect 64 0 61 1;
