#N canvas 0 15 661 695 10;
#X obj 81 61 route analog digital;
#X obj 148 83 route 2 3;
#X obj 94 83 == 0;
#X obj 177 124 == 0;
#X obj 81 165 route 0 1 2 3 4 5;
#X obj 81 394 prepent /x;
#X obj 91 414 prepent /y;
#X obj 101 434 prepent /z;
#X obj 111 454 prepent /f1;
#X obj 121 474 prepent /f2;
#X obj 131 494 prepent /f3;
#X obj 345 377 prepent /button1;
#X obj 368 407 prepent /button2;
#X obj 227 -9 r OSC;
#X obj 227 65 OSCroute /arduino;
#X obj 227 136 OSCroute /x /y /z /f1 /f2 /f3;
#X obj 326 91 OSCroute /led;
#N canvas 0 15 450 300 led 0;
#X obj 93 45 OSCroute /led1 /led2 /led3 /led4;
#X obj 94 17 inlet;
#X msg 93 74 pwm 6 \$1;
#X msg 143 94 pwm 9 \$1;
#X msg 163 114 pwm 10 \$1;
#X msg 183 134 pwm 11 \$1;
#X obj 100 172 outlet;
#X connect 0 0 2 0;
#X connect 0 1 3 0;
#X connect 0 2 4 0;
#X connect 0 3 5 0;
#X connect 1 0 0 0;
#X connect 2 0 6 0;
#X connect 3 0 6 0;
#X connect 4 0 6 0;
#X connect 5 0 6 0;
#X restore 167 38 pd led;
#X obj 97 580 OSCprepend /incoming/main/arduino/glove;
#X obj 227 116 OSCroute /rescale /glove;
#X obj 342 313 OSCprepend /incoming/main/arduino/rescale;
#X obj 82 190 arduino_scaler /x;
#X obj 101 210 arduino_scaler /y;
#X obj 121 230 arduino_scaler /z;
#X obj 141 250 arduino_scaler /f1;
#X obj 161 270 arduino_scaler /f2;
#X obj 181 290 arduino_scaler /f3;
#N canvas 0 15 661 716 blink 0;
#X obj 138 20 inlet;
#X obj 138 71 sel 0 1;
#X obj 136 124 line;
#X msg 159 94 0 \, 1 100;
#X msg 82 93 1 \, 0 100;
#X obj 146 194 outlet;
#X obj 139 45 t f b;
#X msg 232 119 0;
#X obj 231 98 delay 500;
#X msg 168 156 pwm 6 \$1;
#X msg 237 165 pwm 10 0 \, pwm 9 0;
#X obj 236 144 delay 20;
#X connect 0 0 6 0;
#X connect 1 0 4 0;
#X connect 1 1 3 0;
#X connect 2 0 9 0;
#X connect 3 0 2 0;
#X connect 4 0 2 0;
#X connect 6 0 1 0;
#X connect 6 1 8 0;
#X connect 6 1 11 0;
#X connect 7 0 9 0;
#X connect 8 0 7 0;
#X connect 9 0 5 0;
#X connect 10 0 5 0;
#X connect 11 0 10 0;
#X restore 94 124 pd blink;
#X obj 195 411 if_min_change 0.03;
#X obj 75 311 if_min_change 0.03;
#X obj 95 331 if_min_change 0.03;
#X obj 113 351 if_min_change 0.03;
#X obj 135 371 if_min_change 0.03;
#X obj 165 391 if_min_change 0.03;
#X obj 95 623 s UI;
#X obj 488 407 r MASTER_TEMPO;
#X obj 475 525 change;
#X obj 475 565 delay 3000;
#X obj 476 546 t b b;
#X obj 476 586 0;
#X obj 507 585 1;
#X obj 441 610 spigot;
#X obj 441 493 t b f;
#N canvas 0 15 450 300 blink 0;
#X obj 138 20 inlet;
#X obj 146 194 outlet;
#X msg 232 119 0;
#X msg 168 156 pwm 11 \$1;
#X obj 139 45 t b b;
#X msg 156 106 1;
#X obj 231 98 delay 30;
#X connect 0 0 4 0;
#X connect 2 0 3 0;
#X connect 3 0 1 0;
#X connect 4 0 5 0;
#X connect 4 1 6 0;
#X connect 5 0 3 0;
#X connect 6 0 2 0;
#X restore 442 639 pd blink;
#X obj 81 -7 r \$0-ar;
#X obj 94 143 s \$0-ar;
#X obj 443 660 s \$0-ar;
#X obj 440 460 pipe 22;
#X obj 441 434 t f f;
#X obj 499 445 - 16;
#X obj 508 618 delay;
#N canvas 0 15 450 300 blink 0;
#X obj 138 20 inlet;
#X obj 146 194 outlet;
#X msg 232 119 0;
#X obj 139 45 t b b;
#X msg 156 106 1;
#X obj 231 98 delay 30;
#X msg 168 156 pwm 10 \$1;
#X connect 0 0 3 0;
#X connect 2 0 6 0;
#X connect 3 0 4 0;
#X connect 3 1 5 0;
#X connect 4 0 6 0;
#X connect 5 0 2 0;
#X connect 6 0 1 0;
#X restore 512 639 pd blink;
#X obj 518 496 / 2;
#X obj -3 -8 inlet;
#X msg 85 -73 devicename /dev/ttyUSB0 \, pinMode 2 0 \, pinMode 3 0
\, pinMode 6 1 \, pinMode 9 1 \, pinMode 10 1 \, pinMode 11 1 \, analogIns
0 1 \, analogIns 1 1 \, analogIns 2 1 \, analogIns 3 1 \, analogIns
4 1 \, analogIns 5 1;
#X obj 34 -71 inlet;
#X obj 80 18 spigot;
#X obj 35 -47 t b f;
#X obj 227 22 spigot;
#N canvas 0 15 661 716 test 0;
#X obj 102 52 inlet;
#X obj 106 79 route 0 1 2;
#X obj 183 447 outlet;
#X obj 106 344 outlet;
#X obj 127 139 _j/scale 0.2 0.5 0 1;
#X obj 106 182 _j/scale 0.27 0.465 0 1;
#X obj 106 267 mavg 12;
#X obj 127 325 mavg 12;
#X obj 127 449 outlet;
#X obj 183 201 - 0.3;
#X obj 183 301 +;
#X obj 183 344 within 0 1;
#X obj 183 323 0.5;
#X obj 183 160 spigot;
#X obj 216 81 inlet;
#X obj 183 280 *;
#X obj 183 259 abs;
#X obj 183 227 t f f;
#X obj 127 120 spigot 1;
#X obj 106 102 spigot 1;
#X obj 347 355 outlet;
#X msg 347 265 pwm 9 \$1;
#X msg 347 215 pwm 10 \$1;
#X msg 347 325 pwm 11 \$1;
#X obj 193 107 == 0;
#X obj 226 115 t f f;
#X obj 237 159 sel 1;
#X connect 0 0 1 0;
#X connect 1 0 19 0;
#X connect 1 1 18 0;
#X connect 1 2 13 0;
#X connect 4 0 7 0;
#X connect 4 0 22 0;
#X connect 5 0 6 0;
#X connect 5 0 21 0;
#X connect 6 0 3 0;
#X connect 7 0 8 0;
#X connect 9 0 17 0;
#X connect 10 0 12 0;
#X connect 11 0 10 1;
#X connect 11 0 2 0;
#X connect 11 0 23 0;
#X connect 12 0 11 0;
#X connect 13 0 9 0;
#X connect 14 0 24 0;
#X connect 14 0 25 0;
#X connect 15 0 10 0;
#X connect 16 0 15 0;
#X connect 17 0 16 0;
#X connect 17 1 15 1;
#X connect 18 0 4 0;
#X connect 19 0 5 0;
#X connect 21 0 20 0;
#X connect 22 0 20 0;
#X connect 23 0 20 0;
#X connect 24 0 18 1;
#X connect 24 0 19 1;
#X connect 25 0 26 0;
#X connect 25 1 13 1;
#X connect 26 1 23 0;
#X restore 7 157 pd test;
#N canvas 0 15 661 716 tgl 0;
#X obj 173 57 inlet;
#X obj 174 83 sel 1 0;
#X obj 174 128 timer;
#X obj 175 105 t b b;
#X obj 177 252 outlet;
#X obj 177 185 sel 0;
#X obj 177 205 mytgl;
#X obj 176 158 > 150;
#X connect 0 0 1 0;
#X connect 1 0 3 0;
#X connect 1 1 2 1;
#X connect 2 0 7 0;
#X connect 3 0 2 0;
#X connect 3 1 2 1;
#X connect 5 0 6 0;
#X connect 6 0 4 0;
#X connect 7 0 5 0;
#X restore 94 104 pd tgl;
#X obj 23 303;
#X obj 16 268 print;
#X floatatom 16 234 5 0 0 0 - - -;
#X msg 313 13 analogIns 0 \$1 \, analogIns 1 \$1 \, analogIns 2 \$1
\, analogIns 3 \$1 \, analogIns 4 \$1 \, analogIns 5 \$1 \, pwm 8 1
;
#X obj 81 42 arduino;
#X connect 0 0 4 0;
#X connect 0 0 59 0;
#X connect 0 1 1 0;
#X connect 1 0 2 0;
#X connect 1 1 3 0;
#X connect 2 0 60 0;
#X connect 2 0 59 1;
#X connect 3 0 12 0;
#X connect 4 0 21 0;
#X connect 4 1 22 0;
#X connect 4 2 23 0;
#X connect 4 3 24 0;
#X connect 4 4 25 0;
#X connect 4 5 26 0;
#X connect 5 0 18 0;
#X connect 6 0 18 0;
#X connect 7 0 18 0;
#X connect 8 0 18 0;
#X connect 9 0 18 0;
#X connect 10 0 18 0;
#X connect 11 0 18 0;
#X connect 12 0 18 0;
#X connect 13 0 58 0;
#X connect 14 0 16 0;
#X connect 14 0 19 0;
#X connect 15 0 21 1;
#X connect 15 1 22 1;
#X connect 15 2 23 1;
#X connect 15 3 24 1;
#X connect 15 4 25 1;
#X connect 15 5 26 1;
#X connect 16 0 17 0;
#X connect 17 0 65 0;
#X connect 18 0 34 0;
#X connect 19 0 15 0;
#X connect 20 0 34 0;
#X connect 21 1 20 0;
#X connect 22 1 20 0;
#X connect 23 1 20 0;
#X connect 24 0 32 0;
#X connect 24 1 20 0;
#X connect 25 0 33 0;
#X connect 25 1 20 0;
#X connect 26 0 28 0;
#X connect 26 1 20 0;
#X connect 27 0 45 0;
#X connect 28 0 10 0;
#X connect 29 0 5 0;
#X connect 30 0 6 0;
#X connect 31 0 7 0;
#X connect 32 0 8 0;
#X connect 33 0 9 0;
#X connect 35 0 48 0;
#X connect 36 0 38 0;
#X connect 37 0 39 0;
#X connect 38 0 37 0;
#X connect 38 1 40 0;
#X connect 39 0 41 1;
#X connect 40 0 41 1;
#X connect 41 0 43 0;
#X connect 41 0 50 0;
#X connect 42 0 41 0;
#X connect 42 1 36 0;
#X connect 43 0 46 0;
#X connect 44 0 56 0;
#X connect 47 0 42 0;
#X connect 48 0 47 0;
#X connect 48 1 49 0;
#X connect 48 1 52 0;
#X connect 49 0 47 1;
#X connect 50 0 51 0;
#X connect 51 0 46 0;
#X connect 52 0 50 1;
#X connect 53 0 65 0;
#X connect 54 0 56 0;
#X connect 55 0 57 0;
#X connect 56 0 65 0;
#X connect 57 0 54 0;
#X connect 57 1 56 1;
#X connect 57 1 58 1;
#X connect 58 0 14 0;
#X connect 59 0 29 0;
#X connect 59 0 63 0;
#X connect 59 1 30 0;
#X connect 59 2 31 0;
#X connect 59 3 45 0;
#X connect 60 0 27 0;
#X connect 60 0 64 0;
#X connect 64 0 65 0;
#X connect 65 0 0 0;
