#N canvas 0 15 610 716 10;
#X obj 98 103 _j/scale 0 1 0 1;
#X obj 98 30 inlet;
#X obj 145 2 inlet;
#X obj 129 187 outlet;
#X obj 119 69 f;
#X obj 149 79 f;
#X obj 302 198 outlet;
#X obj 144 26 OSCroute /set_min /set_max /min /max;
#X obj 258 119 OSCprepend \$1/min;
#X obj 268 99 OSCprepend \$1/max;
#X connect 0 0 3 0;
#X connect 1 0 0 0;
#X connect 1 0 4 1;
#X connect 1 0 5 1;
#X connect 2 0 7 0;
#X connect 4 0 0 1;
#X connect 4 0 8 0;
#X connect 5 0 0 2;
#X connect 5 0 9 0;
#X connect 7 0 4 0;
#X connect 7 1 5 0;
#X connect 7 2 0 1;
#X connect 7 3 0 2;
#X connect 8 0 6 0;
#X connect 9 0 6 0;
