#N canvas 349 15 650 740 10;
#X obj 81 61 route analog digital;
#X obj 148 83 route 2 3;
#X obj 148 104 == 0;
#X obj 177 124 == 0;
#X obj 81 158 route 0 1 2 3 4 5;
#X obj 81 387 prepent /x;
#X obj 91 407 prepent /y;
#X obj 101 427 prepent /z;
#X obj 111 447 prepent /f1;
#X obj 121 467 prepent /f2;
#X obj 131 487 prepent /f3;
#X obj 345 377 prepent /button1;
#X obj 368 407 prepent /button2;
#X obj 81 42 arduino;
#X obj 81 -41 loadbang;
#X obj 391 42 r OSC;
#X obj 227 65 OSCroute /arduino;
#X obj 227 136 OSCroute /x /y /z /f1 /f2 /f3;
#X obj 326 91 OSCroute /led;
#N canvas 0 15 450 300 led 0;
#X obj 93 45 OSCroute /led1 /led2 /led3 /led4;
#X obj 94 17 inlet;
#X msg 93 74 pwm 6 \$1;
#X msg 143 94 pwm 9 \$1;
#X msg 163 114 pwm 10 \$1;
#X msg 183 134 pwm 11 \$1;
#X obj 100 172 outlet;
#X connect 0 0 2 0;
#X connect 0 1 3 0;
#X connect 0 2 4 0;
#X connect 0 3 5 0;
#X connect 1 0 0 0;
#X connect 2 0 6 0;
#X connect 3 0 6 0;
#X connect 4 0 6 0;
#X connect 5 0 6 0;
#X restore 167 38 pd led;
#X obj 97 573 OSCprepend /incoming/main/arduino/glove;
#X obj 227 116 OSCroute /rescale /glove;
#X obj 342 313 OSCprepend /incoming/main/arduino/rescale;
#X obj 82 183 arduino_scaler /x;
#X obj 101 203 arduino_scaler /y;
#X obj 121 223 arduino_scaler /z;
#X obj 141 243 arduino_scaler /f1;
#X obj 161 263 arduino_scaler /f2;
#X obj 181 283 arduino_scaler /f3;
#X msg 81 -19 devicename /dev/ttyUSB0 \, pinMode 2 0 \, pinMode 3 0
\, pinMode 6 1 \, pinMode 9 1 \, pinMode 10 1 \, pinMode 11 1 \, analogIns
0 1 \, analogIns 1 1 \, analogIns 2 1 \, analogIns 3 1 \, analogIns
4 1 \, analogIns 5 1;
#X msg 260 186 analogIns 0 \$1 \, analogIns 1 \$1 \, analogIns 2 \$1
\, analogIns 3 \$1 \, analogIns 4 \$1 \, analogIns 5 \$1;
#X obj 509 62 sel 1;
#X obj 509 115 + 1;
#X obj 509 89 0;
#X obj 509 135 % 2;
#N canvas 0 15 450 300 blink 0;
#X obj 138 20 inlet;
#X obj 138 71 sel 0 1;
#X obj 136 124 line;
#X msg 159 94 0 \, 1 100;
#X msg 82 93 1 \, 0 100;
#X obj 146 194 outlet;
#X msg 168 156 pwm 6 \$1;
#X obj 139 45 t f b;
#X msg 232 119 0;
#X obj 231 98 delay 500;
#X connect 0 0 7 0;
#X connect 1 0 4 0;
#X connect 1 1 3 0;
#X connect 2 0 6 0;
#X connect 3 0 2 0;
#X connect 4 0 2 0;
#X connect 6 0 5 0;
#X connect 7 0 1 0;
#X connect 7 1 9 0;
#X connect 8 0 6 0;
#X connect 9 0 8 0;
#X restore 559 114 pd blink;
#X obj 195 404 if_min_change 0.03;
#X obj 75 304 if_min_change 0.03;
#X obj 95 324 if_min_change 0.03;
#X obj 113 344 if_min_change 0.03;
#X obj 135 364 if_min_change 0.03;
#X obj 165 384 if_min_change 0.03;
#X obj 95 616 s UI;
#X obj 488 407 r MASTER_TEMPO;
#X obj 475 525 change;
#X obj 475 565 delay 3000;
#X obj 476 546 t b b;
#X obj 476 586 0;
#X obj 507 585 1;
#X obj 441 610 spigot;
#X obj 441 493 t b f;
#N canvas 0 15 450 300 blink 0;
#X obj 138 20 inlet;
#X obj 146 194 outlet;
#X msg 232 119 0;
#X msg 168 156 pwm 11 \$1;
#X obj 139 45 t b b;
#X msg 156 106 1;
#X obj 231 98 delay 30;
#X connect 0 0 4 0;
#X connect 2 0 3 0;
#X connect 3 0 1 0;
#X connect 4 0 5 0;
#X connect 4 1 6 0;
#X connect 5 0 3 0;
#X connect 6 0 2 0;
#X restore 442 639 pd blink;
#X obj 11 35 r \$0-ar;
#X obj 559 136 s \$0-ar;
#X obj 443 660 s \$0-ar;
#X obj 440 460 pipe 22;
#X obj 441 434 t f f;
#X obj 499 445 - 16;
#X obj 508 618 delay;
#N canvas 0 15 450 300 blink 0;
#X obj 138 20 inlet;
#X obj 146 194 outlet;
#X msg 232 119 0;
#X obj 139 45 t b b;
#X msg 156 106 1;
#X obj 231 98 delay 30;
#X msg 168 156 pwm 10 \$1;
#X connect 0 0 3 0;
#X connect 2 0 6 0;
#X connect 3 0 4 0;
#X connect 3 1 5 0;
#X connect 4 0 6 0;
#X connect 5 0 2 0;
#X connect 6 0 1 0;
#X restore 512 639 pd blink;
#X obj 518 496 / 2;
#X obj 18 -4 inlet;
#X connect 0 0 4 0;
#X connect 0 1 1 0;
#X connect 1 0 2 0;
#X connect 1 1 3 0;
#X connect 2 0 11 0;
#X connect 3 0 12 0;
#X connect 3 0 31 0;
#X connect 4 0 23 0;
#X connect 4 1 24 0;
#X connect 4 2 25 0;
#X connect 4 3 26 0;
#X connect 4 4 27 0;
#X connect 4 5 28 0;
#X connect 5 0 20 0;
#X connect 6 0 20 0;
#X connect 7 0 20 0;
#X connect 8 0 20 0;
#X connect 9 0 20 0;
#X connect 10 0 20 0;
#X connect 11 0 20 0;
#X connect 12 0 20 0;
#X connect 13 0 0 0;
#X connect 14 0 29 0;
#X connect 15 0 16 0;
#X connect 16 0 18 0;
#X connect 16 0 21 0;
#X connect 17 0 23 1;
#X connect 17 1 24 1;
#X connect 17 2 25 1;
#X connect 17 3 26 1;
#X connect 17 4 27 1;
#X connect 17 5 28 1;
#X connect 18 0 19 0;
#X connect 19 0 13 0;
#X connect 20 0 42 0;
#X connect 21 0 17 0;
#X connect 22 0 42 0;
#X connect 23 0 37 0;
#X connect 23 1 22 0;
#X connect 24 0 38 0;
#X connect 24 1 22 0;
#X connect 25 0 39 0;
#X connect 25 1 22 0;
#X connect 26 0 40 0;
#X connect 26 1 22 0;
#X connect 27 0 41 0;
#X connect 27 1 22 0;
#X connect 28 0 36 0;
#X connect 28 1 22 0;
#X connect 29 0 13 0;
#X connect 30 0 13 0;
#X connect 31 0 33 0;
#X connect 32 0 34 0;
#X connect 33 0 32 0;
#X connect 34 0 33 1;
#X connect 34 0 30 0;
#X connect 34 0 35 0;
#X connect 35 0 53 0;
#X connect 36 0 10 0;
#X connect 37 0 5 0;
#X connect 38 0 6 0;
#X connect 39 0 7 0;
#X connect 40 0 8 0;
#X connect 41 0 9 0;
#X connect 43 0 56 0;
#X connect 44 0 46 0;
#X connect 45 0 47 0;
#X connect 46 0 45 0;
#X connect 46 1 48 0;
#X connect 47 0 49 1;
#X connect 48 0 49 1;
#X connect 49 0 51 0;
#X connect 49 0 58 0;
#X connect 50 0 49 0;
#X connect 50 1 44 0;
#X connect 51 0 54 0;
#X connect 52 0 13 0;
#X connect 55 0 50 0;
#X connect 56 0 55 0;
#X connect 56 1 57 0;
#X connect 56 1 60 0;
#X connect 57 0 55 1;
#X connect 58 0 59 0;
#X connect 59 0 54 0;
#X connect 60 0 58 1;
#X connect 61 0 13 0;
