#N canvas 0 15 764 716 10;
#X obj 349 40 openpanel;
#X obj 352 19 bng 15 250 50 0 empty empty empty 0 -6 0 10 -262144 -1
-1;
#X obj 347 193 soundfiler;
#X msg 347 60 set symbol \$1;
#X obj 71 27 bng 15 250 50 0 empty empty empty 0 -6 0 10 -262144 -1
-1;
#X obj 183 202 bng 15 250 50 0 empty empty empty 0 -6 0 10 -262144
-1 -1;
#X obj 246 70 bng 15 250 50 0 empty empty empty 0 -6 0 10 -262144 -1
-1;
#X floatatom 347 226 10 0 0 0 - - -;
#X obj 347 245 / 48;
#X msg 233 206 0;
#X obj 270 203 tgl 15 0 empty empty empty 0 -6 0 10 -262144 -1 -1 1
1;
#X msg 207 164 size \$1;
#X obj 102 259 rec_onset_detector 1837;
#X obj 129 693 dac~;
#X obj 447 43 table \$0-foo-L;
#X obj 447 63 table \$0-foo-R;
#X obj 347 103 t a b;
#X obj 347 146 pack s f;
#X obj 393 124 \$0;
#X obj 468 225 table foo-R;
#X obj 71 48 tabplay~ \$0-foo-L;
#N canvas 0 15 764 716 findclosest 0;
#X obj 182 7 inlet;
#X obj 57 83 list;
#X obj 135 405 select 1;
#X obj 135 456 f;
#X obj 135 370 <=;
#X text 212 220 distance;
#N canvas 184 160 450 300 once 0;
#X obj 96 67 inlet;
#X obj 96 189 outlet;
#X obj 96 137 spigot 1;
#X obj 164 67 inlet;
#X msg 164 100 1;
#X msg 162 137 0;
#X obj 96 160 t a b;
#X connect 0 0 2 0;
#X connect 2 0 6 0;
#X connect 3 0 4 0;
#X connect 4 0 2 1;
#X connect 5 0 2 1;
#X connect 6 0 1 0;
#X connect 6 1 5 0;
#X restore 179 341 pd once;
#X obj 136 211 - 45;
#X obj 135 320 t a a a;
#X obj 167 371 f;
#X text 242 341 first comparison with first value;
#X obj 114 134 t b a b;
#X obj 113 488 f;
#N canvas 472 435 450 300 list-drip 0;
#X obj 102 44 inlet;
#X obj 102 128 list;
#X obj 102 153 list split 1;
#X obj 102 70 t b a;
#X obj 102 100 until;
#X obj 181 176 b;
#X obj 102 179 outlet;
#X connect 0 0 3 0;
#X connect 1 0 2 0;
#X connect 2 0 6 0;
#X connect 2 1 1 1;
#X connect 2 2 5 0;
#X connect 3 0 4 0;
#X connect 3 1 1 1;
#X connect 4 0 1 0;
#X connect 5 0 4 1;
#X restore 136 162 pd list-drip;
#X obj 272 12 inlet;
#X obj 182 63 t b a;
#X obj 113 515 outlet;
#X obj 57 106 route bang;
#X obj 56 370 f;
#X obj 177 516 f;
#X obj 180 474 spigot;
#X obj 219 426 1;
#X obj 130 557 outlet;
#X obj 130 537 f;
#X obj 232 474 0;
#X obj 137 429 t b b;
#X obj 136 184 t a a a;
#X obj 180 493 t a b;
#X obj 92 406 t b b;
#X obj 136 234 moses 0;
#X obj 134 266 + 1;
#X connect 0 0 15 0;
#X connect 1 0 17 0;
#X connect 2 0 9 0;
#X connect 2 0 25 0;
#X connect 3 0 12 1;
#X connect 4 0 2 0;
#X connect 6 0 4 1;
#X connect 7 0 29 0;
#X connect 8 0 4 0;
#X connect 8 1 9 1;
#X connect 8 2 6 0;
#X connect 9 0 4 1;
#X connect 11 0 28 0;
#X connect 11 1 13 0;
#X connect 11 2 6 1;
#X connect 11 2 24 0;
#X connect 12 0 16 0;
#X connect 13 0 26 0;
#X connect 14 0 1 1;
#X connect 15 0 1 0;
#X connect 15 1 7 1;
#X connect 15 1 18 1;
#X connect 17 0 18 0;
#X connect 17 1 11 0;
#X connect 18 0 16 0;
#X connect 19 0 23 1;
#X connect 20 0 27 0;
#X connect 21 0 20 1;
#X connect 23 0 22 0;
#X connect 24 0 20 1;
#X connect 25 0 21 0;
#X connect 25 1 3 0;
#X connect 26 0 7 0;
#X connect 26 1 3 1;
#X connect 26 2 20 0;
#X connect 27 0 19 0;
#X connect 27 1 24 0;
#X connect 28 0 12 0;
#X connect 28 1 23 0;
#X connect 29 0 30 0;
#X connect 29 1 8 0;
#X connect 30 0 8 0;
#X restore 156 303 pd findclosest;
#N canvas 0 15 661 716 subtract 0;
#X obj 95 101 inlet;
#X obj 313 101 inlet;
#X obj 94 130 t a a;
#X obj 123 159 pack f f;
#X obj 123 204 -;
#X msg 123 181 \$2 \$1;
#X obj 91 259 outlet;
#X obj 123 292 outlet;
#X obj 140 250 wrap;
#X connect 0 0 2 0;
#X connect 1 0 3 1;
#X connect 2 0 6 0;
#X connect 2 1 3 0;
#X connect 3 0 5 0;
#X connect 4 0 8 0;
#X connect 5 0 4 0;
#X connect 8 0 7 0;
#X restore 156 346 pd subtract;
#X obj 220 369 *;
#X obj 224 513 delay;
#X msg 347 84 symbol /home/johannes/samples/caroli/large-wood-thing1.wav
;
#X obj 221 392 - 0;
#N canvas 0 15 661 716 random 0;
#X obj 181 53 inlet;
#X obj 333 53 inlet;
#X obj 178 261 +;
#X obj 178 322 outlet;
#X obj 199 123 random 1000;
#X obj 201 169 / 1000;
#X obj 180 96 t f b b;
#X obj 235 93 random 100;
#X obj 200 213 spigot;
#X obj 238 192 >;
#X obj 320 112 / 100;
#X connect 0 0 6 0;
#X connect 1 0 10 0;
#X connect 2 0 3 0;
#X connect 4 0 5 0;
#X connect 5 0 8 0;
#X connect 6 0 2 0;
#X connect 6 1 4 0;
#X connect 6 2 7 0;
#X connect 7 0 9 0;
#X connect 8 0 2 1;
#X connect 9 0 8 1;
#X connect 10 0 9 1;
#X restore 156 389 pd random;
#X msg 347 166 read -resize \$1 \$2-foo-L \$2-foo-R;
#X msg 38 500 list 1002-foo-L 1002-foo-R;
#X obj 111 88 tabplay~ \$0-foo-R;
#X obj 222 488 max 77;
#X obj 135 558 bufplayer2-s~ foo 200;
#X obj 213 585 t b;
#X obj 131 622 myvolctlS~ 0 100;
#X floatatom 257 594 5 0 0 0 - - -;
#N canvas 0 15 764 716 humanize 0;
#X obj 131 40 inlet;
#X obj 347 35 inlet;
#X obj 132 88 t b b;
#X obj 133 111 random 1000;
#X obj 173 161 random 1000;
#X obj 174 183 / 1000;
#X obj 174 216 *;
#X obj 333 128 * -1;
#X obj 333 152 + 1;
#X obj 177 243 +;
#X obj 337 68 t f f f f;
#X obj 177 284 outlet;
#X obj 136 346 *;
#X obj 133 135 / 500;
#X obj 135 318 - 1;
#X obj 373 238 * 45;
#X obj 136 373 outlet;
#X obj 433 171 random 1000;
#X obj 434 193 / 1000;
#X obj 434 226 *;
#X obj 437 253 +;
#X obj 437 294 outlet;
#X connect 0 0 2 0;
#X connect 1 0 10 0;
#X connect 2 0 3 0;
#X connect 2 1 4 0;
#X connect 2 1 17 0;
#X connect 3 0 13 0;
#X connect 4 0 5 0;
#X connect 5 0 6 0;
#X connect 6 0 9 0;
#X connect 7 0 8 0;
#X connect 8 0 9 1;
#X connect 8 0 20 1;
#X connect 9 0 11 0;
#X connect 10 0 6 1;
#X connect 10 0 19 1;
#X connect 10 1 7 0;
#X connect 10 3 15 0;
#X connect 12 0 16 0;
#X connect 13 0 14 0;
#X connect 14 0 12 0;
#X connect 15 0 12 1;
#X connect 17 0 18 0;
#X connect 18 0 19 0;
#X connect 19 0 20 0;
#X connect 20 0 21 0;
#X restore 310 627 pd humanize;
#X floatatom 390 594 5 0 0 0 - - -;
#X obj 131 654 panS~ 0 400;
#X floatatom 285 387 5 0 0 0 - - -;
#X msg 386 375 \; 1002-foo-R normalize \;;
#X obj 156 422 speedlim 100;
#X msg 266 530 1;
#X obj 98 301 bng 15 250 50 0 empty empty empty 0 -6 0 10 -262144 -1
-1;
#X msg 123 283 0;
#X connect 0 0 3 0;
#X connect 1 0 0 0;
#X connect 2 0 7 0;
#X connect 3 0 25 0;
#X connect 4 0 5 0;
#X connect 4 0 20 0;
#X connect 5 0 12 1;
#X connect 7 0 8 0;
#X connect 7 0 32 1;
#X connect 8 0 11 0;
#X connect 8 0 23 1;
#X connect 9 0 12 2;
#X connect 10 0 12 2;
#X connect 11 0 12 1;
#X connect 12 1 21 1;
#X connect 16 0 17 0;
#X connect 16 1 18 0;
#X connect 17 0 28 0;
#X connect 18 0 17 1;
#X connect 20 0 12 0;
#X connect 20 1 4 0;
#X connect 20 1 30 0;
#X connect 21 0 22 0;
#X connect 21 1 22 1;
#X connect 22 0 27 0;
#X connect 22 1 23 0;
#X connect 23 0 26 0;
#X connect 24 0 32 5;
#X connect 25 0 16 0;
#X connect 26 0 31 0;
#X connect 27 0 41 0;
#X connect 28 0 2 0;
#X connect 29 0 32 0;
#X connect 30 0 12 0;
#X connect 31 0 24 0;
#X connect 32 0 34 0;
#X connect 32 1 34 1;
#X connect 32 2 21 0;
#X connect 32 2 33 0;
#X connect 33 0 36 0;
#X connect 34 0 38 0;
#X connect 34 1 38 1;
#X connect 35 0 34 2;
#X connect 36 0 38 2;
#X connect 36 1 34 2;
#X connect 36 2 32 3;
#X connect 37 0 36 1;
#X connect 38 0 13 0;
#X connect 38 1 13 1;
#X connect 39 0 27 1;
#X connect 41 0 32 4;
#X connect 42 0 32 6;
#X connect 44 0 21 0;
