#N canvas 52 75 912 625 10;
#N canvas 343 100 620 472 OSC-crap 0;
#X obj 433 91 r OSC;
#X obj 194 247 list prepend send;
#X obj 195 267 list trim;
#X obj 208 376 s OSC;
#X obj 179 149 loadbang;
#X obj 194 225 r UI;
#X obj 296 359 netreceive 1999;
#X obj 433 112 route /pd/dsp;
#X msg 433 134 \; pd dsp \$1 \;;
#X obj 371 179 cputime;
#X obj 371 143 metro 1000;
#X obj 371 161 t b b;
#X obj 371 219 * 0.1;
#X obj 371 199 int;
#X obj 314 107 route /pd/cpuinfo;
#X obj 371 258 s UI;
#X obj 208 349 dumpOSC 9000;
#X obj 164 389 print;
#X msg 372 238 /pd/cpu \$1;
#X msg 178 171 connect localhost 9001;
#X obj 80 315 print SEND:;
#X obj 186 293 sendOSC;
#X connect 0 0 7 0;
#X connect 0 0 14 0;
#X connect 1 0 2 0;
#X connect 2 0 21 0;
#X connect 4 0 19 0;
#X connect 5 0 1 0;
#X connect 6 0 3 0;
#X connect 7 0 8 0;
#X connect 7 0 10 0;
#X connect 9 0 13 0;
#X connect 10 0 11 0;
#X connect 11 0 9 0;
#X connect 11 1 9 1;
#X connect 12 0 18 0;
#X connect 13 0 12 0;
#X connect 16 0 3 0;
#X connect 18 0 15 0;
#X connect 19 0 21 0;
#X restore 747 549 pd OSC-crap;
#N canvas 0 257 1109 512 a4looper 0;
#X obj 237 84 *~ 0.5;
#X obj 340 62 *~ 0.5;
#X obj 450 78 *~ 0.5;
#X obj 560 78 *~ 0.5;
#X obj 26 216 routingcell-s /a4loop-1 /send0 room;
#X obj 66 257 routingcell-s /a4loop-3 /send0 room;
#X obj 85 276 routingcell-s /a4loop-4 /send0 room;
#X obj 45 236 routingcell-s /a4loop-2 /send0 room;
#X obj 61 329 outlet~;
#X obj 221 329 outlet~;
#X obj 308 333 outlet~;
#X obj 518 333 outlet~;
#X obj 378 333 outlet~;
#X obj 251 202 routingcell-s /a4loop-1 /send2 deelay;
#X obj 261 226 routingcell-s /a4loop-2 /send2 deelay;
#X obj 288 248 routingcell-s /a4loop-3 /send2 deelay;
#X obj 303 283 routingcell-s /a4loop-4 /send2 deelay;
#X obj 517 206 routingcell /a4loop-1 /send1 grandel;
#X obj 519 230 routingcell /a4loop-2 /send1 grandel;
#X obj 537 249 routingcell /a4loop-3 /send1 grandel;
#X obj 561 269 routingcell /a4loop-4 /send1 grandel;
#X obj 770 333 outlet~;
#X obj 737 207 routingcell /a4loop-1 /send3 combo;
#X obj 749 230 routingcell /a4loop-2 /send3 combo;
#X obj 767 249 routingcell /a4loop-3 /send3 combo;
#X obj 791 269 routingcell /a4loop-4 /send3 combo;
#X obj 135 2 a4looperback /mouselooper#1;
#X obj 651 84 rick2-backend 240000 /a4loop1;
#X obj 661 105 rick2-backend 240000 /a4loop2;
#X obj 674 123 rick2-backend 240000 /a4loop3;
#X obj 691 145 rick2-backend 240000 /a4loop4;
#X obj 243 26 a4looperback /mouselooper#2;
#X obj 353 41 a4looperback /mouselooper#3;
#X obj 502 11 a4looperback /mouselooper#4;
#X connect 0 0 17 0;
#X connect 0 0 22 0;
#X connect 0 0 27 0;
#X connect 1 0 18 0;
#X connect 1 0 23 0;
#X connect 1 0 28 0;
#X connect 2 0 19 0;
#X connect 2 0 24 0;
#X connect 2 0 29 0;
#X connect 3 0 20 0;
#X connect 3 0 25 0;
#X connect 3 0 30 0;
#X connect 4 0 8 0;
#X connect 4 1 9 0;
#X connect 5 0 8 0;
#X connect 5 1 9 0;
#X connect 6 0 8 0;
#X connect 6 1 9 0;
#X connect 7 0 8 0;
#X connect 7 1 9 0;
#X connect 13 0 10 0;
#X connect 13 1 12 0;
#X connect 14 0 10 0;
#X connect 14 1 12 0;
#X connect 15 0 10 0;
#X connect 15 1 12 0;
#X connect 16 0 10 0;
#X connect 16 1 12 0;
#X connect 17 0 11 0;
#X connect 18 0 11 0;
#X connect 19 0 11 0;
#X connect 20 0 11 0;
#X connect 22 0 21 0;
#X connect 23 0 21 0;
#X connect 24 0 21 0;
#X connect 25 0 21 0;
#X connect 26 0 0 0;
#X connect 26 0 4 0;
#X connect 26 0 13 0;
#X connect 26 1 0 0;
#X connect 26 1 4 1;
#X connect 26 1 13 1;
#X connect 31 0 7 0;
#X connect 31 0 14 0;
#X connect 31 1 1 0;
#X connect 31 1 7 1;
#X connect 31 1 14 1;
#X connect 32 0 5 0;
#X connect 32 0 15 0;
#X connect 32 1 2 0;
#X connect 32 1 5 1;
#X connect 32 1 15 1;
#X connect 33 0 6 0;
#X connect 33 0 16 0;
#X connect 33 1 3 0;
#X connect 33 1 6 1;
#X connect 33 1 16 1;
#X restore 204 70 pd a4looper;
#X text 170 43 roomx2 \, deel \, grand;
#X text 308 42 roomx2 \, grand;
#N canvas 380 220 450 300 stuff 0;
#X obj 138 49 singletonlib;
#X obj 302 57 table dummyarray;
#X obj 216 13 safeloader;
#X restore 747 525 pd stuff;
#X obj 218 268 dac~ 1 2 3 4;
#X obj 200 189 roombackend /no1;
#X connect 1 0 6 0;
#X connect 1 1 6 1;
#X connect 6 0 5 0;
#X connect 6 1 5 1;
