#N canvas 112 7 912 625 10;
#N canvas 343 100 620 472 OSC-crap 0;
#X obj 433 91 r OSC;
#X obj 194 247 list prepend send;
#X obj 195 267 list trim;
#X obj 208 376 s OSC;
#X obj 179 149 loadbang;
#X obj 194 225 r UI;
#X obj 296 359 netreceive 1999;
#X obj 433 112 route /pd/dsp;
#X msg 433 134 \; pd dsp \$1 \;;
#X obj 371 179 cputime;
#X obj 371 143 metro 1000;
#X obj 371 161 t b b;
#X obj 371 219 * 0.1;
#X obj 371 199 int;
#X obj 314 107 route /pd/cpuinfo;
#X obj 371 258 s UI;
#X obj 208 349 dumpOSC 9000;
#X obj 164 389 print;
#X msg 372 238 /pd/cpu \$1;
#X msg 178 171 connect localhost 9001;
#X obj 80 315 print SEND:;
#X obj 186 293 sendOSC;
#X connect 0 0 7 0;
#X connect 0 0 14 0;
#X connect 1 0 2 0;
#X connect 2 0 21 0;
#X connect 4 0 19 0;
#X connect 5 0 1 0;
#X connect 6 0 3 0;
#X connect 7 0 8 0;
#X connect 7 0 10 0;
#X connect 9 0 13 0;
#X connect 10 0 11 0;
#X connect 11 0 9 0;
#X connect 11 1 9 1;
#X connect 12 0 18 0;
#X connect 13 0 12 0;
#X connect 16 0 3 0;
#X connect 18 0 15 0;
#X connect 19 0 21 0;
#X restore 747 549 pd OSC-crap;
#X text 170 43 roomx2 \, deel \, grand;
#N canvas 252 76 684 390 deelay 0;
#X obj 185 71 deelay2backend /no1;
#X obj 186 32 inlet~;
#X obj 236 32 inlet~;
#X obj 296 32 inlet~ lfo;
#X obj 302 96 *~ 0.5;
#X obj 57 171 outlet~;
#X obj 216 171 outlet~;
#X obj 276 171 outlet~;
#X obj 376 191 outlet~;
#X obj 58 134 routingcell-s /delay-1 /send0 room;
#X obj 278 134 routingcell /delay-1 /send1 grandel;
#X obj 378 154 routingcell /delay-1 /send3 combo;
#X connect 0 0 4 0;
#X connect 0 0 9 0;
#X connect 0 1 4 0;
#X connect 0 1 9 1;
#X connect 1 0 0 0;
#X connect 2 0 0 1;
#X connect 3 0 0 2;
#X connect 4 0 10 0;
#X connect 4 0 11 0;
#X connect 9 0 5 0;
#X connect 9 1 6 0;
#X connect 10 0 7 0;
#X connect 11 0 8 0;
#X restore 284 115 pd deelay;
#X text 308 42 roomx2 \, grand;
#N canvas 225 195 781 394 grandel 0;
#X obj 149 7 inlet~;
#X obj 520 49 *~ 0.5;
#X obj 87 107 outlet~;
#X obj 257 107 outlet~;
#X obj 367 107 outlet~;
#X obj 427 107 outlet~;
#X obj 537 117 outlet~;
#X obj 58 73 routingcell-s /grandel-1 /send0 room;
#X obj 278 73 routingcell-s /grandel-1 /send2 deelay;
#X obj 528 83 routingcell /grandel-1 /send3 combo;
#X obj 150 32 grandel/grandelback2 /no1;
#X obj 492 219 rick2-backend 240000 /grandel;
#X connect 0 0 10 0;
#X connect 1 0 9 0;
#X connect 1 0 11 0;
#X connect 7 0 2 0;
#X connect 7 1 3 0;
#X connect 8 0 4 0;
#X connect 8 1 5 0;
#X connect 9 0 6 0;
#X connect 10 0 1 0;
#X connect 10 0 7 0;
#X connect 10 0 8 0;
#X connect 10 1 1 0;
#X connect 10 1 7 1;
#X connect 10 1 8 1;
#X restore 425 109 pd grandel;
#X text 435 94 roomx2 \, deel;
#X obj 365 88 s~ \$0-grand;
#X obj 424 15 r~ \$0-grand;
#N canvas 380 220 450 300 stuff 0;
#X obj 138 49 singletonlib;
#X obj 302 57 table dummyarray;
#X obj 216 13 safeloader;
#X restore 747 525 pd stuff;
#X obj 218 268 dac~ 1 2 3 4;
#N canvas 138 0 784 372 pm7777777 0;
#X obj 117 50 pm7/synth-backend;
#X obj 61 329 outlet~;
#X obj 221 329 outlet~;
#X obj 308 333 outlet~;
#X obj 518 333 outlet~;
#X obj 378 333 outlet~;
#X obj 496 157 *~ 0.5;
#X obj 26 209 routingcell-s /pm7 /send0 room;
#X obj 608 353 outlet~;
#X obj 246 209 routingcell-s /pm7 /send2 deelay;
#X obj 501 209 routingcell /pm7 /send1 grandel;
#X obj 591 229 routingcell /pm7 /send3 combo;
#X obj 558 166 rick2-backend 240000 /pm7;
#X connect 0 0 6 0;
#X connect 0 0 7 0;
#X connect 0 0 9 0;
#X connect 0 1 6 0;
#X connect 0 1 7 1;
#X connect 0 1 9 1;
#X connect 6 0 10 0;
#X connect 6 0 11 0;
#X connect 6 0 12 0;
#X connect 7 0 1 0;
#X connect 7 1 2 0;
#X connect 9 0 3 0;
#X connect 9 1 5 0;
#X connect 10 0 4 0;
#X connect 11 0 8 0;
#X restore 516 32 pd pm7777777;
#N canvas 0 0 921 626 combopppppp 0;
#X obj 125 43 inlet~;
#X obj 520 279 *~ 0.5;
#X obj 87 337 outlet~;
#X obj 257 337 outlet~;
#X obj 367 337 outlet~;
#X obj 427 337 outlet~;
#X obj 537 347 outlet~;
#X obj 123 120 a4comboback /no1;
#X obj 57 301 routingcell-s /combo-1 /send0 room;
#X obj 278 303 routingcell-s /combo-1 /send2 deelay;
#X obj 528 313 routingcell /combo-1 /send1 grandel;
#X connect 0 0 7 0;
#X connect 1 0 10 0;
#X connect 7 0 1 0;
#X connect 7 0 8 0;
#X connect 7 0 9 0;
#X connect 7 1 1 0;
#X connect 7 1 8 1;
#X connect 7 1 9 1;
#X connect 8 0 2 0;
#X connect 8 1 3 0;
#X connect 9 0 4 0;
#X connect 9 1 5 0;
#X connect 10 0 6 0;
#X restore 569 203 pd combopppppp;
#X obj 387 253 throw~ \$0-combo;
#X obj 627 182 catch~ \$0-combo;
#X obj 588 102 throw~ \$0-combo;
#N canvas 138 0 784 372 adc12------- 0;
#X obj 61 329 outlet~;
#X obj 221 329 outlet~;
#X obj 308 333 outlet~;
#X obj 518 333 outlet~;
#X obj 378 333 outlet~;
#X obj 496 157 *~ 0.5;
#X obj 608 353 outlet~;
#X obj 117 50 adc~ 1 2;
#X obj 26 209 routingcell-s /adc12 /send0 room;
#X obj 246 209 routingcell-s /adc12 /send2 deelay;
#X obj 501 209 routingcell /adc12 /send1 grandel;
#X obj 591 229 routingcell /adc12 /send3 combo;
#X obj 549 158 rick2-backend 240000 /adc12;
#X connect 5 0 10 0;
#X connect 5 0 11 0;
#X connect 5 0 12 0;
#X connect 7 0 5 0;
#X connect 7 0 8 0;
#X connect 7 0 9 0;
#X connect 7 1 5 0;
#X connect 7 1 8 1;
#X connect 7 1 9 1;
#X connect 8 0 0 0;
#X connect 8 1 1 0;
#X connect 9 0 2 0;
#X connect 9 1 4 0;
#X connect 10 0 3 0;
#X connect 11 0 6 0;
#X restore 283 19 pd adc12-------;
#N canvas 138 0 784 372 adc3------- 0;
#X obj 61 329 outlet~;
#X obj 221 329 outlet~;
#X obj 308 333 outlet~;
#X obj 518 333 outlet~;
#X obj 378 333 outlet~;
#X obj 608 353 outlet~;
#X obj 26 209 routingcell-s /adc3 /send0 room;
#X obj 246 209 routingcell-s /adc3 /send2 deelay;
#X obj 501 209 routingcell /adc3 /send1 grandel;
#X obj 591 229 routingcell /adc3 /send3 combo;
#X obj 117 50 biquad~ 1.99694 -0.99698 0.99849 -1.99694 0.99849;
#X obj 119 -24 adc~ 3;
#X obj 119 27 hip~ 400;
#X obj 120 5 *~ 8;
#X obj 279 83 rick2-backend 240000 /adc3;
#X connect 6 0 0 0;
#X connect 6 1 1 0;
#X connect 7 0 2 0;
#X connect 7 1 4 0;
#X connect 8 0 3 0;
#X connect 9 0 5 0;
#X connect 10 0 6 0;
#X connect 10 0 6 1;
#X connect 10 0 7 0;
#X connect 10 0 7 1;
#X connect 10 0 8 0;
#X connect 10 0 9 0;
#X connect 10 0 14 0;
#X connect 11 0 13 0;
#X connect 12 0 10 0;
#X connect 13 0 12 0;
#X restore 153 19 pd adc3-------;
#X obj 200 189 roombackend /no1;
#X obj 284 334 recorder-backend;
#X connect 2 0 17 0;
#X connect 2 1 17 1;
#X connect 2 2 6 0;
#X connect 2 3 12 0;
#X connect 4 0 17 0;
#X connect 4 1 17 1;
#X connect 4 2 2 0;
#X connect 4 3 2 1;
#X connect 4 4 14 0;
#X connect 7 0 4 0;
#X connect 10 0 17 0;
#X connect 10 1 17 1;
#X connect 10 2 2 0;
#X connect 10 3 2 1;
#X connect 10 4 4 0;
#X connect 10 5 11 0;
#X connect 11 0 17 0;
#X connect 11 1 17 1;
#X connect 11 2 2 0;
#X connect 11 3 2 1;
#X connect 11 4 4 0;
#X connect 13 0 11 0;
#X connect 15 0 17 0;
#X connect 15 1 17 1;
#X connect 15 2 2 0;
#X connect 15 3 2 1;
#X connect 15 4 4 0;
#X connect 15 5 11 0;
#X connect 16 0 17 0;
#X connect 16 1 17 1;
#X connect 16 2 2 0;
#X connect 16 3 2 1;
#X connect 16 4 4 0;
#X connect 16 5 11 0;
#X connect 17 0 9 0;
#X connect 17 0 18 0;
#X connect 17 1 9 1;
#X connect 17 1 18 1;
