#N canvas 0 15 610 695 10;
#X obj 365 609 import oscx;
#X obj 365 638 import flatspace;
#N canvas 0 15 661 716 OSC-crap 0;
#X obj 194 247 list prepend send;
#X obj 195 267 list trim;
#X obj 89 467 s OSC;
#X obj 179 149 loadbang;
#X obj 194 225 r UI;
#X msg 433 134 \; pd dsp \$1 \;;
#X obj 371 179 cputime;
#X obj 371 143 metro 1000;
#X obj 371 161 t b b;
#X obj 371 219 * 0.1;
#X obj 371 199 int;
#X obj 371 258 s UI;
#X obj 208 349 dumpOSC 9000;
#X msg 372 238 /pd/cpu \$1;
#X msg 178 171 connect localhost 9001;
#X obj 186 293 sendOSC;
#X obj 309 436 route /pd/oscdebug;
#X obj 278 462 spigot;
#X obj 278 401 t a a;
#X obj 278 494 print OSC;
#X obj 170 534 route /;
#X obj 154 468 s PD;
#X obj 42 415 OSCroute /main /pd;
#X obj 433 91 r PD;
#X obj 433 112 route /dsp;
#X msg 333 93 0 \, 1;
#X connect 0 0 1 0;
#X connect 1 0 15 0;
#X connect 3 0 14 0;
#X connect 4 0 0 0;
#X connect 6 0 10 0;
#X connect 7 0 8 0;
#X connect 8 0 6 0;
#X connect 8 1 6 1;
#X connect 9 0 13 0;
#X connect 10 0 9 0;
#X connect 12 0 18 0;
#X connect 12 0 22 0;
#X connect 13 0 11 0;
#X connect 14 0 15 0;
#X connect 16 0 17 1;
#X connect 17 0 19 0;
#X connect 18 0 17 0;
#X connect 18 1 16 0;
#X connect 22 0 2 0;
#X connect 22 1 21 0;
#X connect 23 0 24 0;
#X connect 24 0 5 0;
#X connect 24 0 7 0;
#X connect 25 0 5 0;
#X restore 515 308 pd OSC-crap;
#N canvas 0 15 610 695 a4looper 0;
#X obj 26 216 routingcell-s /a4loop-1 /send0 room;
#X obj 66 257 routingcell-s /a4loop-3 /send0 room;
#X obj 85 276 routingcell-s /a4loop-4 /send0 room;
#X obj 45 236 routingcell-s /a4loop-2 /send0 room;
#X obj 61 329 outlet~;
#X obj 221 329 outlet~;
#X obj 308 333 outlet~;
#X obj 518 333 outlet~;
#X obj 378 333 outlet~;
#X obj 251 202 routingcell-s /a4loop-1 /send2 deelay;
#X obj 261 226 routingcell-s /a4loop-2 /send2 deelay;
#X obj 288 248 routingcell-s /a4loop-3 /send2 deelay;
#X obj 303 283 routingcell-s /a4loop-4 /send2 deelay;
#X obj 770 333 outlet~;
#X obj 195 95 *~ 1;
#X obj 340 62 *~ 1;
#X obj 450 78 *~ 1;
#X obj 560 78 *~ 1;
#X obj 517 206 routingcell /a4loop-1 /send1 grandel;
#X obj 519 230 routingcell /a4loop-2 /send1 grandel;
#X obj 537 249 routingcell /a4loop-3 /send1 grandel;
#X obj 561 269 routingcell /a4loop-4 /send1 grandel;
#X obj 737 207 routingcell /a4loop-1 /send3 combo;
#X obj 749 230 routingcell /a4loop-2 /send3 combo;
#X obj 767 249 routingcell /a4loop-3 /send3 combo;
#X obj 791 269 routingcell /a4loop-4 /send3 combo;
#X obj 95 0 a4looperback2-s /mouselooper1;
#X obj 651 84 rick2-backend 240000 /a4loop1;
#X obj 661 105 rick2-backend 240000 /a4loop2;
#X obj 674 123 rick2-backend 240000 /a4loop3;
#X obj 691 145 rick2-backend 240000 /a4loop4;
#X obj 243 26 a4looperback2-s /mouselooper2;
#X obj 354 41 a4looperback2-s /mouselooper3;
#X obj 500 11 a4looperback2-s /mouselooper4;
#X connect 0 0 4 0;
#X connect 0 1 5 0;
#X connect 1 0 4 0;
#X connect 1 1 5 0;
#X connect 2 0 4 0;
#X connect 2 1 5 0;
#X connect 3 0 4 0;
#X connect 3 1 5 0;
#X connect 9 0 6 0;
#X connect 9 1 8 0;
#X connect 10 0 6 0;
#X connect 10 1 8 0;
#X connect 11 0 6 0;
#X connect 11 1 8 0;
#X connect 12 0 6 0;
#X connect 12 1 8 0;
#X connect 14 0 18 0;
#X connect 14 0 22 0;
#X connect 14 0 27 0;
#X connect 15 0 19 0;
#X connect 15 0 23 0;
#X connect 15 0 28 0;
#X connect 16 0 20 0;
#X connect 16 0 24 0;
#X connect 16 0 29 0;
#X connect 17 0 21 0;
#X connect 17 0 25 0;
#X connect 17 0 30 0;
#X connect 18 0 7 0;
#X connect 19 0 7 0;
#X connect 20 0 7 0;
#X connect 21 0 7 0;
#X connect 22 0 13 0;
#X connect 23 0 13 0;
#X connect 24 0 13 0;
#X connect 25 0 13 0;
#X connect 26 0 0 0;
#X connect 26 0 9 0;
#X connect 26 0 14 0;
#X connect 26 1 0 1;
#X connect 26 1 9 1;
#X connect 26 1 14 0;
#X connect 31 0 3 0;
#X connect 31 0 10 0;
#X connect 31 1 3 1;
#X connect 31 1 10 1;
#X connect 31 1 15 0;
#X connect 32 0 1 0;
#X connect 32 0 11 0;
#X connect 32 1 1 1;
#X connect 32 1 11 1;
#X connect 32 1 16 0;
#X connect 33 0 2 0;
#X connect 33 0 12 0;
#X connect 33 1 2 1;
#X connect 33 1 12 1;
#X connect 33 1 17 0;
#X restore 204 70 pd a4looper;
#X text 170 43 roomx2 \, deel \, grand;
#N canvas 0 15 661 716 deelay 0;
#X obj 185 71 deelay2backend /no1;
#X obj 186 32 inlet~;
#X obj 236 32 inlet~;
#X obj 296 32 inlet~ lfo;
#X obj 57 171 outlet~;
#X obj 216 171 outlet~;
#X obj 276 171 outlet~;
#X obj 376 191 outlet~;
#X obj 58 134 routingcell-s /delay-1 /send0 room;
#X obj 302 96 +~;
#X obj 278 134 routingcell /delay-1 /send1 grandel;
#X obj 378 154 routingcell /delay-1 /send3 combo;
#X connect 0 0 8 0;
#X connect 0 0 9 1;
#X connect 0 1 8 1;
#X connect 0 1 9 0;
#X connect 1 0 0 0;
#X connect 2 0 0 1;
#X connect 3 0 0 2;
#X connect 8 0 4 0;
#X connect 8 1 5 0;
#X connect 9 0 10 0;
#X connect 9 0 11 0;
#X connect 10 0 6 0;
#X connect 11 0 7 0;
#X restore 284 115 pd deelay;
#X text 308 42 roomx2 \, grand;
#N canvas 0 15 661 695 grandel 0;
#X obj 149 7 inlet~;
#X obj 87 107 outlet~;
#X obj 257 107 outlet~;
#X obj 367 107 outlet~;
#X obj 427 107 outlet~;
#X obj 537 117 outlet~;
#X obj 58 73 routingcell-s /grandel-1 /send0 room;
#X obj 278 73 routingcell-s /grandel-1 /send2 deelay;
#X obj 150 32 grandel/grandelback2.2 /no1;
#X obj 525 46 +~;
#X obj 528 83 routingcell /grandel-1 /send3 combo;
#X obj 492 219 rick2-backend 240000 /grandel;
#X connect 0 0 8 0;
#X connect 6 0 1 0;
#X connect 6 1 2 0;
#X connect 7 0 3 0;
#X connect 7 1 4 0;
#X connect 8 0 6 0;
#X connect 8 0 7 0;
#X connect 8 0 9 0;
#X connect 8 1 6 1;
#X connect 8 1 7 1;
#X connect 8 1 9 1;
#X connect 9 0 10 0;
#X connect 9 0 11 0;
#X connect 10 0 5 0;
#X restore 425 109 pd grandel;
#X text 435 94 roomx2 \, deel;
#X obj 365 88 s~ \$0-grand;
#X obj 424 15 r~ \$0-grand;
#N canvas 0 15 610 716 stuff 0;
#X obj 138 49 singletonlib;
#X obj 302 57 table dummyarray;
#X restore 515 284 pd stuff;
#X obj 127 342 dac~ 1 2 3 4;
#N canvas 0 15 661 695 pm7777777 0;
#X obj 61 329 outlet~;
#X obj 221 329 outlet~;
#X obj 308 333 outlet~;
#X obj 518 333 outlet~;
#X obj 378 333 outlet~;
#X obj 26 209 routingcell-s /pm7 /send0 room;
#X obj 608 353 outlet~;
#X obj 246 209 routingcell-s /pm7 /send2 deelay;
#X obj 117 50 pm7/synth-backend1.1;
#X obj 496 157 +~;
#X obj 501 209 routingcell /pm7 /send1 grandel;
#X obj 591 229 routingcell /pm7 /send3 combo;
#X obj 558 166 rick2-backend 240000 /pm7;
#X connect 5 0 0 0;
#X connect 5 1 1 0;
#X connect 7 0 2 0;
#X connect 7 1 4 0;
#X connect 8 0 5 0;
#X connect 8 0 7 0;
#X connect 8 0 9 0;
#X connect 8 1 5 1;
#X connect 8 1 7 1;
#X connect 8 1 9 1;
#X connect 9 0 10 0;
#X connect 9 0 11 0;
#X connect 9 0 12 0;
#X connect 10 0 3 0;
#X connect 11 0 6 0;
#X restore 516 32 pd pm7777777;
#N canvas 0 15 661 695 combopppppp 0;
#X obj 125 43 inlet~;
#X obj 520 279 *~ 0.5;
#X obj 87 337 outlet~;
#X obj 257 337 outlet~;
#X obj 367 337 outlet~;
#X obj 427 337 outlet~;
#X obj 537 347 outlet~;
#X obj 123 120 a4comboback /no1;
#X obj 57 301 routingcell-s /combo-1 /send0 room;
#X obj 278 303 routingcell-s /combo-1 /send2 deelay;
#X obj 528 313 routingcell /combo-1 /send1 grandel;
#X connect 0 0 7 0;
#X connect 1 0 10 0;
#X connect 7 0 1 0;
#X connect 7 0 8 0;
#X connect 7 0 9 0;
#X connect 7 1 1 0;
#X connect 7 1 8 1;
#X connect 7 1 9 1;
#X connect 8 0 2 0;
#X connect 8 1 3 0;
#X connect 9 0 4 0;
#X connect 9 1 5 0;
#X connect 10 0 6 0;
#X restore 569 203 pd combopppppp;
#X obj 387 253 throw~ \$0-combo;
#X obj 627 182 catch~ \$0-combo;
#X obj 588 102 throw~ \$0-combo;
#N canvas 0 15 661 695 adc12------- 0;
#X obj 61 329 outlet~;
#X obj 221 329 outlet~;
#X obj 308 333 outlet~;
#X obj 518 333 outlet~;
#X obj 378 333 outlet~;
#X obj 496 157 *~ 0.5;
#X obj 608 353 outlet~;
#X obj 117 50 adc~ 1 2;
#X obj 26 209 routingcell-s /adc12 /send0 room;
#X obj 246 209 routingcell-s /adc12 /send2 deelay;
#X obj 501 209 routingcell /adc12 /send1 grandel;
#X obj 591 229 routingcell /adc12 /send3 combo;
#X obj 549 158 rick2-backend 240000 /adc12;
#X obj 269 43 inlet~;
#X obj 335 40 inlet~;
#X connect 5 0 10 0;
#X connect 5 0 11 0;
#X connect 5 0 12 0;
#X connect 7 0 5 0;
#X connect 7 0 8 0;
#X connect 7 0 9 0;
#X connect 7 1 5 0;
#X connect 7 1 8 1;
#X connect 7 1 9 1;
#X connect 8 0 0 0;
#X connect 8 1 1 0;
#X connect 9 0 2 0;
#X connect 9 1 4 0;
#X connect 10 0 3 0;
#X connect 11 0 6 0;
#X connect 13 0 5 0;
#X connect 13 0 8 0;
#X connect 13 0 9 0;
#X connect 14 0 5 0;
#X connect 14 0 8 1;
#X connect 14 0 9 1;
#X restore 283 19 pd adc12-------;
#N canvas 0 15 610 695 adc3------- 0;
#X obj 61 329 outlet~;
#X obj 221 329 outlet~;
#X obj 308 333 outlet~;
#X obj 518 333 outlet~;
#X obj 378 333 outlet~;
#X obj 608 353 outlet~;
#X obj 26 209 routingcell-s /adc3 /send0 room;
#X obj 246 209 routingcell-s /adc3 /send2 deelay;
#X obj 117 50 biquad~ 1.99694 -0.99698 0.99849 -1.99694 0.99849;
#X obj 119 -24 adc~ 3;
#X obj 119 27 hip~ 400;
#X obj 120 5 *~ 8;
#X obj 501 209 routingcell /adc3 /send1 grandel;
#X obj 591 229 routingcell /adc3 /send3 combo;
#X obj 279 83 rick2-backend 240000 /adc3;
#X connect 6 0 0 0;
#X connect 6 1 1 0;
#X connect 7 0 2 0;
#X connect 7 1 4 0;
#X connect 8 0 6 0;
#X connect 8 0 6 1;
#X connect 8 0 7 0;
#X connect 8 0 7 1;
#X connect 8 0 12 0;
#X connect 8 0 13 0;
#X connect 8 0 14 0;
#X connect 9 0 11 0;
#X connect 10 0 8 0;
#X connect 11 0 10 0;
#X connect 12 0 3 0;
#X connect 13 0 5 0;
#X restore 153 19 pd adc3-------;
#X obj 200 189 roombackend /no1;
#X obj 284 334 recorder-backend;
#X obj 232 422 print;
#X obj 232 372 loadbang;
#X msg 233 395 Done loading;
#X obj 205 589 arduino_central;
#N canvas 227 136 566 481 TEMPO 0;
#X obj 127 113 metro;
#X obj 158 88 t f f;
#X obj 127 157 f;
#X obj 127 184 s MASTER_TEMPO;
#X obj 66 -53 r OSC;
#X obj 67 -29 OSCroute /tempo;
#X obj 127 64 t b f;
#X obj 84 84 1;
#X obj 75 111 change;
#X msg 188 32 60000 \$1;
#X obj 68 32 sel 0;
#X obj 190 55 /;
#X obj 65 -5 OSCroute /tap;
#X obj 313 16 timer;
#X obj 311 -11 t b b;
#X obj 307 -40 bng 15 250 50 0 empty empty empty 0 -6 0 8 -262144 -1
-1;
#X obj 314 39 moses 5000;
#X msg 416 85 60000 \$1;
#X obj 418 108 /;
#X msg 363 146 /incoming/main/tempo \$1;
#X obj 359 185 s UI;
#X connect 0 0 2 0;
#X connect 1 0 0 1;
#X connect 1 1 2 1;
#X connect 2 0 3 0;
#X connect 4 0 5 0;
#X connect 5 0 12 0;
#X connect 6 0 7 0;
#X connect 6 1 1 0;
#X connect 7 0 8 0;
#X connect 8 0 0 0;
#X connect 9 0 11 0;
#X connect 10 1 9 0;
#X connect 11 0 6 0;
#X connect 12 0 14 0;
#X connect 12 1 10 0;
#X connect 13 0 16 0;
#X connect 14 0 13 0;
#X connect 14 1 13 1;
#X connect 15 0 14 0;
#X connect 16 0 6 0;
#X connect 16 0 17 0;
#X connect 17 0 18 0;
#X connect 18 0 19 0;
#X connect 19 0 20 0;
#X restore 515 332 pd TEMPO;
#X obj 135 292 volctl~ 0 10;
#X obj 171 314 volctl~ 0 10;
#X obj 128 180 r OSC;
#X obj 120 229 OSCroute /volume;
#X obj 115 408 env~;
#X obj 49 439 / 100;
#X obj 144 488 speedlim 100;
#X msg 173 532 pwm 9 \$1;
#X obj 158 460 myabs/01toquartic;
#N canvas 0 15 661 716 check_for_arduino 0;
#X msg 114 70 ls /dev/ttyUSB0;
#X msg 115 121 1;
#X obj 143 165 f;
#X obj 114 20 inlet;
#X obj 143 186 outlet;
#X obj 115 44 t b b;
#X obj 164 106 0;
#X obj 115 96 shell;
#X msg 214 163 Couldn't initialize;
#X obj 215 187 print Arduino;
#X obj 214 143 sel 0;
#X obj 144 133 bang;
#X msg 265 143 We have contact;
#X connect 0 0 7 0;
#X connect 1 0 2 1;
#X connect 2 0 4 0;
#X connect 2 0 10 0;
#X connect 3 0 5 0;
#X connect 5 0 0 0;
#X connect 5 1 6 0;
#X connect 6 0 2 1;
#X connect 7 0 1 0;
#X connect 7 1 11 0;
#X connect 8 0 9 0;
#X connect 10 0 8 0;
#X connect 10 1 12 0;
#X connect 11 0 2 0;
#X connect 12 0 9 0;
#X restore 238 488 pd check_for_arduino;
#X obj 205 557 spigot;
#X obj 238 441 loadbang;
#X obj 238 514 t f f;
#X obj 325 443 OSCroute /arduino_reset;
#X obj 325 464 bang;
#X obj 239 465 delay 1000;
#N canvas 0 15 610 695 diskplayer 0;
#X obj 250 21 inlet;
#X obj 370 315 prepent /incoming/main/diskplaystatus;
#X obj 370 337 s UI;
#X obj 77 255 myabs/01toquartic;
#X obj 77 97 / 100;
#X obj 268 313 volctl~ 0 10;
#X obj 178 313 volctl~ 0 10;
#X obj 178 335 outlet~;
#X obj 268 335 outlet~;
#X obj 197 243 readsf~ 2;
#X obj 277 243 readsf~ 2;
#X obj 390 123 bng 15 250 50 0 empty empty empty 0 -6 0 10 -262144
-1 -1;
#X obj 561 22 import list-abs;
#X obj 339 207 list-seek;
#X msg 340 102 0;
#N canvas 0 15 610 716 alternate 0;
#X obj 75 5 inlet;
#X obj 272 6 inlet;
#X obj 251 223 outlet;
#X obj 75 232 outlet;
#X obj 75 53 alternera;
#X obj 251 103 route bang;
#X obj 251 125 spigot;
#X obj 309 126 t b s;
#X obj 251 146 t b b;
#X obj 278 167 0;
#X obj 251 187 1;
#X obj 75 116 route bang;
#X obj 75 138 spigot;
#X obj 133 139 t b s;
#X obj 75 159 t b b;
#X obj 102 180 0;
#X obj 75 79 t s b;
#X obj 216 78 t s b;
#X obj 73 197 1;
#X obj 118 159 1;
#X obj 306 146 1;
#X obj 75 27 route bang;
#X obj 191 188 0;
#X obj 185 217 0;
#X obj 329 307 pack s s;
#X obj 301 220 symbol;
#X obj 198 250 symbol;
#X obj 329 469 outlet;
#X obj 329 327 unpack s s;
#X obj 329 447 l2s;
#X obj 329 349 splitfilename;
#X obj 386 369 splitfilename;
#X obj 330 424 list;
#X msg 331 396 now: \$1;
#X msg 396 397 next: \$1;
#X obj 449 10 inlet;
#X obj 332 161 pack s f;
#X obj 176 143 pack s f;
#X msg 312 190 open \$1 \$2;
#X msg 129 180 open \$1 \$2;
#X connect 0 0 21 0;
#X connect 1 0 12 1;
#X connect 1 0 6 1;
#X connect 4 0 16 0;
#X connect 4 1 17 0;
#X connect 5 0 6 0;
#X connect 5 1 7 0;
#X connect 6 0 8 0;
#X connect 7 0 20 0;
#X connect 7 1 24 1;
#X connect 7 1 25 1;
#X connect 7 1 36 0;
#X connect 8 0 10 0;
#X connect 8 0 22 0;
#X connect 8 0 25 0;
#X connect 8 1 9 0;
#X connect 9 0 6 1;
#X connect 10 0 2 0;
#X connect 11 0 12 0;
#X connect 11 1 13 0;
#X connect 12 0 14 0;
#X connect 13 0 19 0;
#X connect 13 1 24 1;
#X connect 13 1 26 1;
#X connect 13 1 37 0;
#X connect 14 0 18 0;
#X connect 14 0 23 0;
#X connect 14 0 26 0;
#X connect 14 1 15 0;
#X connect 15 0 12 1;
#X connect 16 0 11 0;
#X connect 16 1 5 0;
#X connect 17 0 5 0;
#X connect 17 1 11 0;
#X connect 18 0 3 0;
#X connect 19 0 12 1;
#X connect 20 0 6 1;
#X connect 21 0 12 0;
#X connect 21 0 6 0;
#X connect 21 1 4 0;
#X connect 22 0 3 0;
#X connect 23 0 2 0;
#X connect 24 0 28 0;
#X connect 25 0 24 0;
#X connect 26 0 24 0;
#X connect 28 0 30 0;
#X connect 28 1 31 0;
#X connect 29 0 27 0;
#X connect 30 1 33 0;
#X connect 31 1 34 0;
#X connect 32 0 29 0;
#X connect 33 0 32 0;
#X connect 34 0 32 1;
#X connect 35 0 37 1;
#X connect 35 0 36 1;
#X connect 36 0 38 0;
#X connect 37 0 39 0;
#X connect 38 0 2 0;
#X connect 39 0 3 0;
#X restore 215 177 pd alternate;
#X obj 349 166 bng 15 250 50 0 empty empty empty 0 -6 0 10 -262144
-1 -1;
#X obj 340 123 t f f;
#X msg 294 130 0;
#X obj 408 69 loadbang;
#X obj 407 93 t b b;
#X msg 48 296 1;
#X obj 388 295 outlet~;
#X obj 478 295 outlet~;
#X obj 77 56 OSCroute /diskplayvol /diskplaynext /diskplayreset /diskplaystop
/diskplayseek;
#X msg 425 171 symbol /home/johannes/concert.wav;
#X obj 205 129 * 8.3028e+07;
#X obj 115 411 8.3028e+07;
#X obj 115 432 / 48000;
#X obj 34 414 metro 1000;
#X obj 36 458 f;
#X obj 51 481 + 1;
#X obj 114 362 t b b;
#X obj 74 446 0;
#X obj 99 385 t b b;
#X obj 105 524 /;
#X obj 106 553 prepent /incoming/main/diskplayseek;
#X obj 106 574 s UI;
#X obj 75 322 / 48000;
#X obj 75 301 * 8.3028e+07;
#X connect 0 0 24 0;
#X connect 1 0 2 0;
#X connect 3 0 6 1;
#X connect 3 0 5 1;
#X connect 4 0 3 0;
#X connect 5 0 8 0;
#X connect 6 0 7 0;
#X connect 9 0 6 0;
#X connect 9 0 22 0;
#X connect 9 1 5 0;
#X connect 9 1 23 0;
#X connect 10 0 6 0;
#X connect 10 0 5 0;
#X connect 10 0 22 0;
#X connect 10 1 23 0;
#X connect 11 0 25 0;
#X connect 13 0 15 0;
#X connect 13 1 15 0;
#X connect 14 0 17 0;
#X connect 15 0 9 0;
#X connect 15 1 10 0;
#X connect 15 2 1 0;
#X connect 16 0 13 0;
#X connect 17 0 13 0;
#X connect 17 1 15 1;
#X connect 18 0 10 0;
#X connect 18 0 9 0;
#X connect 18 0 29 0;
#X connect 19 0 20 0;
#X connect 20 0 14 0;
#X connect 20 1 25 0;
#X connect 21 0 3 0;
#X connect 24 0 4 0;
#X connect 24 1 13 0;
#X connect 24 1 32 0;
#X connect 24 2 14 0;
#X connect 24 3 18 0;
#X connect 24 4 26 0;
#X connect 24 4 39 0;
#X connect 25 0 13 1;
#X connect 26 0 15 2;
#X connect 27 0 28 0;
#X connect 28 0 35 1;
#X connect 29 0 30 0;
#X connect 30 0 31 0;
#X connect 31 0 30 1;
#X connect 31 0 35 0;
#X connect 32 0 34 0;
#X connect 32 1 33 0;
#X connect 33 0 30 1;
#X connect 34 0 29 0;
#X connect 34 1 27 0;
#X connect 35 0 36 0;
#X connect 36 0 37 0;
#X connect 38 0 33 1;
#X connect 39 0 38 0;
#X restore 13 236 pd diskplayer;
#X connect 3 0 20 0;
#X connect 3 1 20 1;
#X connect 3 2 5 0;
#X connect 3 3 5 1;
#X connect 3 4 7 0;
#X connect 3 5 14 0;
#X connect 5 0 20 0;
#X connect 5 1 20 1;
#X connect 5 2 9 0;
#X connect 5 3 15 0;
#X connect 7 0 20 0;
#X connect 7 1 20 1;
#X connect 7 2 5 0;
#X connect 7 3 5 1;
#X connect 7 4 17 0;
#X connect 10 0 7 0;
#X connect 13 0 20 0;
#X connect 13 1 20 1;
#X connect 13 2 5 0;
#X connect 13 3 5 1;
#X connect 13 4 7 0;
#X connect 13 5 14 0;
#X connect 14 0 20 0;
#X connect 14 1 20 1;
#X connect 14 2 5 0;
#X connect 14 3 5 1;
#X connect 14 4 7 0;
#X connect 16 0 14 0;
#X connect 18 0 20 0;
#X connect 18 1 20 1;
#X connect 18 2 5 0;
#X connect 18 3 5 1;
#X connect 18 4 7 0;
#X connect 18 5 14 0;
#X connect 19 0 20 0;
#X connect 19 1 20 1;
#X connect 19 2 5 0;
#X connect 19 3 5 1;
#X connect 19 4 7 0;
#X connect 19 5 14 0;
#X connect 20 0 21 0;
#X connect 20 0 27 0;
#X connect 20 1 21 1;
#X connect 20 1 28 0;
#X connect 23 0 24 0;
#X connect 24 0 22 0;
#X connect 27 0 12 0;
#X connect 27 0 31 0;
#X connect 28 0 12 1;
#X connect 28 0 31 0;
#X connect 29 0 30 0;
#X connect 29 0 43 0;
#X connect 30 0 27 1;
#X connect 30 0 28 1;
#X connect 30 1 40 0;
#X connect 31 0 32 0;
#X connect 32 0 35 0;
#X connect 33 0 34 0;
#X connect 34 0 37 0;
#X connect 35 0 33 0;
#X connect 36 0 39 0;
#X connect 37 0 25 0;
#X connect 38 0 42 0;
#X connect 39 0 37 1;
#X connect 39 1 25 1;
#X connect 40 0 41 0;
#X connect 41 0 36 0;
#X connect 42 0 36 0;
#X connect 43 0 12 0;
#X connect 43 1 12 1;
#X connect 43 2 18 0;
#X connect 43 3 18 1;
