#N canvas 0 15 764 716 10;
#X obj 365 609 import oscx;
#X obj 365 638 import flatspace;
#N canvas 412 19 589 693 OSC-crap 0;
#X obj 194 247 list prepend send;
#X obj 195 267 list trim;
#X obj 89 467 s OSC;
#X obj 179 149 loadbang;
#X obj 194 225 r UI;
#X msg 433 134 \; pd dsp \$1 \;;
#X obj 371 179 cputime;
#X obj 371 143 metro 1000;
#X obj 371 161 t b b;
#X obj 371 219 * 0.1;
#X obj 371 199 int;
#X obj 371 258 s UI;
#X obj 208 349 dumpOSC 9000;
#X msg 372 238 /pd/cpu \$1;
#X msg 178 171 connect localhost 9001;
#X obj 186 293 sendOSC;
#X obj 309 436 route /pd/oscdebug;
#X obj 278 462 spigot;
#X obj 278 401 t a a;
#X obj 278 494 print OSC;
#X obj 170 534 route /;
#X obj 154 468 s PD;
#X obj 42 415 OSCroute /main /pd;
#X obj 433 91 r PD;
#X obj 433 112 route /dsp;
#X msg 333 93 0 \, 1;
#X connect 0 0 1 0;
#X connect 1 0 15 0;
#X connect 3 0 14 0;
#X connect 4 0 0 0;
#X connect 6 0 10 0;
#X connect 7 0 8 0;
#X connect 8 0 6 0;
#X connect 8 1 6 1;
#X connect 9 0 13 0;
#X connect 10 0 9 0;
#X connect 12 0 18 0;
#X connect 12 0 22 0;
#X connect 13 0 11 0;
#X connect 14 0 15 0;
#X connect 16 0 17 1;
#X connect 17 0 19 0;
#X connect 18 0 17 0;
#X connect 18 1 16 0;
#X connect 22 0 2 0;
#X connect 22 1 21 0;
#X connect 23 0 24 0;
#X connect 24 0 5 0;
#X connect 24 0 7 0;
#X connect 25 0 5 0;
#X restore 515 308 pd OSC-crap;
#X text 170 43 roomx2 \, deel \, grand;
#N canvas 0 15 866 716 deelay 0;
#X obj 185 71 deelay2backend /no1;
#X obj 186 32 inlet~;
#X obj 236 32 inlet~;
#X obj 296 32 inlet~ lfo;
#X obj 57 171 outlet~;
#X obj 216 171 outlet~;
#X obj 276 171 outlet~;
#X obj 376 191 outlet~;
#X obj 58 134 routingcell-s /delay-1 /send0 room;
#X obj 302 96 +~;
#X obj 278 134 routingcell /delay-1 /send1 grandel;
#X obj 378 154 routingcell /delay-1 /send3 combo;
#X obj 194 284 throw~ \$0-spcdl_R;
#X obj 184 265 throw~ \$0-spcdl_L;
#X obj 98 244 routingcell-s /delay-1 /send4 spectrldly;
#X connect 0 0 8 0;
#X connect 0 0 9 1;
#X connect 0 0 14 0;
#X connect 0 1 8 1;
#X connect 0 1 9 0;
#X connect 0 1 14 1;
#X connect 1 0 0 0;
#X connect 2 0 0 1;
#X connect 3 0 0 2;
#X connect 8 0 4 0;
#X connect 8 1 5 0;
#X connect 9 0 10 0;
#X connect 9 0 11 0;
#X connect 10 0 6 0;
#X connect 11 0 7 0;
#X connect 14 0 13 0;
#X connect 14 1 12 0;
#X restore 284 115 pd deelay;
#X text 308 42 roomx2 \, grand;
#N canvas 0 15 866 716 grandel 0;
#X obj 149 7 inlet~;
#X obj 87 107 outlet~;
#X obj 257 107 outlet~;
#X obj 367 107 outlet~;
#X obj 427 107 outlet~;
#X obj 537 117 outlet~;
#X obj 58 73 routingcell-s /grandel-1 /send0 room;
#X obj 278 73 routingcell-s /grandel-1 /send2 deelay;
#X obj 150 32 grandel/grandelback2.2 /no1;
#X obj 525 46 +~;
#X obj 528 83 routingcell /grandel-1 /send3 combo;
#X obj 492 219 rick2-backend 240000 /grandel;
#X obj 232 191 throw~ \$0-spcdl_R;
#X obj 222 172 throw~ \$0-spcdl_L;
#X obj 136 151 routingcell-s /grandel-1 /send4 spectrldly;
#X connect 0 0 8 0;
#X connect 6 0 1 0;
#X connect 6 1 2 0;
#X connect 7 0 3 0;
#X connect 7 1 4 0;
#X connect 8 0 6 0;
#X connect 8 0 7 0;
#X connect 8 0 9 0;
#X connect 8 0 14 0;
#X connect 8 1 6 1;
#X connect 8 1 7 1;
#X connect 8 1 9 1;
#X connect 8 1 14 1;
#X connect 9 0 10 0;
#X connect 9 0 11 0;
#X connect 10 0 5 0;
#X connect 14 0 13 0;
#X connect 14 1 12 0;
#X restore 425 109 pd grandel;
#X text 435 94 roomx2 \, deel;
#X obj 365 88 s~ \$0-grand;
#X obj 424 15 r~ \$0-grand;
#N canvas 0 15 589 693 stuff 0;
#X obj 138 49 singletonlib;
#X obj 302 57 table dummyarray;
#X obj 216 13 safeloader;
#X restore 515 284 pd stuff;
#X obj 127 342 dac~ 1 2 3 4;
#N canvas 0 15 866 716 pm7777777 0;
#X obj 61 329 outlet~;
#X obj 221 329 outlet~;
#X obj 286 234 outlet~;
#X obj 518 333 outlet~;
#X obj 356 234 outlet~;
#X obj 26 209 routingcell-s /pm7 /send0 room;
#X obj 608 353 outlet~;
#X obj 246 209 routingcell-s /pm7 /send2 deelay;
#X obj 117 50 pm7/synth-backend1.1;
#X obj 496 157 +~;
#X obj 501 209 routingcell /pm7 /send1 grandel;
#X obj 591 229 routingcell /pm7 /send3 combo;
#X obj 558 166 rick2-backend 240000 /pm7;
#X obj 636 94 outlet~;
#X obj 706 94 outlet~;
#X obj 596 69 routingcell-s /pm7 /send4 spectrldly;
#X connect 5 0 0 0;
#X connect 5 1 1 0;
#X connect 7 0 2 0;
#X connect 7 1 4 0;
#X connect 8 0 5 0;
#X connect 8 0 7 0;
#X connect 8 0 9 0;
#X connect 8 0 15 0;
#X connect 8 1 5 1;
#X connect 8 1 7 1;
#X connect 8 1 9 1;
#X connect 8 1 15 1;
#X connect 9 0 10 0;
#X connect 9 0 11 0;
#X connect 9 0 12 0;
#X connect 10 0 3 0;
#X connect 11 0 6 0;
#X connect 15 0 13 0;
#X connect 15 1 14 0;
#X restore 516 32 pd pm7777777;
#N canvas 0 15 866 716 combopppppp 0;
#X obj 125 43 inlet~;
#X obj 520 279 *~ 0.5;
#X obj 87 337 outlet~;
#X obj 257 337 outlet~;
#X obj 367 337 outlet~;
#X obj 427 337 outlet~;
#X obj 537 347 outlet~;
#X obj 124 124 a4comboback /no1;
#X obj 57 301 routingcell-s /combo-1 /send0 room;
#X obj 278 303 routingcell-s /combo-1 /send2 deelay;
#X obj 528 313 routingcell /combo-1 /send1 grandel;
#X obj 663 181 throw~ \$0-spcdl_R;
#X obj 653 162 throw~ \$0-spcdl_L;
#X obj 567 141 routingcell-s /delay-1 /send4 spectrldly;
#X connect 0 0 7 0;
#X connect 1 0 10 0;
#X connect 7 0 1 0;
#X connect 7 0 8 0;
#X connect 7 0 9 0;
#X connect 7 0 13 0;
#X connect 7 1 1 0;
#X connect 7 1 8 1;
#X connect 7 1 9 1;
#X connect 7 1 13 1;
#X connect 8 0 2 0;
#X connect 8 1 3 0;
#X connect 9 0 4 0;
#X connect 9 1 5 0;
#X connect 10 0 6 0;
#X connect 13 0 12 0;
#X connect 13 1 11 0;
#X restore 596 232 pd combopppppp;
#X obj 387 253 throw~ \$0-combo;
#X obj 627 182 catch~ \$0-combo;
#X obj 588 102 throw~ \$0-combo;
#N canvas 0 15 866 716 adc12------- 0;
#X obj 61 329 outlet~;
#X obj 221 329 outlet~;
#X obj 308 333 outlet~;
#X obj 518 333 outlet~;
#X obj 378 333 outlet~;
#X obj 496 157 *~ 0.5;
#X obj 608 353 outlet~;
#X obj 117 50 adc~ 1 2;
#X obj 26 209 routingcell-s /adc12 /send0 room;
#X obj 246 209 routingcell-s /adc12 /send2 deelay;
#X obj 501 209 routingcell /adc12 /send1 grandel;
#X obj 591 229 routingcell /adc12 /send3 combo;
#X obj 549 158 rick2-backend 240000 /adc12;
#X obj 642 105 outlet~;
#X obj 780 106 outlet~;
#X obj 640 83 routingcell-s /adc12 /send4 spectrldly;
#X connect 5 0 10 0;
#X connect 5 0 11 0;
#X connect 5 0 12 0;
#X connect 7 0 5 0;
#X connect 7 0 8 0;
#X connect 7 0 9 0;
#X connect 7 0 15 0;
#X connect 7 1 5 0;
#X connect 7 1 8 1;
#X connect 7 1 9 1;
#X connect 7 1 15 1;
#X connect 8 0 0 0;
#X connect 8 1 1 0;
#X connect 9 0 2 0;
#X connect 9 1 4 0;
#X connect 10 0 3 0;
#X connect 11 0 6 0;
#X connect 15 0 13 0;
#X connect 15 1 14 0;
#X restore 283 19 pd adc12-------;
#X obj 200 189 roombackend /no1;
#X obj 284 334 recorder-backend;
#X obj 232 422 print;
#X obj 232 372 loadbang;
#X msg 233 395 Done loading;
#X obj 129 590 s UI;
#X msg 135 543 /incoming/main/grandel/voldev 900;
#X obj 465 449 arduino_central;
#N canvas 227 136 566 481 TEMPO 0;
#X obj 127 113 metro;
#X obj 158 88 t f f;
#X obj 127 157 f;
#X obj 127 184 s MASTER_TEMPO;
#X obj 66 -53 r OSC;
#X obj 67 -29 OSCroute /tempo;
#X obj 127 64 t b f;
#X obj 84 84 1;
#X obj 75 111 change;
#X msg 188 32 60000 \$1;
#X obj 68 32 sel 0;
#X obj 190 55 /;
#X obj 245 225 outlet~;
#X obj 308 104 osc~ 440;
#X msg 247 150 0.5 \, 0 22;
#X obj 254 193 *~;
#X obj 255 172 line~;
#X obj 65 -5 OSCroute /tap;
#X obj 313 16 timer;
#X obj 311 -11 t b b;
#X obj 307 -40 bng 15 250 50 0 empty empty empty 0 -6 0 8 -262144 -1
-1;
#X obj 314 39 moses 5000;
#X msg 416 85 60000 \$1;
#X obj 418 108 /;
#X msg 363 146 /incoming/main/tempo \$1;
#X obj 359 185 s UI;
#X connect 0 0 2 0;
#X connect 0 0 14 0;
#X connect 1 0 0 1;
#X connect 1 1 2 1;
#X connect 2 0 3 0;
#X connect 4 0 5 0;
#X connect 5 0 17 0;
#X connect 6 0 7 0;
#X connect 6 1 1 0;
#X connect 7 0 8 0;
#X connect 8 0 0 0;
#X connect 9 0 11 0;
#X connect 10 1 9 0;
#X connect 11 0 6 0;
#X connect 13 0 15 1;
#X connect 14 0 16 0;
#X connect 15 0 12 0;
#X connect 16 0 15 0;
#X connect 17 0 19 0;
#X connect 17 1 10 0;
#X connect 18 0 21 0;
#X connect 19 0 18 0;
#X connect 19 1 18 1;
#X connect 20 0 19 0;
#X connect 21 0 6 0;
#X connect 21 0 22 0;
#X connect 22 0 23 0;
#X connect 23 0 24 0;
#X connect 24 0 25 0;
#X restore 453 534 pd TEMPO;
#X obj 135 292 volctl~ 0 10;
#X obj 171 314 volctl~ 0 10;
#X obj 121 207 r OSC;
#X obj 120 229 OSCroute /volume;
#X obj 115 408 env~;
#X obj 49 439 / 100;
#X obj 144 488 speedlim 100;
#X msg 303 462 pwm 9 \$1;
#X obj 158 460 myabs/01toquartic;
#X obj 369 566 bng 15 250 50 0 empty empty empty 0 -6 0 10 -262144
-1 -1;
#N canvas 0 15 764 716 spectrldly 0;
#X obj 130 79 inlet~;
#X obj 193 106 inlet~;
#X obj 129 42 catch~ \$0-spcdl_L;
#X obj 193 74 catch~ \$0-spcdl_R;
#X obj 130 150 spectrldly /spectrldly;
#X obj 385 213 outlet~;
#X obj 436 213 outlet~;
#X obj 503 244 outlet~;
#X obj 642 307 outlet~;
#X obj 121 196 routingcell-s /delay-1 /send0 room;
#X obj 193 174 +~;
#X obj 122 227 routingcell /delay-1 /send1 grandel;
#X obj 134 290 routingcell /delay-1 /send3 combo;
#X obj 555 277 outlet~;
#X obj 594 277 outlet~;
#X obj 123 260 routingcell-s /spectrldly /send2 delay;
#X connect 0 0 4 0;
#X connect 1 0 4 1;
#X connect 2 0 4 0;
#X connect 3 0 4 1;
#X connect 4 0 9 0;
#X connect 4 0 15 0;
#X connect 4 0 10 0;
#X connect 4 1 9 1;
#X connect 4 1 15 1;
#X connect 4 1 10 1;
#X connect 9 0 5 0;
#X connect 9 1 6 0;
#X connect 10 0 11 0;
#X connect 10 0 12 0;
#X connect 11 0 7 0;
#X connect 12 0 8 0;
#X connect 15 0 13 0;
#X connect 15 1 14 0;
#X restore 12 90 pd spectrldly;
#N canvas 0 15 610 695 adc3------------ 0;
#X obj 61 329 outlet~;
#X obj 221 329 outlet~;
#X obj 308 333 outlet~;
#X obj 518 333 outlet~;
#X obj 378 333 outlet~;
#X obj 592 253 outlet~;
#X obj 26 209 routingcell-s /adc3 /send0 room;
#X obj 246 209 routingcell-s /adc3 /send2 deelay;
#X obj 117 50 biquad~ 1.99694 -0.99698 0.99849 -1.99694 0.99849;
#X obj 119 -24 adc~ 3;
#X obj 119 27 hip~ 400;
#X obj 120 5 *~ 8;
#X obj 501 209 routingcell /adc3 /send1 grandel;
#X obj 591 229 routingcell /adc3 /send3 combo;
#X obj 279 83 rick2-backend 240000 /adc3;
#X obj 660 280 outlet~;
#X obj 661 259 routingcell /adc3 /send4 spectrldly;
#X connect 6 0 0 0;
#X connect 6 1 1 0;
#X connect 7 0 2 0;
#X connect 7 1 4 0;
#X connect 8 0 6 0;
#X connect 8 0 6 1;
#X connect 8 0 7 0;
#X connect 8 0 7 1;
#X connect 8 0 12 0;
#X connect 8 0 13 0;
#X connect 8 0 14 0;
#X connect 8 0 16 0;
#X connect 9 0 11 0;
#X connect 10 0 8 0;
#X connect 11 0 10 0;
#X connect 12 0 3 0;
#X connect 13 0 5 0;
#X connect 16 0 15 0;
#X restore 153 19 pd adc3------------;
#N canvas 0 15 866 695 a4looper---------- 0;
#X obj 10 39 routingcell-s /a4loop-1 /send0 room;
#X obj 499 35 routingcell-s /a4loop-3 /send0 room;
#X obj 749 33 routingcell-s /a4loop-4 /send0 room;
#X obj 270 37 routingcell-s /a4loop-2 /send0 room;
#X obj 973 48 outlet~;
#X obj 1022 49 outlet~;
#X obj 1064 128 outlet~;
#X obj 1034 95 outlet~;
#X obj 1112 128 outlet~;
#X obj 10 106 routingcell-s /a4loop-1 /send2 deelay;
#X obj 273 107 routingcell-s /a4loop-2 /send2 deelay;
#X obj 509 110 routingcell-s /a4loop-3 /send2 deelay;
#X obj 748 111 routingcell-s /a4loop-4 /send2 deelay;
#X obj 1129 153 outlet~;
#X obj 955 4 rick2-backend 240000 /a4loop1;
#X obj 10 82 routingcell /a4loop-1 /send1 grandel;
#X obj 267 82 routingcell /a4loop-2 /send1 grandel;
#X obj 500 80 routingcell /a4loop-3 /send1 grandel;
#X obj 752 81 routingcell /a4loop-4 /send1 grandel;
#X obj 9 138 routingcell /a4loop-1 /send3 combo;
#X obj 274 139 routingcell /a4loop-2 /send3 combo;
#X obj 512 142 routingcell /a4loop-3 /send3 combo;
#X obj 750 142 routingcell /a4loop-4 /send3 combo;
#X obj 1000 4 rick2-backend 240000 /a4loop2;
#X obj 1031 3 rick2-backend 240000 /a4loop3;
#X obj 1119 3 rick2-backend 240000 /a4loop4;
#X obj 12 -13 a4looperback2 /mouselooper1;
#X obj 276 -15 a4looperback2 /mouselooper2;
#X obj 748 -13 a4looperback2 /mouselooper4;
#X obj 499 -15 a4looperback2 /mouselooper3;
#X obj 1146 184 outlet~;
#X obj 1193 184 outlet~;
#X obj 8 166 routingcell-s /a4loop-1 /send4 spectrldly;
#X obj 275 166 routingcell-s /a4loop-2 /send4 spectrldly;
#X obj 530 167 routingcell-s /a4loop-3 /send4 spectrldly;
#X obj 785 166 routingcell-s /a4loop-4 /send4 spectrldly;
#X connect 0 0 4 0;
#X connect 0 1 5 0;
#X connect 1 0 4 0;
#X connect 1 1 5 0;
#X connect 2 0 4 0;
#X connect 2 1 5 0;
#X connect 3 0 4 0;
#X connect 3 1 5 0;
#X connect 9 0 6 0;
#X connect 9 1 8 0;
#X connect 10 0 6 0;
#X connect 10 1 8 0;
#X connect 11 0 6 0;
#X connect 11 1 8 0;
#X connect 12 0 6 0;
#X connect 12 1 8 0;
#X connect 15 0 7 0;
#X connect 16 0 7 0;
#X connect 17 0 7 0;
#X connect 18 0 7 0;
#X connect 19 0 13 0;
#X connect 20 0 13 0;
#X connect 21 0 13 0;
#X connect 22 0 13 0;
#X connect 26 0 0 0;
#X connect 26 0 9 0;
#X connect 26 0 14 0;
#X connect 26 0 15 0;
#X connect 26 0 19 0;
#X connect 26 0 32 0;
#X connect 26 1 0 1;
#X connect 26 1 9 1;
#X connect 26 1 14 0;
#X connect 26 1 15 0;
#X connect 26 1 19 0;
#X connect 26 1 32 1;
#X connect 27 0 3 0;
#X connect 27 0 10 0;
#X connect 27 0 23 0;
#X connect 27 0 20 0;
#X connect 27 0 33 0;
#X connect 27 1 3 1;
#X connect 27 1 10 1;
#X connect 27 1 16 0;
#X connect 27 1 20 0;
#X connect 27 1 23 0;
#X connect 27 1 33 1;
#X connect 28 0 2 0;
#X connect 28 0 12 0;
#X connect 28 0 25 0;
#X connect 28 0 18 0;
#X connect 28 0 22 0;
#X connect 28 0 35 0;
#X connect 28 1 2 1;
#X connect 28 1 12 1;
#X connect 28 1 25 0;
#X connect 28 1 22 0;
#X connect 28 1 18 0;
#X connect 28 1 35 1;
#X connect 29 0 1 0;
#X connect 29 0 11 0;
#X connect 29 0 24 0;
#X connect 29 0 21 0;
#X connect 29 0 34 0;
#X connect 29 1 1 1;
#X connect 29 1 11 1;
#X connect 29 1 17 0;
#X connect 29 1 24 0;
#X connect 29 1 21 0;
#X connect 29 1 34 1;
#X connect 32 0 30 0;
#X connect 32 1 31 0;
#X connect 33 0 30 0;
#X connect 33 1 31 0;
#X connect 34 0 30 0;
#X connect 34 1 31 0;
#X connect 35 0 30 0;
#X connect 35 1 31 0;
#X restore 204 70 pd a4looper----------;
#X connect 4 0 18 0;
#X connect 4 1 18 1;
#X connect 4 2 8 0;
#X connect 4 3 14 0;
#X connect 6 0 18 0;
#X connect 6 1 18 1;
#X connect 6 2 4 0;
#X connect 6 3 4 1;
#X connect 6 4 16 0;
#X connect 9 0 6 0;
#X connect 12 0 18 0;
#X connect 12 1 18 1;
#X connect 12 2 4 0;
#X connect 12 3 4 1;
#X connect 12 4 6 0;
#X connect 12 5 13 0;
#X connect 12 6 37 0;
#X connect 12 7 37 1;
#X connect 13 0 18 0;
#X connect 13 1 18 1;
#X connect 13 2 4 0;
#X connect 13 3 4 1;
#X connect 13 4 6 0;
#X connect 15 0 13 0;
#X connect 17 0 18 0;
#X connect 17 1 18 1;
#X connect 17 2 4 0;
#X connect 17 3 4 1;
#X connect 17 4 6 0;
#X connect 17 5 13 0;
#X connect 17 6 37 0;
#X connect 17 7 37 1;
#X connect 18 0 19 0;
#X connect 18 0 27 0;
#X connect 18 1 19 1;
#X connect 18 1 28 0;
#X connect 21 0 22 0;
#X connect 22 0 20 0;
#X connect 24 0 23 0;
#X connect 27 0 11 0;
#X connect 27 0 31 0;
#X connect 28 0 11 1;
#X connect 28 0 31 0;
#X connect 29 0 30 0;
#X connect 30 0 27 1;
#X connect 30 0 28 1;
#X connect 31 0 32 0;
#X connect 32 0 35 0;
#X connect 33 0 34 0;
#X connect 35 0 33 0;
#X connect 37 0 18 0;
#X connect 37 1 18 1;
#X connect 37 2 6 0;
#X connect 37 3 4 0;
#X connect 37 4 4 2;
#X connect 37 5 13 0;
#X connect 38 0 18 0;
#X connect 38 1 18 1;
#X connect 38 2 4 0;
#X connect 38 3 4 1;
#X connect 38 4 6 0;
#X connect 38 5 13 0;
#X connect 38 6 37 0;
#X connect 38 6 37 1;
#X connect 39 0 18 0;
#X connect 39 1 18 1;
#X connect 39 2 6 0;
#X connect 39 3 4 0;
#X connect 39 4 4 1;
#X connect 39 5 13 0;
#X connect 39 6 37 0;
#X connect 39 7 37 1;
