#N canvas 0 0 517 376 10;
#X obj 247 9 loadbang;
#X obj 258 111 t b b b b;
#X obj 291 163 == 0;
#X obj 269 185 spigot;
#X msg 267 140 1;
#X obj 195 191 outlet;
#X obj 268 225 makefilename pd-%d-include;
#X text 20 35 args: \$0 of parent \, obj to include;
#X msg 268 295 \; \$2 obj 10 10 \$1;
#X obj 268 273 a2l;
#X obj 291 140 v \$1-exists;
#X obj 268 245 myprepend \$1;
#X obj 269 205 \$0;
#N canvas 0 0 450 300 1248-include 0;
#X restore 64 197 pd \$0-include;
#X connect 0 0 1 0;
#X connect 1 0 5 0;
#X connect 1 1 4 0;
#X connect 1 2 3 0;
#X connect 1 3 10 0;
#X connect 2 0 3 1;
#X connect 3 0 12 0;
#X connect 4 0 10 0;
#X connect 6 0 11 0;
#X connect 9 0 8 0;
#X connect 10 0 2 0;
#X connect 11 0 9 0;
#X connect 12 0 6 0;
