#N canvas 0 15 610 716 10;
#X msg 151 157 reload;
#X msg 536 106 bang;
#X msg 414 92 2;
#X msg 540 55 debug;
#X msg 459 76 0;
#X floatatom 307 87 5 0 0 0 - - -;
#X msg 333 29 /tmp/fjojo/find sdf a a;
#X obj 223 102 timer;
#X obj 295 107 bang;
#X obj 222 56 t b b a;
#X obj 225 134 list;
#X obj 397 241 delay;
#X obj 397 216 list split 1;
#X obj 397 292 list;
#X obj 401 321 print;
#X obj 396 264 t b b;
#X msg 435 123 1 \, bang;
#X obj 258 188 pyext messageseq MessageSeq;
#X connect 0 0 17 0;
#X connect 1 0 17 1;
#X connect 2 0 8 0;
#X connect 2 0 17 1;
#X connect 3 0 17 1;
#X connect 4 0 17 1;
#X connect 6 0 9 0;
#X connect 7 0 10 0;
#X connect 8 0 7 0;
#X connect 9 0 7 0;
#X connect 9 1 7 1;
#X connect 9 2 10 1;
#X connect 10 0 17 1;
#X connect 11 0 15 0;
#X connect 12 0 11 0;
#X connect 12 1 13 1;
#X connect 13 0 14 0;
#X connect 15 0 13 0;
#X connect 15 1 17 1;
#X connect 16 0 17 1;
#X connect 17 0 12 0;
