#N canvas 0 0 672 476 10;
#X msg 185 57 /tmp/fjojo/find;
#X obj 191 111 if;
#X obj 162 268 py;
#X obj 258 188 pyext larmext bufcheck;
#X msg 338 96 check /tmp/foo;
#X obj 310 252 print a;
#X obj 391 246 print b;
#X msg 151 157 reload;
#X msg 380 136 store /tmp/foo /foo \, check /tmp/foo;
#X msg 423 70 check /test;
#X msg 286 124 debugprint;
#X connect 3 0 5 0;
#X connect 3 1 6 0;
#X connect 4 0 3 1;
#X connect 7 0 3 0;
#X connect 8 0 3 1;
#X connect 9 0 3 1;
#X connect 10 0 3 1;
