#N canvas 0 15 661 716 10;
#X obj 121 236 outlet~;
#X obj 241 54 inlet factor;
#X obj 248 141 inlet interpolation_time;
#X obj 122 205 volctl~ \$1 \$2;
#X obj 122 171 inlet~ signal;
#X obj 244 83 t f f;
#X obj 247 103 *;
#X obj 211 256 outlet~;
#X obj 212 225 volctl~ \$1 \$2;
#X obj 212 191 inlet~ signal;
#X connect 1 0 5 0;
#X connect 2 0 3 2;
#X connect 2 0 8 2;
#X connect 3 0 0 0;
#X connect 4 0 3 0;
#X connect 5 0 6 0;
#X connect 5 1 6 1;
#X connect 6 0 3 1;
#X connect 6 0 8 1;
#X connect 8 0 7 0;
#X connect 9 0 8 0;
