#N canvas 47 41 879 548 10;
#X obj 234 90 soundfile_info;
#X obj 61 489 dac~;
#X obj 187 152 pack f s;
#X obj 93 52 t s s;
#X msg 80 131 0 \, open \$1;
#X msg 212 218 0 \, open \$2 \$1;
#X msg 234 68 read \$1;
#X obj 188 237 delay 1000;
#X msg 188 255 1;
#X obj 140 274 metro 100;
#X obj 139 300 f;
#X msg 186 302 0;
#X obj 141 244 t b b;
#X obj 69 268 sel 1;
#X obj 139 322 + 4410;
#X msg 215 296 \$1;
#X obj 187 198 t b l l b;
#X msg 233 257 0;
#X obj 249 351 t f f;
#X obj 250 375 div 60;
#X obj 295 376 % 60;
#X obj 288 398 / 100;
#X obj 261 423 +;
#X obj 244 326 / 44100;
#X msg 156 219 0;
#X msg 389 332 /loc \$1;
#X msg 288 434 /time \$1;
#X obj 389 374 s UI;
#X obj 308 137 r OSC;
#X obj 309 159 OSCroute /player;
#X obj 389 353 OSCprepend /player;
#X obj 413 200 symbol;
#X obj 107 191 readsf~ 3;
#X obj 309 179 OSCroute /seek /onoff /file /vol;
#X obj 462 212 / 100;
#X obj 63 416 volctl~ 0 10;
#X obj 463 233 s \$0-vol;
#X obj 112 391 r \$0-vol;
#X obj 73 436 volctl~ 0 10;
#X obj 83 456 volctl~ 0 10;
#X obj 198 417 == 1;
#X obj 192 448 *~;
#X msg 197 396 \$5;
#X obj 366 249 / 128;
#X msg 365 227 \$3;
#X obj 362 281 /;
#X obj 301 245 *;
#X obj 392 291 int;
#X obj 391 311 change;
#X connect 0 0 42 0;
#X connect 0 0 44 0;
#X connect 2 0 16 0;
#X connect 3 0 4 0;
#X connect 3 0 2 1;
#X connect 3 1 6 0;
#X connect 4 0 32 0;
#X connect 5 0 32 0;
#X connect 6 0 0 0;
#X connect 7 0 8 0;
#X connect 8 0 9 0;
#X connect 8 0 32 0;
#X connect 9 0 10 0;
#X connect 10 0 14 0;
#X connect 10 0 23 0;
#X connect 11 0 10 1;
#X connect 12 0 9 0;
#X connect 12 1 11 0;
#X connect 13 0 12 0;
#X connect 13 1 9 0;
#X connect 14 0 10 1;
#X connect 14 0 45 0;
#X connect 15 0 10 1;
#X connect 16 0 7 0;
#X connect 16 1 5 0;
#X connect 16 2 15 0;
#X connect 16 3 17 0;
#X connect 17 0 9 0;
#X connect 18 0 19 0;
#X connect 18 1 20 0;
#X connect 19 0 22 0;
#X connect 20 0 21 0;
#X connect 21 0 22 1;
#X connect 22 0 26 0;
#X connect 23 0 18 0;
#X connect 24 0 9 0;
#X connect 25 0 30 0;
#X connect 26 0 30 0;
#X connect 28 0 29 0;
#X connect 29 0 33 0;
#X connect 30 0 27 0;
#X connect 31 0 3 0;
#X connect 32 0 35 0;
#X connect 32 1 38 0;
#X connect 32 2 39 0;
#X connect 32 3 24 0;
#X connect 33 0 46 0;
#X connect 33 1 13 0;
#X connect 33 1 32 0;
#X connect 33 2 31 0;
#X connect 33 3 34 0;
#X connect 34 0 36 0;
#X connect 35 0 1 0;
#X connect 35 0 41 0;
#X connect 37 0 35 1;
#X connect 37 0 38 1;
#X connect 37 0 39 1;
#X connect 38 0 1 1;
#X connect 39 0 1 0;
#X connect 39 0 1 1;
#X connect 40 0 41 1;
#X connect 41 0 1 1;
#X connect 42 0 40 0;
#X connect 43 0 45 1;
#X connect 43 0 46 1;
#X connect 44 0 43 0;
#X connect 45 0 47 0;
#X connect 46 0 2 0;
#X connect 47 0 48 0;
#X connect 48 0 25 0;
