#N canvas 0 0 450 300 10;
#X obj 166 94 int;
#X obj 172 156 +;
#X obj 166 121 *;
#X obj 196 121 *;
#X obj 250 59 * -1;
#X obj 250 78 + 1;
#X obj 165 24 inlet;
#X obj 242 3 inlet;
#X obj 242 23 t f f;
#X obj 172 208 outlet;
#X obj 297 21 init \$1;
#X obj 294 207 outlet;
#X obj 174 178 t f f;
#X obj 166 56 t f f f;
#X obj 295 162 -;
#X obj 294 114 pack;
#X msg 291 133 \$2 \$1;
#X obj 165 75 + 0.5;
#X connect 0 0 2 0;
#X connect 1 0 12 0;
#X connect 2 0 1 0;
#X connect 3 0 1 1;
#X connect 4 0 5 0;
#X connect 5 0 3 1;
#X connect 6 0 13 0;
#X connect 7 0 8 0;
#X connect 8 0 2 1;
#X connect 8 1 4 0;
#X connect 10 0 8 0;
#X connect 12 0 9 0;
#X connect 12 1 15 0;
#X connect 13 0 17 0;
#X connect 13 1 3 0;
#X connect 13 2 15 1;
#X connect 14 0 11 0;
#X connect 15 0 16 0;
#X connect 16 0 14 0;
#X connect 17 0 0 0;
