#N canvas 0 15 764 716 10;
#X obj 502 248 table \$0-tbl-L 48000;
#X obj 502 268 table \$0-tbl-R 48000;
#X obj 270 517 dac~;
#X msg 495 45 1;
#X obj 270 37 inlet;
#X obj 270 292 readsf~ 2;
#X obj 270 95 route open;
#X obj 270 147 symbol;
#X obj 342 123 t a a;
#X obj 349 262 tabwrite~ \$0-tbl-L;
#X obj 369 282 tabwrite~ \$0-tbl-R;
#X obj 321 341 tabplay~ \$0-tbl-L;
#X obj 348 362 tabplay~ \$0-tbl-R;
#X obj 342 147 sel 0 1;
#X msg 132 275 1.249e+07;
#X msg 439 80 0;
#X obj 321 316 t b b b;
#X obj 491 106 delay 1000;
#X obj 493 126 1;
#X msg 271 208 open \$1;
#X msg 311 60 open /home/johannes/samples/misc/tablaloop.wav;
#X obj 299 183 symbol;
#X msg 291 232 open \$1 48000;
#X obj 153 376 lc~;
#X connect 3 0 6 0;
#X connect 4 0 6 0;
#X connect 5 0 2 0;
#X connect 5 0 9 0;
#X connect 5 0 23 0;
#X connect 5 1 2 1;
#X connect 5 1 10 0;
#X connect 5 2 16 0;
#X connect 6 0 7 0;
#X connect 6 1 8 0;
#X connect 7 0 19 0;
#X connect 7 0 21 1;
#X connect 8 0 13 0;
#X connect 8 1 5 0;
#X connect 11 0 23 0;
#X connect 13 0 7 0;
#X connect 13 1 9 0;
#X connect 13 1 10 0;
#X connect 14 0 5 0;
#X connect 15 0 6 0;
#X connect 16 0 11 0;
#X connect 16 0 12 0;
#X connect 16 1 17 0;
#X connect 16 2 21 0;
#X connect 17 0 18 0;
#X connect 18 0 5 0;
#X connect 19 0 5 0;
#X connect 20 0 6 0;
#X connect 21 0 22 0;
#X connect 22 0 5 0;
