#N canvas 0 15 712 716 10;
#X obj 294 126 timer;
#X obj 294 200 t f f;
#X obj 406 258 t a;
#X obj 294 280 list;
#X obj 294 244 b;
#X msg 392 223 bang;
#X obj 294 364 list;
#X obj 294 324 t b a;
#X obj 294 302 list-delete 0;
#X obj 323 258 list prepend;
#X msg 379 200 flush;
#X obj 648 79 import aubio;
#X obj 321 45 aubioonset~ 1;
#X obj 152 6 inlet~;
#X obj 152 118 outlet~;
#X obj 294 82 inlet;
#X obj 294 386 outlet;
#X obj 152 69 z~ 1024;
#X obj 321 74 t b b;
#X obj 294 223 pipe \$1;
#X obj 294 171 / \$1;
#X obj 469 26 inlet;
#X obj 469 54 t a a;
#X obj 295 146 spigot;
#X msg 421 152 clear;
#X obj 421 129 sel 0;
#X text 302 443 Creates a list of onset times (in fraction of \$1)
relative to an incoming start bang. Useful for keeping track of onsets
of a currently recorded signal \, and automatically removing old onsets
(from previous rec cycles);
#X text 303 495 Inlets: Signal \, start bang \, on/off float (0 \,
1) \; Outlets: Delayed signal \, onsets (list) \; Argument: Period
length (in ms);
#X obj 294 103 route bang size;
#X connect 0 0 23 0;
#X connect 1 0 19 0;
#X connect 1 1 9 0;
#X connect 2 0 9 1;
#X connect 3 0 8 0;
#X connect 4 0 3 0;
#X connect 5 0 9 1;
#X connect 5 0 3 1;
#X connect 6 0 16 0;
#X connect 7 0 6 0;
#X connect 7 1 6 1;
#X connect 7 1 3 1;
#X connect 7 1 9 1;
#X connect 8 0 7 0;
#X connect 9 0 2 0;
#X connect 9 0 3 1;
#X connect 9 0 6 0;
#X connect 10 0 19 0;
#X connect 12 0 18 0;
#X connect 13 0 12 0;
#X connect 13 0 17 0;
#X connect 15 0 28 0;
#X connect 17 0 14 0;
#X connect 18 0 0 1;
#X connect 19 0 4 0;
#X connect 20 0 1 0;
#X connect 21 0 22 0;
#X connect 22 0 23 1;
#X connect 22 1 25 0;
#X connect 23 0 20 0;
#X connect 24 0 19 0;
#X connect 25 0 24 0;
#X connect 25 1 10 0;
#X connect 28 0 0 0;
#X connect 28 1 20 1;
#X connect 28 1 19 1;
