#N canvas 0 15 589 693 10;
#X obj 230 220 writesf~ 2;
#X msg 99 101 open \$1;
#X obj 160 36 inlet~;
#X obj 205 36 inlet~;
#X obj 255 36 inlet~;
#X obj 321 195 writesf~ 3;
#X obj 39 14 r OSC;
#X obj 100 78 symbol;
#X obj 95 129 spigot 1;
#X obj 192 127 spigot 0;
#X obj 233 106 == 3;
#X obj 154 102 == 2;
#X obj 39 37 OSCroute /diskrec;
#X obj 39 55 OSCroute /rec /path /channels;
#X obj 13 93 route 0 1;
#X msg 13 117 stop;
#X msg 37 135 start;
#X connect 1 0 9 0;
#X connect 1 0 8 0;
#X connect 2 0 0 0;
#X connect 2 0 5 0;
#X connect 3 0 0 1;
#X connect 3 0 5 1;
#X connect 4 0 5 2;
#X connect 6 0 12 0;
#X connect 7 0 1 0;
#X connect 8 0 0 0;
#X connect 9 0 5 0;
#X connect 10 0 9 1;
#X connect 11 0 8 1;
#X connect 12 0 13 0;
#X connect 13 0 14 0;
#X connect 13 1 7 0;
#X connect 13 2 10 0;
#X connect 13 2 11 0;
#X connect 14 0 15 0;
#X connect 14 1 16 0;
#X connect 15 0 8 0;
#X connect 15 0 9 0;
#X connect 16 0 8 0;
#X connect 16 0 9 0;
