#N canvas 196 348 622 342 10;
#X obj 113 183 writesf~ 2;
#X msg 99 101 open \$1;
#X obj 160 36 inlet~;
#X obj 205 36 inlet~;
#X obj 255 36 inlet~;
#X obj 193 183 writesf~ 3;
#X obj 39 14 r OSC;
#X obj 39 37 OSCroute /record;
#X obj 118 78 symbol;
#X obj 112 127 spigot 1;
#X obj 192 127 spigot 0;
#X obj 39 55 OSCroute /onoff /open /channels;
#X obj 233 106 == 3;
#X obj 154 102 == 2;
#X obj 21 131 route start;
#X msg 76 180 0;
#X obj 43 209 + 1;
#X obj 43 187 0;
#X obj 43 239 div 60;
#X obj 87 250 / 100;
#X obj 87 232 % 60;
#X obj 49 272 +;
#X obj 47 161 metro 1000;
#X obj 49 297 myprepend /record/time;
#X obj 50 317 s UI;
#X connect 1 0 10 0;
#X connect 1 0 9 0;
#X connect 2 0 0 0;
#X connect 2 0 5 0;
#X connect 3 0 0 1;
#X connect 3 0 5 1;
#X connect 4 0 5 2;
#X connect 6 0 7 0;
#X connect 7 0 11 0;
#X connect 8 0 1 0;
#X connect 9 0 0 0;
#X connect 10 0 5 0;
#X connect 11 0 9 0;
#X connect 11 0 10 0;
#X connect 11 0 14 0;
#X connect 11 1 8 0;
#X connect 11 2 12 0;
#X connect 11 2 13 0;
#X connect 12 0 10 1;
#X connect 13 0 9 1;
#X connect 14 0 22 0;
#X connect 14 1 15 0;
#X connect 15 0 17 1;
#X connect 15 0 22 0;
#X connect 16 0 17 1;
#X connect 16 0 20 0;
#X connect 16 0 18 0;
#X connect 17 0 16 0;
#X connect 18 0 21 0;
#X connect 19 0 21 1;
#X connect 20 0 19 0;
#X connect 21 0 23 0;
#X connect 22 0 17 0;
#X connect 23 0 24 0;
