#N canvas 0 15 610 716 10;
#X obj 91 42 sel 1 0;
#X msg 140 41 stop;
#X obj 175 137 inlet~;
#X obj 22 43 switch~;
#X obj 284 69 r OSC;
#X obj 223 15 OSCroute /onoff;
#X msg 91 91 set \$1-rec \, loop 1 \, bang;
#X obj 257 360 s UI;
#X obj 65 14 t f f f;
#X obj 284 93 OSCroute /rick /ping;
#X obj 295 295 OSCprepend \$2;
#X obj 295 387 OSCprepend /rick;
#X msg 295 275 /array \$1-rec;
#X obj 0 155 _j/undenormal~;
#X obj 165 161 hip~ 20;
#X obj 284 114 OSCroute \$2 /ping;
#X obj 372 213 sel 1;
#X obj 374 239 symbol \$2;
#X msg 393 292 /arraysize \$1;
#X obj 391 259 \$1;
#X obj 256 44 table \$2-rec \$1;
#X obj 91 126 xrecord~ \$2-rec;
#X text 40 269 create with arraylength - label;
#X obj 92 66 symbol \$2;
#X obj 90 235 snapshot~;
#X obj 90 364 s RECORDER2LOOPER;
#X obj 171 189 r LOOPER2RECORDER;
#X obj 171 209 route \$2-rec;
#X obj 91 314 prepent \$2-rec;
#X obj 367 476 svalue \$2-rec \$1;
#X connect 0 0 23 0;
#X connect 0 1 1 0;
#X connect 1 0 21 0;
#X connect 2 0 14 0;
#X connect 4 0 9 0;
#X connect 5 0 8 0;
#X connect 6 0 21 0;
#X connect 8 0 3 0;
#X connect 8 1 0 0;
#X connect 9 0 15 0;
#X connect 10 0 11 0;
#X connect 11 0 7 0;
#X connect 12 0 10 0;
#X connect 13 0 21 0;
#X connect 14 0 21 0;
#X connect 15 0 5 0;
#X connect 15 1 16 0;
#X connect 16 0 17 0;
#X connect 16 0 19 0;
#X connect 17 0 12 0;
#X connect 18 0 10 0;
#X connect 19 0 18 0;
#X connect 21 0 24 0;
#X connect 23 0 6 0;
#X connect 24 0 28 0;
#X connect 26 0 27 0;
#X connect 27 0 24 0;
#X connect 28 0 25 0;
