#N canvas 0 15 610 695 10;
#X obj 91 42 sel 1 0;
#X msg 140 41 stop;
#X obj 119 174 inlet~;
#X obj 22 43 switch~;
#X obj 284 69 r OSC;
#X obj 223 15 OSCroute /onoff;
#X msg 91 91 set \$1-rec \, loop 1 \, bang;
#X obj 515 341 s UI;
#X obj 65 14 t f f f;
#X obj 284 93 OSCroute /rick /ping;
#X obj 515 289 OSCprepend \$2;
#X obj 515 317 OSCprepend /rick;
#X msg 515 269 /array \$1-rec;
#X obj 0 155 _j/undenormal~;
#X obj 120 198 hip~ 20;
#X obj 284 114 OSCroute \$2 /ping;
#X obj 513 160 sel 1;
#X obj 515 186 symbol \$2;
#X msg 534 239 /arraysize \$1;
#X obj 532 206 \$1;
#X obj 256 44 table \$2-rec \$1;
#X obj 91 256 xrecord~ \$2-rec;
#X text 40 379 create with arraylength - label;
#X obj 92 66 symbol \$2;
#X obj 90 345 snapshot~;
#X obj 90 474 s RECORDER2LOOPER;
#X obj 171 299 r LOOPER2RECORDER;
#X obj 91 424 prepent \$2-rec;
#X obj 367 476 svalue \$2-rec \$1;
#N canvas 0 15 655 584 findclosest 0;
#X obj 182 7 inlet;
#X obj 57 83 list;
#X obj 136 344 select 1;
#X obj 136 184 t a a;
#X obj 136 395 f;
#X obj 136 234 abs;
#X obj 136 309 <=;
#X text 212 220 distance;
#N canvas 184 160 450 300 once 0;
#X obj 96 67 inlet;
#X obj 96 189 outlet;
#X obj 96 137 spigot 1;
#X obj 164 67 inlet;
#X msg 164 100 1;
#X msg 162 137 0;
#X obj 96 160 t a b;
#X connect 0 0 2 0;
#X connect 2 0 6 0;
#X connect 3 0 4 0;
#X connect 4 0 2 1;
#X connect 5 0 2 1;
#X connect 6 0 1 0;
#X connect 6 1 5 0;
#X restore 180 280 pd once;
#X obj 136 211 - 45;
#X obj 136 259 t a a a;
#X obj 168 310 f;
#X text 243 280 first comparison with first value;
#X obj 114 134 t b a b;
#X obj 114 427 f;
#N canvas 472 435 450 300 list-drip 0;
#X obj 102 44 inlet;
#X obj 102 128 list;
#X obj 102 153 list split 1;
#X obj 102 70 t b a;
#X obj 102 100 until;
#X obj 181 176 b;
#X obj 102 179 outlet;
#X connect 0 0 3 0;
#X connect 1 0 2 0;
#X connect 2 0 6 0;
#X connect 2 1 1 1;
#X connect 2 2 5 0;
#X connect 3 0 4 0;
#X connect 3 1 1 1;
#X connect 4 0 1 0;
#X connect 5 0 4 1;
#X restore 136 162 pd list-drip;
#X obj 78 45 inlet;
#X obj 182 63 t b a;
#X obj 114 454 outlet;
#X obj 57 106 route bang;
#X obj 57 309 f;
#X connect 0 0 17 0;
#X connect 1 0 19 0;
#X connect 2 0 4 0;
#X connect 2 0 11 0;
#X connect 3 0 9 0;
#X connect 3 1 4 1;
#X connect 4 0 14 1;
#X connect 5 0 10 0;
#X connect 6 0 2 0;
#X connect 8 0 6 1;
#X connect 9 0 5 0;
#X connect 10 0 6 0;
#X connect 10 1 11 1;
#X connect 10 2 8 0;
#X connect 11 0 6 1;
#X connect 13 0 14 0;
#X connect 13 1 15 0;
#X connect 13 2 8 1;
#X connect 14 0 18 0;
#X connect 15 0 3 0;
#X connect 16 0 1 1;
#X connect 17 0 1 0;
#X connect 17 1 9 1;
#X connect 17 1 20 1;
#X connect 19 0 20 0;
#X connect 19 1 13 0;
#X connect 20 0 18 0;
#X restore 238 343 pd findclosest;
#X obj 171 319 route \$2-rec \$2-get_onset;
#X obj 238 422 prepent \$2-get_onset;
#X obj 119 221 rec_onset_detector 5000;
#X obj 356 44 table \$2-rec-R \$1;
#X obj 281 256 xrecord~ \$2-rec-R;
#X obj 269 174 inlet~;
#X obj 270 198 hip~ 20;
#X obj 66 202 z~ 1024;
#X obj 276 222 z~ 1024;
#X connect 0 0 23 0;
#X connect 0 1 1 0;
#X connect 1 0 21 0;
#X connect 1 0 34 0;
#X connect 2 0 14 0;
#X connect 2 0 37 0;
#X connect 4 0 9 0;
#X connect 5 0 8 0;
#X connect 6 0 21 0;
#X connect 6 0 34 0;
#X connect 8 0 3 0;
#X connect 8 1 0 0;
#X connect 8 2 32 2;
#X connect 9 0 15 0;
#X connect 10 0 11 0;
#X connect 11 0 7 0;
#X connect 12 0 10 0;
#X connect 13 0 21 0;
#X connect 14 0 32 0;
#X connect 15 0 5 0;
#X connect 15 1 16 0;
#X connect 16 0 17 0;
#X connect 16 0 19 0;
#X connect 17 0 12 0;
#X connect 18 0 10 0;
#X connect 19 0 18 0;
#X connect 21 0 24 0;
#X connect 21 3 32 1;
#X connect 23 0 6 0;
#X connect 24 0 27 0;
#X connect 26 0 30 0;
#X connect 27 0 25 0;
#X connect 29 0 31 0;
#X connect 30 0 24 0;
#X connect 30 1 29 1;
#X connect 31 0 25 0;
#X connect 32 1 29 0;
#X connect 35 0 36 0;
#X connect 36 0 38 0;
#X connect 37 0 21 0;
#X connect 38 0 34 0;
