#N canvas 0 15 661 716 10;
#N canvas 0 15 661 695 reverb 0;
#X obj 396 218 line;
#X msg 396 193 \$1 2000;
#X obj 345 239 line;
#X msg 340 216 \$1 2000;
#X obj 436 219 mtof;
#X obj 357 109 OSCroute /distance /liveness /xfreq /slope;
#X obj 224 137 inlet~;
#X obj 267 138 inlet~;
#X obj 292 390 outlet~;
#X obj 332 370 outlet~;
#X obj 556 247 outlet;
#X obj 618 155 sel 0;
#X obj 619 202 0;
#X obj 621 225 switch~;
#X obj 615 134 OSCroute /onoff;
#X obj 185 177 * -1;
#X obj 182 131 t f f;
#X obj 182 159 *;
#X obj 344 196 * 0.01;
#X obj 188 203 + 1;
#X obj 618 181 delay 5000;
#X obj 309 286 _j/rev3~ 1 90 3000 20;
#X msg 657 157 stop;
#X obj 334 165 f;
#X obj 393 163 f;
#X obj 334 136 spigot;
#X obj 394 136 spigot;
#X obj 445 147 sel 1;
#X obj 165 248 volctl~ 0 5000;
#X obj 227 229 volctl~ 0 5000;
#X obj 305 317 volctl~ 0 5000;
#X obj 335 337 volctl~ 0 5000;
#X obj 365 81 inlet;
#X connect 0 0 21 3;
#X connect 1 0 0 0;
#X connect 2 0 21 2;
#X connect 3 0 2 0;
#X connect 4 0 21 4;
#X connect 5 0 25 0;
#X connect 5 0 23 1;
#X connect 5 1 26 0;
#X connect 5 1 24 1;
#X connect 5 2 4 0;
#X connect 5 3 21 5;
#X connect 5 4 14 0;
#X connect 6 0 21 0;
#X connect 6 0 28 0;
#X connect 7 0 21 1;
#X connect 7 0 29 0;
#X connect 11 0 20 0;
#X connect 11 1 13 0;
#X connect 11 1 22 0;
#X connect 12 0 13 0;
#X connect 14 0 10 0;
#X connect 14 0 11 0;
#X connect 14 0 26 1;
#X connect 14 0 25 1;
#X connect 14 0 27 0;
#X connect 14 0 30 1;
#X connect 14 0 31 1;
#X connect 15 0 19 0;
#X connect 16 0 17 0;
#X connect 16 1 17 1;
#X connect 17 0 15 0;
#X connect 18 0 3 0;
#X connect 18 0 16 0;
#X connect 19 0 28 1;
#X connect 19 0 29 1;
#X connect 20 0 12 0;
#X connect 21 0 30 0;
#X connect 21 2 31 0;
#X connect 22 0 20 0;
#X connect 23 0 18 0;
#X connect 24 0 1 0;
#X connect 25 0 23 0;
#X connect 26 0 24 0;
#X connect 27 0 24 0;
#X connect 27 0 23 0;
#X connect 28 0 8 0;
#X connect 29 0 9 0;
#X connect 30 0 8 0;
#X connect 31 0 9 0;
#X connect 32 0 5 0;
#X restore 166 169 pd reverb;
#X obj 162 32 inlet~;
#X obj 202 32 inlet~;
#X obj 217 208 == 0;
#X obj 151 273 +~;
#X obj 181 273 +~;
#X obj 148 314 outlet~;
#X obj 201 315 outlet~;
#X obj 267 178 init 1;
#X obj 131 77 sigmoid_booster~;
#X obj 397 -47 r OSC;
#X obj 397 -25 OSCroute /room;
#X obj 393 148 -;
#X obj 391 174 max 80;
#X obj 207 102 sigmoid_booster~;
#X obj 397 -4 OSCroute /distortion;
#X obj 268 48 t f f;
#X obj 392 98 * 1;
#X msg 393 124 96 \$1;
#X obj 391 65 - 96;
#X obj 398 20 + 60;
#X obj 180 234 volctl~ 1 5000;
#X obj 105 215 volctl~ 1 5000;
#X obj 282 -14 simple-osc-seq-4;
#X connect 0 0 4 1;
#X connect 0 1 5 1;
#X connect 0 2 3 0;
#X connect 1 0 9 0;
#X connect 2 0 14 0;
#X connect 3 0 21 1;
#X connect 3 0 22 1;
#X connect 4 0 6 0;
#X connect 5 0 7 0;
#X connect 8 0 21 1;
#X connect 8 0 22 1;
#X connect 9 0 0 0;
#X connect 9 0 22 0;
#X connect 10 0 11 0;
#X connect 11 0 15 0;
#X connect 11 0 23 0;
#X connect 11 0 0 2;
#X connect 12 0 13 0;
#X connect 13 0 9 2;
#X connect 13 0 14 2;
#X connect 14 0 0 1;
#X connect 14 0 21 0;
#X connect 15 0 20 0;
#X connect 16 0 9 1;
#X connect 16 0 14 1;
#X connect 16 1 19 0;
#X connect 17 0 18 0;
#X connect 18 0 12 0;
#X connect 19 0 17 0;
#X connect 20 0 16 0;
#X connect 21 0 5 0;
#X connect 22 0 4 0;
#X connect 23 0 15 0;
#X connect 23 0 0 2;
