#N canvas 0 15 589 693 10;
#N canvas 0 15 589 693 reverb 0;
#X obj 396 218 line;
#X msg 396 193 \$1 2000;
#X obj 345 239 line;
#X msg 340 216 \$1 2000;
#X obj 436 219 mtof;
#X obj 357 109 OSCroute /distance /liveness /xfreq /slope;
#X obj 224 137 inlet~;
#X obj 267 138 inlet~;
#X obj 292 390 outlet~;
#X obj 332 370 outlet~;
#X obj 556 247 outlet;
#X obj 618 155 sel 0;
#X obj 619 202 0;
#X obj 621 225 switch~;
#X obj 359 51 OSCroute /room;
#X obj 359 30 r OSC;
#X obj 615 134 OSCroute /onoff;
#X obj 185 177 * -1;
#X obj 182 131 t f f;
#X obj 182 159 *;
#X obj 344 196 * 0.01;
#X obj 188 203 + 1;
#X obj 305 317 volctl~ 0 5000;
#X obj 618 181 delay 5000;
#X obj 335 337 volctl~ 0 5000;
#X obj 309 286 _j/rev3~ 1 90 3000 20;
#X msg 657 157 stop;
#X obj 334 165 f;
#X obj 393 163 f;
#X obj 334 136 spigot;
#X obj 394 136 spigot;
#X obj 445 147 sel 1;
#X obj 165 248 volctl~ 0 5000;
#X obj 227 229 volctl~ 0 5000;
#X connect 0 0 25 3;
#X connect 1 0 0 0;
#X connect 2 0 25 2;
#X connect 3 0 2 0;
#X connect 4 0 25 4;
#X connect 5 0 29 0;
#X connect 5 0 27 1;
#X connect 5 1 30 0;
#X connect 5 1 28 1;
#X connect 5 2 4 0;
#X connect 5 3 25 5;
#X connect 5 4 16 0;
#X connect 6 0 25 0;
#X connect 6 0 32 0;
#X connect 7 0 25 1;
#X connect 7 0 33 0;
#X connect 11 0 23 0;
#X connect 11 1 13 0;
#X connect 11 1 26 0;
#X connect 12 0 13 0;
#X connect 14 0 5 0;
#X connect 15 0 14 0;
#X connect 16 0 10 0;
#X connect 16 0 11 0;
#X connect 16 0 22 1;
#X connect 16 0 24 1;
#X connect 16 0 30 1;
#X connect 16 0 29 1;
#X connect 16 0 31 0;
#X connect 17 0 21 0;
#X connect 18 0 19 0;
#X connect 18 1 19 1;
#X connect 19 0 17 0;
#X connect 20 0 3 0;
#X connect 20 0 18 0;
#X connect 21 0 32 1;
#X connect 21 0 33 1;
#X connect 22 0 8 0;
#X connect 23 0 12 0;
#X connect 24 0 9 0;
#X connect 25 0 22 0;
#X connect 25 2 24 0;
#X connect 26 0 23 0;
#X connect 27 0 20 0;
#X connect 28 0 1 0;
#X connect 29 0 27 0;
#X connect 30 0 28 0;
#X connect 31 0 28 0;
#X connect 31 0 27 0;
#X connect 32 0 8 0;
#X connect 33 0 9 0;
#X restore 162 81 pd reverb;
#X obj 162 32 inlet~;
#X obj 202 32 inlet~;
#X obj 213 120 == 0;
#X obj 147 185 +~;
#X obj 177 185 +~;
#X obj 148 214 outlet~;
#X obj 201 215 outlet~;
#X obj 176 147 volctl~ 1 5000;
#X obj 101 127 volctl~ 1 5000;
#X obj 263 90 init 1;
#X connect 0 0 4 1;
#X connect 0 1 5 1;
#X connect 0 2 3 0;
#X connect 1 0 0 0;
#X connect 1 0 9 0;
#X connect 2 0 0 1;
#X connect 2 0 8 0;
#X connect 3 0 8 1;
#X connect 3 0 9 1;
#X connect 4 0 6 0;
#X connect 5 0 7 0;
#X connect 8 0 5 0;
#X connect 9 0 4 0;
#X connect 10 0 8 1;
#X connect 10 0 9 1;
