#N canvas 0 15 589 693 10;
#X obj 26 29 inlet~;
#X obj 27 163 outlet~;
#X obj 77 -3 r OSC;
#X obj 77 54 OSCroute \$1;
#X obj 133 233 outlet;
#X obj 55 277 switch~;
#X obj 55 231 != 0;
#X obj 55 253 switchdelay 100;
#X obj 77 80 OSCroute \$2;
#X text 162 28 args - main machine \, send no \, label;
#X obj 77 22 OSCroute /routing;
#X obj 26 139 myvolctl~ 0 100;
#X obj 86 111 / 1000;
#X connect 0 0 11 0;
#X connect 2 0 10 0;
#X connect 3 0 8 0;
#X connect 6 0 7 0;
#X connect 7 0 5 0;
#X connect 8 0 12 0;
#X connect 10 0 3 0;
#X connect 11 0 1 0;
#X connect 12 0 4 0;
#X connect 12 0 6 0;
#X connect 12 0 11 1;
