#N canvas 164 151 629 393 10;
#X obj 243 130 myvolctl~ 0 100;
#X obj 169 54 inlet~;
#X obj 243 54 inlet~;
#X obj 182 182 outlet~;
#X obj 232 182 outlet~;
#X obj 170 95 routingcell \$1 \$2;
#X connect 0 0 4 0;
#X connect 1 0 5 0;
#X connect 2 0 0 0;
#X connect 5 0 3 0;
#X connect 5 1 0 1;
