#N canvas 0 15 712 716 10;
#N canvas 0 0 582 432 \$0-tables 0;
#X obj 100 240 table corvettestart.wav1 275126;
#X obj 100 270 table sergemodularloop.wav2 536574;
#X obj 100 300 table sparkling_mike_ger.wav3 687984;
#X obj 100 330 table 7725_NoiseCollector_bunnyprayerWrp.wav4 524402
;
#X obj 100 360 table 20345_acclivity_ManholeRemove1.wav5 229539;
#X obj 100 390 table airwrench2.wav6 388198;
#X obj 100 420 table fan_metal_intense.wav7 332313;
#X obj 100 450 table doors1.wav8 691201;
#X restore 386 198 pd \$0-tables;
#X text 45 264 the thought is to have this as a table loading center
\, so that every load message and every table is stored here. the msgfile
secures that no table is being loaded twice. one should be able to
load files either safe \, with readsf \, or unsafe \, with soundfiler
\, for fast preloading of files.;
#N canvas 0 0 470 320 tposition 0;
#X obj 97 7 inlet;
#X obj 141 149 + 1;
#X obj 144 216 s \$0-tposition;
#X obj 142 171 * 30;
#X obj 139 131 -1;
#X obj 225 16 inlet;
#X msg 175 102 -1;
#X connect 0 0 4 0;
#X connect 1 0 3 0;
#X connect 1 0 4 1;
#X connect 3 0 2 0;
#X connect 4 0 1 0;
#X connect 5 0 6 0;
#X connect 6 0 4 1;
#X restore 379 149 pd tposition;
#N canvas 0 15 712 716 safe 0;
#N canvas 191 0 546 396 safe1 0;
#X obj 176 52 symbol \$0-tables;
#X obj 181 71 makefilename pd-%s;
#X obj 89 209 readsf~;
#X msg 105 187 open \$1;
#X obj 14 203 t b b;
#X obj 89 242 tabwrite~;
#X msg 249 197 set \$1;
#X msg 49 203 1;
#X obj 152 -1 inlet;
#X obj 256 279 outlet;
#X obj 113 122 pack s f s f;
#X msg 113 139 \; \$3 obj 100 \$4 table \$1 \$2;
#X obj 215 120 r \$0-tposition;
#X msg 138 291 set \$1-dummy;
#X obj 142 270 \$0;
#X obj 15 161 t b s b;
#X obj 246 176 symbol;
#X obj 308 325 block~ 64 1 16;
#X obj 40 60 unpack s s f;
#X obj 15 184 delay 500;
#X obj 252 249 list;
#X obj 151 31 t l l b;
#X obj 316 268 s \$0-loaded;
#X connect 0 0 1 0;
#X connect 1 0 10 2;
#X connect 2 0 5 0;
#X connect 2 1 9 0;
#X connect 2 1 14 0;
#X connect 2 1 20 0;
#X connect 3 0 2 0;
#X connect 4 0 5 0;
#X connect 4 1 7 0;
#X connect 6 0 5 0;
#X connect 7 0 2 0;
#X connect 8 0 21 0;
#X connect 10 0 11 0;
#X connect 12 0 10 3;
#X connect 13 0 5 0;
#X connect 14 0 13 0;
#X connect 15 0 19 0;
#X connect 15 1 3 0;
#X connect 15 2 16 0;
#X connect 16 0 6 0;
#X connect 18 0 15 0;
#X connect 18 1 16 1;
#X connect 18 1 10 0;
#X connect 18 2 10 1;
#X connect 19 0 4 0;
#X connect 20 0 22 0;
#X connect 21 0 18 0;
#X connect 21 1 20 1;
#X connect 21 2 0 0;
#X restore 113 192 pd safe1;
#N canvas 0 0 470 320 spigot 0;
#X obj 125 18 inlet;
#X obj 125 64 spigot;
#X msg 200 55 1;
#X msg 177 85 0;
#X obj 198 35 inlet;
#X obj 125 138 outlet;
#X obj 125 85 t l b;
#X obj 126 37 t l l;
#X obj 218 110 spigot;
#X obj 244 85 == 0;
#X obj 219 140 outlet;
#X connect 0 0 7 0;
#X connect 1 0 6 0;
#X connect 2 0 1 1;
#X connect 2 0 9 0;
#X connect 3 0 1 1;
#X connect 3 0 9 0;
#X connect 4 0 2 0;
#X connect 6 0 5 0;
#X connect 6 1 3 0;
#X connect 7 0 1 0;
#X connect 7 1 8 0;
#X connect 8 0 10 0;
#X connect 9 0 8 1;
#X restore 113 173 pd spigot;
#X obj 113 115 t l b;
#X obj 138 133 s \$0-bang2tpos;
#X obj 91 -21 inlet;
#X obj 228 123 loadbang;
#N canvas 0 0 470 320 spigot 0;
#X obj 125 18 inlet;
#X obj 125 64 spigot;
#X msg 200 55 1;
#X msg 177 85 0;
#X obj 198 35 inlet;
#X obj 125 138 outlet;
#X obj 125 85 t l b;
#X obj 126 37 t l l;
#X obj 218 110 spigot;
#X obj 244 85 == 0;
#X obj 219 140 outlet;
#X connect 0 0 7 0;
#X connect 1 0 6 0;
#X connect 2 0 1 1;
#X connect 2 0 9 0;
#X connect 3 0 1 1;
#X connect 3 0 9 0;
#X connect 4 0 2 0;
#X connect 6 0 5 0;
#X connect 6 1 3 0;
#X connect 7 0 1 0;
#X connect 7 1 8 0;
#X connect 8 0 10 0;
#X connect 9 0 8 1;
#X restore 173 173 pd spigot;
#N canvas 0 0 470 320 spigot 0;
#X obj 125 18 inlet;
#X obj 125 64 spigot;
#X msg 200 55 1;
#X msg 177 85 0;
#X obj 198 35 inlet;
#X obj 125 138 outlet;
#X obj 125 85 t l b;
#X obj 126 37 t l l;
#X obj 218 110 spigot;
#X obj 244 85 == 0;
#X obj 219 140 outlet;
#X connect 0 0 7 0;
#X connect 1 0 6 0;
#X connect 2 0 1 1;
#X connect 2 0 9 0;
#X connect 3 0 1 1;
#X connect 3 0 9 0;
#X connect 4 0 2 0;
#X connect 6 0 5 0;
#X connect 6 1 3 0;
#X connect 7 0 1 0;
#X connect 7 1 8 0;
#X connect 8 0 10 0;
#X connect 9 0 8 1;
#X restore 233 173 pd spigot;
#N canvas 0 0 470 320 spigot 0;
#X obj 125 18 inlet;
#X obj 125 64 spigot;
#X msg 200 55 1;
#X msg 177 85 0;
#X obj 198 35 inlet;
#X obj 125 138 outlet;
#X obj 125 85 t l b;
#X obj 126 37 t l l;
#X obj 218 110 spigot;
#X obj 244 85 == 0;
#X obj 219 140 outlet;
#X connect 0 0 7 0;
#X connect 1 0 6 0;
#X connect 2 0 1 1;
#X connect 2 0 9 0;
#X connect 3 0 1 1;
#X connect 3 0 9 0;
#X connect 4 0 2 0;
#X connect 6 0 5 0;
#X connect 6 1 3 0;
#X connect 7 0 1 0;
#X connect 7 1 8 0;
#X connect 8 0 10 0;
#X connect 9 0 8 1;
#X restore 293 173 pd spigot;
#N canvas 191 0 546 396 safe1 0;
#X obj 176 52 symbol \$0-tables;
#X obj 181 71 makefilename pd-%s;
#X obj 89 209 readsf~;
#X msg 105 187 open \$1;
#X obj 14 203 t b b;
#X obj 89 242 tabwrite~;
#X msg 249 197 set \$1;
#X msg 49 203 1;
#X obj 152 -1 inlet;
#X obj 256 279 outlet;
#X obj 113 122 pack s f s f;
#X msg 113 139 \; \$3 obj 100 \$4 table \$1 \$2;
#X obj 215 120 r \$0-tposition;
#X msg 138 291 set \$1-dummy;
#X obj 142 270 \$0;
#X obj 15 161 t b s b;
#X obj 246 176 symbol;
#X obj 308 325 block~ 64 1 16;
#X obj 40 60 unpack s s f;
#X obj 15 184 delay 500;
#X obj 252 249 list;
#X obj 151 31 t l l b;
#X obj 316 268 s \$0-loaded;
#X connect 0 0 1 0;
#X connect 1 0 10 2;
#X connect 2 0 5 0;
#X connect 2 1 9 0;
#X connect 2 1 14 0;
#X connect 2 1 20 0;
#X connect 3 0 2 0;
#X connect 4 0 5 0;
#X connect 4 1 7 0;
#X connect 6 0 5 0;
#X connect 7 0 2 0;
#X connect 8 0 21 0;
#X connect 10 0 11 0;
#X connect 12 0 10 3;
#X connect 13 0 5 0;
#X connect 14 0 13 0;
#X connect 15 0 19 0;
#X connect 15 1 3 0;
#X connect 15 2 16 0;
#X connect 16 0 6 0;
#X connect 18 0 15 0;
#X connect 18 1 16 1;
#X connect 18 1 10 0;
#X connect 18 2 10 1;
#X connect 19 0 4 0;
#X connect 20 0 22 0;
#X connect 21 0 18 0;
#X connect 21 1 20 1;
#X connect 21 2 0 0;
#X restore 173 192 pd safe1;
#N canvas 191 0 546 396 safe1 0;
#X obj 176 52 symbol \$0-tables;
#X obj 181 71 makefilename pd-%s;
#X obj 89 209 readsf~;
#X msg 105 187 open \$1;
#X obj 14 203 t b b;
#X obj 89 242 tabwrite~;
#X msg 249 197 set \$1;
#X msg 49 203 1;
#X obj 152 -1 inlet;
#X obj 256 279 outlet;
#X obj 113 122 pack s f s f;
#X msg 113 139 \; \$3 obj 100 \$4 table \$1 \$2;
#X obj 215 120 r \$0-tposition;
#X msg 138 291 set \$1-dummy;
#X obj 142 270 \$0;
#X obj 15 161 t b s b;
#X obj 246 176 symbol;
#X obj 308 325 block~ 64 1 16;
#X obj 40 60 unpack s s f;
#X obj 15 184 delay 500;
#X obj 252 249 list;
#X obj 151 31 t l l b;
#X obj 316 268 s \$0-loaded;
#X connect 0 0 1 0;
#X connect 1 0 10 2;
#X connect 2 0 5 0;
#X connect 2 1 9 0;
#X connect 2 1 14 0;
#X connect 2 1 20 0;
#X connect 3 0 2 0;
#X connect 4 0 5 0;
#X connect 4 1 7 0;
#X connect 6 0 5 0;
#X connect 7 0 2 0;
#X connect 8 0 21 0;
#X connect 10 0 11 0;
#X connect 12 0 10 3;
#X connect 13 0 5 0;
#X connect 14 0 13 0;
#X connect 15 0 19 0;
#X connect 15 1 3 0;
#X connect 15 2 16 0;
#X connect 16 0 6 0;
#X connect 18 0 15 0;
#X connect 18 1 16 1;
#X connect 18 1 10 0;
#X connect 18 2 10 1;
#X connect 19 0 4 0;
#X connect 20 0 22 0;
#X connect 21 0 18 0;
#X connect 21 1 20 1;
#X connect 21 2 0 0;
#X restore 233 192 pd safe1;
#N canvas 191 0 546 396 safe1 0;
#X obj 176 52 symbol \$0-tables;
#X obj 181 71 makefilename pd-%s;
#X obj 89 209 readsf~;
#X msg 105 187 open \$1;
#X obj 14 203 t b b;
#X obj 89 242 tabwrite~;
#X msg 249 197 set \$1;
#X msg 49 203 1;
#X obj 152 -1 inlet;
#X obj 256 279 outlet;
#X obj 113 122 pack s f s f;
#X msg 113 139 \; \$3 obj 100 \$4 table \$1 \$2;
#X obj 215 120 r \$0-tposition;
#X msg 138 291 set \$1-dummy;
#X obj 142 270 \$0;
#X obj 15 161 t b s b;
#X obj 246 176 symbol;
#X obj 308 325 block~ 64 1 16;
#X obj 40 60 unpack s s f;
#X obj 15 184 delay 500;
#X obj 252 249 list;
#X obj 151 31 t l l b;
#X obj 316 268 s \$0-loaded;
#X connect 0 0 1 0;
#X connect 1 0 10 2;
#X connect 2 0 5 0;
#X connect 2 1 9 0;
#X connect 2 1 14 0;
#X connect 2 1 20 0;
#X connect 3 0 2 0;
#X connect 4 0 5 0;
#X connect 4 1 7 0;
#X connect 6 0 5 0;
#X connect 7 0 2 0;
#X connect 8 0 21 0;
#X connect 10 0 11 0;
#X connect 12 0 10 3;
#X connect 13 0 5 0;
#X connect 14 0 13 0;
#X connect 15 0 19 0;
#X connect 15 1 3 0;
#X connect 15 2 16 0;
#X connect 16 0 6 0;
#X connect 18 0 15 0;
#X connect 18 1 16 1;
#X connect 18 1 10 0;
#X connect 18 2 10 1;
#X connect 19 0 4 0;
#X connect 20 0 22 0;
#X connect 21 0 18 0;
#X connect 21 1 20 1;
#X connect 21 2 0 0;
#X restore 293 192 pd safe1;
#X obj 59 11 t l;
#X connect 0 0 1 1;
#X connect 1 0 0 0;
#X connect 1 1 6 0;
#X connect 2 0 1 0;
#X connect 2 1 3 0;
#X connect 4 0 12 0;
#X connect 4 0 2 0;
#X connect 5 0 1 1;
#X connect 5 0 6 1;
#X connect 5 0 7 1;
#X connect 5 0 8 1;
#X connect 6 0 9 0;
#X connect 6 1 7 0;
#X connect 7 0 10 0;
#X connect 7 1 8 0;
#X connect 8 0 11 0;
#X connect 9 0 6 1;
#X connect 10 0 7 1;
#X connect 11 0 8 1;
#X restore 199 208 pd safe;
#X obj 379 132 r \$0-bang2tpos;
#X text 377 164 just a cosmetic feature;
#X obj 330 19 bng 15 250 50 0 empty empty empty 0 -6 0 8 -262144 -1
-1;
#X obj 363 47 symbol \$0-tables;
#X obj 363 65 makefilename pd-%s;
#X msg 383 83 \; \$1 clear \;;
#X text 353 18 clear all;
#X obj 50 166 OSCroute /samples;
#X obj 49 145 r OSC;
#X obj 56 191 OSCroute /all /loaded;
#X text 45 324 Creation argument is a base directory \, which has one
or more subdirectories containing samples. These are recognized and
stored as a list of paths relative from the base dir. you load a sample
by sending a relative path as an OSC message to either /samples/load/unsafe
or ../safe. The arrays are named after their relative paths. upon reloading
the available samples \, or loading a new sample in memory \, an updated
list is sent to either /samples/all or /samples/loaded.;
#X text 43 430 a recommended abstraction is samplebank_ui \, which
neatly displays loadable soundfiles.;
#X obj 435 241 table \$0-dummy;
#X obj 188 -19 r BUFFER_LOAD;
#X msg 188 0 check \$1;
#X obj 51 90 s BUFFER_LOADED;
#X obj 134 70 t l l;
#X obj 69 -31 r \$0-loaded;
#X msg 48 -8 store \$1 \$2 \, check \$1;
#X obj 62 19 pyext larmext bufcheck;
#X obj 194 148 pyext larmext wavlength;
#X msg 195 51 read \$1 \$2;
#X connect 4 0 2 0;
#X connect 6 0 2 1;
#X connect 6 0 7 0;
#X connect 7 0 8 0;
#X connect 8 0 9 0;
#X connect 11 0 13 0;
#X connect 12 0 11 0;
#X connect 17 0 18 0;
#X connect 18 0 23 1;
#X connect 20 1 25 0;
#X connect 21 0 22 0;
#X connect 22 0 23 1;
#X connect 23 0 19 0;
#X connect 23 1 20 0;
#X connect 24 0 3 0;
#X connect 25 0 24 1;
