#N canvas 95 102 567 390 10;
#X obj 195 104 symbol;
#X obj 196 133 t s b;
#X obj 196 149 symbol;
#X obj 196 176 t s b;
#X obj 196 192 symbol;
#X obj 196 223 t s b;
#X obj 196 239 symbol;
#X obj 196 266 t s b;
#X obj 180 293 symbol;
#X obj 1 1 cnv 10 208 70 empty empty empty 20 12 0 14 -233017 -66577
0;
#X symbolatom 18 56 30 0 0 0 - - -;
#X symbolatom 18 43 30 0 0 0 - - -;
#X symbolatom 18 30 30 0 0 0 - - -;
#X symbolatom 18 17 30 0 0 0 - - -;
#X symbolatom 18 4 30 0 0 0 - - -;
#X obj 4 57 bng 12 250 50 0 empty empty empty 0 -6 0 8 -262144 -258699
-258699;
#X obj 4 44 bng 12 250 50 0 empty empty empty 0 -6 0 8 -262144 -258699
-258699;
#X obj 202 38 sendsymbol;
#X obj 4 31 bng 12 250 50 0 empty empty empty 0 -6 0 8 -262144 -258699
-258699;
#X obj 200 29 sendsymbol;
#X obj 4 18 bng 12 250 50 0 empty empty empty 0 -6 0 8 -262144 -258699
-258699;
#X obj 202 18 sendsymbol;
#X obj 4 5 bng 12 250 50 0 empty empty empty 0 -6 0 8 -262144 -258699
-258699;
#X obj 204 2 sendsymbol;
#X msg 277 179 range \$1 0;
#X obj 43 336 s treeview-basedir;
#X msg 42 315 symbol /home/johannes/samples/;
#X obj 243 198 int;
#X obj 252 90 change;
#X obj 278 200 outlet;
#X obj 243 169 inlet;
#X obj 304 47 route /samples/loaded/latest;
#X obj 306 66 symbol;
#X obj 316 141 max 0;
#X msg 359 152 \$1;
#X obj 307 118 segregate;
#X obj 295 158 change;
#X obj 307 96 coll;
#C restore;
#X msg 341 86 insert 0 \$1 \, length;
#X obj 201 55 sendsymbol;
#X obj 303 26 r UI;
#X connect 0 0 1 0;
#X connect 0 0 10 0;
#X connect 1 0 2 1;
#X connect 1 1 2 0;
#X connect 2 0 3 0;
#X connect 2 0 11 0;
#X connect 3 0 4 1;
#X connect 3 1 4 0;
#X connect 4 0 5 0;
#X connect 4 0 12 0;
#X connect 5 0 6 1;
#X connect 5 1 6 0;
#X connect 6 0 7 0;
#X connect 6 0 13 0;
#X connect 7 0 8 1;
#X connect 7 1 8 0;
#X connect 8 0 14 0;
#X connect 10 0 39 1;
#X connect 11 0 17 1;
#X connect 12 0 19 1;
#X connect 13 0 21 1;
#X connect 14 0 23 1;
#X connect 15 0 26 0;
#X connect 15 0 39 0;
#X connect 16 0 17 0;
#X connect 16 0 26 0;
#X connect 17 1 16 0;
#X connect 18 0 19 0;
#X connect 18 0 26 0;
#X connect 19 1 18 0;
#X connect 20 0 21 0;
#X connect 20 0 26 0;
#X connect 21 1 20 0;
#X connect 22 0 23 0;
#X connect 22 0 26 0;
#X connect 23 1 22 0;
#X connect 24 0 29 0;
#X connect 26 0 25 0;
#X connect 27 0 28 0;
#X connect 28 0 37 0;
#X connect 30 0 27 0;
#X connect 31 0 32 0;
#X connect 32 0 0 0;
#X connect 32 0 38 0;
#X connect 33 0 34 0;
#X connect 33 0 36 0;
#X connect 34 0 33 1;
#X connect 35 1 33 0;
#X connect 35 2 0 0;
#X connect 36 0 24 0;
#X connect 37 0 35 0;
#X connect 38 0 37 0;
#X connect 39 1 15 0;
#X connect 40 0 31 0;
#X coords 0 0 1 1 210 72 1 0 0;
