#N canvas 95 102 212 73 10;
#X obj 401 131 msgfile;
#X msg 294 117 goto \$1 \, this;
#X obj 294 99 abs;
#X obj 294 38 f;
#X obj 294 79 t f f;
#X msg 334 63 -1;
#X obj 294 59 - 1;
#X obj 196 104 symbol;
#X obj 197 133 t s b;
#X obj 197 149 symbol;
#X obj 197 176 t s b;
#X obj 197 192 symbol;
#X obj 197 223 t s b;
#X obj 197 239 symbol;
#X obj 197 266 t s b;
#X obj 181 293 symbol;
#X obj 2 1 cnv 10 208 70 empty empty empty 20 12 0 14 -233017 -66577
0;
#X symbolatom 19 56 30 0 0 0 - - -;
#X symbolatom 19 43 30 0 0 0 - - -;
#X symbolatom 19 30 30 0 0 0 - - -;
#X symbolatom 19 17 30 0 0 0 - - -;
#X symbolatom 19 4 30 0 0 0 - - -;
#X obj 5 57 bng 12 250 50 0 empty empty empty 0 -6 0 8 -261171 -1 -1
;
#X obj 22 157 sendsymbol;
#X obj 5 44 bng 12 250 50 0 empty empty empty 0 -6 0 8 -261171 -1 -1
;
#X obj 22 177 sendsymbol;
#X obj 5 31 bng 12 250 50 0 empty empty empty 0 -6 0 8 -261171 -1 -1
;
#X obj 22 197 sendsymbol;
#X obj 5 18 bng 12 250 50 0 empty empty empty 0 -6 0 8 -261171 -1 -1
;
#X obj 22 217 sendsymbol;
#X obj 5 5 bng 12 250 50 0 empty empty empty 0 -6 0 8 -261171 -1 -1
;
#X obj 22 237 sendsymbol;
#X obj 304 143 route bang;
#X msg 403 94 clear \, read /home/johannes/samples/samplelist \, end
\, skip -1 \, where;
#X msg 278 179 range \$1 0;
#X obj 44 336 s treeview-basedir;
#X msg 43 315 symbol /home/johannes/samples/;
#X obj 403 49 loadbang;
#X obj 244 198 int;
#X obj 255 49 change;
#X obj 279 200 outlet;
#X obj 244 169 inlet;
#X connect 0 0 7 0;
#X connect 0 1 5 0;
#X connect 0 1 32 0;
#X connect 1 0 0 0;
#X connect 2 0 1 0;
#X connect 3 0 6 0;
#X connect 4 0 2 0;
#X connect 4 1 3 1;
#X connect 5 0 3 1;
#X connect 6 0 4 0;
#X connect 7 0 8 0;
#X connect 7 0 17 0;
#X connect 8 0 9 1;
#X connect 8 1 9 0;
#X connect 9 0 10 0;
#X connect 9 0 18 0;
#X connect 10 0 11 1;
#X connect 10 1 11 0;
#X connect 11 0 12 0;
#X connect 11 0 19 0;
#X connect 12 0 13 1;
#X connect 12 1 13 0;
#X connect 13 0 14 0;
#X connect 13 0 20 0;
#X connect 14 0 15 1;
#X connect 14 1 15 0;
#X connect 15 0 21 0;
#X connect 17 0 23 1;
#X connect 18 0 25 1;
#X connect 19 0 27 1;
#X connect 20 0 29 1;
#X connect 21 0 31 1;
#X connect 22 0 23 0;
#X connect 22 0 36 0;
#X connect 24 0 25 0;
#X connect 24 0 36 0;
#X connect 26 0 27 0;
#X connect 26 0 36 0;
#X connect 28 0 29 0;
#X connect 28 0 36 0;
#X connect 30 0 31 0;
#X connect 30 0 36 0;
#X connect 32 1 34 0;
#X connect 33 0 0 0;
#X connect 34 0 40 0;
#X connect 36 0 35 0;
#X connect 37 0 33 0;
#X connect 38 0 39 0;
#X connect 39 0 3 0;
#X connect 41 0 38 0;
#X coords 0 0 1 1 210 72 1;
