#N canvas 0 15 610 716 10;
#X msg 536 106 bang;
#X msg 540 55 debug;
#X obj 288 453 delay;
#X obj 288 428 list split 1;
#X obj 288 504 list;
#X obj 288 533 print;
#X obj 288 476 t b b;
#X obj 288 399 msgfile;
#X obj 455 183;
#X obj 212 153 OSCroute /seq;
#X obj 212 198 route 1 2;
#X obj 212 174 OSCroute /1;
#X obj 287 285 spigot;
#X msg 392 274;
#X obj 320 196 1;
#X obj 288 376 prepent append;
#X obj 210 270 f;
#X text 177 271 play;
#X obj 320 236 f;
#X text 344 236 rec;
#X msg 400 277;
#X obj 263 234 0;
#X obj 211 299 t f f;
#X obj 372 457 spigot;
#X obj 288 331 timer;
#X obj 320 262 t f b;
#X obj 287 307 t b b a;
#X obj 289 353 prepent;
#X msg 216 89 2;
#X obj 95 121;
#X msg 189 114 1;
#X msg 225 116 0;
#X msg 277 80 /foo/john 22;
#X msg 287 110 /foo/john 243;
#X obj 235 235 0;
#X obj 208 235 1;
#X msg 239 429 stop;
#X obj 211 387 sel 1 0;
#X msg 211 408 rewind \, bang;
#X connect 2 0 6 0;
#X connect 2 0 23 0;
#X connect 3 0 2 0;
#X connect 3 1 4 1;
#X connect 3 2 23 0;
#X connect 4 0 5 0;
#X connect 6 0 4 0;
#X connect 7 0 3 0;
#X connect 9 0 11 0;
#X connect 9 1 12 0;
#X connect 10 0 21 0;
#X connect 10 0 35 0;
#X connect 10 1 14 0;
#X connect 10 1 34 0;
#X connect 10 2 18 0;
#X connect 10 2 16 0;
#X connect 11 0 10 0;
#X connect 12 0 26 0;
#X connect 14 0 18 0;
#X connect 15 0 7 0;
#X connect 16 0 22 0;
#X connect 18 0 25 0;
#X connect 21 0 18 0;
#X connect 22 0 37 0;
#X connect 22 1 23 1;
#X connect 23 0 3 0;
#X connect 24 0 27 0;
#X connect 25 0 12 1;
#X connect 25 1 24 0;
#X connect 26 0 24 0;
#X connect 26 1 24 1;
#X connect 26 2 27 1;
#X connect 27 0 15 0;
#X connect 28 0 10 0;
#X connect 30 0 10 0;
#X connect 31 0 10 0;
#X connect 32 0 12 0;
#X connect 33 0 12 0;
#X connect 34 0 16 0;
#X connect 35 0 16 0;
#X connect 36 0 2 0;
#X connect 37 0 38 0;
#X connect 37 1 36 0;
#X connect 38 0 3 0;
