#N canvas 0 15 734 636 10;
#X obj 114 109 phasor~;
#X obj 114 134 *~;
#X obj 96 376 outlet~;
#X obj 226 163 *~;
#X obj 431 36 inlet buf;
#X msg 16 335 set \$1;
#X obj 96 258 volctl~ 0 2;
#X obj 186 258 volctl~ 0 2;
#X obj 17 53 t l l;
#X obj 44 75 length;
#X obj 44 98 == 2;
#X obj 134 183 *~;
#X obj 313 383 outlet~;
#X obj 43 284 f;
#X obj 313 349 volctl~ 0 2;
#X obj 200 351 volctl~ 0 2;
#X obj 43 309 == 0;
#X text 57 538 Takes buffer as first argument \; Single buffer -> dual
mono \, list of two buffers makes it stereo.;
#X obj 17 124 list split 1;
#X obj 26 154 route bang;
#X msg 39 176 set \$1;
#X obj 202 129 t f f f;
#X obj 202 -38 inlet trig;
#X obj 321 -7 inlet phase;
#X obj 114 32 inlet~ pitch;
#X obj 370 262 outlet~;
#X obj 231 -15 inlet size;
#X obj 409 140 table \$0-r1 100000;
#X obj 200 227 tabread4~ \$0-r1;
#X obj 408 170 table \$0-l1 100000;
#X obj 95 227 tabread4~ \$0-l1;
#X obj 250 77 t b;
#X msg 250 96 0;
#X obj 310 92 *;
#X obj 309 68 t b a;
#X obj 15 428 pack f f s f;
#X obj 84 407 \$0;
#X obj 15 387 t a b;
#X msg 15 451 read -skip \$1 nframes 100000 \$3 table \$4-r1 \$4-l1
;
#X connect 0 0 1 0;
#X connect 0 0 3 0;
#X connect 1 0 11 0;
#X connect 1 0 30 0;
#X connect 3 0 25 0;
#X connect 4 0 8 0;
#X connect 6 0 2 0;
#X connect 6 0 15 0;
#X connect 7 0 14 0;
#X connect 8 0 18 0;
#X connect 8 1 9 0;
#X connect 9 0 10 0;
#X connect 10 0 11 1;
#X connect 10 0 13 0;
#X connect 11 0 28 0;
#X connect 13 0 14 1;
#X connect 13 0 16 0;
#X connect 14 0 12 0;
#X connect 15 0 12 0;
#X connect 16 0 15 1;
#X connect 18 0 5 0;
#X connect 18 0 35 2;
#X connect 18 1 19 0;
#X connect 19 1 20 0;
#X connect 20 0 28 0;
#X connect 21 0 6 1;
#X connect 21 1 7 1;
#X connect 21 2 3 1;
#X connect 22 0 21 0;
#X connect 23 0 31 0;
#X connect 23 0 34 0;
#X connect 24 0 0 0;
#X connect 26 0 1 1;
#X connect 26 0 33 0;
#X connect 28 0 7 0;
#X connect 30 0 6 0;
#X connect 31 0 32 0;
#X connect 32 0 0 1;
#X connect 33 0 37 0;
#X connect 34 0 33 0;
#X connect 34 1 33 1;
#X connect 35 0 38 0;
#X connect 36 0 35 3;
#X connect 37 0 35 0;
#X connect 37 1 36 0;
