#N canvas 0 0 450 300 10;
#X obj 34 23 tgl 20 0 empty \$0-cnv empty 0 -6 0 8 -258699 -258699
-258699 0 1;
#X obj 137 123 volctl~;
#X obj 155 43 inlet~;
#X obj 136 143 outlet~;
#X obj 187 123 volctl~;
#X obj 223 67 inlet~;
#X obj 186 143 outlet~;
#X msg 56 126 color \$1 \$1 \$1;
#X obj 57 37 cnv 17 18 18 empty \$0-cnv empty 20 12 0 14 -258699 -258699
0;
#X obj 58 150 s \$0-cnv;
#X obj 55 82 sel 0 1;
#X msg 55 103 13;
#X msg 79 102 16;
#X connect 0 0 1 1;
#X connect 0 0 4 1;
#X connect 0 0 10 0;
#X connect 1 0 3 0;
#X connect 2 0 1 0;
#X connect 4 0 6 0;
#X connect 5 0 4 0;
#X connect 7 0 9 0;
#X connect 10 0 11 0;
#X connect 10 1 12 0;
#X connect 11 0 7 0;
#X connect 12 0 7 0;
#X coords 0 0 1 1 22 22 1;
