#N canvas 0 15 661 716 10;
#X obj 288 513 delay;
#X obj 288 458 list split 1;
#X obj 314 562 list;
#X obj 269 535 t b b;
#X obj 209 149 OSCroute /seq;
#X obj 209 194 route 1 2;
#X obj 287 285 spigot;
#X obj 315 163 1;
#X obj 210 270 f;
#X text 177 271 play;
#X obj 318 207 f;
#X text 342 207 rec;
#X obj 263 234 0;
#X obj 210 355 t f f;
#X obj 374 405 spigot;
#X obj 288 331 timer;
#X obj 235 235 0;
#X obj 208 235 1;
#X msg 239 429 stop;
#X obj 211 387 sel 1 0;
#X msg 211 408 rewind \, bang;
#X obj 289 353 list append;
#X obj 427 293 sel 1;
#X msg 427 331 clear;
#X obj 288 376 prepent add;
#X obj 288 399 textfile;
#X msg 374 429 rewind \, bang;
#X obj 211 305 spigot;
#X obj 287 307 t b b a b;
#X obj 256 305 1;
#X obj 212 112 inlet;
#X obj 314 617 outlet;
#X obj 209 170 OSCroute \$1;
#X obj 209 216 t b b;
#X obj 318 233 t f f f;
#X obj 337 284 sel 1 0;
#X obj 355 307 t b b;
#X obj 314 586 route bang;
#X msg 426 369 print;
#X obj 337 260 spigot;
#X obj 401 254 sel 0;
#X obj 401 306 0;
#X connect 0 0 3 0;
#X connect 1 0 0 0;
#X connect 1 1 2 1;
#X connect 2 0 37 0;
#X connect 3 0 25 0;
#X connect 3 1 2 0;
#X connect 4 0 32 0;
#X connect 4 1 6 0;
#X connect 5 0 33 0;
#X connect 5 1 7 0;
#X connect 5 1 16 0;
#X connect 5 2 10 0;
#X connect 5 2 8 0;
#X connect 6 0 28 0;
#X connect 7 0 10 0;
#X connect 8 0 27 0;
#X connect 10 0 34 0;
#X connect 12 0 10 0;
#X connect 13 0 19 0;
#X connect 13 1 14 1;
#X connect 14 0 26 0;
#X connect 15 0 21 0;
#X connect 16 0 8 0;
#X connect 16 0 27 1;
#X connect 17 0 8 0;
#X connect 18 0 0 0;
#X connect 19 0 20 0;
#X connect 19 1 18 0;
#X connect 20 0 25 0;
#X connect 21 0 24 0;
#X connect 22 0 23 0;
#X connect 23 0 25 0;
#X connect 24 0 25 0;
#X connect 25 0 1 0;
#X connect 25 1 14 0;
#X connect 26 0 25 0;
#X connect 27 0 13 0;
#X connect 28 0 15 0;
#X connect 28 1 15 1;
#X connect 28 2 21 1;
#X connect 28 3 29 0;
#X connect 29 0 27 1;
#X connect 30 0 4 0;
#X connect 32 0 5 0;
#X connect 33 0 17 0;
#X connect 33 1 12 0;
#X connect 34 0 6 1;
#X connect 34 1 39 0;
#X connect 34 2 22 0;
#X connect 34 2 40 0;
#X connect 35 0 15 0;
#X connect 35 1 36 0;
#X connect 36 0 15 1;
#X connect 36 1 21 1;
#X connect 36 1 41 0;
#X connect 37 1 31 0;
#X connect 38 0 25 0;
#X connect 39 0 35 0;
#X connect 40 1 39 1;
#X connect 41 0 39 1;
