#N canvas 0 15 610 716 10;
#X obj 87 35 inlet OSC;
#X obj 95 203 outlet;
#X obj 86 78 simple-osc-seq /n0;
#X obj 106 98 simple-osc-seq /n1;
#X obj 126 118 simple-osc-seq /n2;
#X obj 146 138 simple-osc-seq /n3;
#X connect 0 0 2 0;
#X connect 0 0 3 0;
#X connect 0 0 4 0;
#X connect 0 0 5 0;
#X connect 2 0 1 0;
#X connect 3 0 1 0;
#X connect 4 0 1 0;
#X connect 5 0 1 0;
