#N canvas 89 0 935 642 10;
#X obj 245 103 unpack f f;
#X obj 118 87 phasor~;
#X obj 252 258 delay 1000;
#X obj 120 155 *~;
#X obj 263 54 route trig settings;
#X text 484 58 length \, window \, volume \, offset \, pan;
#X msg 387 28 global arraylength 65530;
#X obj -1 202 f;
#X obj 115 527 *~;
#X obj 178 342 vline~;
#X msg 212 303 0 \, 512 \$1 \, 0 0 \$1;
#X obj 213 275 f;
#X obj 351 566 throw~ \$1-grain-R;
#X obj 259 595 throw~ \$1-grain-L;
#X obj 253 31 r \$1-grain;
#X obj 245 81 route \$2;
#X obj 3 222 / 1;
#X obj 28 201 t b f;
#X obj 10 39 / 48;
#X obj 33 94 /;
#X msg 20 68 1000 \$1;
#X obj 169 92 / 100;
#X msg 323 7 settings 1 grainlength 300;
#X obj 369 87 route global;
#X obj 448 91 route \$2;
#X obj 477 415 * -1;
#X obj 474 434 + 1;
#X obj 502 463 f;
#X obj 93 3 f;
#X obj 117 61 *~;
#X obj 117 21 sig~;
#X obj 372 114 route grainlength ampenv ampl array pan;
#X obj 171 12 r~ \$1-pitch;
#X obj 117 42 *~;
#X obj 129 372 tabread4~ \$1-cos;
#X obj 130 108 tabread4~ \$1-flat;
#X obj 130 130 *~;
#X obj 174 195 sig~;
#X obj -25 172 route arraylength pitch pitchenv pitchenvamt;
#X obj 179 130 +~ 1;
#X msg 332 168 1;
#X msg 332 258 0;
#X obj 367 252 switch~;
#X obj 115 248 tabread4~;
#X obj 577 260 mtof;
#X obj 577 219 + 17;
#X obj 577 240 * 1.1;
#X obj 343 414 f;
#X text 209 415 bpq;
#X obj 115 395 bpq2~ 1000 0 10;
#X obj 246 126 t b b f b b b;
#X msg 261 193 stop;
#X obj 260 548 volctl~ 0 10;
#X obj 353 540 volctl~ 0 10;
#X obj 577 170 route bpfq bpq ringamt ringfq;
#X obj 697 260 mtof;
#X obj 630 221 / 100;
#X obj 114 453 volctl~;
#X obj 151 492 + 1;
#X obj 151 473 * -1;
#X obj 190 461 volctl~;
#X obj 190 435 *~;
#X obj 258 450 osc~;
#X obj 293 453 sig~;
#X floatatom 716 201 5 0 0 0 - - -;
#X floatatom 712 284 5 0 0 0 - - -;
#X obj 697 219 - 32;
#X obj 697 240 * 1.5;
#X obj 555 572 vd~ \$0-delay;
#X obj 556 605 volctl~ 0 10;
#X obj 555 527 route delaytime delayamt delayfb;
#X obj 680 551 / 100;
#X obj 617 549 / 100;
#X obj 554 549 sig~;
#X obj 470 510 volctl~ 0 10;
#X obj 95 623 delwrite~ \$0-delay 500;
#X obj 95 564 *~;
#X obj 341 214 myprepend set;
#X obj 100 193 myprepend set;
#X obj 129 318 myprepend set;
#X connect 0 1 50 0;
#X connect 1 0 3 0;
#X connect 2 0 41 0;
#X connect 3 0 43 0;
#X connect 4 0 15 0;
#X connect 4 1 23 0;
#X connect 6 0 23 0;
#X connect 7 0 16 0;
#X connect 7 0 3 1;
#X connect 8 0 52 0;
#X connect 8 0 53 0;
#X connect 9 0 34 0;
#X connect 9 0 35 0;
#X connect 10 0 9 0;
#X connect 11 0 10 0;
#X connect 14 0 4 0;
#X connect 15 0 0 0;
#X connect 16 0 18 0;
#X connect 17 0 7 0;
#X connect 17 1 16 1;
#X connect 18 0 20 0;
#X connect 19 0 28 0;
#X connect 20 0 19 0;
#X connect 21 0 1 1;
#X connect 22 0 4 0;
#X connect 23 0 31 0;
#X connect 23 1 24 0;
#X connect 24 0 31 0;
#X connect 25 0 26 0;
#X connect 26 0 52 1;
#X connect 27 0 53 1;
#X connect 28 0 30 0;
#X connect 29 0 1 0;
#X connect 30 0 33 0;
#X connect 31 0 2 1;
#X connect 31 0 11 1;
#X connect 31 1 79 0;
#X connect 31 3 77 0;
#X connect 31 4 25 0;
#X connect 31 4 27 0;
#X connect 31 5 38 0;
#X connect 31 5 54 0;
#X connect 32 0 33 1;
#X connect 33 0 29 0;
#X connect 34 0 8 1;
#X connect 34 0 76 1;
#X connect 35 0 36 0;
#X connect 36 0 39 0;
#X connect 37 0 36 1;
#X connect 38 0 7 0;
#X connect 38 1 17 0;
#X connect 38 2 78 0;
#X connect 38 3 37 0;
#X connect 39 0 29 1;
#X connect 40 0 42 0;
#X connect 41 0 42 0;
#X connect 43 0 49 0;
#X connect 44 0 47 1;
#X connect 45 0 46 0;
#X connect 46 0 44 0;
#X connect 47 0 49 1;
#X connect 49 0 57 0;
#X connect 49 0 61 0;
#X connect 50 0 2 0;
#X connect 50 1 11 0;
#X connect 50 2 21 0;
#X connect 50 3 47 0;
#X connect 50 4 40 0;
#X connect 50 5 51 0;
#X connect 51 0 2 0;
#X connect 52 0 13 0;
#X connect 53 0 12 0;
#X connect 54 0 45 0;
#X connect 54 1 49 2;
#X connect 54 2 56 0;
#X connect 54 3 66 0;
#X connect 54 4 70 0;
#X connect 55 0 63 0;
#X connect 55 0 65 0;
#X connect 56 0 59 0;
#X connect 56 0 60 1;
#X connect 57 0 8 0;
#X connect 57 0 76 0;
#X connect 58 0 57 1;
#X connect 59 0 58 0;
#X connect 60 0 8 0;
#X connect 61 0 60 0;
#X connect 62 0 61 1;
#X connect 63 0 62 0;
#X connect 64 0 66 0;
#X connect 66 0 67 0;
#X connect 67 0 55 0;
#X connect 68 0 69 0;
#X connect 68 0 74 0;
#X connect 69 0 75 0;
#X connect 70 0 73 0;
#X connect 70 1 72 0;
#X connect 70 2 71 0;
#X connect 71 0 69 1;
#X connect 72 0 74 1;
#X connect 73 0 68 0;
#X connect 74 0 8 0;
#X connect 76 0 75 0;
#X connect 77 0 43 0;
#X connect 78 0 35 0;
#X connect 79 0 34 0;
