#N canvas 0 15 610 716 10;
#X obj 143 51 inlet;
#X obj 224 42 loadbang;
#X obj 143 87 /;
#X msg 143 112 1 \$1;
#X obj 143 139 /;
#X obj 143 162 outlet;
#X obj 263 93 inlet;
#X obj 224 63 samplerate~;
#X connect 0 0 2 0;
#X connect 1 0 7 0;
#X connect 2 0 3 0;
#X connect 3 0 4 0;
#X connect 4 0 5 0;
#X connect 6 0 2 1;
#X connect 7 0 2 1;
