#N canvas 0 15 610 716 10;
#X obj 230 62 inlet;
#X obj 230 124 symbol;
#X obj 104 274 list;
#X obj 208 241 t b l b;
#X obj 104 325 outlet;
#X obj 25 220 route \$1;
#X obj 25 117 route found find;
#X obj 89 152 route \$1;
#X obj 89 214 list trim;
#X obj 406 73 inlet;
#X obj 227 307 s MEMORYsabnmf78934coo;
#X obj 25 14 r MEMORYsabnmf78934coo;
#X obj 279 163 symbol \$1;
#X obj 229 147 t s b;
#X obj 230 190 pack s s;
#X msg 226 278 find \$1 \$2;
#X obj 89 173 list prepend found \$1;
#X obj 25 139 list;
#X obj 89 194 list \$2;
#X msg 25 166 \$2 \$1 \$3;
#X obj 230 92 route symbol float;
#X text 99 378 A key/value global memory kind of thing: all instances
connected \, symbol in inlet->search key \, output key/value if found
\, otherwise bang. Set value w/ float in first inlet \, set key w/
symbol in second inlet.;
#X obj 376 153 print svalue;
#X obj 374 111 list prepend No method for;
#X obj 376 131 list trim;
#X connect 0 0 20 0;
#X connect 1 0 13 0;
#X connect 2 0 4 0;
#X connect 3 0 2 0;
#X connect 3 1 15 0;
#X connect 3 2 2 1;
#X connect 5 0 2 1;
#X connect 6 0 17 0;
#X connect 6 1 7 0;
#X connect 7 0 16 0;
#X connect 8 0 10 0;
#X connect 9 0 12 0;
#X connect 11 0 6 0;
#X connect 12 0 14 1;
#X connect 13 0 14 0;
#X connect 13 1 12 0;
#X connect 14 0 3 0;
#X connect 15 0 10 0;
#X connect 16 0 18 0;
#X connect 17 0 19 0;
#X connect 18 0 8 0;
#X connect 19 0 5 0;
#X connect 20 0 1 0;
#X connect 20 1 18 1;
#X connect 20 2 23 0;
#X connect 23 0 24 0;
#X connect 24 0 22 0;
