#N canvas 0 0 450 300 10;
#X obj 193 60 inlet;
#X msg 193 120 set \$1;
#X obj 254 193 outlet;
#X obj 201 143 sel 1;
#X obj 250 107 f;
#X obj 136 118 inlet;
#X obj 137 90 outlet;
#X obj 194 81 > 0;
#X obj 227 163 t b f f;
#X obj 248 85 spigot 1;
#X msg 227 185 1;
#X obj 193 100 change;
#X connect 0 0 7 0;
#X connect 0 0 9 0;
#X connect 1 0 6 0;
#X connect 3 0 4 0;
#X connect 3 1 8 0;
#X connect 4 0 2 0;
#X connect 5 0 3 0;
#X connect 7 0 11 0;
#X connect 8 0 10 0;
#X connect 8 1 2 0;
#X connect 8 2 9 1;
#X connect 9 0 4 1;
#X connect 10 0 9 1;
#X connect 11 0 1 0;
#X coords 0 0 1 1 10 10 0;
