#N canvas 281 84 684 529 10;
#X obj 232 191 rick2-backend 240000 /foo;
#X msg 343 108 /rick/foo onoff 1;
#X obj 236 136 adc~ 3;
#X msg 375 449;
#X obj 425 318 metro 100;
#X obj 425 342 f;
#X obj 454 343 + 1;
#X obj 481 343 mod 10;
#X obj 428 382 t a b a a;
#X obj 402 298 bng 15 250 50 0 empty empty empty 0 -6 0 10 -262144
-1 -1;
#X msg 528 368 0 1 2 3 4 5 6 7 8;
#X obj 370 366 bng 15 250 50 0 empty empty empty 0 -6 0 10 -262144
-1 -1;
#X floatatom 386 384 5 0 0 0 - - -;
#X obj 467 446 list-fifo;
#X obj 467 423 t b f;
#X obj 467 469 route bang;
#X obj 467 491 f;
#X obj 525 494 >;
#X obj 238 477 list-replace;
#X obj 296 348 t a a;
#X obj 323 328 list split 1;
#X msg 340 287;
#X obj 39 230 timer;
#X obj 313 406 print;
#X obj 40 125 bng 15 250 50 0 empty empty empty 0 -6 0 10 -262144 -1
-1;
#X obj 105 231 timer;
#X obj 132 190 bng 15 250 50 0 empty empty empty 0 -6 0 10 -262144
-1 -1;
#X obj 41 262 t f b f;
#X obj 222 271 sel 0;
#X msg 243 427;
#X obj 223 291 1000;
#X obj 215 467 print;
#X obj 15 290 t f b;
#X obj 25 342 bng 15 250 50 0 empty empty empty 0 -6 0 10 -262144 -1
-1;
#X obj 262 467 print;
#X obj 308 459;
#X floatatom 13 323 5 0 0 0 - - -;
#X floatatom 237 345 5 0 0 0 - - -;
#X obj 73 154 metro 500;
#X obj 35 191 metro 5000;
#X obj 118 291 list-drip;
#X obj 118 312 moses;
#X obj 119 336 moses;
#X obj 119 361 list prepend;
#X obj 359 259 list-map;
#X obj 206 361 t a;
#X obj 73 386 list prepend;
#X obj 156 386 t a;
#X obj 69 290 list;
#X obj 80 414 list;
#X obj 82 444 list;
#X connect 2 0 0 0;
#X connect 4 0 5 0;
#X connect 5 0 6 0;
#X connect 5 0 8 0;
#X connect 6 0 7 0;
#X connect 7 0 5 1;
#X connect 9 0 4 0;
#X connect 12 0 8 0;
#X connect 13 0 15 0;
#X connect 14 0 13 0;
#X connect 14 1 16 1;
#X connect 15 0 16 0;
#X connect 16 0 13 1;
#X connect 22 0 27 0;
#X connect 24 0 38 0;
#X connect 24 0 39 0;
#X connect 25 0 46 0;
#X connect 26 0 25 1;
#X connect 27 0 32 0;
#X connect 27 1 48 0;
#X connect 27 2 28 0;
#X connect 28 0 30 0;
#X connect 28 1 37 0;
#X connect 30 0 37 0;
#X connect 30 0 41 1;
#X connect 32 0 36 0;
#X connect 32 0 42 1;
#X connect 38 0 22 1;
#X connect 39 0 22 0;
#X connect 39 0 25 0;
#X connect 40 0 41 0;
#X connect 40 1 49 0;
#X connect 41 1 42 0;
#X connect 42 0 43 0;
#X connect 43 0 45 0;
#X connect 43 0 50 1;
#X connect 45 0 43 1;
#X connect 46 0 47 0;
#X connect 46 0 49 1;
#X connect 47 0 46 1;
#X connect 48 0 40 0;
#X connect 49 0 50 0;
