#N canvas 0 15 610 716 10;
#X obj 128 201 print;
#X obj 23 38 print;
#X obj 25 14 r MEMORYsabnmf78934coo;
#X msg 118 111 ssgsg;
#X msg 276 178;
#X obj 280 228 value f;
#X floatatom 278 210 5 0 0 0 - - -;
#X obj 318 206 bng 15 250 50 0 empty empty empty 0 -6 0 10 -262144
-1 -1;
#X obj 280 258 print;
#X obj 391 287 value fs;
#X msg 392 243 symbol sssdf;
#X obj 118 138 svalue foo 22;
#X floatatom 182 107 5 0 0 0 - - -;
#X msg 278 125 symbol foo;
#X obj 278 152 svalue goo;
#X connect 3 0 11 0;
#X connect 5 0 8 0;
#X connect 7 0 5 0;
#X connect 10 0 9 0;
#X connect 11 0 0 0;
#X connect 12 0 11 0;
#X connect 13 0 14 0;
#X connect 14 0 0 0;
