#N canvas 0 15 589 693 10;
#X obj 170 199 pyext larmext wavememory;
#X msg 305 165 add /foo 4444;
#X msg 170 165 reload;
#X msg 236 143 print;
#X msg 321 127 get /foo;
#X obj 173 228 print;
#X connect 0 0 5 0;
#X connect 1 0 0 1;
#X connect 2 0 0 0;
#X connect 3 0 0 1;
#X connect 4 0 0 1;
