#N canvas 0 0 450 300 10;
#X obj 214 50 t b s;
#X obj 213 145 mergefilename;
#X obj 210 99 pack s s;
#X obj 207 116 route list;
#X obj 211 72 symbol;
#X obj 257 71 r treeview-basedir;
#X obj 216 28 inlet;
#X obj 215 169 outlet;
#X text 102 197 converts tree path to full system path;
#X connect 0 0 4 0;
#X connect 0 1 2 1;
#X connect 1 0 7 0;
#X connect 2 0 3 0;
#X connect 3 0 1 0;
#X connect 4 0 2 0;
#X connect 5 0 4 1;
#X connect 6 0 0 0;
