#N canvas 0 15 815 716 10;
#X obj 264 340 sel 1;
#X obj 233 340 f;
#X obj 233 364 spigot;
#X obj 233 237 inlet vol;
#X obj 337 291 inlet switch;
#X obj 233 266 01toquartic;
#X obj 120 363 inlet~;
#X obj 119 427 volctl~ 0 10;
#X obj 119 464 outlet~;
#X obj 40 363 inlet~;
#X obj 39 427 volctl~ 0 10;
#X obj 39 464 outlet~;
#X obj 232 403 pack f f;
#X obj 233 288 t f b;
#X obj 260 312 \$1;
#X obj 337 313 t f f b;
#X obj 375 357 \$2;
#X text 230 208 volume with onoff switch. Args: fade interpolation
time \, switch interpolation time;
#X connect 0 0 1 0;
#X connect 0 1 12 0;
#X connect 1 0 2 0;
#X connect 2 0 12 0;
#X connect 3 0 5 0;
#X connect 4 0 15 0;
#X connect 5 0 13 0;
#X connect 6 0 7 0;
#X connect 7 0 8 0;
#X connect 9 0 10 0;
#X connect 10 0 11 0;
#X connect 12 0 10 1;
#X connect 12 0 7 1;
#X connect 13 0 1 0;
#X connect 13 1 14 0;
#X connect 14 0 12 1;
#X connect 15 0 0 0;
#X connect 15 1 2 1;
#X connect 15 2 16 0;
#X connect 16 0 12 1;
