#N canvas 0 0 514 364 10;
#X obj 52 229 sendOSC;
#X msg 22 55 connect localhost 9001;
#X obj 197 90 i;
#X obj 226 90 + 1;
#X obj 197 49 tgl 15 0 empty empty empty 0 -6 0 8 -262144 -1 -1 0 1
;
#X obj 197 69 metro 250;
#X obj 22 31 loadbang;
#X obj 274 318 print;
#X msg 242 118 [ \, send /test \$1 \, ];
#X obj 178 145 t b f b;
#X msg 178 165 ];
#X msg 215 165 [;
#X obj 322 234 dumpOSC 9000;
#X msg 52 144 send /test \$1;
#X text 241 164 bundles;
#X text 321 218 receive;
#X text 74 162 normal msgs;
#X obj 322 264 OSCroute /blah /bloh;
#X obj 371 297 OSCroute /humm /hey;
#X text 231 146 opens and appends then closes and sendns;
#X msg 195 194 send /test \$1;
#X floatatom 53 121 5 0 0 0 - - -;
#X connect 1 0 0 0;
#X connect 2 0 3 0;
#X connect 3 0 2 1;
#X connect 3 0 8 0;
#X connect 3 0 9 0;
#X connect 4 0 5 0;
#X connect 5 0 2 0;
#X connect 6 0 1 0;
#X connect 9 0 10 0;
#X connect 9 1 20 0;
#X connect 9 2 11 0;
#X connect 10 0 0 0;
#X connect 11 0 0 0;
#X connect 12 0 7 0;
#X connect 12 0 17 0;
#X connect 13 0 0 0;
#X connect 17 2 18 0;
#X connect 20 0 0 0;
#X connect 21 0 13 0;
