#N canvas 105 15 682 395 10;
#N canvas 230 168 628 457 compute 0;
#X obj 516 -29 import iem_t3_lib;
#X obj 92 13 change;
#X obj 91 639 outlet~;
#X obj 141 639 outlet~;
#X obj 92 -10 OSCroute /transp /transpdev;
#X obj 93 -45 r \$1-OSC;
#X obj 439 29 inlet new;
#X obj 87 375 +~;
#X obj 87 401 vd~ \$1-k;
#X text 251 473 aus abstraction winfader;
#X obj 738 409 1;
#X obj 154 469 tabread~ \$1-window;
#X obj 688 579 switch~ 64;
#X obj 404 417 OSCroute /vol /voldev /pan /pandev;
#X obj 89 587 *~;
#X obj 141 573 *~;
#X obj 240 180 OSCroute /size /sizedev;
#X obj 398 249 OSCroute /delay /delaydev;
#X obj 404 442 / 100;
#X obj 404 466 01toquartic;
#X obj 524 464 / 100;
#X obj 688 433 0;
#X text 182 421 tabsize * 2;
#X obj 87 485 *~;
#X obj 86 343 *~;
#N canvas 0 0 467 525 semitones2hz 0;
#X obj 116 189 outlet;
#X obj 118 112 exp;
#X obj 118 135 - 1;
#X obj 118 86 * 0.05776;
#X obj 118 161 * -1;
#X text 226 213 stolen from G09.pitchshift;
#X obj 118 59 inlet semitones;
#X connect 1 0 2 0;
#X connect 2 0 4 0;
#X connect 3 0 1 0;
#X connect 4 0 0 0;
#X connect 6 0 3 0;
#X restore 92 33 pd semitones2hz;
#X obj 688 410 delay;
#X obj 85 276 *~ 2;
#X obj 87 509 *~;
#X obj 85 241 phasor~;
#X obj 88 538 *~;
#X obj 154 449 *~ 511;
#N canvas 614 15 385 36 parmaskinka 0;
#X obj 107 46 inlet param;
#X obj 197 -3 inlet deviation;
#X obj 107 79 t f b f;
#X obj 31 6 inlet change;
#X obj 105 117 f;
#X obj 299 23 inlet quantize;
#N canvas 0 15 589 695 random 0;
#X obj 132 54 random 1e+06;
#N canvas 0 0 467 525 semitones2hz 0;
#X obj 116 189 outlet;
#X obj 118 112 exp;
#X obj 118 135 - 1;
#X obj 118 86 * 0.05776;
#X obj 118 161 * -1;
#X text 226 213 stolen from G09.pitchshift;
#X obj 118 59 inlet semitones;
#X connect 1 0 2 0;
#X connect 2 0 4 0;
#X connect 3 0 1 0;
#X connect 4 0 0 0;
#X connect 6 0 3 0;
#X restore 183 341 pd semitones2hz;
#X obj 132 2 inlet;
#X obj 133 75 * 1e-06;
#X obj 179 273 *;
#X obj 214 20 inlet;
#X obj 133 184 int;
#X obj 186 366 outlet;
#X obj 237 110 inlet;
#X obj 235 131 sel 0;
#X obj 232 192 1e+06;
#X obj 133 131 * 1e+06;
#X obj 134 203 / 1e+06;
#X obj 130 28 t b b;
#X obj 316 208 random 2;
#X obj 316 229 sel 0;
#X obj 316 250 -1;
#X obj 179 298 *;
#X floatatom 315 158 5 0 0 0 - - -;
#X obj 133 157 + 0.5;
#X connect 0 0 3 0;
#X connect 1 0 7 0;
#X connect 2 0 13 0;
#X connect 3 0 11 0;
#X connect 4 0 17 0;
#X connect 5 0 4 1;
#X connect 6 0 12 0;
#X connect 8 0 9 0;
#X connect 9 0 10 0;
#X connect 9 1 11 1;
#X connect 9 1 12 1;
#X connect 10 0 11 1;
#X connect 10 0 12 1;
#X connect 11 0 19 0;
#X connect 12 0 4 0;
#X connect 13 0 0 0;
#X connect 13 1 14 0;
#X connect 14 0 15 0;
#X connect 15 0 16 0;
#X connect 15 1 17 1;
#X connect 16 0 17 1;
#X connect 17 0 1 0;
#X connect 19 0 6 0;
#X restore 192 60 pd random;
#X obj 37 31 t f b b;
#X obj 106 181 +;
#X obj 87 211 pack f f;
#X obj 74 280 outlet;
#X connect 0 0 2 0;
#X connect 1 0 6 1;
#X connect 2 0 4 1;
#X connect 3 0 7 0;
#X connect 4 0 8 0;
#X connect 5 0 6 2;
#X connect 6 0 8 1;
#X connect 7 0 9 0;
#X connect 7 1 4 0;
#X connect 7 2 6 0;
#X connect 8 0 9 1;
#X connect 9 0 10 0;
#X restore 109 114 pd parmaskinka;
#X obj 85 136 unpack f f;
#X msg 145 156 1000 \$1;
#X obj 134 177 /;
#X obj 134 196 * 0.5;
#X obj 85 202 pack;
#X obj 85 221 t3_sig~;
#X obj 232 342 max;
#X obj 141 231 unpack;
#X obj 178 273 < 0;
#X obj 178 253 t f f;
#X obj 179 292 * -1;
#X obj 179 314 *;
#X obj 231 321 *;
#X obj 141 359 pack;
#X obj 141 380 t3_sig~;
#X msg 247 291 \$2;
#X obj 91 168 t l l;
#X obj 320 508 t3_sig~;
#N canvas 0 0 450 300 nop~ 0;
#X obj 163 16 inlet~;
#X obj 163 241 outlet~;
#X connect 0 0 1 0;
#X restore 87 424 pd nop~;
#X obj 447 568 unpack;
#X obj 476 587 * -1;
#X obj 477 606 + 1;
#X obj 440 637 t3_sig~;
#X obj 440 617 pack;
#X obj 375 572 t3_sig~;
#X obj 277 393 t3_delay;
#X msg 277 417 \$1 0;
#X obj 277 527 t3_sig~;
#X msg 300 160 0;
#X msg 317 362 stop;
#X obj 432 61 t f f f f f b b b;
#X obj 398 300 unpack;
#X obj 447 547 t l l;
#X msg 299 449 \$1 1;
#X obj 235 224 paramrandom2.2~;
#X obj 398 277 paramrandom2.2~;
#X obj 526 501 paramrandom2.2~;
#X obj 401 502 paramrandom2.2~;
#X obj 319 -34 r OSC;
#X obj 319 -15 OSCroute /pitch;
#X text 387 0 (global);
#X obj 131 86 *;
#X obj 137 55 t b f;
#X text 45 374 delay;
#X text 42 313 pitch;
#X msg 266 270 \$2;
#X obj 103 321 t3_line~;
#X obj 239 202 t f f;
#X obj 228 247 t l l l l b;
#X obj 300 276 f;
#X obj 189 56 OSCroute /transpdevq /gliss;
#N canvas 0 15 589 695 pitc 0;
#X obj 92 29 inlet;
#X obj 89 73 unpack;
#X obj 119 110 *;
#X obj 199 37 inlet;
#X obj 83 299 outlet;
#X obj 270 38 inlet;
#X obj 87 144 pack f f f f;
#X msg 87 174 \$1 \$4 0 \, \$1 \$2 \$3;
#X obj 199 60 t f f f;
#X obj 210 109 *;
#X msg 171 204 \$1 \$2 0;
#X obj 255 246 spigot 1;
#X obj 79 248 spigot;
#X obj 306 220 == 0;
#X obj 289 187 t f f;
#X obj 335 38 inlet gliss;
#X connect 0 0 1 0;
#X connect 1 0 6 0;
#X connect 1 1 2 0;
#X connect 2 0 6 1;
#X connect 3 0 8 0;
#X connect 5 0 9 1;
#X connect 6 0 7 0;
#X connect 6 0 10 0;
#X connect 7 0 12 0;
#X connect 8 0 2 1;
#X connect 8 1 6 2;
#X connect 8 2 9 0;
#X connect 9 0 6 3;
#X connect 10 0 11 0;
#X connect 11 0 4 0;
#X connect 12 0 4 0;
#X connect 13 0 11 1;
#X connect 14 0 12 1;
#X connect 14 1 13 0;
#X connect 15 0 14 0;
#X restore 104 302 pd pitc;
#X connect 1 0 25 0;
#X connect 4 0 1 0;
#X connect 4 1 32 2;
#X connect 4 2 16 0;
#X connect 4 2 83 0;
#X connect 5 0 4 0;
#X connect 6 0 63 0;
#X connect 7 0 8 0;
#X connect 8 0 51 0;
#X connect 10 0 12 0;
#X connect 11 0 28 1;
#X connect 13 0 18 0;
#X connect 13 1 70 1;
#X connect 13 2 20 0;
#X connect 13 3 69 1;
#X connect 14 0 2 0;
#X connect 15 0 3 0;
#X connect 16 0 80 0;
#X connect 16 1 67 1;
#X connect 16 2 17 0;
#X connect 17 0 68 0;
#X connect 17 1 68 1;
#X connect 17 2 13 0;
#X connect 18 0 19 0;
#X connect 19 0 70 0;
#X connect 20 0 69 0;
#X connect 21 0 12 0;
#X connect 23 0 28 0;
#X connect 24 0 7 0;
#X connect 25 0 74 0;
#X connect 26 0 21 0;
#X connect 27 0 24 0;
#X connect 27 0 31 0;
#X connect 28 0 30 0;
#X connect 29 0 27 0;
#X connect 30 0 14 0;
#X connect 30 0 15 0;
#X connect 31 0 11 0;
#X connect 32 0 49 0;
#X connect 33 0 37 0;
#X connect 33 1 34 0;
#X connect 34 0 35 0;
#X connect 35 0 36 0;
#X connect 36 0 37 1;
#X connect 37 0 38 0;
#X connect 38 0 29 0;
#X connect 39 0 46 1;
#X connect 40 0 46 0;
#X connect 40 1 42 0;
#X connect 41 0 43 0;
#X connect 42 0 41 0;
#X connect 42 1 44 1;
#X connect 43 0 44 0;
#X connect 44 0 45 0;
#X connect 45 0 39 0;
#X connect 46 0 47 0;
#X connect 47 0 7 1;
#X connect 48 0 45 1;
#X connect 49 0 84 0;
#X connect 49 1 40 0;
#X connect 50 0 23 1;
#X connect 51 0 23 0;
#X connect 52 0 56 0;
#X connect 52 1 53 0;
#X connect 53 0 54 0;
#X connect 54 0 56 1;
#X connect 55 0 14 1;
#X connect 56 0 55 0;
#X connect 57 0 15 1;
#X connect 58 0 59 0;
#X connect 58 0 26 0;
#X connect 59 0 60 0;
#X connect 60 0 30 1;
#X connect 61 0 29 1;
#X connect 62 0 58 0;
#X connect 63 0 32 0;
#X connect 63 1 67 2;
#X connect 63 2 68 2;
#X connect 63 3 70 2;
#X connect 63 4 66 0;
#X connect 63 4 69 2;
#X connect 63 5 61 0;
#X connect 63 6 10 0;
#X connect 63 7 62 0;
#X connect 64 1 39 1;
#X connect 65 0 52 0;
#X connect 65 1 57 0;
#X connect 66 0 60 0;
#X connect 67 0 81 0;
#X connect 68 0 64 0;
#X connect 69 0 65 0;
#X connect 70 0 50 0;
#X connect 71 0 72 0;
#X connect 72 0 75 0;
#X connect 74 0 32 1;
#X connect 74 0 82 1;
#X connect 75 0 74 0;
#X connect 75 1 74 1;
#X connect 78 0 84 1;
#X connect 79 0 24 1;
#X connect 80 0 67 0;
#X connect 81 0 33 0;
#X connect 81 1 48 0;
#X connect 81 2 78 0;
#X connect 81 3 58 0;
#X connect 81 4 82 0;
#X connect 82 0 84 2;
#X connect 83 0 32 3;
#X connect 83 1 84 3;
#X connect 84 0 79 0;
#X restore 245 172 pd compute;
#X obj 243 76 r \$1-trig;
#X text 310 75 t3_timetag + id;
#X obj 243 100 unpack f f;
#X obj 244 149 spigot;
#X obj 299 124 == \$2;
#X obj 242 232 outlet~;
#X obj 307 257 outlet~;
#X connect 0 0 6 0;
#X connect 0 1 7 0;
#X connect 1 0 3 0;
#X connect 3 0 4 0;
#X connect 3 1 5 0;
#X connect 4 0 0 0;
#X connect 5 0 4 1;
