#N canvas 68 79 860 544 10;
#X msg 87 363 symbol array1;
#X text 260 65 CHANGE;
#X obj 1 1 cnv 12 300 110 empty empty empty 20 12 0 14 -233017 -66577
0;
#X obj 37 4 nbx 4 12 0 4 0 0 empty empty speed -27 6 1 9 -262144 -1
-1 1 256;
#N canvas 0 0 450 300 tap 0;
#X obj 31 97 t b b;
#X obj 31 118 timer;
#X obj 31 138 moses 2000;
#X obj 31 158 *;
#X obj 31 74 inlet;
#X obj 114 70 inlet division;
#X msg 32 204 1000 \$1;
#X obj 31 271 outlet;
#X obj 32 224 /;
#X obj 32 181 moses 1;
#X obj 139 244 /;
#X obj 149 211 sl2hz;
#X floatatom 185 247 5 0 0 0 - - -;
#X obj 150 185 arraysize;
#X msg 150 165 set \$1 \, bang;
#X obj 149 144 inlet;
#X connect 0 0 1 0;
#X connect 0 1 1 1;
#X connect 1 0 2 0;
#X connect 2 0 3 0;
#X connect 3 0 9 0;
#X connect 4 0 0 0;
#X connect 5 0 3 1;
#X connect 6 0 8 0;
#X connect 8 0 10 0;
#X connect 9 1 6 0;
#X connect 10 0 7 0;
#X connect 11 0 10 1;
#X connect 11 0 12 0;
#X connect 13 0 11 0;
#X connect 14 0 13 0;
#X connect 15 0 14 0;
#X restore 24 157 pd tap;
#X obj 76 4 bng 12 250 50 0 empty empty empty 0 -6 0 8 -260818 -258699
-258699;
#X obj 13 340 s OSC;
#X obj 13 321 OSCprepend /gloop;
#X msg 20 238 /beat \$1;
#X msg 20 219 /speed \$1;
#X obj 54 17 nbx 4 12 0 64 0 0 empty empty div -15 6 1 9 -262144 -1
-1 0 256;
#X msg 20 254 /array \$1;
#X msg 20 200 /position \$1;
#X msg 20 181 /chunks \$1;
#X obj 54 56 nbx 4 12 0 200 0 0 empty empty chunks -32 6 1 9 -262144
-1 -1 32 256;
#X obj 53 33 vradio 10 1 0 2 empty empty empty 0 -6 0 8 -262144 -1
-1 0;
#X obj 65 43 cnv 12 33 12 empty empty stretch 0 6 1 9 -233017 -66577
0;
#X obj 65 31 cnv 12 33 12 empty empty pitch 0 6 1 9 -233017 -66577
0;
#X msg 16 269 /playtype \$1;
#X obj 9 409 OSCroute /gloop;
#X obj 9 429 OSCroute /ui;
#X obj 10 468 OSCroute /beatbang;
#X obj 9 45 bng 15 250 50 0 empty empty empty 0 -6 0 8 -260818 -258699
-258699;
#X obj 12 364 sendsymbol;
#X obj 22 69 cnv 12 74 12 empty empty empty 20 12 0 14 -262144 -66577
0;
#X symbolatom 22 68 12 0 0 0 - - -;
#X obj 8 68 bng 12 250 50 0 empty empty empty 0 -6 0 8 -262144 -258699
-258699;
#X msg 16 283 /play \$1;
#X obj 9 27 tgl 15 0 empty empty play 0 -6 1 8 -24198 -1 -1 0 1;
#X obj 13 301 OSCprepend /no1;
#X obj 10 448 OSCroute /no1;
#X obj 135 4 nbx 4 12 0 4 0 0 empty empty speed -27 6 1 9 -262144 -1
-1 1 256;
#N canvas 0 0 450 300 tap 0;
#X obj 31 97 t b b;
#X obj 31 118 timer;
#X obj 31 138 moses 2000;
#X obj 31 158 *;
#X obj 31 74 inlet;
#X obj 114 70 inlet division;
#X msg 32 204 1000 \$1;
#X obj 31 271 outlet;
#X obj 32 224 /;
#X obj 32 181 moses 1;
#X obj 139 244 /;
#X obj 149 211 sl2hz;
#X floatatom 185 247 5 0 0 0 - - -;
#X obj 150 185 arraysize;
#X msg 150 165 set \$1 \, bang;
#X obj 149 144 inlet;
#X connect 0 0 1 0;
#X connect 0 1 1 1;
#X connect 1 0 2 0;
#X connect 2 0 3 0;
#X connect 3 0 9 0;
#X connect 4 0 0 0;
#X connect 5 0 3 1;
#X connect 6 0 8 0;
#X connect 8 0 10 0;
#X connect 9 1 6 0;
#X connect 10 0 7 0;
#X connect 11 0 10 1;
#X connect 11 0 12 0;
#X connect 13 0 11 0;
#X connect 14 0 13 0;
#X connect 15 0 14 0;
#X restore 144 162 pd tap;
#X obj 175 4 bng 12 250 50 0 empty empty empty 0 -6 0 8 -260818 -258699
-258699;
#X obj 133 340 s OSC;
#X obj 133 321 OSCprepend /gloop;
#X msg 140 238 /beat \$1;
#X msg 140 219 /speed \$1;
#X obj 152 17 nbx 4 12 0 64 0 0 empty empty div -15 6 1 9 -262144 -1
-1 0 256;
#X msg 140 254 /array \$1;
#X msg 140 200 /position \$1;
#X msg 140 181 /chunks \$1;
#X obj 152 55 nbx 4 12 0 200 0 0 empty empty chunks -32 6 1 9 -262144
-1 -1 32 256;
#X obj 151 32 vradio 10 1 0 2 empty empty empty 0 -6 0 8 -262144 -1
-1 0;
#X obj 163 42 cnv 12 33 12 empty empty stretch 0 6 1 9 -233017 -66577
0;
#X obj 163 30 cnv 12 33 12 empty empty pitch 0 6 1 9 -233017 -66577
0;
#X msg 136 269 /playtype \$1;
#X obj 129 409 OSCroute /gloop;
#X obj 129 429 OSCroute /ui;
#X obj 130 468 OSCroute /beatbang;
#X obj 107 45 bng 15 250 50 0 empty empty empty 0 -6 0 8 -260818 -258699
-258699;
#X obj 132 364 sendsymbol;
#X obj 120 69 cnv 12 74 12 empty empty empty 20 12 0 14 -262144 -66577
0;
#X symbolatom 120 68 12 0 0 0 - - -;
#X obj 106 69 bng 12 250 50 0 empty empty empty 0 -6 0 8 -262144 -258699
-258699;
#X msg 136 283 /play \$1;
#X obj 107 27 tgl 15 0 empty empty play 0 -6 1 8 -24198 -1 -1 0 1;
#X obj 128 41 tgl 10 0 empty empty slav 0 -6 1 8 -241291 -1 -1 0 1
;
#X obj 130 448 OSCroute /no2;
#X msg 187 156 /slave \$1;
#X obj 133 301 OSCprepend /no2;
#X obj 233 4 nbx 4 12 0 4 0 0 empty empty speed -27 6 1 9 -262144 -1
-1 1 256;
#N canvas 0 0 450 300 tap 0;
#X obj 31 97 t b b;
#X obj 31 118 timer;
#X obj 31 138 moses 2000;
#X obj 31 158 *;
#X obj 31 74 inlet;
#X obj 114 70 inlet division;
#X msg 32 204 1000 \$1;
#X obj 31 271 outlet;
#X obj 32 224 /;
#X obj 32 181 moses 1;
#X obj 139 244 /;
#X obj 149 211 sl2hz;
#X floatatom 185 247 5 0 0 0 - - -;
#X obj 150 185 arraysize;
#X msg 150 165 set \$1 \, bang;
#X obj 149 144 inlet;
#X connect 0 0 1 0;
#X connect 0 1 1 1;
#X connect 1 0 2 0;
#X connect 2 0 3 0;
#X connect 3 0 9 0;
#X connect 4 0 0 0;
#X connect 5 0 3 1;
#X connect 6 0 8 0;
#X connect 8 0 10 0;
#X connect 9 1 6 0;
#X connect 10 0 7 0;
#X connect 11 0 10 1;
#X connect 11 0 12 0;
#X connect 13 0 11 0;
#X connect 14 0 13 0;
#X connect 15 0 14 0;
#X restore 294 157 pd tap;
#X obj 275 4 bng 12 250 50 0 empty empty empty 0 -6 0 8 -260818 -258699
-258699;
#X obj 283 340 s OSC;
#X obj 283 321 OSCprepend /gloop;
#X msg 290 238 /beat \$1;
#X msg 290 219 /speed \$1;
#X obj 252 17 nbx 4 12 0 64 0 0 empty empty div -15 6 1 9 -262144 -1
-1 0 256;
#X msg 290 254 /array \$1;
#X msg 290 200 /position \$1;
#X msg 290 181 /chunks \$1;
#X obj 252 55 nbx 4 12 0 200 0 0 empty empty chunks -32 6 1 9 -262144
-1 -1 32 256;
#X obj 251 32 vradio 10 1 0 2 empty empty empty 0 -6 0 8 -262144 -1
-1 0;
#X obj 263 42 cnv 12 33 12 empty empty stretch 0 6 1 9 -233017 -66577
0;
#X obj 263 30 cnv 12 33 12 empty empty pitch 0 6 1 9 -233017 -66577
0;
#X msg 286 269 /playtype \$1;
#X obj 279 409 OSCroute /gloop;
#X obj 279 429 OSCroute /ui;
#X obj 280 468 OSCroute /beatbang;
#X obj 207 45 bng 15 250 50 0 empty empty empty 0 -6 0 8 -260818 -258699
-258699;
#X obj 282 364 sendsymbol;
#X obj 220 69 cnv 12 74 12 empty empty empty 20 12 0 14 -262144 -66577
0;
#X symbolatom 220 68 12 0 0 0 - - -;
#X obj 206 69 bng 12 250 50 0 empty empty empty 0 -6 0 8 -262144 -258699
-258699;
#X msg 286 283 /play \$1;
#X obj 207 27 tgl 15 0 empty empty play 0 -6 1 8 -24198 -1 -1 0 1;
#X obj 228 41 tgl 10 0 empty empty slav 0 -6 1 8 -241291 -1 -1 0 1
;
#X msg 337 156 /slave \$1;
#X obj 283 301 OSCprepend /no3;
#X obj 280 448 OSCroute /no3;
#X obj 62 97 nbx 4 12 0 100 0 0 empty empty vl -8 6 1 9 -262144 -1
-1 0 256;
#X obj 15 97 nbx 4 12 0 100 0 0 empty empty pn -9 6 1 9 -262144 -1
-1 50 256;
#X msg 64 139 /vol \$1;
#X msg 62 120 /pan \$1;
#X obj 161 98 nbx 4 12 0 100 0 0 empty empty vl -8 6 1 9 -262144 -1
-1 0 256;
#X obj 114 98 nbx 4 12 0 100 0 0 empty empty pn -9 6 1 9 -262144 -1
-1 50 256;
#X msg 177 146 /vol \$1;
#X msg 169 121 /pan \$1;
#X obj 258 98 nbx 4 12 0 100 0 0 empty empty vl -8 6 1 9 -262144 -1
-1 0 256;
#X obj 211 98 nbx 4 12 0 100 0 0 empty empty pn -9 6 1 9 -262144 -1
-1 50 256;
#X msg 260 139 /vol \$1;
#X msg 258 120 /pan \$1;
#X obj 62 83 nbx 4 12 0 100 0 0 empty empty lpf -9 6 1 9 -262144 -1
-1 100 256;
#X obj 15 83 nbx 4 12 0 100 0 0 empty empty ds -9 6 1 9 -262144 -1
-1 0 256;
#X msg 72 150 /dist \$1;
#X msg 83 165 /lop \$1;
#X obj 160 83 nbx 4 12 0 100 0 0 empty empty lpf -9 6 1 9 -262144 -1
-1 100 256;
#X obj 113 83 nbx 4 12 0 100 0 0 empty empty ds -9 6 1 9 -262144 -1
-1 0 256;
#X msg 213 206 /dist \$1;
#X msg 214 226 /lop \$1;
#X obj 258 83 nbx 4 12 0 100 0 0 empty empty lpf -9 6 1 9 -262144 -1
-1 100 256;
#X obj 211 83 nbx 4 12 0 100 0 0 empty empty ds -9 6 1 9 -262144 -1
-1 0 256;
#X msg 370 175 /dist \$1;
#X msg 374 199 /lop \$1;
#X obj 9 390 r UI;
#X obj 129 390 r UI;
#X obj 279 390 r UI;
#X obj 406 10 loadbang;
#X obj 407 33 delay 2000;
#X obj 320 7 1;
#X obj 313 48 32;
#X obj 331 85 100;
#X obj 326 111 50;
#X connect 0 0 11 0;
#X connect 0 0 39 0;
#X connect 3 0 9 0;
#X connect 4 0 3 0;
#X connect 5 0 4 0;
#X connect 7 0 6 0;
#X connect 8 0 29 0;
#X connect 9 0 29 0;
#X connect 10 0 8 0;
#X connect 10 0 4 1;
#X connect 11 0 29 0;
#X connect 12 0 29 0;
#X connect 13 0 29 0;
#X connect 14 0 13 0;
#X connect 15 0 18 0;
#X connect 18 0 29 0;
#X connect 19 0 20 0;
#X connect 20 0 30 0;
#X connect 21 0 22 0;
#X connect 23 0 25 0;
#X connect 23 1 26 0;
#X connect 25 0 23 1;
#X connect 25 0 4 2;
#X connect 25 0 11 0;
#X connect 26 0 23 0;
#X connect 27 0 29 0;
#X connect 28 0 27 0;
#X connect 29 0 7 0;
#X connect 30 0 21 0;
#X connect 31 0 37 0;
#X connect 32 0 31 0;
#X connect 33 0 32 0;
#X connect 35 0 34 0;
#X connect 36 0 60 0;
#X connect 37 0 60 0;
#X connect 38 0 36 0;
#X connect 38 0 32 1;
#X connect 39 0 60 0;
#X connect 40 0 60 0;
#X connect 41 0 60 0;
#X connect 42 0 41 0;
#X connect 43 0 46 0;
#X connect 46 0 60 0;
#X connect 47 0 48 0;
#X connect 48 0 58 0;
#X connect 49 0 50 0;
#X connect 51 0 53 0;
#X connect 51 1 54 0;
#X connect 53 0 51 1;
#X connect 53 0 32 2;
#X connect 53 0 39 0;
#X connect 54 0 51 0;
#X connect 55 0 60 0;
#X connect 56 0 55 0;
#X connect 57 0 59 0;
#X connect 58 0 49 0;
#X connect 59 0 60 0;
#X connect 60 0 35 0;
#X connect 61 0 67 0;
#X connect 62 0 61 0;
#X connect 63 0 62 0;
#X connect 65 0 64 0;
#X connect 66 0 89 0;
#X connect 67 0 89 0;
#X connect 68 0 66 0;
#X connect 68 0 62 1;
#X connect 69 0 89 0;
#X connect 70 0 89 0;
#X connect 71 0 89 0;
#X connect 72 0 71 0;
#X connect 73 0 76 0;
#X connect 76 0 89 0;
#X connect 77 0 78 0;
#X connect 78 0 90 0;
#X connect 79 0 80 0;
#X connect 81 0 83 0;
#X connect 81 1 84 0;
#X connect 83 0 81 1;
#X connect 83 0 62 2;
#X connect 83 0 69 0;
#X connect 84 0 81 0;
#X connect 85 0 89 0;
#X connect 86 0 85 0;
#X connect 87 0 88 0;
#X connect 88 0 89 0;
#X connect 89 0 65 0;
#X connect 90 0 79 0;
#X connect 91 0 93 0;
#X connect 92 0 94 0;
#X connect 93 0 29 0;
#X connect 94 0 29 0;
#X connect 95 0 97 0;
#X connect 96 0 98 0;
#X connect 97 0 60 0;
#X connect 98 0 60 0;
#X connect 99 0 101 0;
#X connect 100 0 102 0;
#X connect 101 0 89 0;
#X connect 102 0 89 0;
#X connect 103 0 106 0;
#X connect 104 0 105 0;
#X connect 105 0 29 0;
#X connect 106 0 29 0;
#X connect 107 0 110 0;
#X connect 108 0 109 0;
#X connect 109 0 60 0;
#X connect 110 0 60 0;
#X connect 111 0 114 0;
#X connect 112 0 113 0;
#X connect 113 0 89 0;
#X connect 114 0 89 0;
#X connect 115 0 19 0;
#X connect 116 0 47 0;
#X connect 117 0 77 0;
#X connect 118 0 119 0;
#X connect 119 0 120 0;
#X connect 119 0 121 0;
#X connect 119 0 122 0;
#X connect 119 0 123 0;
#X connect 120 0 3 0;
#X connect 120 0 61 0;
#X connect 120 0 31 0;
#X connect 121 0 14 0;
#X connect 121 0 42 0;
#X connect 121 0 72 0;
#X connect 122 0 111 0;
#X connect 122 0 107 0;
#X connect 122 0 103 0;
#X connect 123 0 100 0;
#X connect 123 0 96 0;
#X connect 123 0 92 0;
#X coords 0 -1 1 1 302 112 1 0 0;
