#N canvas 120 3 661 607 10;
#X obj 1 1 cnv 15 250 292 empty \$0-samplecnv moo 10 44 1 10 -233017
-1 0;
#X obj 398 351 loadbang;
#X obj 363 422 s \$0-poscnv;
#X msg 360 400 vis_size \$1 1;
#X obj 362 373 int;
#X msg 405 374 0;
#X msg 195 384 \$1;
#X obj 82 453 fcommun /ratedev \$0;
#X obj 82 493 fcommun /stretchdev \$0;
#X obj 82 533 fcommun /offset \$0;
#X obj 216 448 fcommun /pitchdev \$0;
#X obj 216 488 fcommun /lenlink \$0;
#X obj 216 508 fcommun /lendev \$0;
#X obj 211 550 fcommun /envtype \$0;
#X obj 216 568 fcommun /envamt \$0;
#X obj 216 528 fcommun /pandev \$0;
#X obj 59 591 fcommun /lfoamt \$0;
#X obj 82 433 fcommun /rate \$0 100;
#X obj 82 473 fcommun /stretch \$0 100;
#X obj 216 428 fcommun /pitch \$0 100;
#X obj 216 468 fcommun /len \$0 220;
#X obj 216 408 fcommun /startposdev \$0;
#X obj 93 78 tgl 15 0 empty empty bwd 0 -5 0 8 -62784 -262144 -1 0
1;
#X obj 15 78 bng 15 250 50 0 empty empty start 0 -5 0 8 -24198 -1 -1
;
#X obj 56 78 bng 15 250 50 0 empty empty stop 0 -5 0 8 -258699 -1 -1
;
#X obj 83 173 nbx 4 12 1 400 0 0 empty empty stretch -38 7 0 8 -233017
-1 -258699 100 256;
#X obj 83 188 nbx 4 12 0 400 0 0 empty empty stretchrand -62 7 0 8
-233017 -1 -258699 0 256;
#X obj 83 140 nbx 4 12 1 5000 0 0 empty empty rate -20 7 0 8 -233017
-1 -258699 100 256;
#X obj 83 155 nbx 4 12 0 100 0 0 empty empty raterand -44 7 0 8 -233017
-1 -258699 0 256;
#X obj 83 206 nbx 4 12 0 100 0 0 empty empty samplewidth -62 7 0 8
-233017 -1 -258699 100 256;
#X obj 83 221 nbx 4 12 -200 200 0 0 empty empty offset -31 7 0 8 -233017
-1 -258699 0 256;
#X obj 199 64 nbx 4 12 0 100 0 0 empty empty startpos_rand -75 7 0
8 -233017 -1 -258699 0 256;
#X obj 199 81 nbx 5 12 1 500 0 0 empty empty pitch -28 7 0 8 -233017
-1 -258699 100 256;
#X obj 206 97 nbx 4 12 0 100 0 0 empty empty pitch_rand -58 7 0 8 -233017
-1 -258699 0 256;
#X obj 199 114 nbx 5 12 1 4000 0 0 empty empty len -17 7 0 8 -233017
-1 -258699 220 256;
#X obj 207 148 nbx 4 12 0 100 0 0 empty empty len_rand -46 7 0 8 -233017
-1 -258699 0 256;
#X obj 207 163 nbx 4 12 0 100 0 0 empty empty pan_rand -46 7 0 8 -233017
-1 -258699 0 256;
#X obj 227 131 tgl 12 0 empty empty link_to_rate -72 7 0 8 -233017
-1 -258699 0 1;
#X obj 202 222 nbx 4 12 -1e+37 1e+37 0 0 empty empty amt 0 -5 0 8 -233017
-1 -258699 0 256;
#X obj 39 252 nbx 4 12 0 100 0 0 empty empty lfo_amt 0 -5 0 8 -233017
-1 -258699 0 256;
#X obj 158 252 nbx 4 12 0 130 0 0 empty empty vol 0 -5 0 8 -233017
-1 -258699 90 256;
#X obj 104 252 nbx 4 12 0 100 0 0 empty empty pan 0 -5 0 8 -233017
-1 -258699 50 256;
#X obj 12 61 cnv 3 100 5 empty empty empty 20 12 0 14 -1 -66577 0;
#X obj 12 63 cnv 1 1 1 empty \$0-poscnv empty 20 12 0 14 -258699 -66577
0;
#X obj 136 221 hradio 12 1 0 4 empty empty fl_cos_rpd_rpu 0 -6 2 8
-262144 -1 -1 0;
#X obj 272 1 sendsymbol;
#N canvas 0 0 450 300 playctl 0;
#X obj 100 25 inlet;
#X obj 182 24 inlet;
#X obj 123 154 prepend /playctl;
#X obj 119 194 outlet;
#X obj 222 196 outlet;
#X msg 113 63 1;
#X msg 185 69 0;
#X connect 0 0 5 0;
#X connect 1 0 6 0;
#X connect 2 0 3 0;
#X connect 5 0 2 0;
#X connect 5 0 4 0;
#X connect 6 0 2 0;
#X connect 6 0 4 0;
#X restore 115 77 pd playctl;
#X obj 121 40 cnv 1 1 200 empty empty empty 82 12 1 10 -128992 -66577
0;
#X obj 65 404 originator /granny \$0;
#X obj 59 551 fcommun /mastervol \$0 90;
#X obj 54 569 fcommun /masterpan \$0 50;
#X obj 8 22 fcommun /bwd \$0;
#N canvas 68 0 450 300 onoff 0;
#X obj 121 49 inlet;
#X obj 181 47 inlet;
#X obj 244 49 inlet;
#X obj 322 41 inlet;
#X obj 128 164 s OSC;
#X obj 124 145 OSCprepend /granny;
#X obj 124 93 prepend /tab0/playctl;
#X obj 244 93 prepend /tab2/playctl;
#X obj 184 113 prepend /tab1/playctl;
#X obj 315 113 prepend /tab3/playctl;
#X obj 162 209 pack f f;
#X obj 190 185 t b f;
#X obj 222 209 pack f f;
#X obj 250 185 t b f;
#X obj 282 209 pack f f;
#X obj 310 185 t b f;
#X obj 342 209 pack f f;
#X obj 370 185 t b f;
#X msg 161 184 0;
#X msg 221 184 1;
#X msg 281 184 2;
#X msg 341 184 3;
#X obj 210 249 outlet;
#X connect 0 0 6 0;
#X connect 0 0 11 0;
#X connect 1 0 8 0;
#X connect 1 0 13 0;
#X connect 2 0 7 0;
#X connect 2 0 15 0;
#X connect 3 0 9 0;
#X connect 3 0 17 0;
#X connect 5 0 4 0;
#X connect 6 0 5 0;
#X connect 7 0 5 0;
#X connect 8 0 5 0;
#X connect 9 0 5 0;
#X connect 10 0 22 0;
#X connect 11 0 18 0;
#X connect 11 1 10 1;
#X connect 12 0 22 0;
#X connect 13 0 19 0;
#X connect 13 1 12 1;
#X connect 14 0 22 0;
#X connect 15 0 20 0;
#X connect 15 1 14 1;
#X connect 16 0 22 0;
#X connect 17 0 21 0;
#X connect 17 1 16 1;
#X connect 18 0 10 0;
#X connect 19 0 12 0;
#X connect 20 0 14 0;
#X connect 21 0 16 0;
#X restore 6 140 pd onoff;
#X obj 6 391 s OSC;
#X obj 62 352 prepend /sel_tab;
#X obj 22 99 cnv 15 74 30 empty empty empty 20 12 0 14 -166441 -66577
0;
#X obj 23 100 hradio 18 1 0 4 empty empty empty 0 -6 0 8 -239672 -90881
-1 0;
#X obj 27 119 tgl 10 0 empty empty empty 0 -6 0 8 -24198 -1 -1 0 1
;
#X obj 45 119 tgl 10 0 empty empty empty 0 -6 0 8 -24198 -1 -1 0 1
;
#X obj 63 119 tgl 10 0 empty empty empty 0 -6 0 8 -24198 -1 -1 0 1
;
#X obj 81 119 tgl 10 0 empty empty empty 0 -6 0 8 -24198 -1 -1 0 1
;
#X obj 272 252 OSCroute /granny;
#X obj 272 273 OSCroute /ui;
#X obj 272 293 OSCroute /label;
#X obj 272 313 nroute foo 1;
#X obj 352 313 nroute foo 1;
#X obj 354 335 zl nth 2;
#X obj 274 333 zl nth 2;
#X msg 273 356 \$1/len;
#X msg 278 380 \$1/pos;
#X obj 91 323 OSCprepend;
#X obj 6 369 OSCprepend /granny;
#N canvas 0 0 450 300 pre 0;
#X obj 117 24 inlet;
#X obj 118 139 outlet;
#X obj 120 74 pack f f;
#X obj 265 25 inlet;
#X msg 117 101 \$2 \$1;
#X connect 0 0 2 1;
#X connect 2 0 4 0;
#X connect 3 0 2 0;
#X connect 4 0 1 0;
#X restore 115 99 pd pre;
#X obj 112 118 route 0 1 2 3;
#N canvas 395 85 450 300 hidd 0;
#X obj 198 239 \$0;
#X obj 42 18 inlet start;
#X obj 268 209 \$0;
#X msg 198 257 \; \$1-samplecnv color 16 22;
#X msg 269 228 \; \$1-samplecnv color 10 22;
#X obj 142 125 coll;
#C restore;
#X obj 142 177 sel 0 1;
#X obj 211 14 inlet;
#X obj 117 99 f;
#X obj 202 54 t b l;
#X msg 182 125 0 0 \, 1 0 \, 2 0 \, 3 0;
#X obj 183 105 loadbang;
#X connect 0 0 3 0;
#X connect 1 0 8 0;
#X connect 2 0 4 0;
#X connect 5 0 6 0;
#X connect 6 0 2 0;
#X connect 6 1 0 0;
#X connect 7 0 9 0;
#X connect 8 0 5 0;
#X connect 9 0 8 0;
#X connect 9 1 5 0;
#X connect 10 0 5 0;
#X connect 11 0 10 0;
#X restore 9 165 pd hidd;
#X obj 494 306 tosymbol;
#X msg 495 326 label \$1;
#X obj 1 239 cnv 1 250 1 empty empty empty 4 44 1 10 -128992 -99865
0;
#X obj 495 346 s \$0-samplecnv;
#X obj 8 332 rugartabs \$0;
#X obj 81 513 fcommun /width \$0 100;
#X obj 357 353 speedlim 150;
#N canvas 345 75 450 300 tap 0;
#X obj 317 67 inlet;
#X obj 73 53 inlet;
#X obj 106 97 sel 0 1;
#X obj 125 186 f;
#X obj 102 280 outlet;
#X obj 162 216 -;
#X obj 161 183 f;
#X obj 162 235 wrap 0 100;
#X floatatom 330 99 5 0 0 0 - - -;
#X obj 184 276 outlet;
#X obj 111 241 f;
#X obj 162 253 t b f;
#X msg 222 189 100;
#X connect 0 0 3 1;
#X connect 0 0 6 1;
#X connect 0 0 8 0;
#X connect 1 0 2 0;
#X connect 2 0 6 0;
#X connect 2 1 3 0;
#X connect 2 1 12 0;
#X connect 3 0 5 1;
#X connect 3 0 10 1;
#X connect 5 0 7 0;
#X connect 6 0 5 0;
#X connect 7 0 11 0;
#X connect 10 0 4 0;
#X connect 11 0 10 0;
#X connect 11 1 9 0;
#X connect 12 0 9 0;
#X restore 8 254 pd tap;
#X obj 35 221 tgl 12 0 empty empty tap -18 7 0 8 -233017 -1 -258699
0 1;
#X obj 125 43 bng 12 250 50 0 empty empty rec_sync 15 6 0 8 -233017
-1 -258699;
#X obj 364 115 prepend;
#X msg 296 90 1;
#X obj 505 239 loadbang;
#X obj 566 234 symbol /tab0;
#X obj 423 118 s OSC;
#X obj 482 208 makefilename /granny%s/sync;
#X obj 121 215 bng 10 250 50 0 empty empty rs 0 14 0 8 -233017 -1 -258699
;
#X msg 138 226 100;
#X msg 135 233 0;
#X obj 104 295 substatename-ng granny \$0;
#X obj 67 272 cnv 15 184 20 empty empty empty 20 12 0 14 -158336 -66577
0;
#X obj 74 281 nbx 2 10 0 1e+37 0 0 empty empty empty 0 -6 0 10 -241291
-62784 -1 0 256;
#X obj 88 273 bng 8 250 50 0 empty empty <s> -18 4 1 8 -241291 -1 -1
;
#X symbolatom 103 276 24 0 0 0 - - -;
#X obj 77 7 cnv 12 110 12 empty empty empty 20 12 0 14 -262144 -66577
0;
#X symbolatom 77 6 18 0 0 0 - - -;
#X obj 63 7 bng 12 250 50 0 empty empty empty 0 -6 0 8 -262144 -258699
-258699;
#X obj 145 182 nbx 4 12 0 100 0 0 empty empty bpq -17 7 0 8 -233017
-1 -258699 0 256;
#X obj 145 196 nbx 4 12 0 100 0 0 empty empty bpfq -21 7 0 8 -233017
-1 -258699 0 256;
#X obj 207 180 nbx 4 12 0 100 0 0 empty empty >rnd -22 7 0 8 -233017
-1 -258699 0 256;
#X obj 207 196 nbx 4 12 0 100 0 0 empty empty >rnd -22 7 0 8 -233017
-1 -258699 0 256;
#X obj 275 175 fcommun /bpq \$0 0;
#X obj 275 193 fcommun /bpfq \$0 0;
#X obj 407 176 fcommun /bpqdev \$0 0;
#X obj 407 192 fcommun /bpfqdev \$0 0;
#X obj 322 28 scommun /array \$0 dummyarray 1;
#X obj 273 229 r UI;
#X obj 144 379 r UI;
#X connect 1 0 5 0;
#X connect 3 0 2 0;
#X connect 4 0 3 0;
#X connect 5 0 3 0;
#X connect 6 0 13 0;
#X connect 7 0 28 0;
#X connect 8 0 26 0;
#X connect 9 0 30 0;
#X connect 10 0 33 0;
#X connect 11 0 37 0;
#X connect 12 0 35 0;
#X connect 13 0 44 0;
#X connect 14 0 38 0;
#X connect 15 0 36 0;
#X connect 16 0 39 0;
#X connect 17 0 27 0;
#X connect 18 0 25 0;
#X connect 19 0 32 0;
#X connect 20 0 34 0;
#X connect 21 0 31 0;
#X connect 22 0 51 0;
#X connect 23 0 46 0;
#X connect 24 0 46 1;
#X connect 25 0 18 0;
#X connect 26 0 8 0;
#X connect 27 0 17 0;
#X connect 28 0 7 0;
#X connect 29 0 80 0;
#X connect 30 0 9 0;
#X connect 31 0 21 0;
#X connect 32 0 19 0;
#X connect 33 0 10 0;
#X connect 34 0 20 0;
#X connect 35 0 12 0;
#X connect 36 0 15 0;
#X connect 37 0 11 0;
#X connect 38 0 14 0;
#X connect 39 0 16 0;
#X connect 40 0 49 0;
#X connect 41 0 50 0;
#X connect 44 0 6 0;
#X connect 45 0 100 0;
#X connect 45 1 101 0;
#X connect 46 0 70 0;
#X connect 46 1 72 1;
#X connect 49 0 40 0;
#X connect 50 0 41 0;
#X connect 51 0 22 0;
#X connect 52 0 74 1;
#X connect 54 0 71 0;
#X connect 56 0 72 0;
#X connect 56 0 74 0;
#X connect 56 0 79 0;
#X connect 57 0 52 0;
#X connect 58 0 52 1;
#X connect 59 0 52 2;
#X connect 60 0 52 3;
#X connect 61 0 62 0;
#X connect 62 0 63 0;
#X connect 63 0 75 0;
#X connect 63 1 64 0;
#X connect 63 1 65 0;
#X connect 64 0 67 0;
#X connect 65 0 66 0;
#X connect 66 0 81 0;
#X connect 66 0 82 1;
#X connect 67 0 34 0;
#X connect 68 0 64 1;
#X connect 69 0 65 1;
#X connect 70 0 71 0;
#X connect 71 0 53 0;
#X connect 72 0 73 0;
#X connect 73 0 57 0;
#X connect 73 1 58 0;
#X connect 73 2 59 0;
#X connect 73 3 60 0;
#X connect 75 0 76 0;
#X connect 76 0 78 0;
#X connect 79 0 71 0;
#X connect 79 1 54 0;
#X connect 79 1 68 0;
#X connect 79 1 69 0;
#X connect 79 1 70 1;
#X connect 79 1 90 0;
#X connect 80 0 29 0;
#X connect 81 0 4 0;
#X connect 82 0 30 0;
#X connect 82 1 29 0;
#X connect 83 0 82 0;
#X connect 84 0 86 0;
#X connect 85 0 89 0;
#X connect 86 0 85 0;
#X connect 87 0 88 0;
#X connect 88 0 90 0;
#X connect 90 0 85 1;
#X connect 91 0 92 0;
#X connect 91 0 93 0;
#X connect 92 0 29 0;
#X connect 93 0 30 0;
#X connect 94 0 48 0;
#X connect 94 1 98 0;
#X connect 96 0 94 0;
#X connect 97 0 94 2;
#X connect 98 0 94 1;
#X connect 100 0 45 1;
#X connect 100 0 110 0;
#X connect 101 0 45 0;
#X connect 102 0 106 0;
#X connect 103 0 107 0;
#X connect 104 0 108 0;
#X connect 105 0 109 0;
#X connect 106 0 102 0;
#X connect 107 0 103 0;
#X connect 108 0 104 0;
#X connect 109 0 105 0;
#X connect 110 0 100 0;
#X connect 111 0 61 0;
#X connect 112 0 48 1;
#X coords 0 0 1 1 252 294 1 0 0;
