#N canvas 50 159 560 293 10;
#N canvas 233 38 646 550 gutss 0;
#X obj 41 -3 adc~ 1 2 3 4;
#X obj 21 162 dac~ 1 2 3 4;
#N canvas 0 0 450 300 mon 0;
#X obj 77 21 inlet~;
#X obj 77 121 outlet~;
#X obj 137 82 inlet~;
#X obj 136 19 inlet;
#X obj 126 47 *~ -1;
#X obj 77 91 *~;
#X connect 0 0 5 0;
#X connect 2 0 1 0;
#X connect 3 0 4 0;
#X connect 4 0 5 1;
#X connect 5 0 1 0;
#X restore 138 117 pd mon;
#X obj 216 13 safeloader;
#N canvas 163 0 511 388 mod 0;
#N canvas 0 0 533 384 Super-L 0;
#X obj 93 33 r OSC;
#X obj 93 53 OSCroute /learn;
#X obj 93 74 spigot;
#X obj 210 46 modkey Super_L;
#X obj 202 210 pool;
#X obj 202 230 route bang;
#X msg 202 250 0;
#X obj 92 115 prepend list;
#X obj 85 307 s OSC;
#X obj 104 221 t s s;
#X msg 91 134 list \$2 \$1;
#X obj 46 152 unpack f s;
#X obj 89 246 symbol;
#X obj 126 199 symbol;
#X msg 210 161 get \$1;
#X obj 145 221 pack f s;
#X msg 202 190 set \$2 \$1;
#X obj 146 243 t b l;
#X msg 273 205 printall;
#X obj 48 198 t b f f;
#X obj 98 200 f;
#X obj 126 175 sel 0 1;
#X obj 136 154 > 1;
#X obj 90 274 zl join;
#X msg 133 86 0;
#X obj 191 85 MouseState;
#X obj 191 117 tgl 15 0 empty empty empty 0 -6 0 8 -262144 -1 -1 0
1;
#X obj 93 95 t a b;
#X obj 161 73 &&;
#X obj 188 62 t b f;
#X connect 0 0 1 0;
#X connect 1 0 2 0;
#X connect 2 0 27 0;
#X connect 3 0 28 0;
#X connect 4 0 5 0;
#X connect 5 0 6 0;
#X connect 5 1 23 1;
#X connect 6 0 23 1;
#X connect 7 0 10 0;
#X connect 9 0 12 1;
#X connect 9 1 13 1;
#X connect 9 1 15 1;
#X connect 10 0 11 0;
#X connect 11 0 19 0;
#X connect 11 1 9 0;
#X connect 12 0 23 0;
#X connect 13 0 14 0;
#X connect 14 0 4 0;
#X connect 15 0 17 0;
#X connect 16 0 4 0;
#X connect 17 0 6 0;
#X connect 17 1 16 0;
#X connect 18 0 4 0;
#X connect 19 0 12 0;
#X connect 19 1 22 0;
#X connect 19 2 20 1;
#X connect 20 0 15 0;
#X connect 21 0 13 0;
#X connect 21 1 20 0;
#X connect 22 0 21 0;
#X connect 23 0 8 0;
#X connect 24 0 2 1;
#X connect 25 0 26 0;
#X connect 25 0 29 0;
#X connect 27 0 7 0;
#X connect 27 1 24 0;
#X connect 28 0 2 1;
#X connect 29 0 28 0;
#X connect 29 1 28 1;
#X restore 69 55 pd Super-L;
#N canvas 199 8 596 462 Control_L 0;
#X obj 93 33 r OSC;
#X obj 93 53 OSCroute /learn;
#X obj 85 332 s OSC;
#X obj 89 271 symbol;
#X obj 90 299 zl join;
#X obj 191 85 MouseState;
#X obj 161 73 &&;
#X obj 188 62 t b f;
#X obj 93 74 spigot;
#X obj 301 85 modkey Control_L;
#X obj 126 163 -;
#X obj 94 95 prepend list;
#X obj 94 115 unpack s f;
#X obj 128 269 +;
#X obj 103 136 t f f f f;
#X obj 161 136 spigot;
#X obj 201 119 sel 1;
#X msg 169 158 0;
#X msg 203 137 1;
#X obj 171 98 t f f;
#X obj 124 185 sel 0;
#X obj 127 245 10;
#X msg 149 245 -10;
#X obj 126 226 sel 1 -1 11 -11 -9 9;
#X connect 0 0 1 0;
#X connect 1 0 8 0;
#X connect 3 0 4 0;
#X connect 4 0 2 0;
#X connect 5 0 7 0;
#X connect 6 0 19 0;
#X connect 7 0 6 0;
#X connect 7 1 6 1;
#X connect 8 0 11 0;
#X connect 10 0 20 0;
#X connect 11 0 12 0;
#X connect 12 0 3 0;
#X connect 12 1 14 0;
#X connect 13 0 4 1;
#X connect 14 0 13 0;
#X connect 14 1 10 1;
#X connect 14 2 10 0;
#X connect 14 3 15 0;
#X connect 15 0 17 0;
#X connect 15 0 10 1;
#X connect 16 0 18 0;
#X connect 17 0 15 1;
#X connect 17 0 13 1;
#X connect 18 0 15 1;
#X connect 19 0 8 1;
#X connect 19 1 16 0;
#X connect 20 1 23 0;
#X connect 21 0 13 1;
#X connect 22 0 13 1;
#X connect 23 0 21 0;
#X connect 23 1 22 0;
#X connect 23 2 21 0;
#X connect 23 3 22 0;
#X connect 23 4 21 0;
#X connect 23 5 22 0;
#X restore 149 65 pd Control_L;
#X restore 551 196 pd mod;
#X obj 553 224 r OSC;
#N canvas 0 40 998 676 room1 0;
#X obj 39 220 fem-backend /tab0 room1_Left;
#X obj 51 113 +~;
#X obj 505 286 myvolctl~ 0 10;
#X obj 342 302 +~;
#X obj 367 285 +~;
#X obj 500 179 myvolctl~ 0 10;
#X obj 375 481 +~;
#X obj 435 465 +~;
#X obj 607 194 myvolctl~;
#X obj 600 319 myvolctl~ 0 10;
#X obj 38 202 elefantbackend /tab0 fem1_Left;
#X obj 47 496 deelaybackend /tab0 room1_L;
#X obj 342 540 outlet~;
#X obj 481 541 outlet~;
#N canvas 0 0 450 300 mix 0;
#X obj 109 20 inlet~;
#X obj 199 19 inlet~;
#X obj 203 162 outlet~;
#X obj 109 160 outlet~;
#X obj 110 125 +~;
#X obj 202 125 +~;
#X obj 151 66 *~ 0.25;
#X obj 149 99 *~ 0.25;
#X obj 210 66 *~ 0.75;
#X obj 100 66 *~ 0.75;
#X connect 0 0 9 0;
#X connect 0 0 7 0;
#X connect 1 0 6 0;
#X connect 1 0 8 0;
#X connect 4 0 3 0;
#X connect 5 0 2 0;
#X connect 6 0 4 1;
#X connect 7 0 5 0;
#X connect 8 0 5 1;
#X connect 9 0 4 0;
#X restore 30 434 pd mix;
#X obj 34 522 +~;
#X obj 60 522 +~;
#X obj 585 522 outlet~;
#X text 636 523 dac3;
#X obj 440 416 +~;
#X obj 332 -79 inlet~;
#X obj 64 12 inlet~;
#X obj 682 525 outlet~;
#X obj 39 242 *~;
#X obj 52 380 *~;
#N canvas 0 0 450 300 mix 0;
#X obj 109 20 inlet~;
#X obj 199 19 inlet~;
#X obj 203 162 outlet~;
#X obj 109 160 outlet~;
#X obj 110 125 +~;
#X obj 202 125 +~;
#X obj 151 66 *~ 0.25;
#X obj 149 99 *~ 0.25;
#X obj 210 66 *~ 0.75;
#X obj 100 66 *~ 0.75;
#X connect 0 0 9 0;
#X connect 0 0 7 0;
#X connect 1 0 6 0;
#X connect 1 0 8 0;
#X connect 4 0 3 0;
#X connect 5 0 2 0;
#X connect 6 0 4 1;
#X connect 7 0 5 0;
#X connect 8 0 5 1;
#X connect 9 0 4 0;
#X restore 70 464 pd mix;
#X obj 345 511 roombackend /tab0 room_1;
#X obj 156 36 myvolctl~ 0 10;
#X obj 110 12 inlet~;
#X obj 289 72 myvolctl~ 0 10;
#X obj 31 81 +~;
#X obj 464 456 pm7/synth-backend;
#X obj 222 192 monbackend /fem1;
#X obj 203 571 monbackend /fem2;
#X obj 288 133 monbackend /granny1;
#X obj 384 363 monbackend /granny2;
#X obj 622 458 *~ 0.5;
#X obj 623 484 monbackend /pm7;
#X obj 480 478 myvolctl~;
#X obj 501 497 myvolctl~;
#X obj 550 435 / 100;
#X obj 155 356 elefantbackend /tab1 fem1_Right;
#X obj 354 95 elefantbackend /tab2 granny1_Left;
#X obj 403 251 elefantbackend /tab3 granny1_Right;
#X obj 736 225 elefantbackend /tab5 deelay1_Right;
#X obj 145 474 elefantbackend /tab4 deelay1_Left;
#X obj 634 248 deelaybackend /tab1 room1_R;
#X obj 550 417 route /fm/vol;
#X obj 552 395 r OSC;
#X obj 364 336 routingcell /granny /tab1 /send3 fem_Right;
#X obj 798 386 +~ 0;
#X obj 923 290 +~ 0;
#X obj 26 551 +~ 0;
#X obj 7 526 +~ 0;
#X obj 78 445 +~ 0;
#X obj 7 118 +~ 0;
#X obj 341 154 grannybackend /tab0 room1_Left;
#X obj 683 196 routingcell /granny /tab0 /send7 mon;
#X obj 755 361 routingcell /granny /tab1 /send7 mon;
#X obj 71 70 routingcell /adc12 /tab0 /send0 room;
#X obj 356 289 routingcell /granny /tab1 /send0 room;
#X obj 371 226 routingcell /granny /tab0 /send3 fem_Right;
#X obj 360 211 routingcell /granny /tab0 /send2 fem_Left;
#X obj 340 179 routingcell /granny /tab0 /send0 room;
#X obj 88 265 routingcell /fem /tab0 /send1 deelay_Left;
#X obj 90 396 routingcell /fem /tab1 /send0 room;
#X obj 98 414 routingcell /fem /tab1 /send1 deelay_Left;
#X obj 350 195 routingcell /granny /tab0 /send1 deelay_R;
#X obj 398 304 routingcell /granny /tab1 /send1 deelay_R;
#X obj 354 320 routingcell /granny /tab1 /send2 fem_Left;
#X obj 608 267 routingcell /granny /tab1 /send6 dac3;
#X obj 800 148 routingcell /granny /tab0 /send6 dac3;
#X obj 310 387 routingcell /fem /tab1 /send4 dac3;
#X obj 130 319 routingcell /fem /tab0 /send4 dac3;
#X obj 280 -51 routingcell /adc3 /tab0 /send0 room;
#X obj 106 51 routingcell /adc12 /tab0 /send1 deelay_L;
#X obj 81 90 routingcell /adc12 /tab0 /send2 fem_Left;
#X obj 101 110 routingcell /adc12 /tab0 /send3 fem_Right;
#X obj 281 -32 routingcell /adc3 /tab0 /send2 fem_Left;
#X obj 301 -12 routingcell /adc3 /tab0 /send3 fem_Right;
#X obj 501 -51 routingcell /adc3 /tab0 /send1 deelay_R;
#X obj 69 247 routingcell /fem /tab0 /send0 room;
#X obj 559 570 rick2-backend 480000 /pm7-2 pm7-2;
#X obj 428 128 rick2-backend 480000 /granny1 granny1;
#X obj 506 361 rick2-backend 480000 /granny2 granny2;
#X obj 126 172 rick2-backend 240000 /fem1 fem1;
#X obj 139 432 rick2-backend 240000 /fem2 fem2;
#X obj 560 548 rick2-backend 240000 /pm7-1 pm7-1;
#X obj 317 562 rick2-backend 240000 /room1-5 room1-5;
#X obj 316 582 rick2-backend 480000 /room1-10 room1-10;
#X obj 392 268 grannybackend /tab1 room1_Right;
#X obj 90 375 fem-backend /tab1 room1_Right;
#X connect 0 0 23 0;
#X connect 0 0 85 0;
#X connect 1 0 76 0;
#X connect 1 0 77 0;
#X connect 2 0 4 1;
#X connect 3 0 6 1;
#X connect 4 0 7 1;
#X connect 5 0 4 0;
#X connect 6 0 26 0;
#X connect 7 0 26 1;
#X connect 8 0 46 1;
#X connect 9 0 46 1;
#X connect 10 0 0 0;
#X connect 11 0 15 1;
#X connect 11 1 16 1;
#X connect 14 0 15 0;
#X connect 14 1 16 0;
#X connect 15 0 6 0;
#X connect 16 0 7 1;
#X connect 19 0 17 0;
#X connect 20 0 74 0;
#X connect 20 0 78 0;
#X connect 20 0 79 0;
#X connect 20 0 80 0;
#X connect 21 0 1 0;
#X connect 21 0 59 0;
#X connect 21 0 75 0;
#X connect 23 0 32 0;
#X connect 23 0 64 0;
#X connect 23 0 73 0;
#X connect 23 0 81 0;
#X connect 24 0 33 0;
#X connect 24 0 65 0;
#X connect 24 0 66 0;
#X connect 24 0 72 0;
#X connect 25 0 11 0;
#X connect 25 1 11 1;
#X connect 26 0 12 0;
#X connect 26 0 88 0;
#X connect 26 0 89 0;
#X connect 26 1 13 0;
#X connect 26 1 88 0;
#X connect 26 1 89 0;
#X connect 27 0 11 1;
#X connect 28 0 27 0;
#X connect 28 0 29 0;
#X connect 28 0 1 1;
#X connect 29 0 30 0;
#X connect 30 0 52 0;
#X connect 31 0 36 0;
#X connect 31 0 38 0;
#X connect 31 0 82 0;
#X connect 31 0 87 0;
#X connect 31 1 36 0;
#X connect 31 1 39 0;
#X connect 31 1 82 0;
#X connect 31 1 87 0;
#X connect 36 0 37 0;
#X connect 38 0 26 0;
#X connect 39 0 26 1;
#X connect 40 0 38 1;
#X connect 40 0 39 1;
#X connect 41 0 91 0;
#X connect 42 0 56 0;
#X connect 43 0 90 0;
#X connect 44 0 46 2;
#X connect 45 0 11 2;
#X connect 46 0 51 0;
#X connect 46 1 50 0;
#X connect 47 0 40 0;
#X connect 48 0 47 0;
#X connect 49 0 24 1;
#X connect 50 0 7 0;
#X connect 51 0 6 0;
#X connect 52 0 26 1;
#X connect 53 0 26 0;
#X connect 54 0 11 0;
#X connect 55 0 53 0;
#X connect 56 0 34 0;
#X connect 56 0 57 0;
#X connect 56 0 61 0;
#X connect 56 0 62 0;
#X connect 56 0 63 0;
#X connect 56 0 67 0;
#X connect 56 0 71 0;
#X connect 56 0 83 0;
#X connect 56 1 5 0;
#X connect 56 1 8 0;
#X connect 56 1 57 0;
#X connect 56 1 71 0;
#X connect 57 0 22 0;
#X connect 58 0 22 0;
#X connect 59 0 55 0;
#X connect 59 1 29 1;
#X connect 60 0 3 1;
#X connect 60 1 2 1;
#X connect 61 0 24 1;
#X connect 62 0 23 1;
#X connect 63 0 3 0;
#X connect 63 1 5 1;
#X connect 64 0 25 0;
#X connect 65 0 14 1;
#X connect 66 0 25 1;
#X connect 67 0 46 0;
#X connect 67 1 8 1;
#X connect 68 0 46 0;
#X connect 68 1 9 1;
#X connect 69 0 23 1;
#X connect 70 0 17 0;
#X connect 71 0 17 0;
#X connect 72 0 19 1;
#X connect 73 0 19 0;
#X connect 74 0 30 1;
#X connect 74 0 55 0;
#X connect 75 0 54 0;
#X connect 75 1 27 1;
#X connect 76 0 23 1;
#X connect 77 0 24 1;
#X connect 78 0 23 1;
#X connect 79 0 24 1;
#X connect 80 0 46 0;
#X connect 80 0 46 1;
#X connect 81 0 14 0;
#X connect 90 0 35 0;
#X connect 90 0 49 0;
#X connect 90 0 58 0;
#X connect 90 0 60 0;
#X connect 90 0 68 0;
#X connect 90 0 69 0;
#X connect 90 0 70 0;
#X connect 90 0 84 0;
#X connect 90 1 2 0;
#X connect 90 1 9 0;
#X connect 90 1 58 0;
#X connect 90 1 70 0;
#X connect 91 0 24 0;
#X connect 91 0 86 0;
#X restore 40 53 pd room1;
#N canvas 0 12 998 676 room2 0;
#X obj 41 121 +~;
#X obj 505 286 myvolctl~ 0 10;
#X obj 340 285 +~;
#X obj 367 285 +~;
#X obj 509 179 myvolctl~ 0 10;
#X obj 384 457 +~;
#X obj 411 458 +~;
#X obj 607 194 myvolctl~;
#X obj 600 319 myvolctl~ 0 10;
#X obj 342 540 outlet~;
#X obj 481 541 outlet~;
#X obj 5 73 +~;
#N canvas 0 0 450 300 mix 0;
#X obj 109 20 inlet~;
#X obj 199 19 inlet~;
#X obj 203 162 outlet~;
#X obj 109 160 outlet~;
#X obj 110 125 +~;
#X obj 202 125 +~;
#X obj 151 66 *~ 0.25;
#X obj 149 99 *~ 0.25;
#X obj 210 66 *~ 0.75;
#X obj 100 66 *~ 0.75;
#X connect 0 0 9 0;
#X connect 0 0 7 0;
#X connect 1 0 6 0;
#X connect 1 0 8 0;
#X connect 4 0 3 0;
#X connect 5 0 2 0;
#X connect 6 0 4 1;
#X connect 7 0 5 0;
#X connect 8 0 5 1;
#X connect 9 0 4 0;
#X restore 30 434 pd mix;
#X obj 34 522 +~;
#X obj 60 522 +~;
#X obj 585 522 outlet~;
#X text 636 523 dac3;
#X obj 430 403 +~;
#X obj 332 -79 inlet~;
#X obj 53 -45 inlet~;
#X obj 682 525 outlet~;
#X obj 39 242 *~;
#X obj 57 405 *~;
#N canvas 0 0 450 300 mix 0;
#X obj 109 20 inlet~;
#X obj 199 19 inlet~;
#X obj 203 162 outlet~;
#X obj 109 160 outlet~;
#X obj 110 125 +~;
#X obj 202 125 +~;
#X obj 151 66 *~ 0.25;
#X obj 149 99 *~ 0.25;
#X obj 210 66 *~ 0.75;
#X obj 100 66 *~ 0.75;
#X connect 0 0 9 0;
#X connect 0 0 7 0;
#X connect 1 0 6 0;
#X connect 1 0 8 0;
#X connect 4 0 3 0;
#X connect 5 0 2 0;
#X connect 6 0 4 1;
#X connect 7 0 5 0;
#X connect 8 0 5 1;
#X connect 9 0 4 0;
#X restore 70 464 pd mix;
#X obj 111 -42 inlet~;
#X obj 176 37 myvolctl~ 0 10;
#X obj 26 35 +~;
#X obj 457 466 gloopbackend;
#X obj 254 180 monbackend /fem3;
#X obj 226 340 monbackend /fem4;
#X obj 659 122 monbackend /granny3;
#X obj 439 362 monbackend /granny4;
#X obj 358 103 elefantbackend /tab8 granny2_Left;
#X obj 403 251 elefantbackend /tab9 granny2_Right;
#X obj 164 469 elefantbackend /tab10 deelay2_L;
#X obj 736 225 elefantbackend /tab11 deelay2_R;
#X obj 38 202 elefantbackend /tab6 fem2_L;
#X obj 155 356 elefantbackend /tab7 fem2_R;
#X obj 47 496 deelaybackend /tab2 room1_L;
#X obj 634 248 deelaybackend /tab3 room1_R;
#X obj 341 509 roombackend /tab1 room_2;
#X obj 4 551 +~ 0;
#X obj 31 551 +~ 0;
#X obj 948 265 +~ 0;
#X obj 968 265 +~ 0;
#X obj 395 287 routingcell /granny /tab3 /send0 room;
#X obj 371 226 routingcell /granny /tab2 /send3 fem_Right;
#X obj 360 211 routingcell /granny /tab2 /send2 fem_Left;
#X obj 340 179 routingcell /granny /tab2 /send0 room;
#X obj 69 247 routingcell /fem /tab2 /send0 room;
#X obj 88 265 routingcell /fem /tab2 /send1 deelay_Left;
#X obj 90 396 routingcell /fem /tab3 /send0 room;
#X obj 98 414 routingcell /fem /tab3 /send1 deelay_Left;
#X obj 350 195 routingcell /granny /tab2 /send1 deelay_R;
#X obj 398 304 routingcell /granny /tab3 /send1 deelay_R;
#X obj 354 320 routingcell /granny /tab3 /send2 fem_Left;
#X obj 364 336 routingcell /granny /tab3 /send3 fem_Right;
#X obj 608 267 routingcell /granny /tab3 /send6 dac3;
#X obj 800 148 routingcell /granny /tab2 /send6 dac3;
#X obj 310 387 routingcell /fem /tab3 /send4 dac3;
#X obj 130 319 routingcell /fem /tab2 /send4 dac3;
#X obj 683 196 routingcell /granny /tab2 /send7 mon;
#X obj 708 360 routingcell /granny /tab3 /send7 mon;
#X obj 280 -51 routingcell /adc3 /tab1 /send0 room;
#X obj 81 90 routingcell /adc12 /tab1 /send2 fem_Left;
#X obj 101 110 routingcell /adc12 /tab1 /send3 fem_Right;
#X obj 501 -55 routingcell /adc3 /tab1 /send1 deelay_R;
#X obj 281 -32 routingcell /adc3 /tab1 /send2 fem_Left;
#X obj 301 -12 routingcell /adc3 /tab1 /send3 fem_Right;
#X obj 174 54 routingcell /adc12 /tab1 /send1 deelay_L;
#X obj 127 72 routingcell /adc12 /tab1 /send0 dac3;
#X obj 317 562 rick2-backend 240000 /room2-5 room2-5;
#X obj 316 582 rick2-backend 480000 /room2-10 room2-10;
#X obj 121 161 rick2-backend 240000 /fem3 fem3;
#X obj 139 431 rick2-backend 240000 /fem4 fem4;
#X obj 430 81 rick2-backend 480000 /granny3 granny3;
#X obj 666 294 rick2-backend 480000 /granny4 granny4;
#X obj 353 133 grannybackend /tab2 room2_Left;
#X obj 392 268 grannybackend /tab3 room2_Right;
#X obj 39 220 fem-backend /tab2 room2_Left;
#X obj 90 375 fem-backend /tab3 room2_Right;
#X connect 0 0 64 0;
#X connect 0 0 65 0;
#X connect 1 0 3 1;
#X connect 2 0 5 1;
#X connect 3 0 6 1;
#X connect 4 0 3 0;
#X connect 5 0 40 0;
#X connect 6 0 40 1;
#X connect 7 0 39 1;
#X connect 8 0 39 1;
#X connect 11 0 41 0;
#X connect 12 0 13 0;
#X connect 12 1 14 0;
#X connect 13 0 5 0;
#X connect 14 0 6 1;
#X connect 17 0 15 0;
#X connect 18 0 63 0;
#X connect 18 0 66 0;
#X connect 18 0 67 0;
#X connect 18 0 68 0;
#X connect 19 0 0 0;
#X connect 19 0 69 0;
#X connect 19 0 70 0;
#X connect 21 0 28 0;
#X connect 21 0 49 0;
#X connect 21 0 50 0;
#X connect 21 0 60 0;
#X connect 22 0 29 0;
#X connect 22 0 51 0;
#X connect 22 0 52 0;
#X connect 22 0 59 0;
#X connect 23 0 38 0;
#X connect 23 1 38 1;
#X connect 24 0 25 0;
#X connect 24 0 0 0;
#X connect 24 0 70 0;
#X connect 25 0 26 1;
#X connect 26 0 42 0;
#X connect 27 0 40 0;
#X connect 27 1 40 1;
#X connect 32 0 77 0;
#X connect 33 0 78 0;
#X connect 34 0 38 2;
#X connect 35 0 39 2;
#X connect 36 0 79 0;
#X connect 37 0 80 0;
#X connect 38 0 13 1;
#X connect 38 1 14 1;
#X connect 39 0 43 0;
#X connect 39 1 44 0;
#X connect 40 0 9 0;
#X connect 40 0 71 0;
#X connect 40 0 72 0;
#X connect 40 1 10 0;
#X connect 40 1 71 0;
#X connect 40 1 72 0;
#X connect 41 0 40 0;
#X connect 42 0 40 1;
#X connect 43 0 5 0;
#X connect 44 0 6 0;
#X connect 45 0 2 1;
#X connect 45 1 1 1;
#X connect 46 0 22 1;
#X connect 47 0 21 1;
#X connect 48 0 2 0;
#X connect 48 1 4 1;
#X connect 49 0 12 0;
#X connect 50 0 23 0;
#X connect 51 0 12 1;
#X connect 52 0 23 1;
#X connect 53 0 39 0;
#X connect 53 1 7 1;
#X connect 54 0 39 0;
#X connect 54 1 8 1;
#X connect 55 0 21 1;
#X connect 56 0 22 1;
#X connect 57 0 15 0;
#X connect 58 0 15 0;
#X connect 59 0 17 1;
#X connect 60 0 17 0;
#X connect 61 0 20 0;
#X connect 62 0 20 0;
#X connect 63 0 11 0;
#X connect 63 0 26 0;
#X connect 64 0 21 1;
#X connect 65 0 22 1;
#X connect 66 0 39 0;
#X connect 66 0 39 1;
#X connect 67 0 21 1;
#X connect 68 0 22 1;
#X connect 69 0 11 1;
#X connect 69 1 25 1;
#X connect 70 0 15 0;
#X connect 77 0 30 0;
#X connect 77 0 46 0;
#X connect 77 0 47 0;
#X connect 77 0 48 0;
#X connect 77 0 53 0;
#X connect 77 0 58 0;
#X connect 77 0 61 0;
#X connect 77 0 75 0;
#X connect 77 1 4 0;
#X connect 77 1 7 0;
#X connect 77 1 58 0;
#X connect 77 1 61 0;
#X connect 78 0 31 0;
#X connect 78 0 45 0;
#X connect 78 0 54 0;
#X connect 78 0 55 0;
#X connect 78 0 56 0;
#X connect 78 0 57 0;
#X connect 78 0 62 0;
#X connect 78 0 76 0;
#X connect 78 1 1 0;
#X connect 78 1 8 0;
#X connect 78 1 57 0;
#X connect 78 1 62 0;
#X connect 79 0 21 0;
#X connect 79 0 73 0;
#X connect 80 0 22 0;
#X connect 80 0 74 0;
#X restore 100 53 pd room2;
#X obj 166 76 inlet;
#X obj 136 209 dmbwd-backend;
#N canvas 0 0 450 300 tick 0;
#X obj 229 114 *~;
#X obj 263 101 vline~;
#X obj 304 18 r OSC;
#X obj 306 41 route /dmbwd/ui/center;
#X obj 230 181 outlet~;
#X obj 306 63 bang;
#X obj 232 74 noise~;
#X msg 305 81 1 2 \, 0 7 2;
#X obj 229 146 *~ 0.1;
#X connect 0 0 8 0;
#X connect 1 0 0 1;
#X connect 2 0 3 0;
#X connect 3 0 5 0;
#X connect 5 0 7 0;
#X connect 6 0 0 0;
#X connect 7 0 1 0;
#X connect 8 0 4 0;
#X restore 129 135 pd tick;
#X obj 166 379 vu 15 120 empty empty -1 -8 0 8 -66577 -1 0 0;
#N canvas 0 0 450 300 vu 0;
#X obj 138 63 adc~ 1 2 3;
#X obj 93 110 - 88;
#X obj 91 236 outlet;
#X obj 109 162 f;
#X obj 126 8 inlet;
#X obj 91 204 pack;
#X obj 92 183 change;
#X msg 126 28 -100;
#X obj 153 110 - 88;
#X obj 169 162 f;
#X obj 151 204 pack;
#X obj 152 183 change;
#X obj 213 110 - 88;
#X obj 229 162 f;
#X obj 211 204 pack;
#X obj 212 183 change;
#X obj 151 236 outlet;
#X obj 211 236 outlet;
#X obj 228 144 max -100;
#X obj 168 144 max -100;
#X obj 108 144 max -100;
#X obj 94 90 env~ 4096;
#X obj 153 91 env~ 4096;
#X obj 212 86 env~ 4096;
#X connect 0 0 21 0;
#X connect 0 1 22 0;
#X connect 0 2 23 0;
#X connect 1 0 5 0;
#X connect 1 0 20 0;
#X connect 3 0 5 1;
#X connect 3 0 6 0;
#X connect 4 0 7 0;
#X connect 5 0 2 0;
#X connect 6 0 20 1;
#X connect 7 0 18 1;
#X connect 7 0 19 1;
#X connect 7 0 20 1;
#X connect 8 0 10 0;
#X connect 8 0 19 0;
#X connect 9 0 10 1;
#X connect 9 0 11 0;
#X connect 10 0 16 0;
#X connect 11 0 19 1;
#X connect 12 0 14 0;
#X connect 12 0 18 0;
#X connect 13 0 14 1;
#X connect 13 0 15 0;
#X connect 14 0 17 0;
#X connect 15 0 18 1;
#X connect 18 0 13 0;
#X connect 19 0 9 0;
#X connect 20 0 3 0;
#X connect 21 0 1 0;
#X connect 22 0 8 0;
#X connect 23 0 12 0;
#X restore 166 354 pd vu;
#X obj 111 338 bng 15 250 50 0 empty empty empty 0 -6 0 8 -262144 -1
-1;
#X obj 186 379 vu 15 120 empty empty -1 -8 0 8 -66577 -1 0 0;
#X obj 206 379 vu 15 120 empty empty -1 -8 0 8 -66577 -1 0 0;
#X obj 105 162 catch~ monitor;
#X obj 380 254 r OSC;
#X obj 379 432 unpack s f;
#X obj 380 293 list;
#X obj 373 468 symbol;
#N canvas 0 0 450 300 key 0;
#X obj 159 228 outlet;
#X obj 159 66 keyname;
#X obj 159 158 symbol;
#X obj 159 132 sel 1;
#X obj 159 104 spigot;
#X obj 217 104 r performance_mode;
#X msg 160 209 -1;
#X msg 183 208 1;
#X msg 203 210 -0.1;
#X msg 208 229 0.1;
#X obj 160 180 sel a s A S;
#X connect 1 0 4 0;
#X connect 1 1 2 1;
#X connect 2 0 10 0;
#X connect 3 0 2 0;
#X connect 4 0 3 0;
#X connect 5 0 4 1;
#X connect 6 0 0 0;
#X connect 7 0 0 0;
#X connect 8 0 0 0;
#X connect 9 0 0 0;
#X connect 10 0 6 0;
#X connect 10 1 7 0;
#X connect 10 2 8 0;
#X connect 10 3 9 0;
#X restore 468 412 pd key;
#X obj 434 470 f;
#X obj 457 439 t b b f;
#X obj 436 500 +;
#X obj 386 519 pack s f;
#X obj 380 274 OSCroute /learn;
#X obj 389 541 s OSC;
#X msg 380 311 \$2 \$1;
#X obj 380 371 mousefilter;
#X msg 379 410 list \$2 \$1;
#X obj 510 491 MouseState;
#X obj 461 502 spigot;
#X obj 380 329 zl slice 1;
#X obj 380 392 zl join;
#X obj 371 350 segregate;
#X obj 26 443 sendOSC;
#X obj 34 397 list prepend send;
#X obj 35 417 list trim;
#X obj 48 526 s OSC;
#X obj 19 299 loadbang;
#X msg 19 321 connect localhost 9998;
#X obj 48 499 dumpOSC 9999;
#X obj 95 538 print;
#X obj 105 431 print s;
#X obj 34 375 r UI;
#X obj 554 23 table dummyarray;
#X text 545 177 NOT done;
#X obj 136 509 netreceive 1999;
#X floatatom 238 532 5 0 0 0 - - -;
#X obj 138 530 print;
#X obj 553 245 route /pd/dsp;
#X msg 553 267 \; pd dsp \$1 \;;
#X obj 491 312 cputime;
#X obj 491 276 metro 1000;
#X obj 491 294 t b b;
#X obj 491 352 * 0.1;
#X obj 491 332 int;
#X text 475 67 <-- on/off;
#X obj 434 240 route /pd/cpuinfo;
#X msg 491 371 /ui/cpuinfo \$1;
#X obj 491 391 s UI;
#X floatatom 543 332 5 0 0 0 - - -;
#X obj -14 191 recorder-backend;
#X obj 288 13 player-backend;
#X text 287 0 playing soundfiles;
#X obj 213 32 rick2-backend 240000 /adc12-5 adc12-5;
#X obj 243 32 rick2-backend 480000 /adc12-10 adc12-10;
#X obj 274 32 rick2-backend 240000 /adc3-5 adc3-5;
#X obj 326 32 rick2-backend 480000 /adc3-10 adc3-10;
#X obj -70 90 bigdelay-back;
#X obj 399 195 route /main/onoff;
#X obj 399 214 switch~;
#X obj 42 16 hip~ 5;
#X obj 62 16 hip~ 5;
#X connect 0 0 73 0;
#X connect 0 1 74 0;
#X connect 0 2 6 2;
#X connect 0 2 7 2;
#X connect 0 2 63 2;
#X connect 0 2 68 0;
#X connect 0 2 69 0;
#X connect 2 0 1 3;
#X connect 5 0 51 0;
#X connect 5 0 59 0;
#X connect 5 0 71 0;
#X connect 6 0 1 0;
#X connect 6 0 63 0;
#X connect 6 0 70 0;
#X connect 6 1 1 1;
#X connect 6 1 2 0;
#X connect 6 1 63 1;
#X connect 6 1 70 1;
#X connect 6 2 1 2;
#X connect 6 3 2 2;
#X connect 7 0 1 0;
#X connect 7 0 63 0;
#X connect 7 0 70 0;
#X connect 7 1 1 1;
#X connect 7 1 2 0;
#X connect 7 1 63 1;
#X connect 7 1 70 1;
#X connect 7 2 1 2;
#X connect 7 3 2 2;
#X connect 8 0 2 1;
#X connect 10 0 1 3;
#X connect 12 0 11 0;
#X connect 12 1 14 0;
#X connect 12 2 15 0;
#X connect 13 0 12 0;
#X connect 16 0 1 3;
#X connect 17 0 26 0;
#X connect 18 0 20 1;
#X connect 18 1 22 0;
#X connect 19 0 28 0;
#X connect 20 0 25 0;
#X connect 21 0 23 0;
#X connect 22 0 24 0;
#X connect 23 0 20 0;
#X connect 23 1 22 0;
#X connect 23 2 24 1;
#X connect 24 0 25 1;
#X connect 24 0 32 0;
#X connect 25 0 27 0;
#X connect 28 0 33 0;
#X connect 29 0 34 0;
#X connect 30 0 18 0;
#X connect 31 0 32 1;
#X connect 32 0 22 1;
#X connect 33 0 35 0;
#X connect 33 1 34 1;
#X connect 34 0 30 0;
#X connect 35 1 29 0;
#X connect 37 0 38 0;
#X connect 38 0 36 0;
#X connect 40 0 41 0;
#X connect 41 0 36 0;
#X connect 42 0 39 0;
#X connect 45 0 37 0;
#X connect 48 0 39 0;
#X connect 48 1 49 0;
#X connect 51 0 52 0;
#X connect 53 0 57 0;
#X connect 54 0 55 0;
#X connect 55 0 53 0;
#X connect 55 1 53 1;
#X connect 56 0 60 0;
#X connect 56 0 62 0;
#X connect 57 0 56 0;
#X connect 59 0 54 0;
#X connect 60 0 61 0;
#X connect 70 0 1 0;
#X connect 70 1 1 1;
#X connect 71 0 72 0;
#X connect 73 0 66 0;
#X connect 73 0 67 0;
#X connect 73 0 6 0;
#X connect 73 0 7 0;
#X connect 74 0 66 0;
#X connect 74 0 67 0;
#X connect 74 0 6 1;
#X connect 74 0 7 1;
#X restore 76 78 pd gutss;
