#N canvas -86 10 1043 788 10;
#X obj 0 -2 cnv 15 1034 800 empty \$0-bgcnv empty 20 12 0 14 -166441
-262144 0;
#X obj 418 344 elefantui;
#X obj 117 256 fem-ui;
#X obj 431 249 samplelist-new;
#X obj 436 321 hsl 200 15 1 0 0 0 empty empty empty -2 -6 0 8 -259687
-261171 -1 0 1;
#N canvas 192 0 450 300 laylist 0;
#X obj 136 24 inlet;
#X obj 226 30 keyname;
#X obj 226 53 pack f s;
#X msg 227 75 \$2 \$1;
#X obj 222 104 route Shift_L;
#X obj 216 120 == 0;
#X obj 176 269 outlet;
#X msg 217 267 location /home/johannes/samples;
#X obj 184 54 init 0;
#X obj 129 100 spigot 0;
#X obj 157 136 spigot 1;
#X obj 167 193 soundfile_info;
#X obj 139 159 t s s;
#X obj 98 192 pack s f;
#X obj 88 214 list prepend /samples/load/safe;
#X obj 53 238 list prepend /samples/load/unsafe;
#X msg 174 172 read \$1;
#X msg 149 193 \$3;
#X obj 61 268 s netsend;
#X connect 0 0 9 0;
#X connect 0 0 10 0;
#X connect 1 0 2 0;
#X connect 1 1 2 1;
#X connect 2 0 3 0;
#X connect 3 0 4 0;
#X connect 4 0 5 0;
#X connect 4 0 9 1;
#X connect 5 0 10 1;
#X connect 7 0 6 0;
#X connect 8 0 7 0;
#X connect 8 0 9 1;
#X connect 9 0 15 0;
#X connect 10 0 12 0;
#X connect 11 0 17 0;
#X connect 12 0 13 0;
#X connect 12 1 16 0;
#X connect 13 0 14 0;
#X connect 14 0 18 0;
#X connect 15 0 18 0;
#X connect 16 0 11 0;
#X connect 17 0 13 1;
#X restore 369 240 pd laylist;
#X obj 376 42 playlist wav 200 200 {terminus 10 normal} pink #ff6699
black blue;
#X obj 439 460 deelayui;
#X obj 439 558 roomui;
#X obj 718 48 hradio 20 1 0 2 empty empty adc12 42 10 1 10 -250685
-90881 -250685 0;
#X obj 717 142 tab_sel /adc12;
#X obj 867 144 hradio 20 1 0 2 empty empty adc3 -28 10 1 10 -250685
-90881 -250685 0;
#X obj 718 146 tab_sel /adc3;
#X obj 8 93 bng 15 250 50 0 empty empty empty 0 -6 0 8 -262144 -1 -1
;
#X obj 148 18 tgl 15 0 init empty init 0 -6 0 8 -258699 -1 -1 0 1;
#X obj 612 168 rickui;
#X obj 508 686 tgl 30 0 empty empty mon_(z) 0 -6 0 8 -262131 -1 -24198
0 1;
#X obj 776 724 careGUI /home/johannes/pd/data/11w2-d.dat;
#X obj 665 627 cnv 15 300 80 empty empty empty 20 12 0 14 -262131 -66577
0;
#X text 856 670 klemt finger;
#X text 805 629 large screen image;
#X text 852 654 eisenbahn;
#X text 686 632 welcome home;
#X text 668 673 den uendlige melodi;
#X text 674 652 ned af trappen;
#X text 820 680 das bunte kinderlexikon;
#X text 844 663 absolute kelvin;
#X text 796 691 sang till en sorgelig dag;
#X text 855 640 sparkling mike;
#X text 875 637 tv peace;
#X text 684 663 [elektrik];
#X text 695 685 _050505;
#X text 841 648 boogie woogie;
#X obj 655 247 grannyui;
#X obj 44 95 cnv 15 300 60 empty empty looper_plays_in_room_2 6 6 1
9 -260818 -66577 0;
#X obj 43 106 glooperui;
#X obj 599 84 dmbwd-ui;
#X obj 165 443 pm7/synth-ui;
#N canvas 235 33 699 617 gutss 1;
#N canvas 163 0 511 388 mod 0;
#N canvas 0 0 533 384 Super-L 0;
#X obj 93 33 r OSC;
#X obj 93 53 OSCroute /learn;
#X obj 93 74 spigot;
#X obj 210 46 modkey Super_L;
#X obj 202 210 pool;
#X obj 202 230 route bang;
#X msg 202 250 0;
#X obj 92 115 prepend list;
#X obj 85 307 s OSC;
#X obj 104 221 t s s;
#X msg 91 134 list \$2 \$1;
#X obj 46 152 unpack f s;
#X obj 89 246 symbol;
#X obj 126 199 symbol;
#X msg 210 161 get \$1;
#X obj 145 221 pack f s;
#X msg 202 190 set \$2 \$1;
#X obj 146 243 t b l;
#X msg 273 205 printall;
#X obj 48 198 t b f f;
#X obj 98 200 f;
#X obj 126 175 sel 0 1;
#X obj 136 154 > 1;
#X obj 90 274 zl join;
#X msg 133 86 0;
#X obj 191 85 MouseState;
#X obj 191 117 tgl 15 0 empty empty empty 0 -6 0 8 -262144 -1 -1 0
1;
#X obj 93 95 t a b;
#X obj 161 73 &&;
#X obj 188 62 t b f;
#X connect 0 0 1 0;
#X connect 1 0 2 0;
#X connect 2 0 27 0;
#X connect 3 0 28 0;
#X connect 4 0 5 0;
#X connect 5 0 6 0;
#X connect 5 1 23 1;
#X connect 6 0 23 1;
#X connect 7 0 10 0;
#X connect 9 0 12 1;
#X connect 9 1 13 1;
#X connect 9 1 15 1;
#X connect 10 0 11 0;
#X connect 11 0 19 0;
#X connect 11 1 9 0;
#X connect 12 0 23 0;
#X connect 13 0 14 0;
#X connect 14 0 4 0;
#X connect 15 0 17 0;
#X connect 16 0 4 0;
#X connect 17 0 6 0;
#X connect 17 1 16 0;
#X connect 18 0 4 0;
#X connect 19 0 12 0;
#X connect 19 1 22 0;
#X connect 19 2 20 1;
#X connect 20 0 15 0;
#X connect 21 0 13 0;
#X connect 21 1 20 0;
#X connect 22 0 21 0;
#X connect 23 0 8 0;
#X connect 24 0 2 1;
#X connect 25 0 26 0;
#X connect 25 0 29 0;
#X connect 27 0 7 0;
#X connect 27 1 24 0;
#X connect 28 0 2 1;
#X connect 29 0 28 0;
#X connect 29 1 28 1;
#X restore 69 55 pd Super-L;
#N canvas 199 8 596 462 Control_L 0;
#X obj 93 33 r OSC;
#X obj 93 53 OSCroute /learn;
#X obj 85 332 s OSC;
#X obj 89 271 symbol;
#X obj 90 299 zl join;
#X obj 191 85 MouseState;
#X obj 161 73 &&;
#X obj 188 62 t b f;
#X obj 93 74 spigot;
#X obj 301 85 modkey Control_L;
#X obj 126 163 -;
#X obj 94 95 prepend list;
#X obj 94 115 unpack s f;
#X obj 128 269 +;
#X obj 103 136 t f f f f;
#X obj 161 136 spigot;
#X obj 201 119 sel 1;
#X msg 169 158 0;
#X msg 203 137 1;
#X obj 171 98 t f f;
#X obj 124 185 sel 0;
#X obj 127 245 10;
#X msg 149 245 -10;
#X obj 126 226 sel 1 -1 11 -11 -9 9;
#X connect 0 0 1 0;
#X connect 1 0 8 0;
#X connect 3 0 4 0;
#X connect 4 0 2 0;
#X connect 5 0 7 0;
#X connect 6 0 19 0;
#X connect 7 0 6 0;
#X connect 7 1 6 1;
#X connect 8 0 11 0;
#X connect 10 0 20 0;
#X connect 11 0 12 0;
#X connect 12 0 3 0;
#X connect 12 1 14 0;
#X connect 13 0 4 1;
#X connect 14 0 13 0;
#X connect 14 1 10 1;
#X connect 14 2 10 0;
#X connect 14 3 15 0;
#X connect 15 0 17 0;
#X connect 15 0 10 1;
#X connect 16 0 18 0;
#X connect 17 0 15 1;
#X connect 17 0 13 1;
#X connect 18 0 15 1;
#X connect 19 0 8 1;
#X connect 19 1 16 0;
#X connect 20 1 23 0;
#X connect 21 0 13 1;
#X connect 22 0 13 1;
#X connect 23 0 21 0;
#X connect 23 1 22 0;
#X connect 23 2 21 0;
#X connect 23 3 22 0;
#X connect 23 4 21 0;
#X connect 23 5 22 0;
#X restore 149 65 pd Control_L;
#X restore 282 30 pd mod;
#X obj 497 148 print;
#X obj 456 72 r OSC;
#X obj 497 129 spigot;
#X obj 532 109 tgl 15 0 empty empty empty 0 -6 0 8 -262144 -1 -1 1
1;
#X obj 511 86 OSCroute /granny;
#X text 220 112 BACKEND: fem pan \; routing ui \; rick management;
#X obj 380 254 r OSC;
#X obj 379 432 unpack s f;
#X obj 380 293 list;
#X obj 373 468 symbol;
#N canvas 0 0 450 300 key 0;
#X obj 159 228 outlet;
#X obj 159 66 keyname;
#X obj 159 158 symbol;
#X obj 159 132 sel 1;
#X obj 159 104 spigot;
#X obj 217 104 r performance_mode;
#X msg 160 209 -1;
#X msg 183 208 1;
#X msg 203 210 -0.1;
#X msg 208 229 0.1;
#X obj 160 180 sel a s A S;
#X connect 1 0 4 0;
#X connect 1 1 2 1;
#X connect 2 0 10 0;
#X connect 3 0 2 0;
#X connect 4 0 3 0;
#X connect 5 0 4 1;
#X connect 6 0 0 0;
#X connect 7 0 0 0;
#X connect 8 0 0 0;
#X connect 9 0 0 0;
#X connect 10 0 6 0;
#X connect 10 1 7 0;
#X connect 10 2 8 0;
#X connect 10 3 9 0;
#X restore 468 412 pd key;
#X obj 434 470 f;
#X obj 457 439 t b b f;
#X obj 436 500 +;
#X obj 386 519 pack s f;
#X obj 380 274 OSCroute /learn;
#X obj 389 541 s OSC;
#X msg 380 311 \$2 \$1;
#X obj 380 371 mousefilter;
#X msg 379 410 list \$2 \$1;
#X obj 510 491 MouseState;
#X obj 461 502 spigot;
#X obj 380 329 zl slice 1;
#X obj 380 392 zl join;
#X obj 371 350 segregate;
#X obj 23 206 sendOSC;
#X obj 31 138 r OSC;
#X obj 31 160 list prepend send;
#X obj 32 180 list trim;
#X obj 46 289 dumpOSC 9998;
#X msg 23 118 connect localhost 9999;
#X obj 23 75 loadbang;
#X obj 46 316 s UI;
#X obj 162 226 r netsend;
#X msg 156 206 connect localhost 1999;
#X obj 163 302 netsend;
#X obj 162 249 list prepend send;
#X obj 163 280 list trim;
#X obj 264 306 r PM7VOL;
#X obj 265 349 s OSC;
#X msg 265 328 /fm/vol \$1;
#X obj 139 138 r init;
#X msg 139 161 /pd/dsp \$1;
#N canvas 0 0 450 300 color 0;
#X obj 181 27 inlet;
#X obj 185 112 s \$0-bgcnv;
#X obj 182 60 sel 0 1;
#X msg 235 81 color 22;
#X msg 181 88 color 1;
#X connect 0 0 2 0;
#X connect 2 0 4 0;
#X connect 2 1 3 0;
#X connect 3 0 1 0;
#X connect 4 0 1 0;
#X restore 513 222 pd color;
#X msg 184 330 disconnect;
#X obj 512 201 r performance_mode;
#N canvas 235 94 589 515 newtree 1;
#N canvas 181 -12 450 300 tree 1;
#X obj 153 16 inlet;
#X obj 266 216 outlet;
#N canvas 0 0 450 300 dblclk 0;
#X obj 147 20 inlet;
#X obj 147 45 select symbl;
#X obj 149 67 t b b;
#X obj 214 68 t b s;
#X obj 205 99 timer;
#X obj 205 123 < 200;
#X obj 149 99 symbol;
#X obj 149 138 spigot;
#X obj 152 165 outlet;
#X connect 0 0 1 0;
#X connect 1 0 2 0;
#X connect 1 1 3 0;
#X connect 2 0 6 0;
#X connect 2 1 4 1;
#X connect 3 0 4 0;
#X connect 3 1 1 1;
#X connect 3 1 6 1;
#X connect 4 0 5 0;
#X connect 5 0 7 1;
#X connect 6 0 7 0;
#X connect 7 0 8 0;
#X restore 153 40 pd dblclk;
#X obj 264 148 msgfile;
#X obj 264 191 prepend add;
#X msg 263 127 read /home/johannes/samples/samplelist \, flush;
#X obj 262 84 loadbang;
#X obj 263 105 delay 2000;
#X obj 153 59 makefilename /home/johannes/samples%s;
#N canvas 192 0 450 300 sendtoload 0;
#X obj 136 24 inlet;
#X obj 226 30 keyname;
#X obj 226 53 pack f s;
#X msg 227 75 \$2 \$1;
#X obj 222 104 route Shift_L;
#X obj 223 127 == 0;
#X obj 129 100 spigot 0;
#X obj 157 136 spigot 1;
#X obj 167 193 soundfile_info;
#X obj 139 159 t s s;
#X obj 98 192 pack s f;
#X obj 88 214 list prepend /samples/load/safe;
#X obj 53 238 list prepend /samples/load/unsafe;
#X msg 174 172 read \$1;
#X msg 149 193 \$3;
#X obj 61 268 s netsend;
#X connect 0 0 6 0;
#X connect 0 0 7 0;
#X connect 1 0 2 0;
#X connect 1 1 2 1;
#X connect 2 0 3 0;
#X connect 3 0 4 0;
#X connect 4 0 5 0;
#X connect 4 0 6 1;
#X connect 5 0 7 1;
#X connect 6 0 12 0;
#X connect 7 0 9 0;
#X connect 8 0 14 0;
#X connect 9 0 10 0;
#X connect 9 1 13 0;
#X connect 10 0 11 0;
#X connect 11 0 15 0;
#X connect 12 0 15 0;
#X connect 13 0 8 0;
#X connect 14 0 10 1;
#X restore 153 86 pd sendtoload;
#X connect 0 0 2 0;
#X connect 2 0 8 0;
#X connect 3 0 4 0;
#X connect 4 0 1 0;
#X connect 5 0 3 0;
#X connect 6 0 7 0;
#X connect 7 0 5 0;
#X connect 8 0 9 0;
#X restore 340 45 pd tree;
#X obj 53 37 widget tree sampletree -height 200 -bg pink;
#X connect 0 0 1 0;
#X connect 1 0 0 0;
#X restore 46 434 pd newtree;
#X connect 2 0 5 0;
#X connect 2 0 3 0;
#X connect 3 0 1 0;
#X connect 4 0 3 1;
#X connect 5 0 3 0;
#X connect 7 0 16 0;
#X connect 8 0 10 1;
#X connect 8 1 12 0;
#X connect 9 0 18 0;
#X connect 10 0 15 0;
#X connect 12 0 14 0;
#X connect 13 0 10 0;
#X connect 13 1 12 0;
#X connect 13 2 14 1;
#X connect 14 0 15 1;
#X connect 14 0 22 0;
#X connect 15 0 17 0;
#X connect 18 0 23 0;
#X connect 19 0 24 0;
#X connect 20 0 8 0;
#X connect 21 0 22 1;
#X connect 22 0 12 1;
#X connect 23 0 25 0;
#X connect 23 1 24 1;
#X connect 24 0 20 0;
#X connect 25 1 19 0;
#X connect 27 0 28 0;
#X connect 28 0 29 0;
#X connect 29 0 26 0;
#X connect 30 0 33 0;
#X connect 31 0 26 0;
#X connect 32 0 31 0;
#X connect 32 0 35 0;
#X connect 34 0 37 0;
#X connect 35 0 36 0;
#X connect 37 0 38 0;
#X connect 38 0 36 0;
#X connect 39 0 41 0;
#X connect 41 0 40 0;
#X connect 42 0 43 0;
#X connect 43 0 28 0;
#X connect 45 0 36 0;
#X connect 46 0 44 0;
#X restore 508 718 pd gutss;
#X msg 8 690 \; pd-gutss vis 1;
#X obj 662 543 routingui8 /granny;
#X obj 197 17 tgl 15 0 performance_mode empty perform! 0 -6 0 8 -262144
-1 -1 0 1;
#X obj 13 261 monui /fem1 r;
#X obj 13 285 monui /fem2 t;
#X obj 13 309 monui /fem3 y;
#X obj 13 333 monui /fem4 u;
#X obj 909 337 monui /granny1 f;
#X obj 909 363 monui /granny2 g;
#X obj 909 388 monui /granny3 h;
#X obj 909 414 monui /granny4 j;
#X obj 303 706 monui /pm7 m;
#X obj 40 220 monui /gloop1 v;
#X obj 144 220 monui /gloop2 b;
#X obj 248 220 monui /gloop3 n;
#X obj 165 705 cnv 15 100 15 empty empty empty 20 12 0 14 -233017 -66577
0;
#X obj 200 707 nbx 4 12 0 100 0 0 PM7VOL empty vol -20 7 1 8 -262144
-1 -1 0 256;
#X text 187 721 PM7VOL send;
#N canvas 0 0 450 300 key 0;
#X obj 159 228 outlet;
#X obj 159 66 keyname;
#X obj 159 158 symbol;
#X obj 159 132 sel 1;
#X obj 159 104 spigot;
#X obj 217 104 r performance_mode;
#X obj 160 180 sel z;
#X connect 1 0 4 0;
#X connect 1 1 2 1;
#X connect 2 0 6 0;
#X connect 3 0 2 0;
#X connect 4 0 3 0;
#X connect 5 0 4 1;
#X connect 6 0 0 0;
#X restore 559 670 pd key;
#X obj 35 2 cnv 15 100 60 empty empty empty 20 12 0 14 -233017 -66577
0;
#X text 44 5 keys:;
#X text 45 18 a \, s \, A \, S;
#X obj 416 21 popup 120 20 pink dir animals machines nature sthlm cittrasession
history speechsynth misc intenogot inuti o50505 welcomehome boogie
;
#N canvas 0 0 450 300 loc 0;
#X msg 187 119 location \$1;
#X obj 188 97 makefilename /home/johannes/samples/%s;
#X obj 186 53 inlet;
#X obj 180 160 outlet;
#X connect 0 0 3 0;
#X connect 1 0 0 0;
#X connect 2 0 1 0;
#X restore 328 43 pd loc;
#X obj 117 368 routingui /fem;
#X obj 719 164 routingui /adc3;
#X obj 720 68 routingui /adc12;
#X text 24 468 TODO: \; Modifyer keys \; bug checking \; better key
commands \;;
#X obj 253 17 tgl 15 0 empty empty cpu 0 -6 0 8 -262144 -1 -1 0 1;
#X obj 252 32 nbx 5 14 -1e+37 1e+37 0 0 empty empty empty 0 -6 0 10
-262144 -33289 -33289 0 256;
#N canvas 0 0 450 300 f 0;
#X obj 122 36 inlet;
#X obj 123 223 outlet;
#X obj 122 78 s OSC;
#X msg 122 58 /pd/cpuinfo \$1;
#X obj 124 127 r UI;
#X obj 123 154 route /ui/cpuinfo;
#X obj 206 197 > 90;
#X obj 207 234 sel 0 1;
#X obj 207 215 change;
#X msg 206 253 color 0 12 12;
#X msg 226 273 color 13 0 0;
#X obj 123 176 within 0 100;
#X connect 0 0 3 0;
#X connect 3 0 2 0;
#X connect 4 0 5 0;
#X connect 5 0 11 0;
#X connect 6 0 8 0;
#X connect 7 0 9 0;
#X connect 7 1 10 0;
#X connect 8 0 7 0;
#X connect 9 0 1 0;
#X connect 10 0 1 0;
#X connect 11 0 6 0;
#X connect 11 0 1 0;
#X restore 225 30 pd f;
#X connect 3 0 4 0;
#X connect 4 0 3 0;
#X connect 5 0 6 0;
#X connect 6 0 5 0;
#X connect 9 0 10 0;
#X connect 11 0 12 0;
#X connect 13 0 39 0;
#X connect 57 0 16 0;
#X connect 61 1 62 0;
#X connect 62 0 6 0;
#X connect 67 0 69 0;
#X connect 69 0 68 0;
