#N canvas 0 15 450 300 10;
#X obj 112 18 inlet;
#X obj 112 70 t a b;
#X obj 140 98 0;
#X obj 143 123 + 1;
#X obj 182 119 mod \$1;
#X obj 210 28 inlet;
#X msg 200 76 0;
#X obj 112 195 spigot;
#X obj 146 166 == \$1;
#X obj 113 216 outlet;
#X text 230 149 let through every x message;
#X obj 202 55 route reset;
#X obj 258 96 int;
#X obj 238 120 t f f;
#X connect 0 0 1 0;
#X connect 1 0 7 0;
#X connect 1 1 2 0;
#X connect 2 0 3 0;
#X connect 3 0 4 0;
#X connect 3 0 8 0;
#X connect 4 0 2 1;
#X connect 5 0 11 0;
#X connect 6 0 2 1;
#X connect 7 0 9 0;
#X connect 8 0 7 1;
#X connect 11 0 6 0;
#X connect 11 1 12 0;
#X connect 12 0 13 0;
#X connect 13 0 4 1;
#X connect 13 1 8 1;
