#N canvas 257 161 704 370 10;
#X obj 356 101 metro 100;
#X obj 356 125 random 100;
#X obj 356 145 moses 100;
#X msg 413 196 0;
#X msg 353 229 1;
#X obj 457 180 random 100;
#X obj 394 173 t b b b;
#X obj 352 210 delay 80;
#X obj 230 117 volctl~ 0 22;
#X obj 501 127 / 6;
#X obj 222 87 inlet~;
#X obj 411 38 inlet prob;
#X obj 510 63 inlet size;
#X obj 354 73 > 0;
#X obj 411 62 t f f;
#X obj 232 190 outlet~;
#X obj 457 199 / 100;
#X obj 457 219 + 0.5;
#X obj 531 127 * 3;
#X obj 462 154 *;
#X text 59 260 gapper~ tears up holes in signals. inlets are probability
and size of gap...;
#X obj 270 79 init 1;
#X connect 0 0 1 0;
#X connect 1 0 2 0;
#X connect 2 0 6 0;
#X connect 3 0 8 1;
#X connect 4 0 8 1;
#X connect 5 0 16 0;
#X connect 6 0 7 0;
#X connect 6 1 3 0;
#X connect 6 2 5 0;
#X connect 7 0 4 0;
#X connect 8 0 15 0;
#X connect 9 0 8 2;
#X connect 10 0 8 0;
#X connect 11 0 14 0;
#X connect 12 0 9 0;
#X connect 12 0 7 1;
#X connect 12 0 18 0;
#X connect 13 0 0 0;
#X connect 14 0 13 0;
#X connect 14 1 1 1;
#X connect 16 0 17 0;
#X connect 17 0 19 0;
#X connect 18 0 19 1;
#X connect 18 0 0 1;
#X connect 19 0 0 1;
#X connect 21 0 8 1;
