#N canvas 0 15 610 716 10;
#X obj 128 17 inlet;
#X obj 132 66 alternera;
#X obj 96 87 t b f;
#X obj 246 87 t b f;
#X obj 222 40 init 1;
#X obj 94 107 1;
#X obj 244 107 1;
#X obj 241 129 0;
#X obj 204 94 0;
#X obj 119 110 delread~ \$1 \$2;
#X obj 269 110 delread~ \$1 \$2;
#X obj 123 179 outlet~;
#X obj 119 142 volctl~ 0 3;
#X obj 268 147 volctl~ 0 3;
#X obj 131 43 speedlim 100;
#X text 74 202 a delread where change of del time is possible in realtime
\, without pitch shifting effects.;
#X connect 0 0 14 0;
#X connect 1 0 2 0;
#X connect 1 1 3 0;
#X connect 2 0 5 0;
#X connect 2 0 8 0;
#X connect 2 1 9 0;
#X connect 3 0 6 0;
#X connect 3 0 7 0;
#X connect 3 1 10 0;
#X connect 4 0 12 1;
#X connect 5 0 12 1;
#X connect 6 0 13 1;
#X connect 7 0 12 1;
#X connect 8 0 13 1;
#X connect 9 0 12 0;
#X connect 10 0 13 0;
#X connect 12 0 11 0;
#X connect 13 0 11 0;
#X connect 14 0 1 0;
