#N canvas 0 0 450 300 10;
#X obj 96 25 inlet~;
#X obj 98 178 outlet~;
#X obj 226 173 outlet~;
#X obj 143 106 * -1;
#X obj 144 125 + 1;
#X obj 210 21 inlet;
#X obj 227 126 volctl~ 0 10;
#X obj 97 146 volctl~ 0 10;
#X obj 276 62 init \$1;
#X connect 0 0 6 0;
#X connect 0 0 7 0;
#X connect 3 0 4 0;
#X connect 4 0 7 1;
#X connect 5 0 6 1;
#X connect 5 0 3 0;
#X connect 6 0 2 0;
#X connect 7 0 1 0;
#X connect 8 0 6 1;
#X connect 8 0 3 0;
