#N canvas 0 0 450 300 10;
#X obj 163 20 inlet;
#X obj 163 40 0;
#X obj 165 64 + 1;
#X obj 164 90 % 2;
#X obj 166 117 outlet;
#X connect 0 0 1 0;
#X connect 1 0 2 0;
#X connect 2 0 3 0;
#X connect 3 0 1 1;
#X connect 3 0 4 0;
