#N canvas 0 15 661 716 10;
#X text 16 453 a library of windows \, eg for use in granular synthesis.
the maths behind are a combination of googling equations and pure chance.
;
#X text 19 495 please supply window length (perhaps 512) as creation
arg.;
#X text 17 564 Johannes Burstrom march 2006;
#X text 19 524 the arrays have the following name scheme: \$1-win.[name]
\, that is \, eg a hann window with length of 512: 512-win.hann;
#X obj 43 26 loadbang;
#N canvas 0 15 610 716 math 0;
#X obj 150 27 inlet;
#X obj 150 51 * 6.28319;
#X text 216 52 2*pi;
#X obj 150 73 cos;
#X obj 150 94 * -0.5;
#X obj 150 140 outlet;
#X obj 150 117 + 0.5;
#X connect 0 0 1 0;
#X connect 1 0 3 0;
#X connect 3 0 4 0;
#X connect 4 0 6 0;
#X connect 6 0 5 0;
#X restore 410 106 pd math;
#N canvas 0 15 610 716 math 0;
#X obj 150 27 inlet;
#X obj 150 50 * 6.28319;
#X text 216 50 2*pi;
#X obj 150 73 cos;
#X obj 150 96 * -0.5;
#X obj 150 251 outlet;
#X obj 150 119 + 0.5;
#X obj 150 150 sqrt;
#X obj 150 170 sqrt;
#X connect 0 0 1 0;
#X connect 1 0 3 0;
#X connect 3 0 4 0;
#X connect 4 0 6 0;
#X connect 6 0 7 0;
#X connect 7 0 8 0;
#X connect 8 0 5 0;
#X restore 411 126 pd math;
#N canvas 0 15 610 716 math 0;
#X obj 150 27 inlet;
#X obj 150 50 * 6.28319;
#X text 216 50 2*pi;
#X obj 150 73 cos;
#X obj 150 96 * -0.5;
#X obj 150 251 outlet;
#X obj 150 119 + 0.5;
#X obj 150 150 t f f;
#X obj 150 197 t f f;
#X obj 150 173 *;
#X obj 150 220 *;
#X connect 0 0 1 0;
#X connect 1 0 3 0;
#X connect 3 0 4 0;
#X connect 4 0 6 0;
#X connect 6 0 7 0;
#X connect 7 0 9 0;
#X connect 7 1 9 1;
#X connect 8 0 10 0;
#X connect 8 1 10 1;
#X connect 9 0 8 0;
#X connect 10 0 5 0;
#X restore 411 146 pd math;
#N canvas 0 15 610 716 math 0;
#X obj 150 7 inlet;
#X obj 150 50 * 6.28319;
#X text 216 50 2*pi;
#X obj 150 73 cos;
#X obj 150 96 * -0.5;
#X obj 150 251 outlet;
#X obj 150 119 + 0.5;
#X obj 150 143 sqrt;
#X obj 150 163 sqrt;
#X obj 150 219 *;
#X obj 150 28 t f f;
#X connect 0 0 10 0;
#X connect 1 0 3 0;
#X connect 3 0 4 0;
#X connect 4 0 6 0;
#X connect 6 0 7 0;
#X connect 7 0 8 0;
#X connect 8 0 9 0;
#X connect 9 0 5 0;
#X connect 10 0 1 0;
#X connect 10 1 9 1;
#X restore 411 166 pd math;
#N canvas 0 15 610 716 math 0;
#X obj 150 7 inlet;
#X obj 150 50 * 6.28319;
#X text 216 50 2*pi;
#X obj 150 73 cos;
#X obj 150 96 * -0.5;
#X obj 150 271 outlet;
#X obj 150 119 + 0.5;
#X obj 150 143 sqrt;
#X obj 150 163 sqrt;
#X obj 150 239 *;
#X obj 150 28 t f f;
#X obj 178 185 * -1;
#X obj 178 204 + 1;
#X connect 0 0 10 0;
#X connect 1 0 3 0;
#X connect 3 0 4 0;
#X connect 4 0 6 0;
#X connect 6 0 7 0;
#X connect 7 0 8 0;
#X connect 8 0 9 0;
#X connect 9 0 5 0;
#X connect 10 0 1 0;
#X connect 10 1 11 0;
#X connect 11 0 12 0;
#X connect 12 0 9 1;
#X restore 411 186 pd math;
#X msg 264 373 \; \$1 normalize;
#X msg 309 413 \; \$1 normalize;
#N canvas 0 15 610 716 math 0;
#X obj 150 7 inlet;
#X obj 150 191 outlet;
#X obj 150 28 t f f f;
#X obj 186 117 -;
#X obj 151 165 max 0;
#X obj 150 70 moses 1;
#X obj 149 49 * 2;
#X msg 185 93 1.99998 \$1;
#X connect 0 0 2 0;
#X connect 2 0 6 0;
#X connect 3 0 4 0;
#X connect 4 0 1 0;
#X connect 5 0 4 0;
#X connect 5 1 7 0;
#X connect 6 0 5 0;
#X connect 7 0 3 0;
#X restore 411 206 pd math;
#N canvas 0 15 610 716 math 0;
#X obj 150 7 inlet;
#X obj 150 294 outlet;
#X obj 150 28 t f f f;
#X obj 150 50 * 2;
#X obj 150 135 wrap;
#X obj 150 155 * 6.28319;
#X obj 150 177 cos;
#X obj 150 198 * -0.5;
#X obj 150 218 + 0.5;
#X obj 150 71 moses 0.5;
#X obj 201 92 moses 1.5;
#X msg 165 94 0.5;
#X connect 0 0 2 0;
#X connect 2 0 3 0;
#X connect 3 0 9 0;
#X connect 4 0 5 0;
#X connect 5 0 6 0;
#X connect 6 0 7 0;
#X connect 7 0 8 0;
#X connect 8 0 1 0;
#X connect 9 0 4 0;
#X connect 9 1 10 0;
#X connect 10 0 11 0;
#X connect 10 1 4 0;
#X connect 11 0 4 0;
#X restore 411 226 pd math;
#N canvas 0 15 610 716 math 0;
#X obj 150 7 inlet;
#X obj 150 28 t f f f;
#X text 187 122 i really have no clue about this \, but it sure looks
good;
#X obj 150 119 * 16;
#X obj 150 163 *;
#X obj 150 185 * 2;
#X obj 206 141 expr max(0 \, (exp($f1*2) / exp(2)) - 0.135);
#X obj 150 294 outlet;
#X obj 150 140 clip 0 1;
#X obj 150 73 * -1;
#X floatatom 210 66 5 0 0 0 - - -;
#X obj 149 94 + 0.99999;
#X connect 0 0 1 0;
#X connect 1 0 9 0;
#X connect 1 1 6 0;
#X connect 1 2 10 0;
#X connect 3 0 8 0;
#X connect 4 0 5 0;
#X connect 5 0 7 0;
#X connect 6 0 4 1;
#X connect 8 0 4 0;
#X connect 9 0 11 0;
#X connect 11 0 3 0;
#X restore 411 246 pd math;
#N canvas 0 15 610 716 math 0;
#X obj 150 7 inlet;
#X obj 150 294 outlet;
#X text 187 128 i really have no clue about this \, but it sure looks
good;
#X obj 150 125 * 16;
#X obj 150 169 *;
#X obj 150 191 * 2;
#X obj 150 146 clip 0 1;
#X obj 150 28 t f f;
#X obj 210 109 expr max(0 \, (exp(($f1*-2) + 2) / exp(2)) - 0.135)
;
#X connect 0 0 7 0;
#X connect 3 0 6 0;
#X connect 4 0 5 0;
#X connect 5 0 1 0;
#X connect 6 0 4 0;
#X connect 7 0 3 0;
#X connect 7 1 8 0;
#X connect 8 0 4 1;
#X restore 411 266 pd math;
#N canvas 0 15 610 716 math 0;
#X obj 150 7 inlet;
#X obj 150 332 outlet;
#X obj 150 50 * 8;
#X obj 150 71 - 4;
#X obj 150 91 expr ($f1*3.14159265354);
#X obj 150 111 expr if (($f1 == 0) \, 1 \, sin($f1)) \; if (($f1 ==
0) \, 1 \, $f1);
#X obj 150 146 /;
#X obj 176 209 expr min(1 \, max( 0 \, min(1 \, ((min(1 \, $f1 * 2))
- $f1) * 40) - 0.08) * 1.087);
#X obj 150 256 *;
#X obj 150 28 t f f;
#X connect 0 0 9 0;
#X connect 2 0 3 0;
#X connect 3 0 4 0;
#X connect 4 0 5 0;
#X connect 5 0 6 0;
#X connect 5 1 6 1;
#X connect 6 0 8 0;
#X connect 7 0 8 1;
#X connect 8 0 1 0;
#X connect 9 0 2 0;
#X connect 9 1 7 0;
#X restore 411 286 pd math;
#X obj 157 286 mywindowing-cell \$1-win.sinc \$1;
#X obj 157 106 mywindowing-cell \$1-win.hann \$1;
#X obj 157 126 mywindowing-cell \$1-win.fourthrootsine \$1;
#X obj 157 146 mywindowing-cell \$1-win.quarticsine \$1;
#X obj 157 166 mywindowing-cell \$1-win.rpear \$1;
#X obj 157 186 mywindowing-cell \$1-win.pear \$1;
#X obj 157 206 mywindowing-cell \$1-win.triangle \$1;
#X obj 157 226 mywindowing-cell \$1-win.quasigaussian \$1;
#X obj 157 246 mywindowing-cell \$1-win.rexpodec \$1;
#X obj 157 266 mywindowing-cell \$1-win.expodec \$1;
#X obj 34 45 t b b b b b b b b b b;
#X obj 34 3 r mywindowing2-singleton-loadbang;
#X connect 4 0 27 0;
#X connect 5 0 18 1;
#X connect 6 0 19 1;
#X connect 7 0 20 1;
#X connect 8 0 21 1;
#X connect 9 0 22 1;
#X connect 12 0 23 1;
#X connect 13 0 24 1;
#X connect 14 0 25 1;
#X connect 15 0 26 1;
#X connect 16 0 17 1;
#X connect 17 1 16 0;
#X connect 18 1 5 0;
#X connect 19 1 6 0;
#X connect 20 1 7 0;
#X connect 21 0 11 0;
#X connect 21 1 8 0;
#X connect 22 0 10 0;
#X connect 22 1 9 0;
#X connect 23 1 12 0;
#X connect 24 1 13 0;
#X connect 25 1 14 0;
#X connect 26 1 15 0;
#X connect 27 0 17 0;
#X connect 27 1 26 0;
#X connect 27 2 25 0;
#X connect 27 3 24 0;
#X connect 27 4 23 0;
#X connect 27 5 22 0;
#X connect 27 6 21 0;
#X connect 27 7 20 0;
#X connect 27 8 19 0;
#X connect 27 9 18 0;
#X connect 28 0 27 0;
