#N canvas 0 15 610 716 10;
#X obj 43 6 inlet;
#N canvas 0 15 610 716 until 0;
#X obj 167 339 until;
#X obj 167 243 inlet;
#X obj 168 362 f;
#X obj 196 363 + 1;
#X msg 266 323 0;
#X obj 167 268 t b b;
#X obj 168 408 outlet;
#X obj 167 289 \$2;
#X connect 0 0 2 0;
#X connect 1 0 5 0;
#X connect 2 0 3 0;
#X connect 2 0 6 0;
#X connect 3 0 2 1;
#X connect 4 0 2 1;
#X connect 5 0 7 0;
#X connect 5 1 4 0;
#X connect 7 0 0 0;
#X restore 43 98 pd until;
#X obj 152 251 + 1;
#X obj 45 121 t a a;
#X obj 45 146 * 1.00195;
#X text 110 146 help last sample be 0;
#X text 108 167 range = 0-1;
#X obj 65 193 outlet;
#X obj 65 217 inlet;
#X obj 65 275 tabwrite \$1;
#X obj 328 85 table \$1 \$2;
#X obj 45 166 / \$2;
#X obj 109 27 symbol \$1;
#X obj 43 32 t b b b;
#X obj 174 26 \$2;
#X obj 112 109 pack s f;
#X obj 169 47 + 3;
#X obj 16 67 t b b;
#X obj 16 303 symbol \$1;
#X obj 16 329 outlet;
#X msg 217 27 \; \$1 const 0 \; \$1 resize \$2 \;;
#X connect 0 0 13 0;
#X connect 1 0 3 0;
#X connect 2 0 9 1;
#X connect 3 0 4 0;
#X connect 3 1 2 0;
#X connect 4 0 11 0;
#X connect 8 0 9 0;
#X connect 11 0 7 0;
#X connect 12 0 15 0;
#X connect 13 0 17 0;
#X connect 13 1 12 0;
#X connect 13 2 14 0;
#X connect 14 0 16 0;
#X connect 15 0 20 0;
#X connect 16 0 15 1;
#X connect 17 0 18 0;
#X connect 17 1 1 0;
#X connect 18 0 19 0;
