#N canvas 0 15 589 693 10;
#N canvas 0 0 742 523 quarticsine 0;
#X obj 113 192 osc~;
#X obj 69 137 samplerate~;
#X obj 114 236 +~ 0.5;
#X obj 62 108 t b b b;
#X obj 60 61 inlet;
#X obj 114 213 *~ -0.5;
#X msg 110 159 0;
#X obj 49 86 t b b;
#X obj 106 272 *~;
#X obj 104 302 *~;
#X obj 68 161 / \$1;
#X obj 297 248 table \$1-win.quarticsine \$1;
#X obj 33 405 tabwrite~ \$1-win.quarticsine;
#X connect 0 0 5 0;
#X connect 1 0 10 0;
#X connect 2 0 8 0;
#X connect 2 0 8 1;
#X connect 3 0 12 0;
#X connect 3 1 1 0;
#X connect 3 2 6 0;
#X connect 4 0 7 0;
#X connect 5 0 2 0;
#X connect 6 0 0 1;
#X connect 7 1 3 0;
#X connect 8 0 9 0;
#X connect 8 0 9 1;
#X connect 9 0 12 0;
#X connect 10 0 0 0;
#X restore 230 128 pd quarticsine;
#N canvas 171 288 541 306 fourthrootsine 0;
#X msg 156 65 0;
#X obj 94 121 osc~;
#X obj 50 66 samplerate~;
#X obj 95 165 +~ 0.5;
#X obj 43 16 inlet;
#X obj 95 142 *~ -0.5;
#X obj 87 201 sqrt~;
#X obj 85 221 sqrt~;
#X obj 43 37 t b b b b;
#X obj 139 88 \$1;
#X obj 140 109 - 1;
#X obj 50 90 /;
#X text 132 126 window size -1 \, to get 0 in both ends;
#X obj 28 270 tabwrite~ \$1-win.fourthrootsine;
#X obj 269 88 table \$1-win.fourthrootsine \$1;
#X connect 0 0 1 1;
#X connect 1 0 5 0;
#X connect 2 0 11 0;
#X connect 3 0 6 0;
#X connect 4 0 8 0;
#X connect 5 0 3 0;
#X connect 6 0 7 0;
#X connect 7 0 13 0;
#X connect 8 0 13 0;
#X connect 8 1 2 0;
#X connect 8 2 0 0;
#X connect 8 3 9 0;
#X connect 9 0 10 0;
#X connect 10 0 11 1;
#X connect 11 0 1 0;
#X restore 230 111 pd fourthrootsine;
#N canvas 410 106 742 523 triangle 0;
#X obj 69 137 samplerate~;
#X obj 60 61 inlet;
#X msg 110 159 0;
#X obj 35 213 phasor~;
#X obj 30 341 -~;
#X obj 46 237 clip~ 0 0.5;
#X obj 46 262 *~ 2;
#X obj 181 292 threshold~ 0.9 0 0.1 1;
#X obj 261 187 switch~;
#X msg 261 125 1;
#X msg 181 319 0;
#X obj 62 108 t b b b b;
#X obj 31 367 *~ 2;
#X obj 140 180 \$1;
#X obj 140 201 - 1;
#X obj 69 161 /;
#X text 143 219 window size -1 \, to get 0 in both ends;
#X obj 84 419 tabwrite~ \$1-win.triangle;
#X obj 297 248 table \$1-win.triangle \$1;
#X connect 0 0 15 0;
#X connect 1 0 11 0;
#X connect 2 0 3 1;
#X connect 3 0 5 0;
#X connect 3 0 4 1;
#X connect 3 0 7 0;
#X connect 4 0 12 0;
#X connect 5 0 6 0;
#X connect 6 0 4 0;
#X connect 7 0 10 0;
#X connect 9 0 8 0;
#X connect 10 0 8 0;
#X connect 11 0 17 0;
#X connect 11 1 0 0;
#X connect 11 2 2 0;
#X connect 11 3 9 0;
#X connect 11 3 13 0;
#X connect 12 0 17 0;
#X connect 13 0 14 0;
#X connect 14 0 15 1;
#X connect 15 0 3 0;
#X restore 230 179 pd triangle;
#N canvas 0 15 589 693 hann 0;
#X msg 156 55 0;
#X obj 50 104 osc~;
#X obj 50 56 samplerate~;
#X obj 50 127 *~ -0.5;
#X obj 50 150 +~ 0.5;
#X obj 43 27 t b b b;
#X obj 50 80 / \$1;
#X obj 43 6 inlet;
#X obj 328 85 table \$1-win.hann \$1;
#X obj 44 175 tabwrite~ \$1-win.hann;
#X connect 0 0 1 1;
#X connect 1 0 3 0;
#X connect 2 0 6 0;
#X connect 3 0 4 0;
#X connect 4 0 9 0;
#X connect 5 0 9 0;
#X connect 5 1 2 0;
#X connect 5 2 0 0;
#X connect 6 0 1 0;
#X connect 7 0 5 0;
#X restore 230 94 pd hann;
#X obj 230 62 bang;
#X obj 34 45 t b b;
#X obj 34 118 samplerate~;
#X obj 34 163 phasor~;
#X obj 34 142 / \$1;
#X obj 34 75 t b b b;
#X obj 79 96 1;
#X obj 52 96 0;
#X obj 150 113 switch~;
#X obj 36 193 threshold~ 0.9 0 0.1 1;
#N canvas 0 0 742 523 quasigaussian 0;
#X obj 69 137 samplerate~;
#X obj 45 417 +~ 0.5;
#X obj 62 108 t b b b;
#X obj 60 61 inlet;
#X obj 45 394 *~ -0.5;
#X msg 110 159 0;
#X obj 49 86 t b b;
#X obj 113 423 samphold~;
#X obj 47 353 cos~;
#X obj 53 255 phasor~;
#X obj 152 361 wrap~;
#X obj 152 340 *~ -1;
#X obj 152 382 clip~ 0 0.5;
#X obj 152 320 +~ 0.75;
#X obj 55 323 wrap~;
#X obj 52 290 *~ 2;
#X obj 69 161 / \$1;
#X obj 296 248 table \$1-win.quasigaussian \$1;
#X obj 35 460 tabwrite~ \$1-win.quasigaussian;
#X connect 0 0 16 0;
#X connect 1 0 7 0;
#X connect 2 0 18 0;
#X connect 2 1 0 0;
#X connect 2 2 5 0;
#X connect 3 0 6 0;
#X connect 4 0 1 0;
#X connect 5 0 9 1;
#X connect 6 1 2 0;
#X connect 7 0 18 0;
#X connect 8 0 4 0;
#X connect 9 0 13 0;
#X connect 9 0 15 0;
#X connect 10 0 12 0;
#X connect 11 0 10 0;
#X connect 12 0 7 1;
#X connect 13 0 11 0;
#X connect 14 0 8 0;
#X connect 15 0 14 0;
#X connect 16 0 9 0;
#X restore 230 196 pd quasigaussian;
#N canvas 0 15 589 693 pear 0;
#X obj 113 192 osc~;
#X obj 69 137 samplerate~;
#X obj 114 236 +~ 0.5;
#X obj 60 61 inlet;
#X obj 56 194 phasor~;
#X obj 114 213 *~ -0.5;
#X obj 106 272 sqrt~;
#X obj 104 302 sqrt~;
#X msg 110 159 0;
#X obj 68 335 *~;
#X obj 49 86 t b b;
#X obj 56 226 *~ -1;
#X obj 57 251 +~ 1;
#X obj 181 292 threshold~ 0.9 0 0.1 1;
#X obj 261 187 switch~;
#X msg 261 125 1;
#X msg 181 319 0;
#X obj 62 108 t b b b b;
#X obj 69 161 / \$1;
#X obj 211 321 \$1;
#X obj 33 405 tabwrite~ \$1-win.pear;
#X obj 297 248 table \$1-win.pear \$1;
#X msg 210 341 \; \$1-win.pear normalize;
#X connect 0 0 5 0;
#X connect 1 0 18 0;
#X connect 2 0 6 0;
#X connect 3 0 10 0;
#X connect 4 0 11 0;
#X connect 4 0 13 0;
#X connect 5 0 2 0;
#X connect 6 0 7 0;
#X connect 7 0 9 1;
#X connect 8 0 4 1;
#X connect 8 0 0 1;
#X connect 9 0 20 0;
#X connect 10 1 17 0;
#X connect 11 0 12 0;
#X connect 12 0 9 0;
#X connect 13 0 16 0;
#X connect 13 0 19 0;
#X connect 15 0 14 0;
#X connect 16 0 14 0;
#X connect 17 0 20 0;
#X connect 17 1 1 0;
#X connect 17 2 8 0;
#X connect 17 3 15 0;
#X connect 18 0 0 0;
#X connect 18 0 4 0;
#X connect 19 0 22 0;
#X restore 230 162 pd pear;
#N canvas 267 239 742 523 rpear 0;
#X obj 113 192 osc~;
#X obj 69 137 samplerate~;
#X obj 114 236 +~ 0.5;
#X obj 60 61 inlet;
#X obj 56 194 phasor~;
#X obj 114 213 *~ -0.5;
#X obj 106 272 sqrt~;
#X obj 104 302 sqrt~;
#X msg 110 159 0;
#X obj 68 335 *~;
#X obj 49 86 t b b;
#X obj 181 292 threshold~ 0.9 0 0.1 1;
#X obj 62 108 t b b b b;
#X obj 213 318 \$1;
#X obj 367 218 table \$1-win.rpear \$1;
#X msg 215 339 \; \$1-win.rpear normalize;
#X obj 33 405 tabwrite~ \$1-win.rpear;
#X obj 155 141 \$1;
#X obj 150 163 - 1;
#X obj 70 161 /;
#X connect 0 0 5 0;
#X connect 1 0 19 0;
#X connect 2 0 6 0;
#X connect 3 0 10 0;
#X connect 4 0 9 0;
#X connect 4 0 11 0;
#X connect 5 0 2 0;
#X connect 6 0 7 0;
#X connect 7 0 9 1;
#X connect 8 0 4 1;
#X connect 8 0 0 1;
#X connect 9 0 16 0;
#X connect 10 1 12 0;
#X connect 11 0 13 0;
#X connect 12 0 16 0;
#X connect 12 1 1 0;
#X connect 12 2 8 0;
#X connect 12 3 17 0;
#X connect 13 0 15 0;
#X connect 17 0 18 0;
#X connect 18 0 19 1;
#X connect 19 0 0 0;
#X connect 19 0 4 0;
#X restore 230 145 pd rpear;
#N canvas 0 15 589 693 rexpodec 0;
#X obj 69 137 samplerate~;
#X obj 62 108 t b b b;
#X obj 60 61 inlet;
#X msg 110 159 0;
#X obj 58 86 t b b;
#X obj 53 255 phasor~;
#X obj 59 468 *~;
#X obj 173 423 max~ 0;
#X obj 58 435 clip~ 0 1;
#X obj 246 182 table \$1-win.rexpodec \$1;
#X obj 37 525 tabwrite~ \$1-win.rexpodec;
#X text 266 383 i really have no clue about this \, but it sure looks
good;
#X obj 69 161 / \$1;
#X text 95 275 this is kind of a workaround \, (table[511] * -1) +
1 seems to be 0.002;
#X obj 164 377 /~;
#X obj 61 313 expr~ (($v1 * -1) +1) - 0.002;
#X obj 132 345 expr~ exp($v1*2);
#X obj 190 367 expr~ exp(2);
#X obj 170 404 -~ 0.135;
#X text 56 389 controls fadeout;
#X obj 17 388 *~ 16;
#X obj 57 498 *~ 2;
#X connect 0 0 12 0;
#X connect 1 0 10 0;
#X connect 1 1 0 0;
#X connect 1 2 3 0;
#X connect 2 0 4 0;
#X connect 3 0 5 1;
#X connect 4 1 1 0;
#X connect 5 0 15 0;
#X connect 5 0 16 0;
#X connect 5 0 17 0;
#X connect 6 0 21 0;
#X connect 7 0 6 1;
#X connect 8 0 6 0;
#X connect 12 0 5 0;
#X connect 14 0 18 0;
#X connect 15 0 20 0;
#X connect 16 0 14 0;
#X connect 17 0 14 1;
#X connect 18 0 7 0;
#X connect 20 0 8 0;
#X connect 21 0 10 0;
#X restore 230 213 pd rexpodec;
#N canvas 0 15 589 693 expodec 0;
#X obj 69 137 samplerate~;
#X obj 62 108 t b b b;
#X obj 60 61 inlet;
#X msg 110 159 0;
#X obj 58 86 t b b;
#X obj 53 255 phasor~;
#X obj 97 425 *~;
#X obj 152 398 max~ 0;
#X obj 297 248 table \$1-win.expodec \$1;
#X obj 41 493 tabwrite~ \$1-win.expodec;
#X obj 69 161 / \$1;
#X obj 151 357 /~;
#X obj 151 321 expr~ exp($v1*4+1);
#X obj 150 297 +~ 1;
#X obj 149 275 *~ -1;
#X obj 216 341 expr~ (exp(4+1));
#X obj 152 377 -~ 0.019;
#X obj 62 331 *~ 16;
#X obj 63 390 clip~ 0 1;
#X obj 97 449 *~ 2;
#X text 130 447 increase amplitude;
#X connect 0 0 10 0;
#X connect 1 0 9 0;
#X connect 1 1 0 0;
#X connect 1 2 3 0;
#X connect 2 0 4 0;
#X connect 3 0 5 1;
#X connect 4 1 1 0;
#X connect 5 0 14 0;
#X connect 5 0 17 0;
#X connect 6 0 19 0;
#X connect 7 0 6 1;
#X connect 10 0 5 0;
#X connect 11 0 16 0;
#X connect 12 0 11 0;
#X connect 13 0 12 0;
#X connect 13 0 15 0;
#X connect 14 0 13 0;
#X connect 15 0 11 1;
#X connect 16 0 7 0;
#X connect 17 0 18 0;
#X connect 18 0 6 0;
#X connect 19 0 9 0;
#X restore 230 230 pd expodec;
#N canvas 29 74 809 671 sinc 0;
#X obj 69 137 samplerate~;
#X obj 62 108 t b b b;
#X obj 60 61 inlet;
#X msg 110 159 0;
#X obj 58 86 t b b;
#X obj 53 255 phasor~;
#X obj 53 276 *~ 8;
#X obj 53 298 -~ 4;
#X obj 54 320 expr~ ($v1*3.14159265354);
#X obj 93 380 expr~ min(1 \, max( 0 \, min(1 \, ((min(1 \, $v1 * 2))
- $v1) * 40) - 0.08) * 1.087);
#X obj 297 248 table \$1-win.sinc \$1;
#X obj 25 541 tabwrite~ \$1-win.sinc;
#X obj 69 161 / \$1;
#X obj 45 416 expr~ if (($v1 == 0) \, 1 \, sin($v1));
#X obj 48 494 *~;
#X obj 50 473 /~;
#X obj 65 446 expr~ if (($v1 == 0) \, 1 \, $v1);
#X connect 0 0 12 0;
#X connect 1 0 11 0;
#X connect 1 1 0 0;
#X connect 1 2 3 0;
#X connect 2 0 4 0;
#X connect 3 0 5 1;
#X connect 4 1 1 0;
#X connect 5 0 6 0;
#X connect 5 0 9 0;
#X connect 6 0 7 0;
#X connect 7 0 8 0;
#X connect 8 0 13 0;
#X connect 8 0 16 0;
#X connect 9 0 14 1;
#X connect 12 0 5 0;
#X connect 13 0 15 0;
#X connect 14 0 11 0;
#X connect 15 0 14 0;
#X connect 16 0 15 1;
#X restore 230 247 pd sinc;
#X text 14 325 a library of windows \, eg for use in granular synthesis.
the maths behind are a combination of googling equations and pure chance.
;
#X text 14 369 please supply window length (perhaps 512) as creation
arg.;
#X text 12 438 Johannes Burstrom march 2006;
#X text 14 398 the arrays have the following name scheme: \$1-win.[name]
\, that is \, eg a hann window with length of 512: 512-win.hann;
#X obj 237 38 bng 15 250 50 0 empty empty empty 0 -6 0 8 -262144 -1
-1;
#X obj 140 208 0;
#X obj 140 227 + 1;
#X obj 95 228 sel 2;
#X msg 139 247 0;
#X obj 43 26 loadbang;
#X obj 43 225 0;
#X obj 34 3 r mywindowing-singleton-loadbang;
#X connect 4 0 3 0;
#X connect 4 0 1 0;
#X connect 4 0 0 0;
#X connect 4 0 16 0;
#X connect 4 0 15 0;
#X connect 4 0 2 0;
#X connect 4 0 14 0;
#X connect 4 0 18 0;
#X connect 4 0 17 0;
#X connect 4 0 19 0;
#X connect 5 0 9 0;
#X connect 5 1 4 0;
#X connect 6 0 8 0;
#X connect 7 0 13 0;
#X connect 8 0 7 0;
#X connect 9 0 6 0;
#X connect 9 1 11 0;
#X connect 9 2 10 0;
#X connect 10 0 12 0;
#X connect 11 0 7 1;
#X connect 13 1 25 0;
#X connect 24 0 5 0;
#X connect 25 0 26 0;
#X connect 26 0 25 1;
#X connect 26 0 27 0;
#X connect 27 0 28 0;
#X connect 27 0 30 0;
#X connect 28 0 25 1;
#X connect 29 0 5 0;
#X connect 30 0 12 0;
#X connect 31 0 5 0;
