#N canvas 0 15 610 716 10;
#X obj 144 23 inlet;
#X obj 224 63 samplerate~;
#X obj 224 42 loadbang;
#X msg 143 112 1 \$1;
#X obj 143 139 /;
#X obj 143 162 outlet;
#X obj 143 87 / 48000;
#X obj 78 51 route bang;
#X obj 86 84 \$1;
#X obj 224 14 inlet;
#X connect 0 0 7 0;
#X connect 1 0 6 1;
#X connect 2 0 1 0;
#X connect 3 0 4 0;
#X connect 4 0 5 0;
#X connect 6 0 3 0;
#X connect 7 0 8 0;
#X connect 7 1 8 0;
#X connect 8 0 6 0;
#X connect 9 0 6 1;
