#N canvas 252 158 607 340 10;
#X obj 121 70 inlet~;
#X obj 123 103 *~;
#X obj 317 69 inlet interpolation_time;
#X obj 198 68 inlet factor;
#X obj 126 135 outlet~;
#X obj 198 106 pack \$1 \$2;
#X obj 195 141 vline~;
#X connect 0 0 1 0;
#X connect 1 0 4 0;
#X connect 2 0 5 1;
#X connect 3 0 5 0;
#X connect 5 0 6 0;
#X connect 6 0 1 1;
