#N canvas 0 15 450 300 10;
#X obj 138 34 inlet;
#X obj 136 61 max \$1;
#X obj 134 84 min \$2;
#X obj 133 112 outlet;
#X obj 236 19 \$2;
#X obj 236 69 \$2;
#X obj 340 45 loadbang;
#X obj 236 91 max \$1;
#X obj 236 41 min \$1;
#X connect 0 0 1 0;
#X connect 1 0 2 0;
#X connect 2 0 3 0;
#X connect 4 0 8 0;
#X connect 5 0 7 0;
#X connect 6 0 4 0;
#X connect 6 0 5 0;
#X connect 7 0 2 1;
#X connect 8 0 1 1;
